<svg width="32" height="26" viewBox="0 0 32 26" fill="none" xmlns="http://www.w3.org/2000/svg">
<mask id="path-1-outside-1_916_21361" maskUnits="userSpaceOnUse" x="0" y="0" width="26" height="21" fill="black">
<rect fill="white" width="26" height="21"/>
<path fill-rule="evenodd" clip-rule="evenodd" d="M3.13692 4.72636C3.06628 4.72636 3.0133 4.74402 2.96031 4.77934C2.85435 4.83233 2.73073 4.90297 2.64243 5.00893C2.55412 5.09723 2.46582 5.2032 2.41284 5.32682C2.39518 5.3798 2.37752 5.43278 2.35986 5.48576C2.3422 5.53875 2.3422 5.59173 2.3422 5.64471V8.13484L12.1261 10.8192C12.1791 10.8192 12.2497 10.8192 12.3027 10.8192H14.3867C14.4573 10.8192 14.5103 10.8192 14.5809 10.8192L24.3472 8.1525V5.64471C24.3472 5.59173 24.3472 5.53875 24.3295 5.48576C24.3118 5.43278 24.2942 5.3798 24.2765 5.32682C24.2235 5.2032 24.1352 5.09723 24.0469 5.00893C23.941 4.90297 23.835 4.83233 23.7114 4.77934C23.6584 4.74402 23.6054 4.72636 23.5524 4.72636C23.4995 4.7087 23.4465 4.7087 23.3935 4.7087H3.2782C3.22522 4.7087 3.17224 4.7087 3.13692 4.72636ZM2.3422 17.7951C2.3422 17.8304 2.3422 17.8834 2.35986 17.9364C2.37752 17.9894 2.39518 18.0424 2.41284 18.0954C2.46582 18.219 2.55412 18.3426 2.64243 18.4309C2.74839 18.5192 2.85435 18.6075 2.97797 18.6605C3.03096 18.6958 3.08394 18.7135 3.13692 18.7135C3.17224 18.7311 3.22522 18.7488 3.2782 18.7488H23.3935C23.4465 18.7488 23.4995 18.7311 23.5348 18.7135C23.6054 18.7135 23.6584 18.6958 23.7114 18.6605C23.835 18.6075 23.941 18.5192 24.0293 18.4309C24.1352 18.3249 24.2059 18.219 24.2765 18.0954C24.2942 18.0424 24.3118 17.9894 24.3295 17.9364C24.3472 17.8834 24.3472 17.8304 24.3472 17.7951V9.54768L15.8348 11.8612C15.8525 11.9142 15.8701 11.9672 15.8878 12.0025C15.9055 12.1084 15.9231 12.2144 15.9231 12.338V12.9385C15.9231 13.0445 15.9055 13.1504 15.8878 13.2564C15.8525 13.3447 15.8348 13.433 15.7818 13.5389C15.7112 13.6979 15.5876 13.8568 15.4463 13.9981C15.3227 14.1394 15.1637 14.2454 14.9871 14.3337C14.8988 14.369 14.7928 14.4043 14.7045 14.422C14.5986 14.4573 14.4926 14.475 14.3867 14.475H12.3027C12.1968 14.475 12.0908 14.4573 11.9848 14.422C11.8789 14.4043 11.7906 14.369 11.7023 14.316C11.5257 14.2454 11.3667 14.1217 11.2431 13.9805C11.1018 13.8568 10.9958 13.6979 10.9252 13.5213C10.8722 13.433 10.8369 13.3447 10.8192 13.2387C10.8016 13.1328 10.7839 13.0268 10.7839 12.9385V12.338C10.7839 12.2321 10.8016 12.1261 10.8192 12.0201C10.8369 11.9672 10.8546 11.9142 10.8722 11.8612L2.3422 9.53002V17.7951ZM25.6364 18.2366C25.6011 18.3956 25.5481 18.5369 25.4951 18.6605C25.3715 18.9254 25.1949 19.1726 24.9829 19.3846C24.771 19.5788 24.5414 19.7554 24.2765 19.8791C24.1352 19.9497 23.994 19.985 23.8527 20.0203C23.6937 20.0557 23.5524 20.091 23.3935 20.091H3.2782C3.11926 20.091 2.97797 20.0557 2.81903 20.0203C2.67775 19.985 2.53646 19.9497 2.39518 19.8791C2.14793 19.7554 1.90068 19.5788 1.68876 19.3669C1.49449 19.1726 1.31789 18.9254 1.19427 18.6605C1.14128 18.5192 1.0883 18.3779 1.05298 18.2366C1.01766 18.0954 1 17.9364 1 17.7951V5.64471C1 5.48576 1.01766 5.32682 1.05298 5.18554C1.0883 5.04425 1.14128 4.90297 1.19427 4.76168C1.31789 4.49678 1.49449 4.26719 1.68876 4.05526C1.90068 3.84334 2.14793 3.68439 2.39518 3.56077C2.53646 3.49013 2.67775 3.43715 2.81903 3.41949C2.97797 3.38417 3.11926 3.36651 3.2782 3.36651H8.11718V2.67775C8.11718 2.55412 8.13484 2.44816 8.1525 2.32454C8.17016 2.21857 8.20548 2.11261 8.25846 2.02431C8.34676 1.83004 8.47039 1.65344 8.61167 1.51215C8.77062 1.35321 8.94722 1.22959 9.12383 1.14128C9.22979 1.10596 9.33575 1.07064 9.42405 1.03532C9.54768 1.01766 9.65364 1 9.77726 1H16.8944C17.0181 1 17.124 1.01766 17.2477 1.03532C17.336 1.07064 17.4419 1.10596 17.5479 1.14128C17.7245 1.22959 17.9011 1.35321 18.06 1.51215C18.2013 1.65344 18.3426 1.83004 18.4309 2.00665C18.4662 2.11261 18.5015 2.21857 18.5369 2.32454C18.5545 2.4305 18.5722 2.55412 18.5722 2.67775V3.36651H23.3935C23.5524 3.36651 23.6937 3.38417 23.8527 3.41949C23.994 3.43715 24.1352 3.49013 24.2765 3.56077C24.5238 3.66673 24.771 3.84334 24.9829 4.05526C25.1949 4.24953 25.3715 4.49678 25.4774 4.76168C25.5481 4.88531 25.6011 5.02659 25.6364 5.18554C25.6717 5.32682 25.6894 5.48576 25.6894 5.64471V17.7951C25.6894 17.9364 25.6717 18.0954 25.6364 18.2366ZM17.2653 3.36651V2.67775C17.2653 2.66009 17.2653 2.64243 17.2653 2.64243C17.2477 2.62477 17.2477 2.6071 17.2477 2.58944C17.2123 2.53646 17.177 2.48348 17.1417 2.44816C17.1064 2.41284 17.0534 2.37752 17.0004 2.3422C16.9827 2.3422 16.9651 2.32454 16.9474 2.32454C16.9298 2.32454 16.9121 2.32454 16.8944 2.32454H9.77726C9.7596 2.32454 9.74194 2.32454 9.74194 2.32454C9.72428 2.32454 9.70662 2.3422 9.6713 2.3422C9.63598 2.37752 9.583 2.41284 9.54768 2.44816C9.51236 2.48348 9.47703 2.53646 9.44171 2.57178C9.44171 2.6071 9.44171 2.62477 9.42405 2.64243C9.42405 2.64243 9.42405 2.66009 9.42405 2.67775V3.36651H17.2653ZM12.3027 12.1614C12.2851 12.1614 12.2851 12.1614 12.2674 12.1614C12.2497 12.1791 12.2144 12.1968 12.1968 12.2144C12.1791 12.2497 12.1438 12.2674 12.1438 12.3027C12.1261 12.3027 12.1261 12.3204 12.1261 12.3204V12.338V12.9385C12.1261 12.9385 12.1261 12.9562 12.1438 12.9562C12.1614 12.9915 12.1791 13.0268 12.1968 13.0621C12.2321 13.0798 12.2497 13.0974 12.2851 13.1151H12.3027V13.1328H14.3867V13.1151H14.4043C14.4396 13.0974 14.475 13.0798 14.5103 13.0445C14.5279 13.0268 14.5456 12.9915 14.5633 12.9562C14.5809 12.9385 14.5809 12.9385 14.5809 12.9208V12.338C14.5809 12.3204 14.5809 12.3204 14.5809 12.3027C14.5633 12.2851 14.5279 12.2497 14.5103 12.2321C14.475 12.1968 14.4573 12.1791 14.422 12.1614C14.4043 12.1614 14.4043 12.1614 14.3867 12.1614H12.3027Z"/>
</mask>
<path fill-rule="evenodd" clip-rule="evenodd" d="M3.13692 4.72636C3.06628 4.72636 3.0133 4.74402 2.96031 4.77934C2.85435 4.83233 2.73073 4.90297 2.64243 5.00893C2.55412 5.09723 2.46582 5.2032 2.41284 5.32682C2.39518 5.3798 2.37752 5.43278 2.35986 5.48576C2.3422 5.53875 2.3422 5.59173 2.3422 5.64471V8.13484L12.1261 10.8192C12.1791 10.8192 12.2497 10.8192 12.3027 10.8192H14.3867C14.4573 10.8192 14.5103 10.8192 14.5809 10.8192L24.3472 8.1525V5.64471C24.3472 5.59173 24.3472 5.53875 24.3295 5.48576C24.3118 5.43278 24.2942 5.3798 24.2765 5.32682C24.2235 5.2032 24.1352 5.09723 24.0469 5.00893C23.941 4.90297 23.835 4.83233 23.7114 4.77934C23.6584 4.74402 23.6054 4.72636 23.5524 4.72636C23.4995 4.7087 23.4465 4.7087 23.3935 4.7087H3.2782C3.22522 4.7087 3.17224 4.7087 3.13692 4.72636ZM2.3422 17.7951C2.3422 17.8304 2.3422 17.8834 2.35986 17.9364C2.37752 17.9894 2.39518 18.0424 2.41284 18.0954C2.46582 18.219 2.55412 18.3426 2.64243 18.4309C2.74839 18.5192 2.85435 18.6075 2.97797 18.6605C3.03096 18.6958 3.08394 18.7135 3.13692 18.7135C3.17224 18.7311 3.22522 18.7488 3.2782 18.7488H23.3935C23.4465 18.7488 23.4995 18.7311 23.5348 18.7135C23.6054 18.7135 23.6584 18.6958 23.7114 18.6605C23.835 18.6075 23.941 18.5192 24.0293 18.4309C24.1352 18.3249 24.2059 18.219 24.2765 18.0954C24.2942 18.0424 24.3118 17.9894 24.3295 17.9364C24.3472 17.8834 24.3472 17.8304 24.3472 17.7951V9.54768L15.8348 11.8612C15.8525 11.9142 15.8701 11.9672 15.8878 12.0025C15.9055 12.1084 15.9231 12.2144 15.9231 12.338V12.9385C15.9231 13.0445 15.9055 13.1504 15.8878 13.2564C15.8525 13.3447 15.8348 13.433 15.7818 13.5389C15.7112 13.6979 15.5876 13.8568 15.4463 13.9981C15.3227 14.1394 15.1637 14.2454 14.9871 14.3337C14.8988 14.369 14.7928 14.4043 14.7045 14.422C14.5986 14.4573 14.4926 14.475 14.3867 14.475H12.3027C12.1968 14.475 12.0908 14.4573 11.9848 14.422C11.8789 14.4043 11.7906 14.369 11.7023 14.316C11.5257 14.2454 11.3667 14.1217 11.2431 13.9805C11.1018 13.8568 10.9958 13.6979 10.9252 13.5213C10.8722 13.433 10.8369 13.3447 10.8192 13.2387C10.8016 13.1328 10.7839 13.0268 10.7839 12.9385V12.338C10.7839 12.2321 10.8016 12.1261 10.8192 12.0201C10.8369 11.9672 10.8546 11.9142 10.8722 11.8612L2.3422 9.53002V17.7951ZM25.6364 18.2366C25.6011 18.3956 25.5481 18.5369 25.4951 18.6605C25.3715 18.9254 25.1949 19.1726 24.9829 19.3846C24.771 19.5788 24.5414 19.7554 24.2765 19.8791C24.1352 19.9497 23.994 19.985 23.8527 20.0203C23.6937 20.0557 23.5524 20.091 23.3935 20.091H3.2782C3.11926 20.091 2.97797 20.0557 2.81903 20.0203C2.67775 19.985 2.53646 19.9497 2.39518 19.8791C2.14793 19.7554 1.90068 19.5788 1.68876 19.3669C1.49449 19.1726 1.31789 18.9254 1.19427 18.6605C1.14128 18.5192 1.0883 18.3779 1.05298 18.2366C1.01766 18.0954 1 17.9364 1 17.7951V5.64471C1 5.48576 1.01766 5.32682 1.05298 5.18554C1.0883 5.04425 1.14128 4.90297 1.19427 4.76168C1.31789 4.49678 1.49449 4.26719 1.68876 4.05526C1.90068 3.84334 2.14793 3.68439 2.39518 3.56077C2.53646 3.49013 2.67775 3.43715 2.81903 3.41949C2.97797 3.38417 3.11926 3.36651 3.2782 3.36651H8.11718V2.67775C8.11718 2.55412 8.13484 2.44816 8.1525 2.32454C8.17016 2.21857 8.20548 2.11261 8.25846 2.02431C8.34676 1.83004 8.47039 1.65344 8.61167 1.51215C8.77062 1.35321 8.94722 1.22959 9.12383 1.14128C9.22979 1.10596 9.33575 1.07064 9.42405 1.03532C9.54768 1.01766 9.65364 1 9.77726 1H16.8944C17.0181 1 17.124 1.01766 17.2477 1.03532C17.336 1.07064 17.4419 1.10596 17.5479 1.14128C17.7245 1.22959 17.9011 1.35321 18.06 1.51215C18.2013 1.65344 18.3426 1.83004 18.4309 2.00665C18.4662 2.11261 18.5015 2.21857 18.5369 2.32454C18.5545 2.4305 18.5722 2.55412 18.5722 2.67775V3.36651H23.3935C23.5524 3.36651 23.6937 3.38417 23.8527 3.41949C23.994 3.43715 24.1352 3.49013 24.2765 3.56077C24.5238 3.66673 24.771 3.84334 24.9829 4.05526C25.1949 4.24953 25.3715 4.49678 25.4774 4.76168C25.5481 4.88531 25.6011 5.02659 25.6364 5.18554C25.6717 5.32682 25.6894 5.48576 25.6894 5.64471V17.7951C25.6894 17.9364 25.6717 18.0954 25.6364 18.2366ZM17.2653 3.36651V2.67775C17.2653 2.66009 17.2653 2.64243 17.2653 2.64243C17.2477 2.62477 17.2477 2.6071 17.2477 2.58944C17.2123 2.53646 17.177 2.48348 17.1417 2.44816C17.1064 2.41284 17.0534 2.37752 17.0004 2.3422C16.9827 2.3422 16.9651 2.32454 16.9474 2.32454C16.9298 2.32454 16.9121 2.32454 16.8944 2.32454H9.77726C9.7596 2.32454 9.74194 2.32454 9.74194 2.32454C9.72428 2.32454 9.70662 2.3422 9.6713 2.3422C9.63598 2.37752 9.583 2.41284 9.54768 2.44816C9.51236 2.48348 9.47703 2.53646 9.44171 2.57178C9.44171 2.6071 9.44171 2.62477 9.42405 2.64243C9.42405 2.64243 9.42405 2.66009 9.42405 2.67775V3.36651H17.2653ZM12.3027 12.1614C12.2851 12.1614 12.2851 12.1614 12.2674 12.1614C12.2497 12.1791 12.2144 12.1968 12.1968 12.2144C12.1791 12.2497 12.1438 12.2674 12.1438 12.3027C12.1261 12.3027 12.1261 12.3204 12.1261 12.3204V12.338V12.9385C12.1261 12.9385 12.1261 12.9562 12.1438 12.9562C12.1614 12.9915 12.1791 13.0268 12.1968 13.0621C12.2321 13.0798 12.2497 13.0974 12.2851 13.1151H12.3027V13.1328H14.3867V13.1151H14.4043C14.4396 13.0974 14.475 13.0798 14.5103 13.0445C14.5279 13.0268 14.5456 12.9915 14.5633 12.9562C14.5809 12.9385 14.5809 12.9385 14.5809 12.9208V12.338C14.5809 12.3204 14.5809 12.3204 14.5809 12.3027C14.5633 12.2851 14.5279 12.2497 14.5103 12.2321C14.475 12.1968 14.4573 12.1791 14.422 12.1614C14.4043 12.1614 14.4043 12.1614 14.3867 12.1614H12.3027Z" fill="#5B5B5D"/>
<path fill-rule="evenodd" clip-rule="evenodd" d="M3.13692 4.72636C3.06628 4.72636 3.0133 4.74402 2.96031 4.77934C2.85435 4.83233 2.73073 4.90297 2.64243 5.00893C2.55412 5.09723 2.46582 5.2032 2.41284 5.32682C2.39518 5.3798 2.37752 5.43278 2.35986 5.48576C2.3422 5.53875 2.3422 5.59173 2.3422 5.64471V8.13484L12.1261 10.8192C12.1791 10.8192 12.2497 10.8192 12.3027 10.8192H14.3867C14.4573 10.8192 14.5103 10.8192 14.5809 10.8192L24.3472 8.1525V5.64471C24.3472 5.59173 24.3472 5.53875 24.3295 5.48576C24.3118 5.43278 24.2942 5.3798 24.2765 5.32682C24.2235 5.2032 24.1352 5.09723 24.0469 5.00893C23.941 4.90297 23.835 4.83233 23.7114 4.77934C23.6584 4.74402 23.6054 4.72636 23.5524 4.72636C23.4995 4.7087 23.4465 4.7087 23.3935 4.7087H3.2782C3.22522 4.7087 3.17224 4.7087 3.13692 4.72636ZM2.3422 17.7951C2.3422 17.8304 2.3422 17.8834 2.35986 17.9364C2.37752 17.9894 2.39518 18.0424 2.41284 18.0954C2.46582 18.219 2.55412 18.3426 2.64243 18.4309C2.74839 18.5192 2.85435 18.6075 2.97797 18.6605C3.03096 18.6958 3.08394 18.7135 3.13692 18.7135C3.17224 18.7311 3.22522 18.7488 3.2782 18.7488H23.3935C23.4465 18.7488 23.4995 18.7311 23.5348 18.7135C23.6054 18.7135 23.6584 18.6958 23.7114 18.6605C23.835 18.6075 23.941 18.5192 24.0293 18.4309C24.1352 18.3249 24.2059 18.219 24.2765 18.0954C24.2942 18.0424 24.3118 17.9894 24.3295 17.9364C24.3472 17.8834 24.3472 17.8304 24.3472 17.7951V9.54768L15.8348 11.8612C15.8525 11.9142 15.8701 11.9672 15.8878 12.0025C15.9055 12.1084 15.9231 12.2144 15.9231 12.338V12.9385C15.9231 13.0445 15.9055 13.1504 15.8878 13.2564C15.8525 13.3447 15.8348 13.433 15.7818 13.5389C15.7112 13.6979 15.5876 13.8568 15.4463 13.9981C15.3227 14.1394 15.1637 14.2454 14.9871 14.3337C14.8988 14.369 14.7928 14.4043 14.7045 14.422C14.5986 14.4573 14.4926 14.475 14.3867 14.475H12.3027C12.1968 14.475 12.0908 14.4573 11.9848 14.422C11.8789 14.4043 11.7906 14.369 11.7023 14.316C11.5257 14.2454 11.3667 14.1217 11.2431 13.9805C11.1018 13.8568 10.9958 13.6979 10.9252 13.5213C10.8722 13.433 10.8369 13.3447 10.8192 13.2387C10.8016 13.1328 10.7839 13.0268 10.7839 12.9385V12.338C10.7839 12.2321 10.8016 12.1261 10.8192 12.0201C10.8369 11.9672 10.8546 11.9142 10.8722 11.8612L2.3422 9.53002V17.7951ZM25.6364 18.2366C25.6011 18.3956 25.5481 18.5369 25.4951 18.6605C25.3715 18.9254 25.1949 19.1726 24.9829 19.3846C24.771 19.5788 24.5414 19.7554 24.2765 19.8791C24.1352 19.9497 23.994 19.985 23.8527 20.0203C23.6937 20.0557 23.5524 20.091 23.3935 20.091H3.2782C3.11926 20.091 2.97797 20.0557 2.81903 20.0203C2.67775 19.985 2.53646 19.9497 2.39518 19.8791C2.14793 19.7554 1.90068 19.5788 1.68876 19.3669C1.49449 19.1726 1.31789 18.9254 1.19427 18.6605C1.14128 18.5192 1.0883 18.3779 1.05298 18.2366C1.01766 18.0954 1 17.9364 1 17.7951V5.64471C1 5.48576 1.01766 5.32682 1.05298 5.18554C1.0883 5.04425 1.14128 4.90297 1.19427 4.76168C1.31789 4.49678 1.49449 4.26719 1.68876 4.05526C1.90068 3.84334 2.14793 3.68439 2.39518 3.56077C2.53646 3.49013 2.67775 3.43715 2.81903 3.41949C2.97797 3.38417 3.11926 3.36651 3.2782 3.36651H8.11718V2.67775C8.11718 2.55412 8.13484 2.44816 8.1525 2.32454C8.17016 2.21857 8.20548 2.11261 8.25846 2.02431C8.34676 1.83004 8.47039 1.65344 8.61167 1.51215C8.77062 1.35321 8.94722 1.22959 9.12383 1.14128C9.22979 1.10596 9.33575 1.07064 9.42405 1.03532C9.54768 1.01766 9.65364 1 9.77726 1H16.8944C17.0181 1 17.124 1.01766 17.2477 1.03532C17.336 1.07064 17.4419 1.10596 17.5479 1.14128C17.7245 1.22959 17.9011 1.35321 18.06 1.51215C18.2013 1.65344 18.3426 1.83004 18.4309 2.00665C18.4662 2.11261 18.5015 2.21857 18.5369 2.32454C18.5545 2.4305 18.5722 2.55412 18.5722 2.67775V3.36651H23.3935C23.5524 3.36651 23.6937 3.38417 23.8527 3.41949C23.994 3.43715 24.1352 3.49013 24.2765 3.56077C24.5238 3.66673 24.771 3.84334 24.9829 4.05526C25.1949 4.24953 25.3715 4.49678 25.4774 4.76168C25.5481 4.88531 25.6011 5.02659 25.6364 5.18554C25.6717 5.32682 25.6894 5.48576 25.6894 5.64471V17.7951C25.6894 17.9364 25.6717 18.0954 25.6364 18.2366ZM17.2653 3.36651V2.67775C17.2653 2.66009 17.2653 2.64243 17.2653 2.64243C17.2477 2.62477 17.2477 2.6071 17.2477 2.58944C17.2123 2.53646 17.177 2.48348 17.1417 2.44816C17.1064 2.41284 17.0534 2.37752 17.0004 2.3422C16.9827 2.3422 16.9651 2.32454 16.9474 2.32454C16.9298 2.32454 16.9121 2.32454 16.8944 2.32454H9.77726C9.7596 2.32454 9.74194 2.32454 9.74194 2.32454C9.72428 2.32454 9.70662 2.3422 9.6713 2.3422C9.63598 2.37752 9.583 2.41284 9.54768 2.44816C9.51236 2.48348 9.47703 2.53646 9.44171 2.57178C9.44171 2.6071 9.44171 2.62477 9.42405 2.64243C9.42405 2.64243 9.42405 2.66009 9.42405 2.67775V3.36651H17.2653ZM12.3027 12.1614C12.2851 12.1614 12.2851 12.1614 12.2674 12.1614C12.2497 12.1791 12.2144 12.1968 12.1968 12.2144C12.1791 12.2497 12.1438 12.2674 12.1438 12.3027C12.1261 12.3027 12.1261 12.3204 12.1261 12.3204V12.338V12.9385C12.1261 12.9385 12.1261 12.9562 12.1438 12.9562C12.1614 12.9915 12.1791 13.0268 12.1968 13.0621C12.2321 13.0798 12.2497 13.0974 12.2851 13.1151H12.3027V13.1328H14.3867V13.1151H14.4043C14.4396 13.0974 14.475 13.0798 14.5103 13.0445C14.5279 13.0268 14.5456 12.9915 14.5633 12.9562C14.5809 12.9385 14.5809 12.9385 14.5809 12.9208V12.338C14.5809 12.3204 14.5809 12.3204 14.5809 12.3027C14.5633 12.2851 14.5279 12.2497 14.5103 12.2321C14.475 12.1968 14.4573 12.1791 14.422 12.1614C14.4043 12.1614 14.4043 12.1614 14.3867 12.1614H12.3027Z" stroke="#5B5B5D" stroke-width="0.4" mask="url(#path-1-outside-1_916_21361)"/>
<path d="M28.8727 20.2727C28.7941 20.451 28.7706 20.6487 28.8054 20.8403C28.8401 21.032 28.9315 21.2089 29.0677 21.3482L29.1032 21.3836C29.2131 21.4934 29.3002 21.6237 29.3597 21.7672C29.4192 21.9107 29.4498 22.0645 29.4498 22.2198C29.4498 22.3751 29.4192 22.5289 29.3597 22.6723C29.3002 22.8158 29.2131 22.9461 29.1032 23.0559C28.9934 23.1658 28.8631 23.253 28.7196 23.3124C28.5761 23.3719 28.4224 23.4025 28.267 23.4025C28.1117 23.4025 27.9579 23.3719 27.8145 23.3124C27.671 23.253 27.5407 23.1658 27.4309 23.0559L27.3955 23.0205C27.2562 22.8842 27.0793 22.7928 26.8876 22.7581C26.6959 22.7233 26.4982 22.7468 26.32 22.8255C26.1452 22.9004 25.9962 23.0247 25.8912 23.1833C25.7862 23.3418 25.7298 23.5276 25.7291 23.7177V23.8182C25.7291 24.1316 25.6046 24.4322 25.3829 24.6539C25.1613 24.8755 24.8607 25 24.5473 25C24.2338 25 23.9332 24.8755 23.7116 24.6539C23.49 24.4322 23.3655 24.1316 23.3655 23.8182V23.765C23.3609 23.5694 23.2976 23.3797 23.1838 23.2206C23.0699 23.0615 22.9109 22.9403 22.7273 22.8727C22.549 22.7941 22.3513 22.7706 22.1597 22.8054C21.968 22.8401 21.7911 22.9315 21.6518 23.0677L21.6164 23.1032C21.5066 23.2131 21.3763 23.3002 21.2328 23.3597C21.0893 23.4192 20.9355 23.4498 20.7802 23.4498C20.6249 23.4498 20.4711 23.4192 20.3277 23.3597C20.1842 23.3002 20.0538 23.2131 19.9441 23.1032C19.8342 22.9934 19.747 22.8631 19.6876 22.7196C19.6281 22.5761 19.5975 22.4224 19.5975 22.267C19.5975 22.1117 19.6281 21.9579 19.6876 21.8145C19.747 21.671 19.8342 21.5407 19.9441 21.4309L19.9795 21.3955C20.1158 21.2562 20.2072 21.0793 20.2419 20.8876C20.2767 20.6959 20.2532 20.4982 20.1745 20.32C20.0996 20.1452 19.9753 19.9962 19.8167 19.8912C19.6582 19.7862 19.4724 19.7298 19.2823 19.7291H19.1818C18.8684 19.7291 18.5678 19.6046 18.3461 19.3829C18.1245 19.1613 18 18.8607 18 18.5473C18 18.2338 18.1245 17.9332 18.3461 17.7116C18.5678 17.49 18.8684 17.3655 19.1818 17.3655H19.235C19.4306 17.3609 19.6203 17.2976 19.7794 17.1838C19.9385 17.0699 20.0597 16.9109 20.1273 16.7273C20.2059 16.549 20.2294 16.3513 20.1946 16.1597C20.1599 15.968 20.0685 15.7911 19.9323 15.6518L19.8968 15.6164C19.7869 15.5066 19.6998 15.3763 19.6403 15.2328C19.5808 15.0893 19.5502 14.9355 19.5502 14.7802C19.5502 14.6249 19.5808 14.4711 19.6403 14.3277C19.6998 14.1842 19.7869 14.0538 19.8968 13.9441C20.0066 13.8342 20.1369 13.747 20.2804 13.6876C20.4239 13.6281 20.5776 13.5975 20.733 13.5975C20.8883 13.5975 21.042 13.6281 21.1855 13.6876C21.329 13.747 21.4593 13.8342 21.5691 13.9441L21.6045 13.9795C21.7438 14.1158 21.9207 14.2072 22.1124 14.2419C22.3041 14.2767 22.5018 14.2532 22.68 14.1745H22.7273C22.902 14.0996 23.0511 13.9753 23.1561 13.8167C23.2611 13.6582 23.3174 13.4724 23.3182 13.2823V13.1818C23.3182 12.8684 23.4427 12.5678 23.6643 12.3461C23.886 12.1245 24.1866 12 24.5 12C24.8134 12 25.114 12.1245 25.3357 12.3461C25.5573 12.5678 25.6818 12.8684 25.6818 13.1818V13.235C25.6826 13.4251 25.7389 13.6109 25.8439 13.7695C25.9489 13.928 26.098 14.0524 26.2727 14.1273C26.451 14.2059 26.6487 14.2294 26.8403 14.1946C27.032 14.1599 27.2089 14.0685 27.3482 13.9323L27.3836 13.8968C27.4934 13.7869 27.6237 13.6998 27.7672 13.6403C27.9107 13.5808 28.0645 13.5502 28.2198 13.5502C28.3751 13.5502 28.5289 13.5808 28.6723 13.6403C28.8158 13.6998 28.9461 13.7869 29.0559 13.8968C29.1658 14.0066 29.253 14.1369 29.3124 14.2804C29.3719 14.4239 29.4025 14.5776 29.4025 14.733C29.4025 14.8883 29.3719 15.042 29.3124 15.1855C29.253 15.329 29.1658 15.4593 29.0559 15.5691L29.0205 15.6045C28.8842 15.7438 28.7928 15.9207 28.7581 16.1124C28.7233 16.3041 28.7468 16.5018 28.8255 16.68V16.7273C28.9004 16.902 29.0247 17.0511 29.1833 17.1561C29.3418 17.2611 29.5276 17.3174 29.7177 17.3182H29.8182C30.1316 17.3182 30.4322 17.4427 30.6539 17.6643C30.8755 17.886 31 18.1866 31 18.5C31 18.8134 30.8755 19.114 30.6539 19.3357C30.4322 19.5573 30.1316 19.6818 29.8182 19.6818H29.765C29.5749 19.6826 29.3891 19.7389 29.2305 19.8439C29.072 19.9489 28.9476 20.098 28.8727 20.2727Z" fill="white" stroke="#5B5B5D" stroke-width="1.5" stroke-linecap="round" stroke-linejoin="round"/>
<path d="M24.5 20.273C25.4791 20.273 26.2727 19.4793 26.2727 18.5003C26.2727 17.5212 25.4791 16.7275 24.5 16.7275C23.521 16.7275 22.7273 17.5212 22.7273 18.5003C22.7273 19.4793 23.521 20.273 24.5 20.273Z" stroke="#5B5B5D" stroke-width="1.18182" stroke-linecap="round" stroke-linejoin="round"/>
</svg>
