<svg width="32" height="26" viewBox="0 0 32 26" fill="none" xmlns="http://www.w3.org/2000/svg">
<mask id="path-1-outside-1_915_19496" maskUnits="userSpaceOnUse" x="0" y="0" width="26" height="21" fill="black">
<rect fill="white" width="26" height="21"/>
<path fill-rule="evenodd" clip-rule="evenodd" d="M3.13692 4.72636C3.06628 4.72636 3.0133 4.74402 2.96031 4.77934C2.85435 4.83233 2.73073 4.90297 2.64243 5.00893C2.55412 5.09723 2.46582 5.2032 2.41284 5.32682C2.39518 5.3798 2.37752 5.43278 2.35986 5.48576C2.3422 5.53875 2.3422 5.59173 2.3422 5.64471V8.13484L12.1261 10.8192C12.1791 10.8192 12.2497 10.8192 12.3027 10.8192H14.3867C14.4573 10.8192 14.5103 10.8192 14.5809 10.8192L24.3472 8.1525V5.64471C24.3472 5.59173 24.3472 5.53875 24.3295 5.48576C24.3118 5.43278 24.2942 5.3798 24.2765 5.32682C24.2235 5.2032 24.1352 5.09723 24.0469 5.00893C23.941 4.90297 23.835 4.83233 23.7114 4.77934C23.6584 4.74402 23.6054 4.72636 23.5524 4.72636C23.4995 4.7087 23.4465 4.7087 23.3935 4.7087H3.2782C3.22522 4.7087 3.17224 4.7087 3.13692 4.72636ZM2.3422 17.7951C2.3422 17.8304 2.3422 17.8834 2.35986 17.9364C2.37752 17.9894 2.39518 18.0424 2.41284 18.0954C2.46582 18.219 2.55412 18.3426 2.64243 18.4309C2.74839 18.5192 2.85435 18.6075 2.97797 18.6605C3.03096 18.6958 3.08394 18.7135 3.13692 18.7135C3.17224 18.7311 3.22522 18.7488 3.2782 18.7488H23.3935C23.4465 18.7488 23.4995 18.7311 23.5348 18.7135C23.6054 18.7135 23.6584 18.6958 23.7114 18.6605C23.835 18.6075 23.941 18.5192 24.0293 18.4309C24.1352 18.3249 24.2059 18.219 24.2765 18.0954C24.2942 18.0424 24.3118 17.9894 24.3295 17.9364C24.3472 17.8834 24.3472 17.8304 24.3472 17.7951V9.54768L15.8348 11.8612C15.8525 11.9142 15.8701 11.9672 15.8878 12.0025C15.9055 12.1084 15.9231 12.2144 15.9231 12.338V12.9385C15.9231 13.0445 15.9055 13.1504 15.8878 13.2564C15.8525 13.3447 15.8348 13.433 15.7818 13.5389C15.7112 13.6979 15.5876 13.8568 15.4463 13.9981C15.3227 14.1394 15.1637 14.2454 14.9871 14.3337C14.8988 14.369 14.7928 14.4043 14.7045 14.422C14.5986 14.4573 14.4926 14.475 14.3867 14.475H12.3027C12.1968 14.475 12.0908 14.4573 11.9848 14.422C11.8789 14.4043 11.7906 14.369 11.7023 14.316C11.5257 14.2454 11.3667 14.1217 11.2431 13.9805C11.1018 13.8568 10.9958 13.6979 10.9252 13.5213C10.8722 13.433 10.8369 13.3447 10.8192 13.2387C10.8016 13.1328 10.7839 13.0268 10.7839 12.9385V12.338C10.7839 12.2321 10.8016 12.1261 10.8192 12.0201C10.8369 11.9672 10.8546 11.9142 10.8722 11.8612L2.3422 9.53002V17.7951ZM25.6364 18.2366C25.6011 18.3956 25.5481 18.5369 25.4951 18.6605C25.3715 18.9254 25.1949 19.1726 24.9829 19.3846C24.771 19.5788 24.5414 19.7554 24.2765 19.8791C24.1352 19.9497 23.994 19.985 23.8527 20.0203C23.6937 20.0557 23.5524 20.091 23.3935 20.091H3.2782C3.11926 20.091 2.97797 20.0557 2.81903 20.0203C2.67775 19.985 2.53646 19.9497 2.39518 19.8791C2.14793 19.7554 1.90068 19.5788 1.68876 19.3669C1.49449 19.1726 1.31789 18.9254 1.19427 18.6605C1.14128 18.5192 1.0883 18.3779 1.05298 18.2366C1.01766 18.0954 1 17.9364 1 17.7951V5.64471C1 5.48576 1.01766 5.32682 1.05298 5.18554C1.0883 5.04425 1.14128 4.90297 1.19427 4.76168C1.31789 4.49678 1.49449 4.26719 1.68876 4.05526C1.90068 3.84334 2.14793 3.68439 2.39518 3.56077C2.53646 3.49013 2.67775 3.43715 2.81903 3.41949C2.97797 3.38417 3.11926 3.36651 3.2782 3.36651H8.11718V2.67775C8.11718 2.55412 8.13484 2.44816 8.1525 2.32454C8.17016 2.21857 8.20548 2.11261 8.25846 2.02431C8.34676 1.83004 8.47039 1.65344 8.61167 1.51215C8.77062 1.35321 8.94722 1.22959 9.12383 1.14128C9.22979 1.10596 9.33575 1.07064 9.42405 1.03532C9.54768 1.01766 9.65364 1 9.77726 1H16.8944C17.0181 1 17.124 1.01766 17.2477 1.03532C17.336 1.07064 17.4419 1.10596 17.5479 1.14128C17.7245 1.22959 17.9011 1.35321 18.06 1.51215C18.2013 1.65344 18.3426 1.83004 18.4309 2.00665C18.4662 2.11261 18.5015 2.21857 18.5369 2.32454C18.5545 2.4305 18.5722 2.55412 18.5722 2.67775V3.36651H23.3935C23.5524 3.36651 23.6937 3.38417 23.8527 3.41949C23.994 3.43715 24.1352 3.49013 24.2765 3.56077C24.5238 3.66673 24.771 3.84334 24.9829 4.05526C25.1949 4.24953 25.3715 4.49678 25.4774 4.76168C25.5481 4.88531 25.6011 5.02659 25.6364 5.18554C25.6717 5.32682 25.6894 5.48576 25.6894 5.64471V17.7951C25.6894 17.9364 25.6717 18.0954 25.6364 18.2366ZM17.2653 3.36651V2.67775C17.2653 2.66009 17.2653 2.64243 17.2653 2.64243C17.2477 2.62477 17.2477 2.6071 17.2477 2.58944C17.2123 2.53646 17.177 2.48348 17.1417 2.44816C17.1064 2.41284 17.0534 2.37752 17.0004 2.3422C16.9827 2.3422 16.9651 2.32454 16.9474 2.32454C16.9298 2.32454 16.9121 2.32454 16.8944 2.32454H9.77726C9.7596 2.32454 9.74194 2.32454 9.74194 2.32454C9.72428 2.32454 9.70662 2.3422 9.6713 2.3422C9.63598 2.37752 9.583 2.41284 9.54768 2.44816C9.51236 2.48348 9.47703 2.53646 9.44171 2.57178C9.44171 2.6071 9.44171 2.62477 9.42405 2.64243C9.42405 2.64243 9.42405 2.66009 9.42405 2.67775V3.36651H17.2653ZM12.3027 12.1614C12.2851 12.1614 12.2851 12.1614 12.2674 12.1614C12.2497 12.1791 12.2144 12.1968 12.1968 12.2144C12.1791 12.2497 12.1438 12.2674 12.1438 12.3027C12.1261 12.3027 12.1261 12.3204 12.1261 12.3204V12.338V12.9385C12.1261 12.9385 12.1261 12.9562 12.1438 12.9562C12.1614 12.9915 12.1791 13.0268 12.1968 13.0621C12.2321 13.0798 12.2497 13.0974 12.2851 13.1151H12.3027V13.1328H14.3867V13.1151H14.4043C14.4396 13.0974 14.475 13.0798 14.5103 13.0445C14.5279 13.0268 14.5456 12.9915 14.5633 12.9562C14.5809 12.9385 14.5809 12.9385 14.5809 12.9208V12.338C14.5809 12.3204 14.5809 12.3204 14.5809 12.3027C14.5633 12.2851 14.5279 12.2497 14.5103 12.2321C14.475 12.1968 14.4573 12.1791 14.422 12.1614C14.4043 12.1614 14.4043 12.1614 14.3867 12.1614H12.3027Z"/>
</mask>
<path fill-rule="evenodd" clip-rule="evenodd" d="M3.13692 4.72636C3.06628 4.72636 3.0133 4.74402 2.96031 4.77934C2.85435 4.83233 2.73073 4.90297 2.64243 5.00893C2.55412 5.09723 2.46582 5.2032 2.41284 5.32682C2.39518 5.3798 2.37752 5.43278 2.35986 5.48576C2.3422 5.53875 2.3422 5.59173 2.3422 5.64471V8.13484L12.1261 10.8192C12.1791 10.8192 12.2497 10.8192 12.3027 10.8192H14.3867C14.4573 10.8192 14.5103 10.8192 14.5809 10.8192L24.3472 8.1525V5.64471C24.3472 5.59173 24.3472 5.53875 24.3295 5.48576C24.3118 5.43278 24.2942 5.3798 24.2765 5.32682C24.2235 5.2032 24.1352 5.09723 24.0469 5.00893C23.941 4.90297 23.835 4.83233 23.7114 4.77934C23.6584 4.74402 23.6054 4.72636 23.5524 4.72636C23.4995 4.7087 23.4465 4.7087 23.3935 4.7087H3.2782C3.22522 4.7087 3.17224 4.7087 3.13692 4.72636ZM2.3422 17.7951C2.3422 17.8304 2.3422 17.8834 2.35986 17.9364C2.37752 17.9894 2.39518 18.0424 2.41284 18.0954C2.46582 18.219 2.55412 18.3426 2.64243 18.4309C2.74839 18.5192 2.85435 18.6075 2.97797 18.6605C3.03096 18.6958 3.08394 18.7135 3.13692 18.7135C3.17224 18.7311 3.22522 18.7488 3.2782 18.7488H23.3935C23.4465 18.7488 23.4995 18.7311 23.5348 18.7135C23.6054 18.7135 23.6584 18.6958 23.7114 18.6605C23.835 18.6075 23.941 18.5192 24.0293 18.4309C24.1352 18.3249 24.2059 18.219 24.2765 18.0954C24.2942 18.0424 24.3118 17.9894 24.3295 17.9364C24.3472 17.8834 24.3472 17.8304 24.3472 17.7951V9.54768L15.8348 11.8612C15.8525 11.9142 15.8701 11.9672 15.8878 12.0025C15.9055 12.1084 15.9231 12.2144 15.9231 12.338V12.9385C15.9231 13.0445 15.9055 13.1504 15.8878 13.2564C15.8525 13.3447 15.8348 13.433 15.7818 13.5389C15.7112 13.6979 15.5876 13.8568 15.4463 13.9981C15.3227 14.1394 15.1637 14.2454 14.9871 14.3337C14.8988 14.369 14.7928 14.4043 14.7045 14.422C14.5986 14.4573 14.4926 14.475 14.3867 14.475H12.3027C12.1968 14.475 12.0908 14.4573 11.9848 14.422C11.8789 14.4043 11.7906 14.369 11.7023 14.316C11.5257 14.2454 11.3667 14.1217 11.2431 13.9805C11.1018 13.8568 10.9958 13.6979 10.9252 13.5213C10.8722 13.433 10.8369 13.3447 10.8192 13.2387C10.8016 13.1328 10.7839 13.0268 10.7839 12.9385V12.338C10.7839 12.2321 10.8016 12.1261 10.8192 12.0201C10.8369 11.9672 10.8546 11.9142 10.8722 11.8612L2.3422 9.53002V17.7951ZM25.6364 18.2366C25.6011 18.3956 25.5481 18.5369 25.4951 18.6605C25.3715 18.9254 25.1949 19.1726 24.9829 19.3846C24.771 19.5788 24.5414 19.7554 24.2765 19.8791C24.1352 19.9497 23.994 19.985 23.8527 20.0203C23.6937 20.0557 23.5524 20.091 23.3935 20.091H3.2782C3.11926 20.091 2.97797 20.0557 2.81903 20.0203C2.67775 19.985 2.53646 19.9497 2.39518 19.8791C2.14793 19.7554 1.90068 19.5788 1.68876 19.3669C1.49449 19.1726 1.31789 18.9254 1.19427 18.6605C1.14128 18.5192 1.0883 18.3779 1.05298 18.2366C1.01766 18.0954 1 17.9364 1 17.7951V5.64471C1 5.48576 1.01766 5.32682 1.05298 5.18554C1.0883 5.04425 1.14128 4.90297 1.19427 4.76168C1.31789 4.49678 1.49449 4.26719 1.68876 4.05526C1.90068 3.84334 2.14793 3.68439 2.39518 3.56077C2.53646 3.49013 2.67775 3.43715 2.81903 3.41949C2.97797 3.38417 3.11926 3.36651 3.2782 3.36651H8.11718V2.67775C8.11718 2.55412 8.13484 2.44816 8.1525 2.32454C8.17016 2.21857 8.20548 2.11261 8.25846 2.02431C8.34676 1.83004 8.47039 1.65344 8.61167 1.51215C8.77062 1.35321 8.94722 1.22959 9.12383 1.14128C9.22979 1.10596 9.33575 1.07064 9.42405 1.03532C9.54768 1.01766 9.65364 1 9.77726 1H16.8944C17.0181 1 17.124 1.01766 17.2477 1.03532C17.336 1.07064 17.4419 1.10596 17.5479 1.14128C17.7245 1.22959 17.9011 1.35321 18.06 1.51215C18.2013 1.65344 18.3426 1.83004 18.4309 2.00665C18.4662 2.11261 18.5015 2.21857 18.5369 2.32454C18.5545 2.4305 18.5722 2.55412 18.5722 2.67775V3.36651H23.3935C23.5524 3.36651 23.6937 3.38417 23.8527 3.41949C23.994 3.43715 24.1352 3.49013 24.2765 3.56077C24.5238 3.66673 24.771 3.84334 24.9829 4.05526C25.1949 4.24953 25.3715 4.49678 25.4774 4.76168C25.5481 4.88531 25.6011 5.02659 25.6364 5.18554C25.6717 5.32682 25.6894 5.48576 25.6894 5.64471V17.7951C25.6894 17.9364 25.6717 18.0954 25.6364 18.2366ZM17.2653 3.36651V2.67775C17.2653 2.66009 17.2653 2.64243 17.2653 2.64243C17.2477 2.62477 17.2477 2.6071 17.2477 2.58944C17.2123 2.53646 17.177 2.48348 17.1417 2.44816C17.1064 2.41284 17.0534 2.37752 17.0004 2.3422C16.9827 2.3422 16.9651 2.32454 16.9474 2.32454C16.9298 2.32454 16.9121 2.32454 16.8944 2.32454H9.77726C9.7596 2.32454 9.74194 2.32454 9.74194 2.32454C9.72428 2.32454 9.70662 2.3422 9.6713 2.3422C9.63598 2.37752 9.583 2.41284 9.54768 2.44816C9.51236 2.48348 9.47703 2.53646 9.44171 2.57178C9.44171 2.6071 9.44171 2.62477 9.42405 2.64243C9.42405 2.64243 9.42405 2.66009 9.42405 2.67775V3.36651H17.2653ZM12.3027 12.1614C12.2851 12.1614 12.2851 12.1614 12.2674 12.1614C12.2497 12.1791 12.2144 12.1968 12.1968 12.2144C12.1791 12.2497 12.1438 12.2674 12.1438 12.3027C12.1261 12.3027 12.1261 12.3204 12.1261 12.3204V12.338V12.9385C12.1261 12.9385 12.1261 12.9562 12.1438 12.9562C12.1614 12.9915 12.1791 13.0268 12.1968 13.0621C12.2321 13.0798 12.2497 13.0974 12.2851 13.1151H12.3027V13.1328H14.3867V13.1151H14.4043C14.4396 13.0974 14.475 13.0798 14.5103 13.0445C14.5279 13.0268 14.5456 12.9915 14.5633 12.9562C14.5809 12.9385 14.5809 12.9385 14.5809 12.9208V12.338C14.5809 12.3204 14.5809 12.3204 14.5809 12.3027C14.5633 12.2851 14.5279 12.2497 14.5103 12.2321C14.475 12.1968 14.4573 12.1791 14.422 12.1614C14.4043 12.1614 14.4043 12.1614 14.3867 12.1614H12.3027Z" fill="#5B5B5D"/>
<path fill-rule="evenodd" clip-rule="evenodd" d="M3.13692 4.72636C3.06628 4.72636 3.0133 4.74402 2.96031 4.77934C2.85435 4.83233 2.73073 4.90297 2.64243 5.00893C2.55412 5.09723 2.46582 5.2032 2.41284 5.32682C2.39518 5.3798 2.37752 5.43278 2.35986 5.48576C2.3422 5.53875 2.3422 5.59173 2.3422 5.64471V8.13484L12.1261 10.8192C12.1791 10.8192 12.2497 10.8192 12.3027 10.8192H14.3867C14.4573 10.8192 14.5103 10.8192 14.5809 10.8192L24.3472 8.1525V5.64471C24.3472 5.59173 24.3472 5.53875 24.3295 5.48576C24.3118 5.43278 24.2942 5.3798 24.2765 5.32682C24.2235 5.2032 24.1352 5.09723 24.0469 5.00893C23.941 4.90297 23.835 4.83233 23.7114 4.77934C23.6584 4.74402 23.6054 4.72636 23.5524 4.72636C23.4995 4.7087 23.4465 4.7087 23.3935 4.7087H3.2782C3.22522 4.7087 3.17224 4.7087 3.13692 4.72636ZM2.3422 17.7951C2.3422 17.8304 2.3422 17.8834 2.35986 17.9364C2.37752 17.9894 2.39518 18.0424 2.41284 18.0954C2.46582 18.219 2.55412 18.3426 2.64243 18.4309C2.74839 18.5192 2.85435 18.6075 2.97797 18.6605C3.03096 18.6958 3.08394 18.7135 3.13692 18.7135C3.17224 18.7311 3.22522 18.7488 3.2782 18.7488H23.3935C23.4465 18.7488 23.4995 18.7311 23.5348 18.7135C23.6054 18.7135 23.6584 18.6958 23.7114 18.6605C23.835 18.6075 23.941 18.5192 24.0293 18.4309C24.1352 18.3249 24.2059 18.219 24.2765 18.0954C24.2942 18.0424 24.3118 17.9894 24.3295 17.9364C24.3472 17.8834 24.3472 17.8304 24.3472 17.7951V9.54768L15.8348 11.8612C15.8525 11.9142 15.8701 11.9672 15.8878 12.0025C15.9055 12.1084 15.9231 12.2144 15.9231 12.338V12.9385C15.9231 13.0445 15.9055 13.1504 15.8878 13.2564C15.8525 13.3447 15.8348 13.433 15.7818 13.5389C15.7112 13.6979 15.5876 13.8568 15.4463 13.9981C15.3227 14.1394 15.1637 14.2454 14.9871 14.3337C14.8988 14.369 14.7928 14.4043 14.7045 14.422C14.5986 14.4573 14.4926 14.475 14.3867 14.475H12.3027C12.1968 14.475 12.0908 14.4573 11.9848 14.422C11.8789 14.4043 11.7906 14.369 11.7023 14.316C11.5257 14.2454 11.3667 14.1217 11.2431 13.9805C11.1018 13.8568 10.9958 13.6979 10.9252 13.5213C10.8722 13.433 10.8369 13.3447 10.8192 13.2387C10.8016 13.1328 10.7839 13.0268 10.7839 12.9385V12.338C10.7839 12.2321 10.8016 12.1261 10.8192 12.0201C10.8369 11.9672 10.8546 11.9142 10.8722 11.8612L2.3422 9.53002V17.7951ZM25.6364 18.2366C25.6011 18.3956 25.5481 18.5369 25.4951 18.6605C25.3715 18.9254 25.1949 19.1726 24.9829 19.3846C24.771 19.5788 24.5414 19.7554 24.2765 19.8791C24.1352 19.9497 23.994 19.985 23.8527 20.0203C23.6937 20.0557 23.5524 20.091 23.3935 20.091H3.2782C3.11926 20.091 2.97797 20.0557 2.81903 20.0203C2.67775 19.985 2.53646 19.9497 2.39518 19.8791C2.14793 19.7554 1.90068 19.5788 1.68876 19.3669C1.49449 19.1726 1.31789 18.9254 1.19427 18.6605C1.14128 18.5192 1.0883 18.3779 1.05298 18.2366C1.01766 18.0954 1 17.9364 1 17.7951V5.64471C1 5.48576 1.01766 5.32682 1.05298 5.18554C1.0883 5.04425 1.14128 4.90297 1.19427 4.76168C1.31789 4.49678 1.49449 4.26719 1.68876 4.05526C1.90068 3.84334 2.14793 3.68439 2.39518 3.56077C2.53646 3.49013 2.67775 3.43715 2.81903 3.41949C2.97797 3.38417 3.11926 3.36651 3.2782 3.36651H8.11718V2.67775C8.11718 2.55412 8.13484 2.44816 8.1525 2.32454C8.17016 2.21857 8.20548 2.11261 8.25846 2.02431C8.34676 1.83004 8.47039 1.65344 8.61167 1.51215C8.77062 1.35321 8.94722 1.22959 9.12383 1.14128C9.22979 1.10596 9.33575 1.07064 9.42405 1.03532C9.54768 1.01766 9.65364 1 9.77726 1H16.8944C17.0181 1 17.124 1.01766 17.2477 1.03532C17.336 1.07064 17.4419 1.10596 17.5479 1.14128C17.7245 1.22959 17.9011 1.35321 18.06 1.51215C18.2013 1.65344 18.3426 1.83004 18.4309 2.00665C18.4662 2.11261 18.5015 2.21857 18.5369 2.32454C18.5545 2.4305 18.5722 2.55412 18.5722 2.67775V3.36651H23.3935C23.5524 3.36651 23.6937 3.38417 23.8527 3.41949C23.994 3.43715 24.1352 3.49013 24.2765 3.56077C24.5238 3.66673 24.771 3.84334 24.9829 4.05526C25.1949 4.24953 25.3715 4.49678 25.4774 4.76168C25.5481 4.88531 25.6011 5.02659 25.6364 5.18554C25.6717 5.32682 25.6894 5.48576 25.6894 5.64471V17.7951C25.6894 17.9364 25.6717 18.0954 25.6364 18.2366ZM17.2653 3.36651V2.67775C17.2653 2.66009 17.2653 2.64243 17.2653 2.64243C17.2477 2.62477 17.2477 2.6071 17.2477 2.58944C17.2123 2.53646 17.177 2.48348 17.1417 2.44816C17.1064 2.41284 17.0534 2.37752 17.0004 2.3422C16.9827 2.3422 16.9651 2.32454 16.9474 2.32454C16.9298 2.32454 16.9121 2.32454 16.8944 2.32454H9.77726C9.7596 2.32454 9.74194 2.32454 9.74194 2.32454C9.72428 2.32454 9.70662 2.3422 9.6713 2.3422C9.63598 2.37752 9.583 2.41284 9.54768 2.44816C9.51236 2.48348 9.47703 2.53646 9.44171 2.57178C9.44171 2.6071 9.44171 2.62477 9.42405 2.64243C9.42405 2.64243 9.42405 2.66009 9.42405 2.67775V3.36651H17.2653ZM12.3027 12.1614C12.2851 12.1614 12.2851 12.1614 12.2674 12.1614C12.2497 12.1791 12.2144 12.1968 12.1968 12.2144C12.1791 12.2497 12.1438 12.2674 12.1438 12.3027C12.1261 12.3027 12.1261 12.3204 12.1261 12.3204V12.338V12.9385C12.1261 12.9385 12.1261 12.9562 12.1438 12.9562C12.1614 12.9915 12.1791 13.0268 12.1968 13.0621C12.2321 13.0798 12.2497 13.0974 12.2851 13.1151H12.3027V13.1328H14.3867V13.1151H14.4043C14.4396 13.0974 14.475 13.0798 14.5103 13.0445C14.5279 13.0268 14.5456 12.9915 14.5633 12.9562C14.5809 12.9385 14.5809 12.9385 14.5809 12.9208V12.338C14.5809 12.3204 14.5809 12.3204 14.5809 12.3027C14.5633 12.2851 14.5279 12.2497 14.5103 12.2321C14.475 12.1968 14.4573 12.1791 14.422 12.1614C14.4043 12.1614 14.4043 12.1614 14.3867 12.1614H12.3027Z" stroke="#5B5B5D" stroke-width="0.4" mask="url(#path-1-outside-1_915_19496)"/>
<circle cx="25" cy="19" r="6.35" fill="white" stroke="#5B5B5D" stroke-width="1.3"/>
<path d="M22 18.5L24.5 21L28.5 17" stroke="#5B5B5D" stroke-width="2"/>
</svg>
