<svg width="26" height="26" viewBox="0 0 26 26" fill="none" xmlns="http://www.w3.org/2000/svg">
<path d="M20.9408 2.31176H20.1588V1.70588C20.1588 1.26082 19.798 0.9 19.3529 0.9C18.9079 0.9 18.5471 1.26082 18.5471 1.70588V2.31176H7.45294V1.70588C7.45294 1.26082 7.09212 0.9 6.64706 0.9C6.202 0.9 5.84118 1.26082 5.84118 1.70588V2.31176H5.05925C2.76571 2.31176 0.9 4.17748 0.9 6.47101V20.9408C0.9 23.2343 2.76571 25.1 5.05925 25.1H20.9408C23.2343 25.1 25.1 23.2343 25.1 20.9408V6.47101C25.1 4.17748 23.2343 2.31176 20.9408 2.31176ZM5.05925 3.92353H5.84118V5.23529C5.84118 5.68036 6.202 6.04118 6.64706 6.04118C7.09212 6.04118 7.45294 5.68036 7.45294 5.23529V3.92353H18.5471V5.23529C18.5471 5.68036 18.9079 6.04118 19.3529 6.04118C19.798 6.04118 20.1588 5.68036 20.1588 5.23529V3.92353H20.9408C22.3454 3.92353 23.4882 5.06638 23.4882 6.47101V7.95882H2.51176V6.47101C2.51176 5.06638 3.65462 3.92353 5.05925 3.92353ZM20.9408 23.4882H5.05925C3.65462 23.4882 2.51176 22.3454 2.51176 20.9408V9.57059H23.4882V20.9408C23.4882 22.3454 22.3454 23.4882 20.9408 23.4882Z" fill="#5B5B5D" stroke="#5B5B5D" stroke-width="0.2"/>
<path d="M7 9V23.5" stroke="#5B5B5D" stroke-width="1.5"/>
<path d="M13 9V23.5" stroke="#5B5B5D" stroke-width="1.5"/>
<path d="M19 9V23.5" stroke="#5B5B5D" stroke-width="1.5"/>
<path d="M24 14L2 14" stroke="#5B5B5D" stroke-width="1.5"/>
<path d="M24 19H2" stroke="#5B5B5D" stroke-width="1.5"/>
</svg>
