<svg width="500" height="500" viewBox="0 0 500 500" fill="none" xmlns="http://www.w3.org/2000/svg">
<path d="M376.91 152.43C361.06 129.05 347.91 99.81 322.28 85.36C285.83 64.81 250.79 92.75 221.28 112.47C205.78 122.82 189.28 133.6 170.5 136.6C143.64 140.9 116.36 129.01 89.73 136.29C44.73 148.59 32.42 203.29 47.55 242.16C68.55 296.16 115.55 354.16 124.55 398.16C133.55 442.16 175.55 473.16 247.55 453.16C319.55 433.16 315.55 387.16 379.55 377.16C443.55 367.16 474.55 321.16 463.55 263.16C458.14 234.61 440.6 213.66 417.79 196.84C401.47 184.84 388.25 169.15 376.91 152.43Z" fill="#FF8C00"/>
<g opacity="0.7">
<path d="M376.91 152.43C361.06 129.05 347.91 99.81 322.28 85.36C285.83 64.81 250.79 92.75 221.28 112.47C205.78 122.82 189.28 133.6 170.5 136.6C143.64 140.9 116.36 129.01 89.73 136.29C44.73 148.59 32.42 203.29 47.55 242.16C68.55 296.16 115.55 354.16 124.55 398.16C133.55 442.16 175.55 473.16 247.55 453.16C319.55 433.16 315.55 387.16 379.55 377.16C443.55 367.16 474.55 321.16 463.55 263.16C458.14 234.61 440.6 213.66 417.79 196.84C401.47 184.84 388.25 169.15 376.91 152.43Z" fill="white"/>
</g>
<path d="M122.92 60.92C122.92 60.92 128.23 56.73 129.59 54.04C130.75 51.75 131.59 48.51 130.39 46.04C130.126 45.4592 129.743 44.9403 129.266 44.5171C128.789 44.0939 128.228 43.7758 127.619 43.5834C127.011 43.391 126.369 43.3287 125.735 43.4005C125.102 43.4722 124.49 43.6765 123.94 44C120.67 46 120.32 53 121.15 56.3C121.22 56.59 122.87 61 122.92 60.92Z" fill="#FF8C00"/>
<path d="M73.85 95.8499C74.06 96.0499 77.85 98.7899 77.85 98.7199C77.85 98.6499 80 92.2999 79.64 89.3099C79.34 86.7599 78.25 83.5899 75.91 82.2199C75.3699 81.8774 74.7638 81.6523 74.1311 81.5592C73.4983 81.4662 72.8531 81.5073 72.2373 81.6799C71.6214 81.8525 71.0488 82.1527 70.5566 82.561C70.0643 82.9693 69.6634 83.4766 69.38 84.0499C67.78 87.5499 71.31 93.5199 73.85 95.8499Z" fill="#FF8C00"/>
<path d="M185.07 67.27C185.07 67.27 165.64 87.33 165.74 112C165.84 136.67 185.46 156.53 185.46 156.53C185.46 156.53 204.89 136.47 204.78 111.83C204.67 87.19 185.07 67.27 185.07 67.27Z" fill="#FF8C00"/>
<path d="M157.36 126.73C157.619 126.452 157.856 126.154 158.07 125.84C159.48 123.7 160.69 120.58 159.78 118.02C159.587 117.411 159.268 116.85 158.844 116.372C158.42 115.894 157.9 115.511 157.318 115.247C156.736 114.983 156.106 114.844 155.467 114.839C154.828 114.835 154.195 114.964 153.61 115.22C150.97 116.47 149.67 120.7 149.39 124.16C148.39 123.92 147.39 123.73 146.58 123.6C146.23 122.81 145.88 122.02 145.52 121.23C145.16 120.44 144.87 119.58 144.52 118.75C144.05 117.52 143.63 116.23 143.21 114.94C144.75 114.25 149.21 112.16 150.89 110.31C152.57 108.46 154.28 105.51 153.77 102.84C153.673 102.208 153.443 101.603 153.096 101.066C152.749 100.528 152.293 100.07 151.757 99.7209C151.221 99.3718 150.617 99.1396 149.985 99.0395C149.353 98.9393 148.708 98.9736 148.09 99.1399C144.4 100.23 142.23 106.83 142.16 110.26C142.16 110.37 142.16 111.1 142.29 111.97C141.92 110.69 141.54 109.43 141.21 108.13C140.26 104.44 139.41 100.65 138.54 96.8599C138.36 96.0699 138.17 95.2799 137.98 94.4899C139.28 93.9199 144.15 91.6899 145.9 89.7599C147.65 87.8299 149.28 84.9599 148.77 82.2899C148.674 81.657 148.445 81.0515 148.099 80.5133C147.752 79.975 147.296 79.5161 146.759 79.1667C146.223 78.8173 145.619 78.5853 144.986 78.4859C144.354 78.3865 143.708 78.4219 143.09 78.5899C139.41 79.6799 137.24 86.2799 137.16 89.7099C137.16 89.8399 137.23 90.7099 137.32 91.7099C136.82 89.6499 136.32 87.6099 135.71 85.5999C134.728 82.1491 133.515 78.7682 132.08 75.4799C132.54 75.2799 138.3 72.7899 140.24 70.6399C141.96 68.7299 143.63 65.8299 143.12 63.1599C143.021 62.5284 142.79 61.9248 142.443 61.3882C142.096 60.8516 141.639 60.394 141.104 60.0451C140.568 59.6962 139.965 59.4638 139.334 59.363C138.703 59.2622 138.058 59.2952 137.44 59.4599C133.75 60.5599 131.58 67.1499 131.51 70.5899C131.51 70.8299 131.79 73.9699 131.93 75.0899V74.9699C130.44 71.7731 128.67 68.7145 126.64 65.8299C124.84 63.2478 122.89 60.7736 120.8 58.4199C118.89 56.2099 117 54.3099 115.31 52.6399C114.4 51.7399 113.54 50.9399 112.73 50.1999H112.81C112.88 50.1999 111.01 45.9099 110.87 45.6499C109.14 42.6499 104.06 37.9399 100.3 38.7599C99.6773 38.9132 99.094 39.1962 98.5881 39.5903C98.0822 39.9844 97.6651 40.4807 97.364 41.047C97.063 41.6132 96.8848 42.2366 96.841 42.8763C96.7972 43.5161 96.8889 44.158 97.11 44.7599C97.95 47.3399 100.81 49.0899 103.24 49.9199C105.67 50.7499 111.16 50.3699 112.5 50.2499C113.33 51.0299 114.2 51.8799 115.14 52.8399C116.78 54.5499 118.62 56.4799 120.48 58.7199C120.98 59.3199 121.48 59.9799 121.99 60.6099C120.92 59.7199 119.43 58.5299 119.27 58.4299C116.37 56.5799 109.68 54.7199 106.72 57.1799C106.24 57.6026 105.855 58.1215 105.589 58.7028C105.322 59.2841 105.181 59.915 105.175 60.5543C105.168 61.1937 105.296 61.8273 105.55 62.414C105.804 63.0007 106.179 63.5274 106.65 63.9599C108.58 65.8599 111.92 66.0899 114.46 65.7199C117 65.3499 121.85 62.3699 122.87 61.7199C123.97 63.1399 125.07 64.6199 126.12 66.2299C128.055 69.1185 129.728 72.1739 131.12 75.3599C131.2 75.5499 131.26 75.7499 131.33 75.9299C130.88 75.3999 128.18 72.6699 127.96 72.4999C125.28 70.3499 118.84 67.7699 115.63 69.8899C115.105 70.2559 114.664 70.7284 114.334 71.2767C114.004 71.8249 113.793 72.4366 113.716 73.0717C113.639 73.7068 113.696 74.3511 113.885 74.9625C114.073 75.5739 114.388 76.1386 114.81 76.6199C116.52 78.7199 119.81 79.3199 122.38 79.2199C125.38 79.1199 131.16 76.2199 131.38 76.0699C132.692 79.2844 133.791 82.5815 134.67 85.9399C135.33 88.4199 135.9 90.9399 136.45 93.5199C135.85 92.8399 133.33 90.3099 133.13 90.1399C130.45 87.9899 124.01 85.4099 120.79 87.5299C120.266 87.8969 119.826 88.3699 119.497 88.9181C119.168 89.4664 118.958 90.0776 118.881 90.7123C118.804 91.3469 118.861 91.9907 119.048 92.6019C119.236 93.2131 119.55 93.778 119.97 94.2599C121.69 96.3599 124.97 96.9599 127.55 96.8599C130.43 96.7599 136.03 93.9699 136.55 93.7299C136.8 94.8899 137.05 96.0499 137.29 97.2199C138.08 101.02 138.85 104.84 139.72 108.58C140.03 109.88 140.37 111.15 140.72 112.42C139.78 111.42 138.03 109.67 137.87 109.54C135.19 107.38 128.74 104.8 125.53 106.92C125.005 107.286 124.564 107.758 124.234 108.307C123.904 108.855 123.693 109.467 123.616 110.102C123.539 110.737 123.596 111.381 123.785 111.992C123.973 112.604 124.288 113.169 124.71 113.65C126.42 115.76 129.71 116.35 132.28 116.26C134.85 116.17 139.61 113.92 140.94 113.26C141.53 115.37 142.15 117.45 142.87 119.47C143.2 120.33 143.47 121.23 143.87 122.04L144.42 123.33L143.67 123.26C143.67 123.26 143.67 124.47 143.74 126.42C140.91 124.42 136.83 122.67 134.18 123.89C133.607 124.173 133.099 124.574 132.691 125.066C132.283 125.559 131.983 126.131 131.81 126.747C131.637 127.363 131.596 128.008 131.689 128.641C131.782 129.274 132.007 129.88 132.35 130.42C132.52 130.708 132.718 130.979 132.94 131.23C133.443 134.215 134.703 137.021 136.6 139.38C136.74 139.54 138.66 141.32 139.67 142.2C138.67 141.68 137.73 141.2 136.73 140.59C135.29 139.79 133.79 138.9 132.33 138.04L130 136.55C129.23 136.08 128.55 135.55 127.81 135.03C126.74 134.26 125.68 133.42 124.62 132.57C125.52 131.15 128.1 126.94 128.48 124.48C128.86 122.02 128.65 118.6 126.75 116.66C126.322 116.185 125.8 115.805 125.216 115.544C124.632 115.284 123.999 115.15 123.36 115.15C122.721 115.15 122.088 115.284 121.504 115.544C120.92 115.805 120.398 116.185 119.97 116.66C117.5 119.66 119.33 126.31 121.16 129.22C121.22 129.31 121.67 129.89 122.16 130.56C121.16 129.71 120.16 128.86 119.16 127.96C116.34 125.4 113.54 122.71 110.72 120.03L109 118.4C109.77 117.21 112.6 112.67 113 110.1C113.4 107.53 113.17 104.22 111.28 102.27C110.852 101.795 110.33 101.415 109.746 101.154C109.162 100.894 108.529 100.76 107.89 100.76C107.251 100.76 106.618 100.894 106.034 101.154C105.45 101.415 104.928 101.795 104.5 102.27C102.03 105.27 103.86 111.91 105.69 114.82C105.75 114.93 106.29 115.61 106.9 116.37C105.35 114.94 103.79 113.52 102.19 112.17C99.467 109.833 96.5906 107.682 93.58 105.73C93.85 105.31 97.28 100.05 97.72 97.1899C98.1 94.6499 97.89 91.3099 95.99 89.3699C95.5633 88.8949 95.0414 88.5149 94.4582 88.2548C93.875 87.9948 93.2436 87.8604 92.605 87.8604C91.9664 87.8604 91.335 87.9948 90.7518 88.2548C90.1686 88.5149 89.6467 88.8949 89.22 89.3699C86.74 92.3699 88.57 99.0199 90.4 101.93C90.53 102.13 92.51 104.6 93.24 105.45L93.13 105.38C90.1271 103.531 86.9644 101.954 83.68 100.67C80.7404 99.4971 77.7354 98.4954 74.68 97.6699C71.86 96.8799 69.24 96.3399 66.92 95.8699C65.65 95.6299 64.5 95.4399 63.41 95.2599H63.48C63.53 95.2599 59.61 92.6699 59.34 92.5399C56.27 91.0099 49.42 89.8699 46.73 92.6199C46.2971 93.0905 45.9681 93.6468 45.7642 94.2528C45.5603 94.8588 45.4861 95.5009 45.5464 96.1375C45.6068 96.774 45.8003 97.3907 46.1145 97.9476C46.4286 98.5045 46.8564 98.9891 47.37 99.3699C49.5 101.06 52.84 100.94 55.37 100.3C57.9 99.6599 62.22 96.2999 63.27 95.4599C64.39 95.6599 65.59 95.8899 66.91 96.1699C69.22 96.6799 71.82 97.2799 74.6 98.1699C75.35 98.3999 76.14 98.6699 76.91 98.9099C75.52 98.7699 73.62 98.5899 73.43 98.5899C70 98.6599 63.43 100.79 62.28 104.48C62.1103 105.096 62.0726 105.741 62.1694 106.373C62.2662 107.005 62.4954 107.609 62.8418 108.146C63.1882 108.683 63.6442 109.141 64.1798 109.49C64.7154 109.839 65.3186 110.07 65.95 110.17C68.62 110.69 71.53 109.04 73.44 107.33C75.35 105.62 77.75 100.46 78.25 99.3299C79.95 99.8999 81.68 100.53 83.44 101.33C86.6539 102.671 89.7427 104.294 92.67 106.18C92.84 106.29 93 106.43 93.17 106.54C92.5 106.35 88.74 105.54 88.47 105.54C85.05 105.22 78.25 106.62 76.74 110.16C76.5031 110.752 76.3937 111.388 76.419 112.026C76.4443 112.663 76.6036 113.288 76.8867 113.86C77.1698 114.432 77.5702 114.937 78.0618 115.344C78.5534 115.751 79.1253 116.049 79.74 116.22C82.34 117.03 85.41 115.71 87.5 114.22C89.91 112.5 93.14 106.83 93.26 106.62C96.1268 108.579 98.8626 110.724 101.45 113.04C103.37 114.75 105.25 116.55 107.12 118.38C106.24 118.15 102.75 117.38 102.49 117.38C99.07 117.06 92.27 118.46 90.76 122C90.5247 122.593 90.4165 123.229 90.4424 123.867C90.4684 124.505 90.6279 125.13 90.9107 125.702C91.1935 126.274 91.5932 126.78 92.084 127.188C92.5748 127.596 93.1458 127.897 93.76 128.07C96.36 128.88 99.43 127.56 101.52 126.07C103.87 124.39 106.99 118.98 107.26 118.52L109.8 121.02C112.55 123.76 115.3 126.52 118.1 129.16C119.1 130.07 120.1 130.94 121.04 131.81C119.71 131.51 117.28 131 117.04 130.98C113.61 130.67 106.82 132.07 105.3 135.61C105.065 136.202 104.957 136.838 104.983 137.475C105.009 138.112 105.168 138.736 105.451 139.308C105.734 139.879 106.134 140.385 106.625 140.792C107.115 141.198 107.686 141.498 108.3 141.67C110.89 142.48 113.97 141.16 116.06 139.67C118.15 138.18 120.88 133.67 121.63 132.4C123.28 133.83 124.95 135.22 126.63 136.51C127.38 137.05 128.11 137.65 128.86 138.13L131.07 139.61C132.61 140.61 134.07 141.46 135.51 142.31C136.24 142.75 136.94 143.14 137.66 143.56C136.36 143.05 134.29 142.28 134.09 142.23C130.76 141.4 123.82 141.75 121.79 145.02C121.468 145.572 121.265 146.186 121.196 146.822C121.127 147.458 121.193 148.101 121.39 148.709C121.586 149.318 121.908 149.878 122.336 150.354C122.763 150.83 123.286 151.21 123.87 151.47C126.31 152.67 129.55 151.83 131.87 150.67C134.39 149.39 138.19 144.67 138.65 144.11C140.42 145.11 142.15 146.11 143.78 146.95C148.14 149.29 151.95 151.15 154.9 152.53C164.5 160.83 178.01 161.75 178.01 161.75C178.01 161.75 178.72 145.57 169.2 134.92C165.897 131.36 161.856 128.565 157.36 126.73ZM140.23 142.5C140.53 141.84 142.83 136.7 142.99 133.8C143.52 133.7 144.06 133.59 144.58 133.47C145.565 138.586 147.609 143.44 150.58 147.72C148.83 146.89 146.94 145.97 144.94 144.95C143.4 144.19 141.83 143.37 140.23 142.5Z" fill="#FF8C00"/>
<path d="M228.15 123.63C228.15 123.63 211.96 124.13 202.05 134.42C192.14 144.71 192.27 160.91 192.27 160.91C192.27 160.91 208.46 160.41 218.36 150.12C228.26 139.83 228.15 123.63 228.15 123.63Z" fill="#FF8C00"/>
<g opacity="0.5">
<path d="M122.92 60.92C122.92 60.92 128.23 56.73 129.59 54.04C130.75 51.75 131.59 48.51 130.39 46.04C130.126 45.4592 129.743 44.9403 129.266 44.5171C128.789 44.0939 128.228 43.7758 127.619 43.5834C127.011 43.391 126.369 43.3287 125.735 43.4005C125.102 43.4722 124.49 43.6765 123.94 44C120.67 46 120.32 53 121.15 56.3C121.22 56.59 122.87 61 122.92 60.92Z" fill="white"/>
<path d="M73.85 95.8499C74.06 96.0499 77.85 98.7899 77.85 98.7199C77.85 98.6499 80 92.2999 79.64 89.3099C79.34 86.7599 78.25 83.5899 75.91 82.2199C75.3699 81.8774 74.7638 81.6523 74.1311 81.5592C73.4983 81.4662 72.8531 81.5073 72.2373 81.6799C71.6214 81.8525 71.0488 82.1527 70.5566 82.561C70.0643 82.9693 69.6634 83.4766 69.38 84.0499C67.78 87.5499 71.31 93.5199 73.85 95.8499Z" fill="white"/>
<path d="M185.07 67.27C185.07 67.27 165.64 87.33 165.74 112C165.84 136.67 185.46 156.53 185.46 156.53C185.46 156.53 204.89 136.47 204.78 111.83C204.67 87.19 185.07 67.27 185.07 67.27Z" fill="white"/>
<path d="M157.36 126.73C157.619 126.452 157.856 126.154 158.07 125.84C159.48 123.7 160.69 120.58 159.78 118.02C159.587 117.411 159.268 116.85 158.844 116.372C158.42 115.894 157.9 115.511 157.318 115.247C156.736 114.983 156.106 114.844 155.467 114.839C154.828 114.835 154.195 114.964 153.61 115.22C150.97 116.47 149.67 120.7 149.39 124.16C148.39 123.92 147.39 123.73 146.58 123.6C146.23 122.81 145.88 122.02 145.52 121.23C145.16 120.44 144.87 119.58 144.52 118.75C144.05 117.52 143.63 116.23 143.21 114.94C144.75 114.25 149.21 112.16 150.89 110.31C152.57 108.46 154.28 105.51 153.77 102.84C153.673 102.208 153.443 101.603 153.096 101.066C152.749 100.528 152.293 100.07 151.757 99.7209C151.221 99.3718 150.617 99.1396 149.985 99.0395C149.353 98.9393 148.708 98.9736 148.09 99.1399C144.4 100.23 142.23 106.83 142.16 110.26C142.16 110.37 142.16 111.1 142.29 111.97C141.92 110.69 141.54 109.43 141.21 108.13C140.26 104.44 139.41 100.65 138.54 96.8599C138.36 96.0699 138.17 95.2799 137.98 94.4899C139.28 93.9199 144.15 91.6899 145.9 89.7599C147.65 87.8299 149.28 84.9599 148.77 82.2899C148.674 81.657 148.445 81.0515 148.099 80.5133C147.752 79.975 147.296 79.5161 146.759 79.1667C146.223 78.8173 145.619 78.5853 144.986 78.4859C144.354 78.3865 143.708 78.4219 143.09 78.5899C139.41 79.6799 137.24 86.2799 137.16 89.7099C137.16 89.8399 137.23 90.7099 137.32 91.7099C136.82 89.6499 136.32 87.6099 135.71 85.5999C134.728 82.1491 133.515 78.7682 132.08 75.4799C132.54 75.2799 138.3 72.7899 140.24 70.6399C141.96 68.7299 143.63 65.8299 143.12 63.1599C143.021 62.5284 142.79 61.9248 142.443 61.3882C142.096 60.8516 141.639 60.394 141.104 60.0451C140.568 59.6962 139.965 59.4638 139.334 59.363C138.703 59.2622 138.058 59.2952 137.44 59.4599C133.75 60.5599 131.58 67.1499 131.51 70.5899C131.51 70.8299 131.79 73.9699 131.93 75.0899V74.9699C130.44 71.7731 128.67 68.7145 126.64 65.8299C124.84 63.2478 122.89 60.7736 120.8 58.4199C118.89 56.2099 117 54.3099 115.31 52.6399C114.4 51.7399 113.54 50.9399 112.73 50.1999H112.81C112.88 50.1999 111.01 45.9099 110.87 45.6499C109.14 42.6499 104.06 37.9399 100.3 38.7599C99.6773 38.9132 99.094 39.1962 98.5881 39.5903C98.0822 39.9844 97.6651 40.4807 97.364 41.047C97.063 41.6132 96.8848 42.2366 96.841 42.8763C96.7972 43.5161 96.8889 44.158 97.11 44.7599C97.95 47.3399 100.81 49.0899 103.24 49.9199C105.67 50.7499 111.16 50.3699 112.5 50.2499C113.33 51.0299 114.2 51.8799 115.14 52.8399C116.78 54.5499 118.62 56.4799 120.48 58.7199C120.98 59.3199 121.48 59.9799 121.99 60.6099C120.92 59.7199 119.43 58.5299 119.27 58.4299C116.37 56.5799 109.68 54.7199 106.72 57.1799C106.24 57.6026 105.855 58.1215 105.589 58.7028C105.322 59.2841 105.181 59.915 105.175 60.5543C105.168 61.1937 105.296 61.8273 105.55 62.414C105.804 63.0007 106.179 63.5274 106.65 63.9599C108.58 65.8599 111.92 66.0899 114.46 65.7199C117 65.3499 121.85 62.3699 122.87 61.7199C123.97 63.1399 125.07 64.6199 126.12 66.2299C128.055 69.1185 129.728 72.1739 131.12 75.3599C131.2 75.5499 131.26 75.7499 131.33 75.9299C130.88 75.3999 128.18 72.6699 127.96 72.4999C125.28 70.3499 118.84 67.7699 115.63 69.8899C115.105 70.2559 114.664 70.7284 114.334 71.2767C114.004 71.8249 113.793 72.4366 113.716 73.0717C113.639 73.7068 113.696 74.3511 113.885 74.9625C114.073 75.5739 114.388 76.1386 114.81 76.6199C116.52 78.7199 119.81 79.3199 122.38 79.2199C125.38 79.1199 131.16 76.2199 131.38 76.0699C132.692 79.2844 133.791 82.5815 134.67 85.9399C135.33 88.4199 135.9 90.9399 136.45 93.5199C135.85 92.8399 133.33 90.3099 133.13 90.1399C130.45 87.9899 124.01 85.4099 120.79 87.5299C120.266 87.8969 119.826 88.3699 119.497 88.9181C119.168 89.4664 118.958 90.0776 118.881 90.7123C118.804 91.3469 118.861 91.9907 119.048 92.6019C119.236 93.2131 119.55 93.778 119.97 94.2599C121.69 96.3599 124.97 96.9599 127.55 96.8599C130.43 96.7599 136.03 93.9699 136.55 93.7299C136.8 94.8899 137.05 96.0499 137.29 97.2199C138.08 101.02 138.85 104.84 139.72 108.58C140.03 109.88 140.37 111.15 140.72 112.42C139.78 111.42 138.03 109.67 137.87 109.54C135.19 107.38 128.74 104.8 125.53 106.92C125.005 107.286 124.564 107.758 124.234 108.307C123.904 108.855 123.693 109.467 123.616 110.102C123.539 110.737 123.596 111.381 123.785 111.992C123.973 112.604 124.288 113.169 124.71 113.65C126.42 115.76 129.71 116.35 132.28 116.26C134.85 116.17 139.61 113.92 140.94 113.26C141.53 115.37 142.15 117.45 142.87 119.47C143.2 120.33 143.47 121.23 143.87 122.04L144.42 123.33L143.67 123.26C143.67 123.26 143.67 124.47 143.74 126.42C140.91 124.42 136.83 122.67 134.18 123.89C133.607 124.173 133.099 124.574 132.691 125.066C132.283 125.559 131.983 126.131 131.81 126.747C131.637 127.363 131.596 128.008 131.689 128.641C131.782 129.274 132.007 129.88 132.35 130.42C132.52 130.708 132.718 130.979 132.94 131.23C133.443 134.215 134.703 137.021 136.6 139.38C136.74 139.54 138.66 141.32 139.67 142.2C138.67 141.68 137.73 141.2 136.73 140.59C135.29 139.79 133.79 138.9 132.33 138.04L130 136.55C129.23 136.08 128.55 135.55 127.81 135.03C126.74 134.26 125.68 133.42 124.62 132.57C125.52 131.15 128.1 126.94 128.48 124.48C128.86 122.02 128.65 118.6 126.75 116.66C126.322 116.185 125.8 115.805 125.216 115.544C124.632 115.284 123.999 115.15 123.36 115.15C122.721 115.15 122.088 115.284 121.504 115.544C120.92 115.805 120.398 116.185 119.97 116.66C117.5 119.66 119.33 126.31 121.16 129.22C121.22 129.31 121.67 129.89 122.16 130.56C121.16 129.71 120.16 128.86 119.16 127.96C116.34 125.4 113.54 122.71 110.72 120.03L109 118.4C109.77 117.21 112.6 112.67 113 110.1C113.4 107.53 113.17 104.22 111.28 102.27C110.852 101.795 110.33 101.415 109.746 101.154C109.162 100.894 108.529 100.76 107.89 100.76C107.251 100.76 106.618 100.894 106.034 101.154C105.45 101.415 104.928 101.795 104.5 102.27C102.03 105.27 103.86 111.91 105.69 114.82C105.75 114.93 106.29 115.61 106.9 116.37C105.35 114.94 103.79 113.52 102.19 112.17C99.467 109.833 96.5906 107.682 93.58 105.73C93.85 105.31 97.28 100.05 97.72 97.1899C98.1 94.6499 97.89 91.3099 95.99 89.3699C95.5633 88.8949 95.0414 88.5149 94.4582 88.2548C93.875 87.9948 93.2436 87.8604 92.605 87.8604C91.9664 87.8604 91.335 87.9948 90.7518 88.2548C90.1686 88.5149 89.6467 88.8949 89.22 89.3699C86.74 92.3699 88.57 99.0199 90.4 101.93C90.53 102.13 92.51 104.6 93.24 105.45L93.13 105.38C90.1271 103.531 86.9644 101.954 83.68 100.67C80.7404 99.4971 77.7354 98.4954 74.68 97.6699C71.86 96.8799 69.24 96.3399 66.92 95.8699C65.65 95.6299 64.5 95.4399 63.41 95.2599H63.48C63.53 95.2599 59.61 92.6699 59.34 92.5399C56.27 91.0099 49.42 89.8699 46.73 92.6199C46.2971 93.0905 45.9681 93.6468 45.7642 94.2528C45.5603 94.8588 45.4861 95.5009 45.5464 96.1375C45.6068 96.774 45.8003 97.3907 46.1145 97.9476C46.4286 98.5045 46.8564 98.9891 47.37 99.3699C49.5 101.06 52.84 100.94 55.37 100.3C57.9 99.6599 62.22 96.2999 63.27 95.4599C64.39 95.6599 65.59 95.8899 66.91 96.1699C69.22 96.6799 71.82 97.2799 74.6 98.1699C75.35 98.3999 76.14 98.6699 76.91 98.9099C75.52 98.7699 73.62 98.5899 73.43 98.5899C70 98.6599 63.43 100.79 62.28 104.48C62.1103 105.096 62.0726 105.741 62.1694 106.373C62.2662 107.005 62.4954 107.609 62.8418 108.146C63.1882 108.683 63.6442 109.141 64.1798 109.49C64.7154 109.839 65.3186 110.07 65.95 110.17C68.62 110.69 71.53 109.04 73.44 107.33C75.35 105.62 77.75 100.46 78.25 99.3299C79.95 99.8999 81.68 100.53 83.44 101.33C86.6539 102.671 89.7427 104.294 92.67 106.18C92.84 106.29 93 106.43 93.17 106.54C92.5 106.35 88.74 105.54 88.47 105.54C85.05 105.22 78.25 106.62 76.74 110.16C76.5031 110.752 76.3937 111.388 76.419 112.026C76.4443 112.663 76.6036 113.288 76.8867 113.86C77.1698 114.432 77.5702 114.937 78.0618 115.344C78.5534 115.751 79.1253 116.049 79.74 116.22C82.34 117.03 85.41 115.71 87.5 114.22C89.91 112.5 93.14 106.83 93.26 106.62C96.1268 108.579 98.8626 110.724 101.45 113.04C103.37 114.75 105.25 116.55 107.12 118.38C106.24 118.15 102.75 117.38 102.49 117.38C99.07 117.06 92.27 118.46 90.76 122C90.5247 122.593 90.4165 123.229 90.4424 123.867C90.4684 124.505 90.6279 125.13 90.9107 125.702C91.1935 126.274 91.5932 126.78 92.084 127.188C92.5748 127.596 93.1458 127.897 93.76 128.07C96.36 128.88 99.43 127.56 101.52 126.07C103.87 124.39 106.99 118.98 107.26 118.52L109.8 121.02C112.55 123.76 115.3 126.52 118.1 129.16C119.1 130.07 120.1 130.94 121.04 131.81C119.71 131.51 117.28 131 117.04 130.98C113.61 130.67 106.82 132.07 105.3 135.61C105.065 136.202 104.957 136.838 104.983 137.475C105.009 138.112 105.168 138.736 105.451 139.308C105.734 139.879 106.134 140.385 106.625 140.792C107.115 141.198 107.686 141.498 108.3 141.67C110.89 142.48 113.97 141.16 116.06 139.67C118.15 138.18 120.88 133.67 121.63 132.4C123.28 133.83 124.95 135.22 126.63 136.51C127.38 137.05 128.11 137.65 128.86 138.13L131.07 139.61C132.61 140.61 134.07 141.46 135.51 142.31C136.24 142.75 136.94 143.14 137.66 143.56C136.36 143.05 134.29 142.28 134.09 142.23C130.76 141.4 123.82 141.75 121.79 145.02C121.468 145.572 121.265 146.186 121.196 146.822C121.127 147.458 121.193 148.101 121.39 148.709C121.586 149.318 121.908 149.878 122.336 150.354C122.763 150.83 123.286 151.21 123.87 151.47C126.31 152.67 129.55 151.83 131.87 150.67C134.39 149.39 138.19 144.67 138.65 144.11C140.42 145.11 142.15 146.11 143.78 146.95C148.14 149.29 151.95 151.15 154.9 152.53C164.5 160.83 178.01 161.75 178.01 161.75C178.01 161.75 178.72 145.57 169.2 134.92C165.897 131.36 161.856 128.565 157.36 126.73ZM140.23 142.5C140.53 141.84 142.83 136.7 142.99 133.8C143.52 133.7 144.06 133.59 144.58 133.47C145.565 138.586 147.609 143.44 150.58 147.72C148.83 146.89 146.94 145.97 144.94 144.95C143.4 144.19 141.83 143.37 140.23 142.5Z" fill="white"/>
<path d="M228.15 123.63C228.15 123.63 211.96 124.13 202.05 134.42C192.14 144.71 192.27 160.91 192.27 160.91C192.27 160.91 208.46 160.41 218.36 150.12C228.26 139.83 228.15 123.63 228.15 123.63Z" fill="white"/>
</g>
<path d="M185.87 134.06L201.77 119.77L201.09 119.01L185.86 132.7L185.78 113.96L185.87 114.02L199.31 94.36L198.47 93.78L185.78 112.34L185.58 67.27H184.56L184.69 97.87L174.57 89.11L173.91 89.88L184.7 99.22L184.79 121.1L169.45 107.52L168.78 108.29L184.8 122.46L184.88 142.38L173.35 133.33L172.73 134.14L184.89 143.68L184.95 156.5H185.97L185.87 134.06Z" fill="white"/>
<path d="M171.22 139.58L170.21 139.46L168.93 150.78L162.1 143.15H162.12L160.38 129.45L159.37 129.58L160.92 141.83L143.95 122.86L143.19 123.54L154.71 136.41L147.42 136.5L147.43 137.52L155.61 137.42L163.68 146.45L152.28 146.46V147.48L164.59 147.47L171.93 155.67L163.89 156.16L163.96 157.17L172.8 156.64L177.69 162.11L178.45 161.43L169.84 151.8L171.22 139.58Z" fill="white"/>
<path d="M209.64 143.61L223.18 140.87L222.97 139.87L210.87 142.32L228.51 123.99L227.78 123.28L215.81 135.72L215.17 128.46L214.16 128.55L214.87 136.7L206.47 145.42L205.61 134.05L204.59 134.13L205.52 146.41L197.89 154.34L196.81 146.36L195.79 146.49L196.99 155.28L191.9 160.56L192.63 161.26L201.59 151.96L213.88 152.43L213.92 151.41L202.54 150.98L209.64 143.6V143.61Z" fill="white"/>
<path d="M234.9 432.74L115.8 215.31L33.51 243.16L60.2 295.06L58.51 292.16L53.51 293.82C53.0122 293.987 52.5563 294.259 52.1736 294.618C51.7909 294.978 51.4905 295.416 51.2929 295.902C51.0953 296.388 51.0053 296.912 51.0289 297.436C51.0526 297.96 51.1894 298.473 51.43 298.94L64.59 324.53C65.4288 326.166 66.7668 327.493 68.41 328.318C70.0533 329.144 71.9166 329.424 73.73 329.12L77.38 328.51L141.48 453.16L234.9 432.74Z" fill="#2E353A"/>
<path d="M311.84 121.43C310.56 122.13 309.055 122.293 307.654 121.884C306.254 121.476 305.073 120.528 304.37 119.25L301.32 113.68L115.8 215.31L234.9 432.74L420.43 331.12L355.59 212.75C354.891 211.472 354.728 209.968 355.137 208.569C355.545 207.171 356.493 205.991 357.77 205.29C358.404 204.943 358.963 204.474 359.416 203.911C359.868 203.348 360.206 202.701 360.408 202.007C360.611 201.313 360.674 200.586 360.596 199.868C360.517 199.15 360.298 198.454 359.95 197.82L319.3 123.61C318.599 122.333 317.42 121.386 316.021 120.977C314.622 120.568 313.119 120.731 311.84 121.43Z" fill="#FF8C00" stroke="#2E353A" stroke-linecap="round" stroke-linejoin="round"/>
<path d="M321.069 129.453L170.396 183.164L242.337 384.975L393.01 331.263L321.069 129.453Z" fill="white" stroke="#2E353A" stroke-linecap="round" stroke-linejoin="round"/>
<path d="M321.077 129.46L170.404 183.171L196.907 257.519L347.58 203.807L321.077 129.46Z" fill="white" stroke="#2E353A" stroke-linecap="round" stroke-linejoin="round"/>
<path d="M309.415 205.841C320.666 198.699 323.996 183.788 316.853 172.537C309.71 161.286 294.8 157.956 283.549 165.099C272.298 172.241 268.968 187.152 276.11 198.403C283.253 209.654 298.164 212.984 309.415 205.841Z" fill="#2E353A" stroke="#2E353A" stroke-linecap="round" stroke-linejoin="round"/>
<path d="M304.58 208.23C307.925 207.041 310.966 205.128 313.485 202.626C316.004 200.124 317.938 197.097 319.15 193.76C314.96 184.38 304.72 179.49 295.5 182.76C286.28 186.03 281.45 196.32 284.14 206.23C287.189 208.049 290.603 209.172 294.136 209.517C297.67 209.863 301.236 209.424 304.58 208.23Z" fill="white" stroke="#2E353A" stroke-linecap="round" stroke-linejoin="round"/>
<path d="M302.964 190.154C308.026 185.682 308.504 177.953 304.032 172.891C299.56 167.83 291.831 167.351 286.769 171.823C281.707 176.296 281.229 184.024 285.701 189.086C290.173 194.148 297.902 194.626 302.964 190.154Z" fill="white" stroke="#2E353A" stroke-linecap="round" stroke-linejoin="round"/>
<path d="M245.816 186.114L193.086 204.911L195.246 210.967L247.975 192.17L245.816 186.114Z" fill="white" stroke="#2E353A" stroke-linecap="round" stroke-linejoin="round"/>
<path d="M251.011 200.666L198.281 219.463L200.44 225.52L253.17 206.723L251.011 200.666Z" fill="white" stroke="#2E353A" stroke-linecap="round" stroke-linejoin="round"/>
<path d="M255.321 212.778L202.591 231.575L203.672 234.608L256.402 215.811L255.321 212.778Z" fill="#2E353A"/>
<path d="M257.915 220.056L205.185 238.853L206.267 241.886L258.996 223.089L257.915 220.056Z" fill="#2E353A"/>
<path d="M271.094 257.027L218.364 275.824L219.446 278.857L272.175 260.06L271.094 257.027Z" fill="#2E353A"/>
<path d="M273.466 263.701L220.736 282.498L221.817 285.531L274.547 266.734L273.466 263.701Z" fill="#2E353A"/>
<path d="M275.847 270.364L223.117 289.161L224.199 292.194L276.928 273.397L275.847 270.364Z" fill="#2E353A"/>
<path d="M342.612 231.528L289.882 250.325L290.964 253.358L343.693 234.561L342.612 231.528Z" fill="#2E353A"/>
<path d="M344.994 238.202L292.264 256.999L293.345 260.032L346.075 241.235L344.994 238.202Z" fill="#2E353A"/>
<path d="M347.366 244.869L294.636 263.666L295.717 266.699L348.447 247.902L347.366 244.869Z" fill="#2E353A"/>
<path d="M214.98 270.22L342.27 224.86" stroke="#2E353A" stroke-linecap="round" stroke-linejoin="round"/>
<path d="M283.41 291.574L230.68 310.371L231.762 313.404L284.491 294.607L283.41 291.574Z" fill="#2E353A"/>
<path d="M285.782 298.251L233.052 317.048L234.134 320.081L286.863 301.284L285.782 298.251Z" fill="#2E353A"/>
<path d="M288.164 304.914L235.434 323.711L236.515 326.744L289.245 307.947L288.164 304.914Z" fill="#2E353A"/>
<path d="M354.929 266.079L302.199 284.876L303.28 287.909L356.01 269.112L354.929 266.079Z" fill="#2E353A"/>
<path d="M357.31 272.752L304.58 291.549L305.662 294.582L358.391 275.785L357.31 272.752Z" fill="#2E353A"/>
<path d="M359.682 279.419L306.952 298.216L308.034 301.249L360.763 282.452L359.682 279.419Z" fill="#2E353A"/>
<path d="M227.29 304.77L354.58 259.41" stroke="#2E353A" stroke-linecap="round" stroke-linejoin="round"/>
<path d="M364.434 292.742L239.57 337.253L250.372 367.556L375.236 323.045L364.434 292.742Z" fill="#2E353A" stroke="#2E353A" stroke-linecap="round" stroke-linejoin="round"/>
<path d="M301.347 141.943L154.333 204.984L238.769 401.894L385.783 338.853L301.347 141.943Z" fill="white" stroke="#2E353A" stroke-linecap="round" stroke-linejoin="round"/>
<path d="M301.354 141.946L154.34 204.987L185.447 277.529L332.461 214.488L301.354 141.946Z" fill="white" stroke="#2E353A" stroke-linecap="round" stroke-linejoin="round"/>
<path d="M300.711 212.293C307.824 201.023 304.455 186.121 293.185 179.008C281.916 171.895 267.013 175.264 259.9 186.533C252.787 197.803 256.156 212.705 267.426 219.818C278.695 226.931 293.597 223.562 300.711 212.293Z" fill="#2E353A" stroke="#2E353A" stroke-linecap="round" stroke-linejoin="round"/>
<path d="M289.82 221.6C293.084 220.203 295.998 218.101 298.354 215.446C300.711 212.79 302.451 209.647 303.45 206.24C298.69 197.15 288.16 192.9 279.17 196.76C270.18 200.62 266 211.17 269.3 220.89C272.457 222.512 275.933 223.417 279.481 223.54C283.028 223.662 286.558 223 289.82 221.6Z" fill="white" stroke="#2E353A" stroke-linecap="round" stroke-linejoin="round"/>
<path d="M286.756 203.939C291.695 199.331 291.964 191.592 287.357 186.653C282.75 181.714 275.011 181.445 270.072 186.053C265.133 190.66 264.864 198.399 269.471 203.338C274.078 208.277 281.817 208.546 286.756 203.939Z" fill="white" stroke="#2E353A" stroke-linecap="round" stroke-linejoin="round"/>
<path d="M229.785 203.213L178.336 225.274L180.87 231.184L232.319 209.122L229.785 203.213Z" fill="white" stroke="#2E353A" stroke-linecap="round" stroke-linejoin="round"/>
<path d="M235.875 217.404L184.425 239.466L186.959 245.375L238.409 223.314L235.875 217.404Z" fill="white" stroke="#2E353A" stroke-linecap="round" stroke-linejoin="round"/>
<path d="M240.949 229.226L189.5 251.288L190.769 254.247L242.218 232.186L240.949 229.226Z" fill="#2E353A"/>
<path d="M243.991 236.323L192.542 258.385L193.811 261.345L245.26 239.283L243.991 236.323Z" fill="#2E353A"/>
<path d="M259.464 272.397L208.015 294.459L209.284 297.418L260.733 275.357L259.464 272.397Z" fill="#2E353A"/>
<path d="M262.254 278.901L210.805 300.963L212.074 303.922L263.523 281.86L262.254 278.901Z" fill="#2E353A"/>
<path d="M265.035 285.419L213.585 307.48L214.854 310.44L266.304 288.378L265.035 285.419Z" fill="#2E353A"/>
<path d="M329.239 242.487L277.79 264.549L279.059 267.509L330.508 245.447L329.239 242.487Z" fill="#2E353A"/>
<path d="M332.025 248.982L280.576 271.044L281.845 274.003L333.294 251.941L332.025 248.982Z" fill="#2E353A"/>
<path d="M334.825 255.496L283.375 277.558L284.644 280.517L336.094 258.455L334.825 255.496Z" fill="#2E353A"/>
<path d="M204.28 289.08L328.48 235.83" stroke="#2E353A" stroke-linecap="round" stroke-linejoin="round"/>
<path d="M273.914 306.113L222.464 328.175L223.733 331.135L275.183 309.073L273.914 306.113Z" fill="#2E353A"/>
<path d="M276.71 312.608L225.26 334.67L226.529 337.629L277.979 315.567L276.71 312.608Z" fill="#2E353A"/>
<path d="M279.5 319.121L228.05 341.183L229.319 344.143L280.769 322.081L279.5 319.121Z" fill="#2E353A"/>
<path d="M343.704 276.191L292.255 298.252L293.524 301.212L344.973 279.15L343.704 276.191Z" fill="#2E353A"/>
<path d="M346.49 282.685L295.04 304.747L296.309 307.706L347.759 285.645L346.49 282.685Z" fill="#2E353A"/>
<path d="M349.27 289.203L297.821 311.265L299.09 314.224L350.539 292.162L349.27 289.203Z" fill="#2E353A"/>
<path d="M218.73 322.79L342.93 269.54" stroke="#2E353A" stroke-linecap="round" stroke-linejoin="round"/>
<path d="M354.855 302.203L233.024 354.445L245.702 384.011L367.533 331.769L354.855 302.203Z" fill="#2E353A" stroke="#2E353A" stroke-linecap="round" stroke-linejoin="round"/>
<path d="M267.728 140.641L133.559 227.738L250.217 407.443L384.386 320.346L267.728 140.641Z" fill="white" stroke="#2E353A" stroke-linecap="round" stroke-linejoin="round"/>
<path d="M267.734 140.649L133.565 227.746L176.542 293.95L310.711 206.853L267.734 140.649Z" fill="white" stroke="#2E353A" stroke-linecap="round" stroke-linejoin="round"/>
<path d="M260.614 224.644C273.768 222.507 282.699 210.11 280.561 196.956C278.424 183.802 266.027 174.871 252.873 177.009C239.719 179.147 230.788 191.543 232.926 204.697C235.064 217.851 247.46 226.782 260.614 224.644Z" fill="#2E353A" stroke="#2E353A" stroke-linecap="round" stroke-linejoin="round"/>
<path d="M269.9 221C272.88 219.069 275.395 216.504 277.268 213.487C279.14 210.47 280.322 207.077 280.73 203.55C274.49 195.39 263.39 193.01 255.19 198.33C246.99 203.65 244.65 214.77 249.56 223.79C252.946 224.854 256.526 225.156 260.043 224.674C263.559 224.191 266.925 222.937 269.9 221Z" fill="#FF8C00" stroke="#2E353A" stroke-linecap="round" stroke-linejoin="round"/>
<path d="M262.068 206.081C267.21 201.701 267.827 193.982 263.447 188.84C259.066 183.699 251.347 183.082 246.206 187.462C241.064 191.843 240.447 199.562 244.828 204.703C249.208 209.844 256.927 210.461 262.068 206.081Z" fill="white" stroke="#2E353A" stroke-linecap="round" stroke-linejoin="round"/>
<path d="M207.609 213.174L160.655 243.654L164.156 249.048L211.11 218.567L207.609 213.174Z" fill="white" stroke="#2E353A" stroke-linecap="round" stroke-linejoin="round"/>
<path d="M216.014 226.126L169.06 256.607L172.561 262L219.515 231.519L216.014 226.126Z" fill="white" stroke="#2E353A" stroke-linecap="round" stroke-linejoin="round"/>
<path d="M222.181 238.249L175.158 268.478L176.897 271.183L223.92 240.954L222.181 238.249Z" fill="#2E353A"/>
<path d="M227.232 243.39L180.278 273.871L182.031 276.571L228.985 246.091L227.232 243.39Z" fill="#2E353A"/>
<path d="M248.609 276.311L201.655 306.792L203.408 309.492L250.363 279.012L248.609 276.311Z" fill="#2E353A"/>
<path d="M252.463 282.257L205.509 312.737L207.262 315.438L254.216 284.957L252.463 282.257Z" fill="#2E353A"/>
<path d="M256.316 288.203L209.362 318.684L211.115 321.384L258.07 290.904L256.316 288.203Z" fill="#2E353A"/>
<path d="M312.297 234.965L265.343 265.445L267.096 268.146L314.05 237.665L312.297 234.965Z" fill="#2E353A"/>
<path d="M316.159 240.905L269.205 271.386L270.958 274.087L317.912 243.606L316.159 240.905Z" fill="#2E353A"/>
<path d="M320.012 246.851L273.058 277.332L274.812 280.033L321.766 249.552L320.012 246.851Z" fill="#2E353A"/>
<path d="M197.08 302.08L310.42 228.49" stroke="#2E353A" stroke-linecap="round" stroke-linejoin="round"/>
<path d="M268.583 307.086L221.629 337.567L223.383 340.268L270.337 309.787L268.583 307.086Z" fill="#2E353A"/>
<path d="M272.432 313.024L225.477 343.504L227.231 346.205L274.185 315.725L272.432 313.024Z" fill="#2E353A"/>
<path d="M276.293 318.954L229.339 349.435L231.093 352.136L278.047 321.655L276.293 318.954Z" fill="#2E353A"/>
<path d="M332.271 265.74L285.317 296.221L287.07 298.922L334.025 268.441L332.271 265.74Z" fill="#2E353A"/>
<path d="M336.128 271.672L289.174 302.153L290.927 304.854L337.881 274.373L336.128 271.672Z" fill="#2E353A"/>
<path d="M339.971 277.618L293.017 308.099L294.77 310.799L341.725 280.319L339.971 277.618Z" fill="#2E353A"/>
<path d="M217.05 332.84L330.39 259.26" stroke="#2E353A" stroke-linecap="round" stroke-linejoin="round"/>
<path d="M347.697 289.489L236.51 361.667L254.026 388.65L365.213 316.472L347.697 289.489Z" fill="#2E353A" stroke="#2E353A" stroke-linecap="round" stroke-linejoin="round"/>
<path d="M115.8 215.31L44.68 160.25L87 239.64C88 241.56 85.35 241.92 82.65 240.22C79.92 238.51 77.23 238.89 78.3 240.83L100.25 280.73C100.599 281.299 101.058 281.792 101.6 282.18L112.32 290.26C112.878 290.653 113.345 291.161 113.69 291.75L158.1 376.1L234.91 432.74L115.8 215.31Z" fill="#FF8C00" stroke="#2E353A" stroke-linecap="round" stroke-linejoin="round"/>
<path opacity="0.25" d="M115.8 215.31L44.68 160.25L87 239.64C88 241.56 85.35 241.92 82.65 240.22C79.92 238.51 77.23 238.89 78.3 240.83L100.25 280.73C100.599 281.299 101.058 281.792 101.6 282.18L112.32 290.26C112.878 290.653 113.345 291.161 113.69 291.75L158.1 376.1L234.91 432.74L115.8 215.31Z" fill="#2E353A" stroke="#2E353A" stroke-linecap="round" stroke-linejoin="round"/>
</svg>
