<svg width="500" height="500" viewBox="0 0 500 500" fill="none" xmlns="http://www.w3.org/2000/svg">
<path d="M358.97 314.42H431.23V258.68H358.97V314.42Z" fill="#EBEBEB"/>
<path d="M364.13 309.55H372.84V299.71H364.13V309.55Z" fill="white"/>
<path d="M409.19 258.82H400.98V270.71H409.19V258.82Z" fill="#FAFAFA"/>
<path d="M409.19 302.36H400.98V314.25H409.19V302.36Z" fill="#FAFAFA"/>
<path d="M377 314.8C376.87 314.8 376.77 302.54 376.77 287.42C376.77 272.3 376.87 260.04 377 260.04C377.13 260.04 377.23 272.3 377.23 287.42C377.23 302.54 377.13 314.8 377 314.8Z" fill="#E0E0E0"/>
<path d="M329.5 410.4H454.18V314.23H329.5V410.4Z" fill="#EBEBEB"/>
<path d="M338.41 402.01H353.43V385.03H338.41V402.01Z" fill="white"/>
<path d="M416.14 314.48H401.98V335H416.14V314.48Z" fill="#FAFAFA"/>
<path d="M416.14 389.59H401.98V410.11H416.14V389.59Z" fill="#FAFAFA"/>
<path d="M360.62 411.06C360.4 411.06 360.22 389.91 360.22 363.82C360.22 337.73 360.4 316.58 360.62 316.58C360.84 316.58 361.01 337.73 361.01 363.82C361.01 389.91 360.84 411.06 360.62 411.06Z" fill="#E0E0E0"/>
<path d="M450.22 114.21L456.9 127.74L471.83 129.91L461.03 140.45L463.58 155.32L450.22 148.3L436.86 155.32L439.41 140.45L428.61 129.91L443.54 127.74L450.22 114.21Z" fill="#EBEBEB"/>
<path d="M52.51 288.97L56.72 297.5L66.13 298.86L59.32 305.5L60.93 314.88L52.51 310.45L44.09 314.88L45.7 305.5L38.89 298.86L48.3 297.5L52.51 288.97Z" fill="#EBEBEB"/>
<path d="M57.73 214.66L67.08 233.6L87.98 236.64L72.86 251.38L76.43 272.2L57.73 262.37L39.04 272.2L42.61 251.38L27.48 236.64L48.38 233.6L57.73 214.66Z" fill="#EBEBEB"/>
<path d="M444.27 175.32L448.3 183.49L457.31 184.8L450.79 191.15L452.33 200.12L444.27 195.89L436.21 200.12L437.75 191.15L431.23 184.8L440.24 183.49L444.27 175.32Z" fill="#EBEBEB"/>
<path d="M312.05 43.0698L316.08 51.2298L325.09 52.5398L318.57 58.8998L320.11 67.8698L312.05 63.6298L303.99 67.8698L305.53 58.8998L299.01 52.5398L308.02 51.2298L312.05 43.0698Z" fill="#EBEBEB"/>
<path d="M404.22 130.41L406.86 135.75L412.76 136.61L408.49 140.77L409.5 146.64L404.22 143.87L398.95 146.64L399.96 140.77L395.69 136.61L401.59 135.75L404.22 130.41Z" fill="#EBEBEB"/>
<path d="M160.92 400.11L166.06 410.51L177.54 412.18L169.23 420.28L171.2 431.72L160.92 426.32L150.65 431.72L152.61 420.28L144.3 412.18L155.79 410.51L160.92 400.11Z" fill="#EBEBEB"/>
<path d="M174.48 389.76L176.6 394.06L181.35 394.75L177.91 398.1L178.72 402.83L174.48 400.59L170.24 402.83L171.05 398.1L167.61 394.75L172.36 394.06L174.48 389.76Z" fill="#EBEBEB"/>
<path d="M364.13 349.92L368.65 359.07L378.75 360.54L371.44 367.66L373.17 377.72L364.13 372.97L355.1 377.72L356.83 367.66L349.52 360.54L359.62 359.07L364.13 349.92Z" fill="#FF8C00"/>
<path d="M385.68 341.81L387.81 346.12L392.56 346.81L389.12 350.17L389.93 354.91L385.68 352.67L381.42 354.91L382.24 350.17L378.79 346.81L383.55 346.12L385.68 341.81Z" fill="#FF8C00"/>
<path d="M357.44 103.66L361 92.5998C357.607 85.7673 356.577 78.0023 358.071 70.5214C359.564 63.0405 363.497 56.2664 369.253 51.2603C375.009 46.2542 382.263 43.2989 389.879 42.8576C397.495 42.4162 405.042 44.5136 411.338 48.8212C417.634 53.1288 422.323 59.4033 424.671 66.6616C427.018 73.9198 426.892 81.7518 424.311 88.9306C421.731 96.1094 416.841 102.229 410.41 106.332C403.978 110.434 396.368 112.287 388.77 111.6C381.357 111.095 374.342 108.059 368.9 103L357.44 103.66Z" fill="#FAFAFA"/>
<path d="M357.44 103.66L358.2 103.6L360.41 103.44L368.9 102.86C373.109 106.752 378.292 109.434 383.9 110.62C385.631 111.005 387.39 111.256 389.16 111.37L391.96 111.48C392.9 111.48 393.87 111.37 394.84 111.32C403.612 110.524 411.741 106.381 417.54 99.75C420.808 96.0668 423.234 91.7159 424.65 87C426.101 81.9607 426.395 76.6588 425.51 71.49C425.29 70.1612 424.983 68.8484 424.59 67.56C424.412 66.9074 424.195 66.2662 423.94 65.64C423.69 65 423.47 64.36 423.2 63.73C422.086 61.1867 420.676 58.7835 419 56.57C418.165 55.4666 417.259 54.4178 416.29 53.43C415.82 52.9263 415.319 52.4521 414.79 52.01C414.28 51.56 413.79 51.07 413.25 50.66L411.61 49.44L410.79 48.84L409.91 48.32L408.18 47.32C407.59 46.99 406.97 46.74 406.37 46.44C401.774 44.265 396.749 43.1485 391.664 43.1727C386.579 43.1969 381.565 44.3613 376.99 46.58C369.062 50.3873 362.906 57.1023 359.8 65.33C359.63 65.79 359.47 66.25 359.31 66.7C359.129 67.144 358.985 67.6023 358.88 68.07C358.65 68.99 358.43 69.9 358.21 70.79C357.906 72.5339 357.699 74.2933 357.59 76.06C357.366 81.7752 358.569 87.4561 361.09 92.59L358.41 100.77L357.7 102.89C357.54 103.37 357.45 103.62 357.45 103.62C357.45 103.62 357.51 103.39 357.66 102.92L358.3 100.82L360.87 92.53V92.61C358.282 87.4666 357.03 81.7544 357.23 76C357.324 74.2135 357.521 72.4338 357.82 70.67C358.04 69.77 358.27 68.85 358.49 67.92C358.596 67.4472 358.737 66.9826 358.91 66.53C359.08 66.07 359.24 65.61 359.41 65.14C361.08 60.6541 363.663 56.5637 366.996 53.1279C370.329 49.6921 374.339 46.9857 378.772 45.1799C383.205 43.3742 387.965 42.5085 392.75 42.6376C397.535 42.7667 402.241 43.8878 406.57 45.93C407.18 46.22 407.81 46.48 408.41 46.82L410.17 47.87L411.05 48.4L411.89 49.01L413.55 50.24C414.1 50.67 414.6 51.16 415.12 51.61C415.653 52.0615 416.16 52.5422 416.64 53.05C417.623 54.058 418.541 55.1268 419.39 56.25C421.099 58.4761 422.539 60.8962 423.68 63.46C423.95 64.1 424.17 64.76 424.42 65.4C424.685 66.052 424.909 66.7199 425.09 67.4C425.485 68.7113 425.793 70.0477 426.01 71.4C426.913 76.6456 426.612 82.0278 425.13 87.14C423.71 91.9457 421.256 96.3826 417.94 100.14C412.053 106.834 403.819 111.008 394.94 111.8C393.94 111.8 392.94 111.94 392.02 111.94L389.19 111.82C387.403 111.695 385.628 111.434 383.88 111.04C378.251 109.807 373.064 107.062 368.88 103.1H368.96L360.39 103.55L358.21 103.65C357.68 103.66 357.44 103.66 357.44 103.66Z" fill="#263238"/>
<path d="M372.31 75.9998L377.98 71.0798L387.53 80.8898L408.95 63.0498L413.48 68.6998L386.04 91.0398L372.31 75.9998Z" fill="#FF8C00"/>
<path d="M298.11 349.49L106.35 392.23C105.24 392.484 104.091 392.515 102.969 392.323C101.847 392.131 100.774 391.718 99.8115 391.11C98.8495 390.501 98.0174 389.708 97.3632 388.776C96.7091 387.844 96.2458 386.792 96 385.68L33.81 106.43C33.5623 105.324 33.5352 104.179 33.7305 103.062C33.9258 101.945 34.3395 100.878 34.9479 99.9211C35.5563 98.9643 36.3476 98.1369 37.2763 97.4864C38.205 96.8359 39.2529 96.375 40.36 96.1301L232.12 53.3901C233.227 53.1423 234.372 53.1151 235.49 53.3103C236.607 53.5054 237.676 53.919 238.633 54.5274C239.591 55.1357 240.419 55.9269 241.07 56.8557C241.722 57.7845 242.184 58.8326 242.43 59.9401L304.66 339.19C304.908 340.297 304.935 341.441 304.74 342.558C304.544 343.675 304.131 344.742 303.522 345.699C302.914 346.656 302.122 347.483 301.194 348.134C300.265 348.784 299.217 349.245 298.11 349.49Z" fill="#E0E0E0"/>
<path d="M298.11 349.49L298.75 349.31C299.372 349.108 299.971 348.843 300.54 348.52C301.473 347.972 302.296 347.256 302.97 346.41C303.888 345.25 304.491 343.872 304.72 342.41C304.865 341.526 304.865 340.624 304.72 339.74C304.56 338.81 304.31 337.83 304.09 336.81C303.63 334.81 303.09 332.53 302.59 330.11C301.503 325.263 300.253 319.687 298.84 313.38C293.21 288.21 285.07 251.79 275.01 206.78C270.01 184.28 264.49 159.63 258.58 133.16C255.633 119.933 252.583 106.267 249.43 92.16C247.863 85.1067 246.27 77.9567 244.65 70.71C243.83 67.09 243.02 63.44 242.19 59.77C241.739 57.9407 240.687 56.3161 239.201 55.1572C237.716 53.9983 235.884 53.3724 234 53.38C233.061 53.4008 232.127 53.5351 231.22 53.78L228.42 54.4L222.79 55.66L211.43 58.19L188.31 63.35L140.67 74L40.43 96.32C38.3111 96.7896 36.4546 98.0574 35.246 99.86C34.0375 101.663 33.5697 103.862 33.94 106C34.85 110.25 35.83 114.51 36.76 118.75C38.6533 127.217 40.53 135.633 42.39 144L53.39 193.41C60.61 225.8 67.57 257 74.2 286.8C80.83 316.6 87.12 344.8 93.02 371.31C93.7533 374.643 94.4833 377.923 95.21 381.15C95.58 382.77 95.91 384.41 96.3 386C96.7201 387.566 97.5808 388.979 98.78 390.07C99.9715 391.145 101.44 391.866 103.02 392.15C103.803 392.278 104.6 392.301 105.39 392.22C106.17 392.12 106.96 391.93 107.74 391.75L117.05 389.68L152.38 381.82L259 358.13L288 351.71L295.54 350.05L298.11 349.49L295.55 350.09L288.01 351.79L259.01 358.28L152.41 382.11L117.12 390L107.81 392.08C107.03 392.25 106.25 392.45 105.43 392.56C104.61 392.644 103.783 392.617 102.97 392.48C101.316 392.193 99.7777 391.439 98.5375 390.307C97.2973 389.174 96.4065 387.711 95.97 386.09C95.57 384.48 95.24 382.86 94.87 381.24C94.1433 377.993 93.41 374.713 92.67 371.4C86.77 344.93 80.46 316.65 73.82 286.89C67.18 257.13 60.22 225.89 52.99 193.5L41.99 144.1C40.13 135.74 38.2533 127.317 36.36 118.83C35.42 114.59 34.45 110.35 33.53 106.06C33.145 103.82 33.6378 101.517 34.906 99.631C36.1741 97.7446 38.1202 96.4191 40.34 95.93L140.59 73.58L188.26 63L211.37 57.85L222.73 55.32L228.37 54L231.17 53.38C232.095 53.1403 233.045 53.0127 234 53C235.952 53.0045 237.847 53.6586 239.386 54.859C240.925 56.0595 242.02 57.738 242.5 59.63C243.32 63.31 244.14 66.95 244.95 70.58C246.583 77.8333 248.19 84.9733 249.77 92C252.897 106.1 255.94 119.767 258.9 133C264.79 159.47 270.27 184.12 275.28 206.63C285.28 251.63 293.38 288.08 298.98 313.26C300.37 319.55 301.61 325.15 302.69 329.99C303.22 332.42 303.69 334.65 304.17 336.7C304.39 337.7 304.64 338.7 304.79 339.63C304.94 340.524 304.94 341.436 304.79 342.33C304.562 343.819 303.948 345.222 303.01 346.4C302.327 347.245 301.497 347.96 300.56 348.51C299.984 348.834 299.374 349.092 298.74 349.28L298.11 349.49Z" fill="#263238"/>
<g opacity="0.3">
<path d="M116.07 382.34L290.79 342.4L285.27 308.16L275.36 288.97L108.22 354.62L116.07 382.34Z" fill="black"/>
</g>
<g opacity="0.3">
<path d="M189.02 63.6299L195.63 74.5399L196.91 80.3299L192.43 81.3299L189.02 63.6299Z" fill="black"/>
</g>
<path d="M43.76 108.05L104.38 380.05L294.39 337.71L283.55 289.07L233.77 65.7002L43.76 108.05Z" fill="white"/>
<path d="M43.76 108.05L233.76 65.54H233.92V65.71C250.78 141.3 271.81 235.63 294.57 337.71V337.92H294.37L104.37 380.25H104.19V380.06C68.5 219.44 44.12 109.68 43.75 108.06C44.12 109.72 68.66 219.45 104.56 380.06L104.33 379.92L294.33 337.55L294.17 337.8C271.44 235.74 250.43 141.41 233.6 65.8L233.8 65.93L43.76 108.05Z" fill="#263238"/>
<path d="M97.2649 75.6855L181.06 57.0164C182.699 56.6514 184.416 56.9522 185.832 57.8527C187.249 58.7533 188.25 60.1798 188.615 61.8184L193.456 83.5457L97.2841 104.972L92.4478 83.2645C92.2637 82.4504 92.2424 81.6079 92.3852 80.7856C92.528 79.9633 92.832 79.1773 93.2797 78.4729C93.7274 77.7685 94.31 77.1596 94.9939 76.6812C95.6779 76.2028 96.4497 75.8645 97.2649 75.6855Z" fill="#263238"/>
<path d="M149.07 53.1499L124.6 58.5999L132.13 78.9399L150.56 74.8299L149.07 53.1499Z" fill="#263238"/>
<path d="M181.06 57.0002C181.06 57.1102 162.35 61.3802 139.22 66.5402C116.09 71.7002 97.3 75.8102 97.27 75.7002C97.24 75.5902 115.98 71.3202 139.13 66.1602C162.28 61.0002 181 56.9202 181.06 57.0002Z" fill="#455A64"/>
<path d="M98.46 100C98.35 100 97.38 96.1001 96.3 91.2401C95.22 86.3801 94.42 82.4101 94.54 82.3801C94.66 82.3501 95.62 86.2801 96.7 91.1501C97.78 96.0201 98.57 100 98.46 100Z" fill="#455A64"/>
<path d="M188.87 77.6401C188.067 75.0095 187.399 72.3393 186.87 69.6401C186.208 67.0019 185.681 64.3318 185.29 61.6401C186.092 64.2543 186.759 66.9078 187.29 69.5901C187.953 72.2448 188.481 74.9316 188.87 77.6401Z" fill="#455A64"/>
<path d="M185.06 82.3898C185.06 82.4998 165.85 86.8798 142.11 92.1698C118.37 97.4598 99.11 101.67 99.06 101.55C99.01 101.43 118.26 97.0598 142.06 91.7698C165.86 86.4798 185 82.2798 185.06 82.3898Z" fill="#455A64"/>
<path d="M134.45 161.51C134.45 161.63 121.5 164.61 105.45 168.19C89.4 171.77 76.45 174.56 76.38 174.45C76.31 174.34 89.38 171.35 105.38 167.78C121.38 164.21 134.42 161.4 134.45 161.51Z" fill="#263238"/>
<path d="M231.16 150.62C231.16 150.74 197.29 158.39 155.46 167.71C113.63 177.03 79.68 184.5 79.66 184.39C79.64 184.28 113.52 176.62 155.37 167.3C197.22 157.98 231.14 150.51 231.16 150.62Z" fill="#263238"/>
<path d="M233.25 160C233.25 160.11 199.37 167.76 157.54 177.09C115.71 186.42 81.77 193.88 81.74 193.76C81.71 193.64 115.61 186 157.45 176.68C199.29 167.36 233.22 159.86 233.25 160Z" fill="#263238"/>
<path d="M235.33 169.32C235.33 169.43 201.46 177.08 159.63 186.4C117.8 195.72 83.85 203.2 83.82 203.08C83.79 202.96 117.69 195.32 159.54 185.99C201.39 176.66 235.3 169.21 235.33 169.32Z" fill="#263238"/>
<path d="M237.41 178.67C237.41 178.78 203.54 186.43 161.71 195.75C119.88 205.07 85.93 212.54 85.91 212.43C85.89 212.32 119.77 204.67 161.62 195.34C203.47 186.01 237.39 178.55 237.41 178.67Z" fill="#263238"/>
<path d="M239.5 188C239.5 188.12 205.62 195.77 163.79 205.09C121.96 214.41 88 221.89 88 221.78C88 221.67 121.87 214.02 163.71 204.69C205.55 195.36 239.47 187.9 239.5 188Z" fill="#263238"/>
<path d="M117.37 253.81C117.329 253.71 117.299 253.606 117.28 253.5L117.06 252.61C116.87 251.8 116.6 250.67 116.27 249.26C115.6 246.37 114.66 242.31 113.54 237.45L113.76 237.59L97.36 241.27C97.36 241.27 97.66 240.8 97.52 241.02V241.09V241.23L97.58 241.51L97.71 242.07L97.95 243.18C98.12 243.92 98.28 244.65 98.44 245.38C98.76 246.82 99.08 248.24 99.38 249.62C99.99 252.37 100.56 254.97 101.09 257.36L100.87 257.22L112.72 254.67L116.09 253.97L116.99 253.8L117.31 253.74C117.31 253.74 117.23 253.74 117.03 253.83L116.18 254.04L112.88 254.82L101 257.65H100.82V257.47L99.08 249.74C98.77 248.36 98.45 246.94 98.08 245.5C97.92 244.77 97.75 244.04 97.59 243.3C97.5 242.94 97.42 242.56 97.34 242.19L97.21 241.63L97.15 241.35V241.21V241.14V241.09C97.01 241.32 97.34 240.79 97.31 240.84L113.72 237.21H113.9V237.39L116.48 249.39C116.77 250.79 117 251.91 117.17 252.71C117.24 253.07 117.29 253.35 117.34 253.58C117.36 253.655 117.37 253.732 117.37 253.81Z" fill="#263238"/>
<path d="M239.271 213.38L124.856 238.871L126.983 248.417L241.398 222.926L239.271 213.38Z" fill="#E0E0E0"/>
<path d="M123.71 282.27C123.672 282.166 123.642 282.059 123.62 281.95C123.56 281.72 123.49 281.42 123.4 281.06C123.21 280.25 122.94 279.13 122.61 277.72C121.94 274.82 121 270.72 119.88 265.9L120.1 266.04L103.7 269.72C103.7 269.78 104 269.25 103.86 269.48V269.53V269.6V269.74L103.92 270.02L104.05 270.58C104.13 270.96 104.21 271.33 104.3 271.7L104.78 273.89C105.1 275.34 105.42 276.75 105.72 278.13C106.33 280.88 106.9 283.48 107.43 285.87L107.21 285.73L119.07 283.19L122.43 282.49L123.33 282.31C123.434 282.281 123.542 282.264 123.65 282.26L123.38 282.34L122.52 282.55L119.22 283.34L107.29 286.09H107.11V285.91L105.37 278.18C105.06 276.8 104.74 275.38 104.37 273.94C104.21 273.22 104.04 272.48 103.88 271.75C103.8 271.38 103.71 271.01 103.63 270.63L103.5 270.07L103.44 269.79V269.65V269.53L103.6 269.27L120 265.69H120.18V265.86C121.24 270.79 122.18 274.86 122.76 277.86C123.05 279.26 123.28 280.38 123.45 281.18C123.52 281.54 123.57 281.82 123.62 282.05C123.659 282.119 123.69 282.193 123.71 282.27Z" fill="#263238"/>
<path d="M245.606 241.841L131.191 267.332L133.318 276.878L247.733 251.387L245.606 241.841Z" fill="#E0E0E0"/>
<path d="M130.05 310.72C130.05 310.72 130.05 310.6 129.96 310.4C129.87 310.2 129.83 309.87 129.74 309.51C129.55 308.7 129.28 307.58 128.95 306.17C128.28 303.28 127.34 299.17 126.22 294.35L126.44 294.49L110 298.17C110 298.23 110.3 297.7 110.16 297.93V298V298.07V298.21L110.22 298.49L110.35 299.05C110.43 299.43 110.51 299.8 110.6 300.17L111.08 302.36C111.4 303.81 111.72 305.22 112.02 306.6L113.73 314.34L113.51 314.21L125.37 311.66L128.73 310.96L129.63 310.78C129.736 310.768 129.844 310.768 129.95 310.78L129.68 310.86L128.82 311.07L125.52 311.86L113.59 314.61H113.41V314.43C112.88 312.05 112.29 309.43 111.67 306.7C111.36 305.32 111.04 303.91 110.67 302.46C110.51 301.74 110.34 301.01 110.18 300.27C110.1 299.9 110.01 299.53 109.93 299.16L109.81 298.6L109.74 298.32V298.17V298C109.6 298.22 109.93 297.69 109.9 297.75L126.31 294.12H126.49V294.3L129.07 306.3C129.36 307.7 129.59 308.82 129.76 309.63C129.83 309.98 129.89 310.26 129.93 310.49C129.98 310.561 130.021 310.638 130.05 310.72Z" fill="#263238"/>
<path d="M251.953 270.301L137.539 295.792L139.665 305.337L254.08 279.847L251.953 270.301Z" fill="#E0E0E0"/>
<path d="M101.61 247.94L103.33 245.23L108.44 248.07L115.02 238.15L117.56 239.91L109.08 252.41L101.61 247.94Z" fill="#FF8C00"/>
<path d="M107.74 275.44L109.46 272.73L114.57 275.57L121.14 265.65L123.69 267.41L115.2 279.9L107.74 275.44Z" fill="#FF8C00"/>
<path d="M114.03 303.63L115.75 300.93L120.85 303.77L127.43 293.85L129.97 295.6L121.49 308.1L114.03 303.63Z" fill="#FF8C00"/>
<path d="M166.4 339C166.4 339.12 156.76 341.37 144.82 344C132.88 346.63 123.18 348.72 123.16 348.61C123.14 348.5 132.79 346.25 144.73 343.61C156.67 340.97 166.37 338.9 166.4 339Z" fill="#263238"/>
<path d="M187.94 333.86C185.33 334.664 182.68 335.332 180 335.86C177.361 336.516 174.691 337.04 172 337.43C174.607 336.628 177.254 335.96 179.93 335.43C184.32 334.46 187.92 333.75 187.94 333.86Z" fill="#263238"/>
<path d="M259.28 311.41C259.28 311.52 250.61 313.56 239.87 315.95C229.13 318.34 220.39 320.19 220.37 320.08C220.35 319.97 229.03 317.94 239.78 315.54C250.53 313.14 259.26 311.3 259.28 311.41Z" fill="#263238"/>
<path d="M250 337.73C250 337.73 250.09 337.46 250.19 336.94C250.322 336.17 250.281 335.381 250.07 334.63C249.714 333.441 249.252 332.286 248.69 331.18C247.893 329.712 247.425 328.087 247.32 326.42C247.344 325.394 247.582 324.384 248.019 323.456C248.457 322.528 249.084 321.701 249.86 321.03C250.77 320.275 251.857 319.765 253.02 319.55C254.182 319.335 255.38 319.421 256.5 319.8C257.729 320.174 258.826 320.892 259.66 321.87C260.104 322.396 260.367 323.052 260.41 323.74C260.421 324.11 260.314 324.473 260.103 324.777C259.893 325.082 259.59 325.31 259.24 325.43C258.586 325.641 257.918 325.805 257.24 325.92L255.24 326.33C253.9 326.6 252.54 326.84 251.14 327.02C248.428 327.411 245.676 327.428 242.96 327.07C241.733 326.806 240.451 327.013 239.37 327.65C238.511 328.516 237.783 329.503 237.21 330.58C236.862 331.11 236.379 331.538 235.81 331.82C235.232 332.075 234.578 332.104 233.98 331.9C232.951 331.442 231.973 330.879 231.06 330.22C230.636 329.938 230.154 329.757 229.65 329.69C229.178 329.637 228.703 329.754 228.31 330.02C227.618 330.653 227.046 331.405 226.62 332.24C226.165 332.956 225.544 333.552 224.809 333.977C224.074 334.402 223.248 334.643 222.4 334.68C221.117 334.731 219.864 334.287 218.9 333.44C218.294 332.916 217.818 332.259 217.51 331.52C217.402 331.267 217.325 331.001 217.28 330.73C217.28 330.73 217.37 331 217.59 331.49C217.914 332.197 218.397 332.819 219 333.31C219.94 334.106 221.149 334.514 222.38 334.45C223.189 334.408 223.975 334.171 224.672 333.758C225.369 333.345 225.955 332.769 226.38 332.08C226.82 331.205 227.416 330.419 228.14 329.76C228.595 329.443 229.148 329.298 229.7 329.35C230.247 329.431 230.772 329.625 231.24 329.92C232.138 330.555 233.096 331.101 234.1 331.55C234.614 331.722 235.174 331.698 235.67 331.48C236.179 331.227 236.605 330.835 236.9 330.35C237.494 329.245 238.249 328.234 239.14 327.35C239.694 326.954 240.342 326.713 241.02 326.65C241.685 326.579 242.355 326.579 243.02 326.65C245.707 326.998 248.428 326.981 251.11 326.6C252.49 326.42 253.84 326.17 255.18 325.91L257.18 325.51C257.822 325.391 258.457 325.234 259.08 325.04C259.354 324.953 259.592 324.779 259.758 324.544C259.924 324.31 260.009 324.027 260 323.74C259.955 323.141 259.724 322.571 259.34 322.11C258.551 321.171 257.51 320.477 256.34 320.11C255.279 319.75 254.145 319.665 253.043 319.865C251.94 320.064 250.907 320.541 250.04 321.25C249.295 321.884 248.691 322.667 248.267 323.549C247.844 324.431 247.609 325.392 247.58 326.37C247.67 328 248.106 329.592 248.86 331.04C249.413 332.162 249.859 333.334 250.19 334.54C250.386 335.312 250.403 336.12 250.24 336.9C250.193 337.185 250.112 337.464 250 337.73Z" fill="#263238"/>
<path d="M270.67 324.93C270.501 324.998 270.328 325.051 270.15 325.09L268.63 325.45L263.05 326.74C258.35 327.84 251.85 329.38 244.7 331.19C237.55 333 231.1 334.75 226.45 336.03L220.93 337.55L219.42 337.95C219.247 338.004 219.07 338.045 218.89 338.07C219.051 337.982 219.222 337.915 219.4 337.87L220.88 337.4C222.17 336.99 224.04 336.4 226.36 335.75C231.01 334.39 237.44 332.6 244.6 330.75C251.76 328.9 258.26 327.44 262.99 326.43C265.35 325.92 267.27 325.52 268.6 325.26L270.13 324.97C270.308 324.941 270.489 324.927 270.67 324.93Z" fill="#263238"/>
<path d="M188.648 105.507L110.982 122.811L114.233 137.403L191.899 120.099L188.648 105.507Z" fill="#E0E0E0"/>
<path d="M262.12 342.31L287.21 474.87L310.14 432.5L353.6 458.01L307.47 328.93L262.12 342.31Z" fill="#FF8C00"/>
<g opacity="0.3">
<path d="M270.56 386.89C272.949 387.34 275.411 387.203 277.734 386.491C280.058 385.778 282.174 384.512 283.9 382.8C286.19 380.44 287.71 377.22 290.59 375.64C293.18 374.22 296.37 374.42 299.22 375.21C302.07 376 304.75 377.31 307.6 378.05C310.412 378.767 313.339 378.916 316.209 378.491C319.08 378.065 321.837 377.072 324.32 375.57L317.08 355.47L283.48 351.27L267.48 370.52L270.56 386.89Z" fill="black"/>
</g>
<path d="M308.51 427.24C308.37 427.24 304.63 413.5 300.16 396.49C295.69 379.48 292.16 365.64 292.32 365.61C292.48 365.58 296.19 379.33 300.66 396.36C305.13 413.39 308.65 427.2 308.51 427.24Z" fill="#263238"/>
<path d="M265.79 349.2L240.7 481.76L217.77 439.4L174.31 464.9L220.44 335.82L265.79 349.2Z" fill="#FF8C00"/>
<g opacity="0.3">
<path d="M206.64 374.43C206.64 374.43 213.78 380.3 222.29 377.6C230.8 374.9 236.09 374.32 240.7 377.6C245.31 380.88 257.78 391.55 257.78 391.55L260.67 376.26L243.92 353.26L226.44 356.79L214 358L209.37 366.77L206.64 374.43Z" fill="black"/>
</g>
<path d="M412.9 229.54C412.9 239.05 400.75 247.24 398.97 256.23C397.14 265.49 405.2 277.7 401.67 286.23C398.14 294.76 383.67 297.82 378.54 305.53C373.41 313.24 376.11 327.68 369.54 334.26C362.97 340.84 348.54 338.07 340.81 343.26C333.08 348.45 330.18 362.79 321.51 366.39C312.99 369.92 300.78 361.86 291.51 363.69C282.51 365.47 274.33 377.62 264.82 377.62C255.31 377.62 247.11 365.47 238.12 363.69C228.86 361.86 216.65 369.92 208.12 366.39C199.59 362.86 196.54 348.39 188.83 343.26C181.12 338.13 166.68 340.83 160.09 334.26C153.5 327.69 156.28 313.26 151.09 305.53C145.9 297.8 131.56 294.9 127.97 286.23C124.38 277.56 132.5 265.5 130.67 256.23C128.89 247.23 116.73 239.05 116.73 229.54C116.73 220.03 128.89 211.83 130.67 202.84C132.5 193.58 124.43 181.37 127.97 172.84C131.51 164.31 145.97 161.25 151.09 153.55C156.21 145.85 153.52 131.4 160.09 124.81C166.66 118.22 181.09 121 188.83 115.81C196.57 110.62 199.45 96.2802 208.12 92.6902C216.79 89.1002 228.85 97.2202 238.12 95.3902C247.12 93.6102 255.31 81.4502 264.82 81.4502C274.33 81.4502 282.52 93.6102 291.51 95.3902C300.77 97.2202 312.98 89.1502 321.51 92.6902C330.18 96.2802 333.1 110.69 340.81 115.81C348.52 120.93 362.96 118.24 369.54 124.81C376.12 131.38 373.35 145.81 378.54 153.55C383.73 161.29 398.07 164.17 401.67 172.84C405.27 181.51 397.14 193.57 398.97 202.84C400.75 211.83 412.9 220 412.9 229.54Z" fill="#FF8C00"/>
<path d="M230.17 146.53C230.17 146.53 230.06 146.4 229.9 146.12C229.74 145.84 229.49 145.39 229.22 144.9C228.63 143.84 227.82 142.28 226.86 140.34C224.93 136.46 222.43 131 220.02 124.84C217.61 118.68 215.76 112.96 214.55 108.84C213.95 106.75 213.49 105.06 213.2 103.84C213.07 103.3 212.96 102.84 212.88 102.48C212.828 102.325 212.801 102.163 212.8 102C212.878 102.146 212.938 102.3 212.98 102.46L213.39 103.79C213.78 105.02 214.29 106.68 214.9 108.69C216.2 112.82 218.11 118.49 220.5 124.69C222.89 130.89 225.35 136.3 227.19 140.22L229.4 144.85L229.99 146.11C230.063 146.244 230.123 146.385 230.17 146.53Z" fill="#263238"/>
<path d="M243.35 141.52C243.175 141.171 243.044 140.802 242.96 140.42C242.75 139.7 242.47 138.65 242.14 137.35C241.48 134.76 240.66 131.14 239.92 127.12C239.18 123.1 238.66 119.43 238.36 116.77C238.2 115.44 238.1 114.36 238.04 113.61C237.994 113.225 237.994 112.835 238.04 112.45C238.155 112.821 238.232 113.203 238.27 113.59L238.75 116.72C239.15 119.37 239.75 123.02 240.46 127.03C241.17 131.04 241.96 134.66 242.52 137.27C242.79 138.49 243.01 139.53 243.19 140.37C243.281 140.747 243.335 141.133 243.35 141.52Z" fill="#263238"/>
<path d="M266.6 139.21C266.45 139.21 266.08 127.99 265.77 114.16C265.46 100.33 265.32 89.0999 265.46 89.0899C265.6 89.0799 265.98 100.3 266.29 114.15C266.6 128 266.74 139.21 266.6 139.21Z" fill="#263238"/>
<path d="M290 116.16C290.14 116.16 288.52 121.81 286.39 128.69C284.26 135.57 282.39 141.1 282.29 141.06C282.19 141.02 283.77 135.41 285.9 128.53C288.03 121.65 289.85 116.12 290 116.16Z" fill="#263238"/>
<path d="M299.54 145.15C299.56 144.985 299.603 144.823 299.67 144.67L300.12 143.35C300.52 142.21 301.12 140.57 301.92 138.55C303.49 134.55 305.73 128.96 308.29 122.86C310.85 116.76 313.23 111.27 314.98 107.31C315.84 105.39 316.55 103.81 317.09 102.63L317.68 101.37C317.83 101.09 317.91 100.94 317.93 100.95C317.893 101.108 317.843 101.262 317.78 101.41L317.27 102.71L315.32 107.46C313.61 111.52 311.32 117 308.77 123.07C306.22 129.14 303.96 134.62 302.26 138.69L300.31 143.43L299.76 144.71C299.705 144.865 299.631 145.013 299.54 145.15Z" fill="#263238"/>
<path d="M312 151.67C312.152 151.317 312.343 150.981 312.57 150.67C312.97 150.03 313.57 149.12 314.31 148.01C315.81 145.8 317.97 142.78 320.48 139.56C322.99 136.34 325.4 133.56 327.18 131.56C328.07 130.56 328.81 129.77 329.33 129.23C329.58 128.931 329.866 128.662 330.18 128.43C329.987 128.771 329.751 129.087 329.48 129.37C328.94 130.03 328.26 130.84 327.48 131.8C325.77 133.86 323.42 136.71 320.91 139.93C318.4 143.15 316.21 146.12 314.63 148.28L312.76 150.83C312.537 151.136 312.282 151.417 312 151.67Z" fill="#263238"/>
<path d="M330.22 166.57C330.12 166.47 338.04 158.95 347.89 149.78C357.74 140.61 365.82 133.26 365.89 133.36C365.96 133.46 358.08 140.99 348.22 150.16C338.36 159.33 330.32 166.68 330.22 166.57Z" fill="#263238"/>
<path d="M362 169.68C361.036 170.29 360.034 170.838 359 171.32C357.12 172.32 354.57 173.71 351.75 175.32C348.93 176.93 346.33 178.27 344.4 179.17C343.4 179.62 342.66 179.97 342.1 180.17C341.826 180.313 341.533 180.414 341.23 180.47C342.194 179.86 343.196 179.313 344.23 178.83C346.11 177.83 348.66 176.44 351.48 174.83C354.3 173.22 356.9 171.83 358.83 170.98C359.83 170.53 360.57 170.18 361.13 169.98C361.402 169.834 361.696 169.732 362 169.68Z" fill="#263238"/>
<path d="M391.39 181.87C391.44 182.01 382.02 185.45 370.39 189.56C358.76 193.67 349.23 196.88 349.19 196.75C349.15 196.62 358.55 193.17 370.19 189.06C381.83 184.95 391.34 181.74 391.39 181.87Z" fill="#263238"/>
<path d="M400.75 235.34C400.75 235.48 390.5 234.63 377.89 233.43C365.28 232.23 355.06 231.14 355.08 230.99C355.1 230.84 365.32 231.71 377.94 232.91C390.56 234.11 400.76 235.2 400.75 235.34Z" fill="#263238"/>
<path d="M393.22 283.3C393.16 283.43 383.59 279.03 371.85 273.49C360.11 267.95 350.64 263.34 350.7 263.21C350.76 263.08 360.33 267.47 372.07 273.02C383.81 278.57 393.28 283.17 393.22 283.3Z" fill="#263238"/>
<path d="M361.74 328.93C361.63 329.02 354.74 321.01 346.33 311.05C337.92 301.09 331.2 292.92 331.33 292.83C331.46 292.74 338.33 300.74 346.74 310.71C355.15 320.68 361.85 328.83 361.74 328.93Z" fill="#263238"/>
<path d="M335.46 335C335.149 334.653 334.871 334.278 334.63 333.88C334.12 333.14 333.4 332.05 332.54 330.7C330.8 327.99 328.47 324.2 326.01 319.95C323.55 315.7 321.45 311.78 320.01 308.95C319.28 307.52 318.69 306.36 318.31 305.55C318.084 305.138 317.897 304.706 317.75 304.26C318.033 304.633 318.28 305.031 318.49 305.45C318.97 306.33 319.59 307.45 320.34 308.78C321.89 311.59 324.05 315.47 326.5 319.72C328.95 323.97 331.23 327.78 332.89 330.53C333.67 331.85 334.33 332.94 334.84 333.8C335.09 334.176 335.298 334.578 335.46 335Z" fill="#263238"/>
<path d="M319.14 357.9C319.14 357.9 319.04 357.77 318.88 357.49L318.23 356.27C317.66 355.2 316.89 353.64 315.97 351.7C314.13 347.81 311.76 342.35 309.51 336.17C307.26 329.99 305.56 324.29 304.51 320.17C303.96 318.09 303.51 316.39 303.29 315.22C303.18 314.68 303.09 314.22 303.01 313.86C302.97 313.703 302.947 313.542 302.94 313.38C303.022 313.523 303.079 313.678 303.11 313.84L303.49 315.17C303.84 316.41 304.3 318.06 304.86 320.07C306.04 324.2 307.79 329.88 310.04 336.07C312.29 342.26 314.59 347.69 316.35 351.62L318.45 356.25C318.67 356.75 318.86 357.17 319.02 357.51C319.076 357.634 319.117 357.765 319.14 357.9Z" fill="#263238"/>
<path d="M286.08 341.81C285.864 340.66 285.72 339.498 285.65 338.33C285.42 336.18 285.05 333.21 284.51 329.96C283.97 326.71 283.34 323.79 282.86 321.68C282.546 320.55 282.305 319.401 282.14 318.24C282.289 318.518 282.403 318.814 282.48 319.12C282.68 319.7 282.93 320.54 283.22 321.59C283.79 323.68 284.47 326.59 285.02 329.88C285.499 332.667 285.832 335.478 286.02 338.3C286.09 339.38 286.13 340.3 286.13 340.87C286.156 341.184 286.139 341.5 286.08 341.81Z" fill="#263238"/>
<path d="M264.45 370.6C264.427 370.431 264.427 370.259 264.45 370.09C264.45 369.69 264.45 369.2 264.45 368.62C264.45 367.34 264.45 365.49 264.45 363.21C264.53 358.64 264.74 352.34 265.1 345.39C265.46 338.44 265.91 332.14 266.28 327.59C266.46 325.31 266.63 323.47 266.76 322.2C266.83 321.62 266.88 321.13 266.92 320.74C266.932 320.566 266.965 320.395 267.02 320.23C267.043 320.403 267.043 320.577 267.02 320.75C267.02 321.14 267.02 321.63 266.95 322.22C266.87 323.57 266.77 325.39 266.64 327.61C266.37 332.24 266.01 338.5 265.64 345.41C265.27 352.32 265.01 358.66 264.84 363.22C264.76 365.44 264.69 367.22 264.64 368.62C264.64 369.21 264.58 369.69 264.56 370.09C264.549 370.264 264.512 370.436 264.45 370.6Z" fill="#263238"/>
<path d="M246.87 320.23C246.863 321.092 246.762 321.95 246.57 322.79C246.31 324.35 245.89 326.5 245.34 328.85C244.79 331.2 244.21 333.32 243.75 334.85C243.551 335.686 243.259 336.498 242.88 337.27C242.969 336.416 243.14 335.572 243.39 334.75L244.83 328.75C245.35 326.5 245.83 324.46 246.21 322.75C246.349 321.891 246.57 321.047 246.87 320.23Z" fill="#263238"/>
<path d="M215.08 305C213.77 307.166 212.31 309.238 210.71 311.2C209.243 313.265 207.642 315.232 205.92 317.09C207.227 314.922 208.688 312.85 210.29 310.89C211.751 308.82 213.351 306.852 215.08 305Z" fill="#263238"/>
<path d="M198.41 293.76C198.51 293.85 192.31 301.14 184.55 310.03C176.79 318.92 170.4 326.03 170.29 325.96C170.18 325.89 176.39 318.58 184.15 309.69C191.91 300.8 198.3 293.66 198.41 293.76Z" fill="#263238"/>
<path d="M190.06 281.35C187.608 283.715 185.034 285.952 182.35 288.05C178 291.63 174.4 294.45 174.35 294.34C176.804 291.98 179.377 289.747 182.06 287.65C184.619 285.417 187.289 283.315 190.06 281.35Z" fill="#263238"/>
<path d="M180.3 262.64C180.36 262.77 171.72 267.07 160.99 272.23C150.26 277.39 141.53 281.48 141.46 281.35C141.39 281.22 150.04 276.93 160.77 271.76C171.5 266.59 180.24 262.51 180.3 262.64Z" fill="#263238"/>
<path d="M176.38 253.31C176.093 253.436 175.79 253.524 175.48 253.57C174.89 253.71 174.04 253.89 172.99 254.08C170.88 254.48 167.94 254.92 164.68 255.25C161.42 255.58 158.45 255.72 156.3 255.75C155.23 255.75 154.36 255.75 153.76 255.75C153.447 255.77 153.133 255.74 152.83 255.66C153.977 255.503 155.132 255.412 156.29 255.39C158.43 255.26 161.38 255.06 164.63 254.73C167.88 254.4 170.81 254.02 172.93 253.73C174.069 253.509 175.222 253.368 176.38 253.31Z" fill="#263238"/>
<path d="M173.21 231.76C172.628 231.808 172.042 231.808 171.46 231.76L166.7 231.52C162.7 231.32 157.14 231.14 151.01 231.17C144.88 231.2 139.32 231.45 135.31 231.69L130.56 231.98C129.979 232.046 129.394 232.066 128.81 232.04C129.378 231.903 129.957 231.816 130.54 231.78C131.66 231.65 133.28 231.49 135.28 231.32C139.28 230.99 144.86 230.69 151 230.65C157.14 230.61 162.71 230.86 166.73 231.15C168.73 231.3 170.36 231.44 171.48 231.56C172.061 231.586 172.639 231.653 173.21 231.76Z" fill="#263238"/>
<path d="M175.17 212.84C175.17 212.98 168.66 211.29 160.71 209.07C152.76 206.85 146.35 204.95 146.39 204.81C146.43 204.67 152.9 206.35 160.85 208.57C168.8 210.79 175.21 212.7 175.17 212.84Z" fill="#263238"/>
<path d="M179.36 197C179.199 196.99 179.041 196.957 178.89 196.9L177.56 196.5C176.42 196.14 174.77 195.58 172.76 194.85C167.508 192.921 162.361 190.718 157.34 188.25C152.321 185.779 147.437 183.041 142.71 180.05C140.9 178.9 139.45 177.94 138.47 177.25L137.35 176.44C137.1 176.25 136.97 176.15 136.98 176.13C137.131 176.191 137.275 176.268 137.41 176.36L138.59 177.08C139.59 177.72 141.07 178.63 142.9 179.74C146.57 181.96 151.71 184.89 157.57 187.74C163.43 190.59 168.89 192.91 172.89 194.47C174.89 195.24 176.5 195.85 177.63 196.27L178.92 196.76C179.073 196.827 179.22 196.908 179.36 197Z" fill="#263238"/>
<path d="M188.77 181C188.69 181.11 183.63 177.69 177.47 173.35C171.31 169.01 166.38 165.4 166.47 165.28C166.56 165.16 171.61 168.59 177.78 172.93C183.95 177.27 188.85 180.91 188.77 181Z" fill="#263238"/>
<path d="M168.88 132.42C168.88 132.42 169.02 132.5 169.26 132.69L170.26 133.57L173.95 136.83L186.06 147.64L198.22 158.39L201.9 161.66L202.9 162.57C203.021 162.669 203.128 162.783 203.22 162.91C203.22 162.91 203.08 162.84 202.83 162.65L201.83 161.82C200.92 161.09 199.63 160.01 198.04 158.67C194.86 155.99 190.52 152.24 185.77 148.03C181.02 143.82 176.77 139.94 173.77 137.1C172.25 135.68 171.03 134.53 170.19 133.71L169.24 132.77C169 132.55 168.86 132.43 168.88 132.42Z" fill="#263238"/>
<path d="M200.07 133.33C200.07 133.33 200.34 133.55 200.75 134.02C201.16 134.49 201.75 135.18 202.44 136.02C203.83 137.76 205.68 140.22 207.6 143.02C209.52 145.82 211.13 148.44 212.24 150.37C212.8 151.37 213.24 152.12 213.52 152.67C213.693 152.944 213.828 153.24 213.92 153.55C213.187 152.596 212.519 151.594 211.92 150.55C210.73 148.67 209.07 146.1 207.16 143.3C205.25 140.5 203.45 138.03 202.16 136.24C201.406 135.312 200.708 134.341 200.07 133.33Z" fill="#263238"/>
<g opacity="0.2">
<path d="M160.1 124.82L203.61 162.91L214.42 154.26L189.18 115.58C189.18 115.58 187.24 117 182.18 118.44C177.35 119.83 163 120.2 160.1 124.82Z" fill="black"/>
</g>
<g opacity="0.2">
<path d="M208.53 92.6L229.77 145.77L243.35 141.52L238.82 95.4C238.82 95.4 236.49 95.95 231.3 95.29C226.27 94.65 214.08 89.88 208.53 92.6Z" fill="black"/>
</g>
<g opacity="0.3">
<path d="M265.17 81.4697L266.6 139.21L279.32 139.82L292.2 95.4997C289.524 94.9684 286.979 93.915 284.71 92.3997C280.31 89.5797 271.33 80.9997 265.17 81.4697Z" fill="black"/>
</g>
<g opacity="0.2">
<path d="M320.65 92.3799L299.54 145.61L311 151.1L340.05 115.24C337.867 113.397 336.005 111.203 334.54 108.75C331.8 104.32 327.08 94.1499 320.65 92.3799Z" fill="black"/>
</g>
<g opacity="0.2">
<path d="M370.23 125.59L330.91 166.59L339.67 178.4L378.09 152.76C376.825 150.43 375.969 147.9 375.56 145.28C374.64 140.28 374.51 131.2 370.23 125.59Z" fill="black"/>
</g>
<g opacity="0.2">
<path d="M401.27 171.85L348.32 193.64L352.71 207.17L398.78 202.17C398.78 202.17 398.49 200.75 399.1 195.56C399.68 190.53 405 179.29 401.27 171.85Z" fill="black"/>
</g>
<g opacity="0.2">
<path d="M413 229.54L355.27 231.54L354.79 244.27L398.79 257.15C399.082 255.317 399.67 253.544 400.53 251.9C403.81 245.78 413 237.14 413 229.54Z" fill="black"/>
</g>
<g opacity="0.2">
<path d="M402.35 284.12L349.2 263.41L343.83 275L380 303.63C381.902 301.809 384.005 300.212 386.27 298.87C390.67 296.06 401.13 291.51 402.35 284.12Z" fill="black"/>
</g>
<g opacity="0.2">
<path d="M324.18 283.3L311.02 294.3C312.02 295.3 329.55 325.14 340.36 343.56C340.5 343.439 340.647 343.325 340.8 343.22C347.91 338.46 360.57 340.37 367.71 335.66L324.18 283.3Z" fill="black"/>
<path d="M300 304.18L280.36 310.88L289.66 364.2C290.264 363.987 290.882 363.817 291.51 363.69C300.77 361.86 312.98 369.92 321.51 366.39C322.678 365.889 323.763 365.215 324.73 364.39L300 304.18Z" fill="black"/>
<path d="M264.14 377.6L267.27 307.94L250.27 303.63L237.64 363.63L238.1 363.71C246.9 365.42 254.91 377 264.14 377.6Z" fill="black"/>
<path d="M221.44 296.11C221.44 296.11 199 326.17 187.26 342.35C187.803 342.623 188.331 342.927 188.84 343.26C196.55 348.42 199.46 362.79 208.13 366.39C208.53 366.55 208.94 366.68 209.35 366.8L240.7 307.46L221.44 296.11Z" fill="black"/>
<path d="M198.41 271.91L150.55 304.8C150.73 305.04 150.93 305.27 151.09 305.52C156.29 313.28 153.52 327.67 160.09 334.25C160.696 334.846 161.367 335.373 162.09 335.82C179 316.76 209.36 282.54 210.46 281.35L198.41 271.91Z" fill="black"/>
<path d="M187.44 248.42L130.85 257.56C131.76 266.64 124.6 278.1 127.97 286.22C128.173 286.716 128.417 287.194 128.7 287.65C148.5 277.79 189.87 257.28 191.59 257.17L187.44 248.42Z" fill="black"/>
<path d="M184.35 216.9L130.86 201.47C130.81 201.93 130.75 202.39 130.67 202.84C128.89 211.84 116.73 220.03 116.73 229.54C116.733 230.173 116.786 230.805 116.89 231.43H182.18L184.35 216.9Z" fill="black"/>
<path d="M128.19 172.43C148.19 183.14 187.26 204.81 187.26 204.81L196.88 186.54L151.7 152.54C151.5 152.89 151.31 153.25 151.09 153.54C146 161.13 132.07 164.09 128.19 172.43Z" fill="black"/>
</g>
<path d="M412.9 229.54L412.84 228.9C412.816 228.273 412.729 227.65 412.58 227.04C411.998 224.642 410.981 222.371 409.58 220.34C407.86 217.58 405.26 214.49 402.58 210.58C401.067 208.5 399.905 206.186 399.14 203.73C398.489 200.863 398.489 197.887 399.14 195.02C399.7 191.97 400.61 188.83 401.4 185.5C402.19 182.17 402.93 178.57 402.19 174.89C401.771 173.027 400.918 171.29 399.7 169.82C398.394 168.323 396.902 166.999 395.26 165.88C391.94 163.52 388.12 161.64 384.47 159.18C382.582 157.963 380.866 156.496 379.37 154.82C377.901 153.001 376.834 150.891 376.24 148.63C374.96 144.08 374.67 139.22 373.7 134.36C373.276 131.885 372.441 129.499 371.23 127.3C369.915 125.086 367.919 123.357 365.54 122.37C363.085 121.383 360.514 120.711 357.89 120.37C355.24 119.93 352.52 119.62 349.8 119.14C347.013 118.738 344.311 117.884 341.8 116.61C339.31 115.113 337.202 113.06 335.64 110.61C333.98 108.23 332.55 105.67 331.03 103.14C329.574 100.551 327.83 98.136 325.83 95.9401C323.769 93.7186 320.958 92.3398 317.94 92.0701C314.856 91.956 311.774 92.3169 308.8 93.1401C305.8 93.8701 302.72 94.7601 299.57 95.3501C296.386 96.1005 293.064 96.0386 289.91 95.1701C286.835 93.9639 283.96 92.302 281.38 90.2401C278.71 88.2401 276.11 86.2401 273.26 84.4601C270.41 82.6801 267.18 81.3901 263.82 81.7701H263.19C262.98 81.7701 262.78 81.8601 262.58 81.9001C262.17 82.0001 261.75 82.0701 261.35 82.1901C260.545 82.4463 259.756 82.7536 258.99 83.1101C257.443 83.8457 255.958 84.7052 254.55 85.6801C251.71 87.6801 249.02 89.8601 246.1 91.8401C244.646 92.8578 243.107 93.7478 241.5 94.5001C239.853 95.2369 238.09 95.6802 236.29 95.8101C232.682 95.8332 229.09 95.3244 225.63 94.3001C222.146 93.3055 218.593 92.5734 215 92.1101C213.206 91.9335 211.395 92.0552 209.64 92.4701C207.892 92.956 206.28 93.8389 204.93 95.0501C202.17 97.4601 200.25 100.7 198.33 103.88C196.517 107.21 194.398 110.364 192 113.3C190.73 114.755 189.205 115.965 187.5 116.87C185.759 117.693 183.931 118.317 182.05 118.73C178.29 119.56 174.45 119.91 170.66 120.59C166.87 121.27 163 122.34 160.26 125C158.937 126.409 157.917 128.073 157.26 129.89C156.598 131.723 156.112 133.615 155.81 135.54C155.11 139.4 154.81 143.36 153.81 147.25C153.38 149.224 152.663 151.125 151.68 152.89C150.645 154.639 149.287 156.176 147.68 157.42C144.52 159.96 140.93 161.84 137.49 163.94C135.767 164.977 134.113 166.126 132.54 167.38C130.975 168.631 129.659 170.164 128.66 171.9C127.707 173.668 127.225 175.652 127.26 177.66C127.295 179.679 127.533 181.689 127.97 183.66C128.81 187.66 130.08 191.59 130.76 195.66C131.163 197.749 131.244 199.887 131 202C130.716 204.108 130.038 206.143 129 208C126.91 211.65 124.19 214.86 121.78 218.26C120.542 219.936 119.464 221.723 118.56 223.6C117.569 225.43 117.05 227.479 117.05 229.56C117.05 231.641 117.569 233.69 118.56 235.52C119.463 237.397 120.541 239.185 121.78 240.86C124.19 244.26 126.91 247.47 129 251.12C130.019 252.942 130.696 254.935 131 257C131.254 259.085 131.187 261.196 130.8 263.26C130.13 267.37 128.86 271.31 128.01 275.31C127.577 277.282 127.339 279.292 127.3 281.31C127.261 283.321 127.739 285.308 128.69 287.08C129.681 288.822 130.995 290.359 132.56 291.61C134.133 292.864 135.787 294.013 137.51 295.05C140.95 297.15 144.51 299.05 147.71 301.57C149.315 302.817 150.672 304.353 151.71 306.1C152.7 307.859 153.418 309.757 153.84 311.73C154.78 315.63 155.1 319.59 155.84 323.45C156.151 325.375 156.639 327.266 157.3 329.1C157.941 330.916 158.945 332.584 160.25 334C163.02 336.69 166.92 337.76 170.66 338.44C174.4 339.12 178.29 339.44 182.05 340.3C183.934 340.715 185.765 341.339 187.51 342.16C189.213 343.069 190.738 344.278 192.01 345.73C194.384 348.671 196.483 351.825 198.28 355.15C200.2 358.33 202.12 361.57 204.88 363.98C206.228 365.189 207.836 366.072 209.58 366.56C211.35 367.007 213.181 367.156 215 367C218.587 366.518 222.133 365.772 225.61 364.77C229.072 363.738 232.668 363.225 236.28 363.25C238.08 363.386 239.843 363.832 241.49 364.57C243.096 365.325 244.635 366.215 246.09 367.23C249.01 369.23 251.69 371.44 254.54 373.38C255.942 374.362 257.424 375.225 258.97 375.96C259.737 376.315 260.525 376.622 261.33 376.88C261.74 376.99 262.15 377.07 262.56 377.17L263.18 377.3H263.8C267.17 377.68 270.41 376.3 273.25 374.61C276.09 372.92 278.7 370.79 281.36 368.83C283.944 366.768 286.822 365.106 289.9 363.9C293.055 363.037 296.375 362.975 299.56 363.72C302.71 364.32 305.75 365.21 308.79 365.94C311.769 366.754 314.854 367.115 317.94 367.01C320.954 366.73 323.76 365.348 325.82 363.13C327.813 360.926 329.557 358.508 331.02 355.92C332.53 353.4 333.96 350.84 335.62 348.45C337.191 346.005 339.301 343.952 341.79 342.45C344.3 341.175 347.003 340.324 349.79 339.93C352.52 339.44 355.23 339.13 357.88 338.7C360.506 338.342 363.077 337.654 365.53 336.65C367.906 335.66 369.901 333.931 371.22 331.72C372.424 329.519 373.255 327.133 373.68 324.66C374.68 319.8 374.94 314.93 376.23 310.38C376.818 308.119 377.886 306.012 379.36 304.2C380.852 302.519 382.568 301.052 384.46 299.84C388.11 297.38 391.93 295.5 395.24 293.14C396.889 292.023 398.385 290.695 399.69 289.19C400.907 287.724 401.757 285.99 402.17 284.13C402.519 282.334 402.569 280.493 402.32 278.68C402.113 276.942 401.8 275.219 401.38 273.52C400.58 270.19 399.68 267.05 399.12 264C398.469 261.133 398.469 258.157 399.12 255.29C399.889 252.836 401.05 250.522 402.56 248.44C405.27 244.53 407.88 241.44 409.56 238.68C410.963 236.65 411.98 234.379 412.56 231.98C412.71 231.371 412.797 230.747 412.82 230.12L412.88 229.49C412.88 229.49 412.88 229.7 412.88 230.12C412.861 230.75 412.78 231.376 412.64 231.99C412.071 234.408 411.053 236.697 409.64 238.74C407.93 241.52 405.34 244.62 402.64 248.53C401.14 250.596 399.994 252.898 399.25 255.34C398.599 258.177 398.599 261.124 399.25 263.96C399.81 266.96 400.72 270.13 401.53 273.46C401.966 275.172 402.3 276.909 402.53 278.66C402.779 280.496 402.728 282.36 402.38 284.18C401.963 286.082 401.099 287.858 399.86 289.36C398.543 290.882 397.033 292.226 395.37 293.36C392.03 295.74 388.22 297.63 384.59 300.08C382.736 301.284 381.055 302.734 379.59 304.39C378.146 306.174 377.102 308.247 376.53 310.47C375.26 314.97 374.98 319.83 374 324.72C373.577 327.233 372.735 329.656 371.51 331.89C370.159 334.166 368.111 335.948 365.67 336.97C363.192 337.988 360.594 338.687 357.94 339.05C355.28 339.49 352.56 339.8 349.85 340.29C347.098 340.683 344.43 341.524 341.95 342.78C339.531 344.248 337.479 346.249 335.95 348.63C334.31 351 332.88 353.55 331.36 356.09C329.889 358.704 328.131 361.145 326.12 363.37C323.994 365.663 321.094 367.088 317.98 367.37C314.85 367.493 311.72 367.132 308.7 366.3C305.65 365.57 302.61 364.69 299.49 364.1C296.375 363.371 293.127 363.429 290.04 364.27C287.009 365.465 284.175 367.106 281.63 369.14C278.98 371.09 276.37 373.19 273.49 374.95C272.74 375.35 272.03 375.82 271.25 376.15C270.86 376.33 270.48 376.52 270.09 376.68L268.88 377.11C267.239 377.673 265.497 377.878 263.77 377.71L263.12 377.66C262.91 377.66 262.7 377.57 262.48 377.53C262.06 377.43 261.63 377.35 261.22 377.23C260.389 376.973 259.577 376.659 258.79 376.29C257.221 375.545 255.716 374.673 254.29 373.68C251.42 371.68 248.73 369.5 245.84 367.53C244.404 366.534 242.889 365.658 241.31 364.91C239.712 364.199 238.004 363.77 236.26 363.64C232.695 363.624 229.147 364.133 225.73 365.15C222.216 366.184 218.629 366.949 215 367.44C213.146 367.621 211.274 367.496 209.46 367.07C207.643 366.564 205.967 365.647 204.56 364.39C201.72 361.9 199.78 358.63 197.86 355.44C196.081 352.141 193.999 349.014 191.64 346.1C190.411 344.692 188.933 343.522 187.28 342.65C185.576 341.84 183.784 341.23 181.94 340.83C178.22 340.01 174.39 339.66 170.57 338.97C168.645 338.65 166.754 338.155 164.92 337.49C163.06 336.808 161.358 335.753 159.92 334.39C158.555 332.932 157.509 331.205 156.85 329.32C156.175 327.458 155.676 325.536 155.36 323.58C154.66 319.69 154.36 315.73 153.36 311.89C152.945 309.966 152.244 308.116 151.28 306.4C150.268 304.704 148.945 303.215 147.38 302.01C144.28 299.52 140.7 297.64 137.25 295.53C135.509 294.48 133.839 293.318 132.25 292.05C130.632 290.753 129.275 289.162 128.25 287.36C127.263 285.517 126.767 283.451 126.81 281.36C126.834 279.29 127.075 277.229 127.53 275.21C128.38 271.21 129.65 267.21 130.31 263.21C130.687 261.195 130.752 259.134 130.5 257.1C130.197 255.079 129.519 253.132 128.5 251.36C126.5 247.76 123.74 244.57 121.31 241.14C120.044 239.431 118.936 237.61 118 235.7C116.983 233.799 116.451 231.676 116.451 229.52C116.451 227.364 116.983 225.241 118 223.34C118.923 221.436 120.021 219.621 121.28 217.92C123.71 214.49 126.42 211.3 128.46 207.71C129.478 205.934 130.156 203.984 130.46 201.96C130.693 199.925 130.626 197.866 130.26 195.85C129.59 191.85 128.32 187.85 127.47 183.85C127.023 181.833 126.785 179.776 126.76 177.71C126.72 175.619 127.219 173.552 128.21 171.71C129.242 169.916 130.598 168.329 132.21 167.03C133.797 165.759 135.467 164.597 137.21 163.55C140.66 161.44 144.21 159.55 147.34 157.07C148.902 155.865 150.222 154.375 151.23 152.68C152.189 150.96 152.887 149.106 153.3 147.18C154.23 143.34 154.55 139.39 155.3 135.5C155.613 133.545 156.108 131.623 156.78 129.76C157.383 127.853 158.433 126.118 159.841 124.699C161.25 123.28 162.978 122.217 164.88 121.6C166.714 120.936 168.605 120.44 170.53 120.12C174.35 119.43 178.18 119.12 181.9 118.27C183.741 117.858 185.531 117.248 187.24 116.45C188.888 115.571 190.362 114.398 191.59 112.99C193.949 110.076 196.031 106.95 197.81 103.65C199.73 100.46 201.67 97.1901 204.52 94.7101C205.934 93.4349 207.625 92.507 209.46 92.0001C211.275 91.5782 213.145 91.4533 215 91.6301C218.607 92.1124 222.173 92.8611 225.67 93.8701C229.085 94.8955 232.634 95.4077 236.2 95.3901C237.928 95.2523 239.619 94.8194 241.2 94.1101C242.784 93.3721 244.3 92.4953 245.73 91.4901C248.63 89.4901 251.32 87.3001 254.19 85.3501C255.613 84.354 257.119 83.4808 258.69 82.7401C259.476 82.3736 260.284 82.0563 261.11 81.7901C261.53 81.6701 261.96 81.6001 262.38 81.5001L263.01 81.3601H263.66C265.387 81.197 267.128 81.4015 268.77 81.9601L269.98 82.3901C270.37 82.5501 270.75 82.7401 271.14 82.9201C271.93 83.2601 272.64 83.7201 273.38 84.1201C276.27 85.8801 278.87 87.9801 281.53 89.9301C284.072 91.962 286.903 93.6034 289.93 94.8001C293.016 95.6458 296.265 95.7043 299.38 94.9701C302.5 94.3901 305.54 93.5101 308.59 92.7801C311.61 91.9495 314.74 91.5853 317.87 91.7001C320.983 91.9861 323.881 93.4103 326.01 95.7001C328.024 97.9287 329.785 100.374 331.26 102.99C332.78 105.52 334.2 108.08 335.84 110.44C337.366 112.826 339.418 114.831 341.84 116.3C344.318 117.56 346.987 118.402 349.74 118.79C352.45 119.28 355.17 119.59 357.83 120.03C360.483 120.398 363.08 121.097 365.56 122.11C368.001 123.132 370.052 124.909 371.41 127.18C372.631 129.416 373.473 131.839 373.9 134.35C374.9 139.24 375.16 144.1 376.42 148.6C376.999 150.82 378.042 152.892 379.48 154.68C380.942 156.342 382.624 157.795 384.48 159C388.11 161.45 391.93 163.34 395.26 165.72C396.923 166.854 398.433 168.198 399.75 169.72C400.99 171.219 401.857 172.991 402.28 174.89C402.629 176.713 402.679 178.581 402.43 180.42C402.201 182.168 401.867 183.902 401.43 185.61C400.63 188.95 399.71 192.08 399.15 195.12C398.499 197.957 398.499 200.904 399.15 203.74C399.894 206.183 401.04 208.484 402.54 210.55C405.23 214.47 407.82 217.55 409.54 220.34C410.95 222.384 411.968 224.673 412.54 227.09C412.68 227.704 412.761 228.33 412.78 228.96C412.9 229.32 412.9 229.54 412.9 229.54Z" fill="#263238"/>
<path d="M237 367C237.14 367 233.45 382 228.76 400.42C224.07 418.84 220.15 433.75 220.01 433.72C219.87 433.69 223.56 418.72 228.25 400.29C232.94 381.86 236.9 366.92 237 367Z" fill="#263238"/>
<path d="M264.82 320.32C314.956 320.32 355.6 279.676 355.6 229.54C355.6 179.403 314.956 138.76 264.82 138.76C214.684 138.76 174.04 179.403 174.04 229.54C174.04 279.676 214.684 320.32 264.82 320.32Z" fill="white"/>
<path d="M208.92 198.08C207.67 199.33 200.79 211.85 200.16 222.18C199.53 232.51 201.02 290.49 201.02 290.49L201.29 294.34C217.63 313.45 277.03 341.89 330.53 294.24L333.53 258.57L324.7 183.06L294 175.55L286.81 163.9L238.89 175.12L234.61 185.22L208.92 198.08Z" fill="#455A64"/>
<path d="M283.52 133.54C285.63 125.69 287.7 117.79 288.43 109.7C289.16 101.61 288.49 93.2499 285.27 85.7899C284.78 84.6599 280.73 77.1099 279.51 77.2999C278.64 77.4299 281.26 84.5299 280.86 85.2999C277.01 92.7699 276.31 101.54 277.42 109.87C278.565 117.959 280.611 125.895 283.52 133.53" fill="#263238"/>
<path d="M282.72 102.54C282.34 82.1701 270.16 65.4201 249.81 66.3701L247.93 66.5701C238.828 67.5296 230.421 71.8801 224.38 78.7562C218.34 85.6324 215.109 94.5302 215.33 103.68C215.77 121.33 216.47 140.83 217.58 150.21C219.87 169.62 239.58 170.6 239.58 170.6L240.49 183.37L248.84 192.44L287.55 168.44L282.72 102.54Z" fill="#FFBF9D"/>
<path d="M239.63 170.75C239.63 170.75 251.96 170.18 264.15 160.6C264.15 160.6 260.07 178.21 240.49 178.5L239.63 170.75Z" fill="#FF9A6C"/>
<path d="M226.52 119.51C226.589 120.24 226.942 120.913 227.503 121.385C228.065 121.857 228.789 122.088 229.52 122.03C229.876 122.021 230.226 121.941 230.551 121.795C230.876 121.648 231.167 121.438 231.41 121.177C231.652 120.917 231.84 120.61 231.962 120.275C232.084 119.941 232.137 119.585 232.12 119.23C232.049 118.501 231.695 117.829 231.134 117.358C230.573 116.887 229.85 116.654 229.12 116.71C228.764 116.717 228.412 116.796 228.087 116.942C227.762 117.088 227.47 117.298 227.227 117.559C226.985 117.82 226.797 118.128 226.676 118.463C226.554 118.798 226.501 119.154 226.52 119.51Z" fill="#263238"/>
<path d="M220.34 111.31C220.72 111.63 222.66 109.86 225.65 109.55C228.64 109.24 230.98 110.55 231.27 110.1C231.41 109.93 230.99 109.31 229.96 108.71C228.574 107.954 226.989 107.644 225.42 107.82C223.866 107.98 222.403 108.628 221.24 109.67C220.39 110.48 220.15 111.16 220.34 111.31Z" fill="#263238"/>
<path d="M252.91 117.27C252.979 118 253.332 118.673 253.893 119.145C254.455 119.616 255.179 119.848 255.91 119.79C256.266 119.781 256.616 119.701 256.941 119.554C257.266 119.408 257.558 119.198 257.8 118.937C258.042 118.676 258.23 118.37 258.352 118.035C258.474 117.701 258.527 117.345 258.51 116.99C258.441 116.259 258.088 115.584 257.527 115.111C256.966 114.638 256.242 114.404 255.51 114.46C255.154 114.47 254.803 114.551 254.478 114.699C254.154 114.846 253.862 115.057 253.62 115.319C253.378 115.58 253.19 115.888 253.068 116.223C252.946 116.558 252.893 116.914 252.91 117.27Z" fill="#263238"/>
<path d="M249.73 109.43C250.11 109.76 252.06 107.98 255.04 107.67C258.02 107.36 260.38 108.67 260.66 108.23C260.8 108.05 260.39 107.43 259.36 106.84C257.972 106.08 256.382 105.769 254.81 105.95C253.255 106.103 251.789 106.752 250.63 107.8C249.79 108.6 249.55 109.29 249.73 109.43Z" fill="#263238"/>
<path d="M241.43 133.52C241.43 133.35 239.54 133.22 236.49 133.15C235.72 133.15 234.98 133.08 234.8 132.57C234.649 131.791 234.743 130.984 235.07 130.26L236.71 124.26C238.97 115.66 240.52 108.62 240.18 108.53C239.84 108.44 237.71 115.34 235.45 123.95L233.91 130C233.533 130.96 233.505 132.022 233.83 133C233.967 133.261 234.161 133.486 234.399 133.66C234.636 133.833 234.91 133.95 235.2 134C235.635 134.054 236.075 134.054 236.51 134C239.56 133.87 241.44 133.69 241.43 133.52Z" fill="#263238"/>
<path d="M250.44 134.66C249.95 134.66 250.29 137.92 247.76 140.52C245.23 143.12 241.76 143.12 241.76 143.58C241.76 143.78 242.59 144.13 244.06 144.01C245.953 143.832 247.724 142.993 249.06 141.64C250.335 140.331 251.052 138.578 251.06 136.75C251.11 135.38 250.66 134.62 250.44 134.66Z" fill="#263238"/>
<path d="M248.62 97.2898C249 98.0698 251.94 97.3698 255.49 97.4298C259.04 97.4898 261.98 98.1398 262.36 97.3598C262.53 96.9898 261.96 96.2798 260.73 95.6098C259.098 94.8187 257.308 94.4077 255.495 94.4077C253.682 94.4077 251.892 94.8187 250.26 95.6098C249 96.2098 248.45 96.9198 248.62 97.2898Z" fill="#263238"/>
<path d="M220.53 101.25C221.12 101.87 223.11 100.95 225.58 100.65C228.05 100.35 230.2 100.65 230.58 99.8699C230.76 99.4999 230.36 98.8699 229.38 98.3099C228.067 97.6696 226.594 97.4332 225.147 97.6308C223.699 97.8284 222.343 98.4511 221.25 99.4199C220.47 100.21 220.26 100.94 220.53 101.25Z" fill="#263238"/>
<path d="M282.65 117.11C282.97 116.93 295.59 111.75 296.57 125.11C297.55 138.47 284 136.65 283.91 136.27C283.82 135.89 282.65 117.11 282.65 117.11Z" fill="#FFBF9D"/>
<path d="M287.61 130.92C287.67 130.92 287.85 131.06 288.26 131.21C288.83 131.407 289.454 131.375 290 131.12C291.37 130.5 292.39 128.18 292.28 125.77C292.234 124.623 291.929 123.502 291.39 122.49C291.234 122.083 290.981 121.72 290.653 121.433C290.326 121.146 289.934 120.942 289.51 120.84C289.239 120.786 288.958 120.83 288.717 120.964C288.475 121.097 288.289 121.312 288.19 121.57C288.03 121.96 288.14 122.22 288.07 122.25C288 122.28 287.77 122.04 287.83 121.49C287.882 121.152 288.048 120.841 288.3 120.61C288.647 120.307 289.1 120.153 289.56 120.18C290.115 120.245 290.644 120.454 291.095 120.785C291.545 121.117 291.902 121.559 292.13 122.07C292.787 123.182 293.158 124.439 293.21 125.73C293.32 128.42 292.13 131.04 290.21 131.73C289.86 131.861 289.486 131.913 289.113 131.88C288.741 131.847 288.381 131.731 288.06 131.54C287.66 131.24 287.57 130.94 287.61 130.92Z" fill="#FF9A6C"/>
<path d="M222.54 81C220.31 79.94 226.34 72.53 231.54 69.78C239.33 65.63 251.43 62.6 258.96 64.22C268.03 66.22 275.71 70.12 280.7 77.94C285.69 85.76 287.98 95.09 288.32 104.36C288.42 107.19 288.32 110.15 286.96 112.63C285.29 115.7 281.83 117.79 282.25 121.85C282.35 122.583 282.302 123.329 282.11 124.043C281.918 124.757 281.585 125.426 281.13 126.01C278.85 128.77 275.71 126.52 274.18 124.16C270.91 119.16 270.18 112.91 269.54 106.93C269.08 102.69 268.63 98.35 269.54 94.19C270.04 91.92 270.96 89.75 271.34 87.46C271.72 85.17 271.49 82.62 269.97 80.86C269.616 80.4908 269.227 80.156 268.81 79.86C266.843 78.3499 264.508 77.3925 262.047 77.0866C259.585 76.7807 257.087 77.1375 254.81 78.12C247.46 81.26 234.89 86.06 231.37 83.72C226.32 80.36 225 78 225 78L222.54 81Z" fill="#263238"/>
<path d="M208.92 198.08C208.15 199.15 197.22 202.78 193.07 209.69C188.92 216.6 184.82 247.62 184.82 247.62L182.18 268C187.38 276.22 194.36 287.11 201.76 294.79L208.92 198.08Z" fill="#455A64"/>
<g opacity="0.3">
<path d="M291.05 228C291.345 232.183 292.137 236.315 293.41 240.31C294.84 244.24 297.35 247.94 301.02 249.97C302.55 250.81 304.28 251.37 305.57 252.57C306.86 253.77 307.64 255.71 308.89 257.12C310.454 258.671 312.383 259.802 314.5 260.41C320.457 262.594 326.778 263.613 333.12 263.41C333.32 261.27 333.33 253.41 333.53 251.26L291.05 228Z" fill="black"/>
</g>
<path d="M324.7 183.06C324.7 183.06 338.48 187.14 342.52 193.01C346.56 198.88 353.71 221.64 355.18 225.86C356.65 230.08 355.36 239.86 352.61 246.86C349.86 253.86 345.08 259.95 336.83 260.86C328.58 261.77 315.54 257.01 312.6 253.86C309.66 250.71 308.45 243.74 308.45 243.74C312.114 243.098 315.727 242.192 319.26 241.03" fill="#455A64"/>
<path d="M319.26 241.1L319.09 241.17L318.57 241.36C318.11 241.52 317.42 241.75 316.51 242.02C313.881 242.806 311.21 243.447 308.51 243.94L308.62 243.79C308.955 245.508 309.427 247.197 310.03 248.84C310.359 249.771 310.757 250.677 311.22 251.55C311.695 252.483 312.32 253.331 313.07 254.06C313.917 254.787 314.85 255.405 315.85 255.9C316.906 256.454 317.991 256.952 319.1 257.39C321.48 258.342 323.926 259.117 326.42 259.71C329.111 260.37 331.869 260.723 334.64 260.76C335.361 260.766 336.082 260.733 336.8 260.66C337.524 260.577 338.242 260.45 338.95 260.28C340.403 259.953 341.798 259.411 343.09 258.67C345.78 257.114 348.039 254.911 349.66 252.26C351.375 249.507 352.688 246.524 353.56 243.4C354.272 241 354.803 238.55 355.15 236.07C355.522 233.669 355.643 231.236 355.51 228.81C355.431 227.643 355.192 226.492 354.8 225.39C354.42 224.27 354.05 223.16 353.69 222.06L351.54 215.63C350.12 211.45 348.72 207.5 347.32 203.83C346.091 200.415 344.61 197.096 342.89 193.9C342.095 192.542 341.034 191.358 339.77 190.42C338.669 189.544 337.498 188.758 336.27 188.07C334.297 186.945 332.257 185.943 330.16 185.07C328.44 184.36 327.08 183.86 326.16 183.53L325.11 183.16C324.985 183.127 324.865 183.08 324.75 183.02C324.876 183.036 325 183.067 325.12 183.11L326.19 183.43C327.13 183.73 328.51 184.2 330.25 184.88C332.364 185.715 334.425 186.68 336.42 187.77C337.67 188.458 338.864 189.244 339.99 190.12C341.291 191.075 342.386 192.282 343.21 193.67C344.969 196.883 346.48 200.226 347.73 203.67C349.16 207.33 350.57 211.29 352 215.47C352.71 217.56 353.43 219.71 354.17 221.9C354.54 222.99 354.91 224.1 355.28 225.22C355.691 226.36 355.943 227.551 356.03 228.76C356.172 231.222 356.055 233.692 355.68 236.13C355.327 238.636 354.788 241.113 354.07 243.54C353.177 246.717 351.83 249.748 350.07 252.54C348.403 255.262 346.078 257.521 343.31 259.11C341.976 259.869 340.537 260.425 339.04 260.76C338.312 260.933 337.574 261.064 336.83 261.15C336.09 261.15 335.35 261.28 334.63 261.25C331.821 261.199 329.026 260.83 326.3 260.15C323.784 259.547 321.317 258.754 318.92 257.78C317.804 257.328 316.712 256.818 315.65 256.25C314.621 255.735 313.66 255.093 312.79 254.34C312.016 253.574 311.374 252.685 310.89 251.71C310.426 250.824 310.028 249.905 309.7 248.96C309.114 247.287 308.656 245.572 308.33 243.83V243.7H308.46C311.98 243.09 314.68 242.4 316.51 241.9L318.59 241.31L319.12 241.16C319.2 241.1 319.26 241.09 319.26 241.1Z" fill="#263238"/>
<path d="M344.55 233.73C344.45 233.73 344.13 232.03 342.98 229.49C341.469 226.188 339.36 223.194 336.76 220.66C335.319 219.288 333.689 218.13 331.92 217.22L330.71 216.68C330.31 216.5 329.89 216.42 329.51 216.29C328.79 216.063 328.05 215.909 327.3 215.83L326.8 215.76H325.44C324.97 215.753 324.501 215.793 324.04 215.88C323.638 215.96 323.23 216.004 322.82 216.01C323.199 215.853 323.595 215.742 324 215.68C324.465 215.548 324.946 215.477 325.43 215.47H326.33H326.82L327.34 215.53C328.115 215.584 328.883 215.718 329.63 215.93C330.05 216.035 330.464 216.162 330.87 216.31L332.13 216.85C333.965 217.756 335.651 218.936 337.13 220.35C339.787 222.918 341.894 226.001 343.32 229.41C343.575 229.99 343.795 230.584 343.98 231.19C344.134 231.645 344.261 232.109 344.36 232.58C344.46 232.956 344.523 233.341 344.55 233.73Z" fill="#263238"/>
<path d="M352.07 221.36C351.502 219.905 350.806 218.503 349.99 217.17C347.918 214.007 344.816 211.658 341.21 210.52C336.98 209.23 332.87 209.63 330 209.9L326.57 210.31C326.154 210.385 325.732 210.422 325.31 210.42C325.705 210.266 326.119 210.162 326.54 210.11C327.34 209.95 328.54 209.74 329.96 209.54C333.75 208.878 337.639 209.042 341.36 210.02C343.398 210.633 345.289 211.653 346.92 213.02C348.255 214.155 349.397 215.499 350.3 217C350.918 217.985 351.412 219.043 351.77 220.15C351.916 220.541 352.017 220.947 352.07 221.36Z" fill="#263238"/>
<path d="M341.68 206.57C336.289 205.299 330.654 205.52 325.38 207.21C326.072 206.759 326.831 206.421 327.63 206.21C329.522 205.628 331.482 205.292 333.46 205.21C335.438 205.14 337.417 205.321 339.35 205.75C340.163 205.905 340.949 206.182 341.68 206.57Z" fill="#263238"/>
<path d="M319.38 186.5C319.46 186.5 319.26 187.91 319.1 190.17C318.681 195.959 319.18 201.777 320.58 207.41L320.22 207.53C319.81 206.38 319.49 205.44 319.28 204.78C319.149 204.458 319.055 204.123 319 203.78C319.204 204.091 319.365 204.427 319.48 204.78C319.75 205.41 320.12 206.33 320.58 207.47L320.22 207.58C319.428 204.813 318.903 201.977 318.65 199.11C318.388 196.144 318.415 193.16 318.73 190.2C318.86 189.07 319.01 188.2 319.13 187.53C319.164 187.176 319.248 186.83 319.38 186.5Z" fill="#263238"/>
<path d="M299.89 160.85C299.89 160.85 292.74 160.85 291.84 169.44C291.15 176.04 291.84 182.44 291.84 185.34C291.84 188.24 290.57 198.51 290.57 198.51C290.57 198.51 285.69 202.84 285.77 208.04C285.85 213.24 289.57 214.86 289.57 214.86C288.946 216.471 288.809 218.23 289.175 219.919C289.541 221.608 290.395 223.152 291.63 224.36C291.63 224.36 289.56 229.15 291.26 232.36C292.24 233.957 293.769 235.141 295.56 235.69C295.267 236.322 295.112 237.01 295.107 237.706C295.102 238.403 295.247 239.093 295.531 239.729C295.816 240.365 296.233 240.932 296.756 241.393C297.278 241.854 297.893 242.197 298.56 242.4C300.963 243.144 303.479 243.452 305.99 243.31L311.33 243.21L316.03 245.81C316.03 245.81 324.09 242.3 324.29 237.55L324.5 232.8C324.5 232.8 322.19 225 322 222.5C321.81 220 323.86 214.03 322.62 211.35C321.38 208.67 317.05 207.09 317.46 203.35C317.87 199.61 317.05 197.53 315.19 195.46C313.33 193.39 305.12 189.27 305.12 189.27C305.12 189.27 303.01 183.27 303.01 179.16C303.01 175.05 307.12 162.42 299.89 160.85Z" fill="#FFBF9D"/>
<path d="M304.71 190.83C304.095 191.333 303.424 191.763 302.71 192.11C301.45 192.85 299.71 193.83 297.71 194.89C295.71 195.95 293.97 196.89 292.71 197.54C292.029 197.952 291.305 198.287 290.55 198.54C291.162 198.031 291.834 197.598 292.55 197.25C293.81 196.51 295.55 195.53 297.55 194.47C299.55 193.41 301.29 192.47 302.55 191.82C303.23 191.408 303.954 191.076 304.71 190.83Z" fill="#FF9A6C"/>
<path d="M309.41 207C309.41 207 309.21 207.23 308.78 207.56C308.183 208.029 307.562 208.466 306.92 208.87C304.808 210.223 302.563 211.356 300.22 212.25C297.877 213.159 295.448 213.829 292.97 214.25C291.97 214.4 291.24 214.49 290.71 214.52C290.432 214.572 290.148 214.572 289.87 214.52C289.87 214.44 291.03 214.28 292.87 213.89C295.296 213.38 297.68 212.685 300 211.81C302.315 210.915 304.555 209.838 306.7 208.59C307.576 208.014 308.48 207.484 309.41 207Z" fill="#FF9A6C"/>
<path d="M315.55 201.85C315.68 201.9 315.41 202.85 314.55 203.58C313.69 204.31 312.77 204.53 312.74 204.4C312.71 204.27 313.45 203.89 314.2 203.19C314.95 202.49 315.41 201.79 315.55 201.85Z" fill="#FF9A6C"/>
<path d="M312.6 221.15C311.64 221.616 310.634 221.985 309.6 222.25C307.14 222.982 304.634 223.553 302.1 223.96C299.566 224.373 297.007 224.613 294.44 224.68C293.376 224.762 292.307 224.728 291.25 224.58C292.301 224.43 293.359 224.344 294.42 224.32C296.42 224.18 299.07 223.92 302.02 223.45C304.97 222.98 307.6 222.37 309.5 221.89C310.518 221.583 311.553 221.336 312.6 221.15Z" fill="#FF9A6C"/>
<path d="M319.14 220C319.292 219.479 319.475 218.968 319.69 218.47C320.087 217.249 320.219 215.957 320.08 214.68C319.921 213.404 319.484 212.179 318.8 211.09C318.476 210.655 318.179 210.201 317.91 209.73C317.91 209.68 318.48 210.05 319.11 210.88C319.919 211.977 320.429 213.265 320.59 214.619C320.751 215.972 320.558 217.344 320.03 218.6C319.62 219.51 319.19 220 319.14 220Z" fill="#FF9A6C"/>
<path d="M313 235.63C312.181 235.932 311.328 236.133 310.46 236.23C308.383 236.558 306.283 236.722 304.18 236.72C302.072 236.716 299.969 236.539 297.89 236.19C297.021 236.092 296.168 235.887 295.35 235.58C296.219 235.595 297.085 235.679 297.94 235.83C300.012 236.064 302.095 236.188 304.18 236.2C306.261 236.196 308.341 236.082 310.41 235.86C311.266 235.715 312.132 235.638 313 235.63Z" fill="#FF9A6C"/>
<path d="M300.28 179.26C300.28 179.32 299.95 179.59 299.28 179.83C298.398 180.125 297.462 180.22 296.538 180.11C295.615 179.999 294.727 179.685 293.94 179.19C293.34 178.8 293.06 178.46 293.1 178.41C294.206 178.965 295.384 179.363 296.6 179.59C297.836 179.656 299.075 179.545 300.28 179.26Z" fill="#FF9A6C"/>
<path d="M320.62 220.57C320.71 220.816 320.751 221.078 320.74 221.34C320.74 222.051 320.656 222.759 320.49 223.45C320.3 224.32 319.97 225.33 319.65 226.45C319.263 227.622 319.136 228.864 319.28 230.09C319.45 231.36 320.4 232.38 320.55 233.67C320.652 234.76 320.373 235.852 319.76 236.76C319.387 237.362 318.955 237.924 318.47 238.44C318.13 238.81 317.92 238.99 317.89 238.97C317.86 238.95 318.58 238.09 319.44 236.58C319.957 235.728 320.179 234.73 320.07 233.74C319.95 232.65 318.99 231.63 318.76 230.18C318.608 228.877 318.755 227.557 319.19 226.32C319.54 225.19 319.9 224.2 320.13 223.32C320.361 222.416 320.524 221.497 320.62 220.57Z" fill="#FF9A6C"/>
<path d="M323.31 226.85C323.473 227.143 323.588 227.461 323.65 227.79C323.83 228.4 324.07 229.3 324.29 230.42C324.561 231.738 324.722 233.076 324.77 234.42C324.856 236.101 324.548 237.779 323.87 239.32C323.083 240.796 322.04 242.119 320.79 243.23C319.795 244.136 318.736 244.968 317.62 245.72C316.67 246.37 315.87 246.85 315.31 247.16C315.035 247.346 314.735 247.494 314.42 247.6C314.37 247.53 315.57 246.77 317.42 245.42C318.493 244.639 319.515 243.791 320.48 242.88C321.669 241.793 322.663 240.512 323.42 239.09C324.061 237.619 324.365 236.024 324.31 234.42C324.287 233.096 324.166 231.776 323.95 230.47C323.56 228.24 323.23 226.87 323.31 226.85Z" fill="#263238"/>
<path d="M247.86 193.56C247.444 193.315 247.055 193.027 246.7 192.7L243.7 190.19L241.62 188.44C241.265 188.107 240.868 187.821 240.44 187.59C240.233 187.484 240.003 187.428 239.77 187.428C239.537 187.428 239.307 187.484 239.1 187.59C238.24 188.04 237.66 189.14 236.93 190.06C236.2 190.98 235.48 192.06 234.72 193.06C233.52 194.68 232.35 196.23 231.28 197.67L230.63 198.53L230.84 197.47C231.413 194.496 232.247 191.578 233.33 188.75C233.73 187.75 234.09 186.89 234.33 186.34C234.442 186.044 234.594 185.765 234.78 185.51C234.711 185.815 234.614 186.113 234.49 186.4C234.28 186.97 233.97 187.8 233.61 188.86C232.632 191.702 231.867 194.614 231.32 197.57L230.87 197.37L234.3 192.75L236.51 189.75L237.57 188.34C237.906 187.839 238.359 187.427 238.89 187.14C239.168 187.018 239.47 186.961 239.773 186.973C240.076 186.985 240.373 187.066 240.64 187.21C241.094 187.466 241.514 187.778 241.89 188.14L243.89 189.94L246.81 192.57C247.186 192.872 247.537 193.203 247.86 193.56Z" fill="#263238"/>
<path d="M290.08 185.11C289.964 185.242 289.833 185.359 289.69 185.46L288.51 186.38L284.1 189.69L269.39 200.52L269.17 200.68L269.02 200.45C268.9 200.27 268.78 200.07 268.65 199.88L261.27 188.22L261.54 188.31C258.696 189.44 255.953 190.808 253.34 192.4C252.4 192.97 251.67 193.4 251.17 193.77C250.927 193.953 250.666 194.111 250.39 194.24C250.602 194.02 250.837 193.822 251.09 193.65C251.57 193.3 252.28 192.79 253.21 192.18C255.79 190.501 258.522 189.068 261.37 187.9L261.54 187.83L261.64 187.98C263.81 191.35 266.36 195.34 269.09 199.6C269.22 199.79 269.34 199.99 269.46 200.17L269.08 200.1L283.89 189.4L288.39 186.21L289.63 185.37C289.92 185.18 290.07 185.09 290.08 185.11Z" fill="#263238"/>
<path d="M200.33 224.88C200.376 225.11 200.396 225.345 200.39 225.58C200.39 226.1 200.39 226.77 200.44 227.58C200.44 229.39 200.53 231.92 200.58 235.02C200.7 241.3 200.95 250.02 201.28 259.57C201.61 269.12 201.8 277.84 201.82 284.13C201.82 287.28 201.82 289.82 201.82 291.58C201.82 292.41 201.82 293.09 201.77 293.58C201.781 293.818 201.764 294.056 201.72 294.29C201.705 294.053 201.705 293.816 201.72 293.58C201.72 293.07 201.72 292.39 201.66 291.58C201.66 289.76 201.58 287.23 201.52 284.14C201.41 277.85 201.15 269.14 200.83 259.58C200.51 250.02 200.31 241.31 200.29 235.02C200.29 231.88 200.29 229.33 200.29 227.58C200.29 226.74 200.29 226.07 200.29 225.58C200.288 225.346 200.302 225.112 200.33 224.88Z" fill="#263238"/>
<path d="M248.19 315.2C248.157 315.11 248.136 315.016 248.13 314.92C248.13 314.7 248.13 314.42 248.04 314.07C247.96 313.28 247.85 312.19 247.72 310.8C247.44 307.96 247.12 303.8 246.8 298.75C246.48 293.7 246.21 287.58 246.04 280.84C245.87 274.1 245.85 266.67 246.04 258.84C246.23 251.01 246.58 243.64 247.04 236.91C247.5 230.18 248.04 224.12 248.58 219.05C249.12 213.98 249.58 209.87 250.02 207.05C250.22 205.66 250.37 204.58 250.48 203.8C250.54 203.45 250.58 203.17 250.62 202.95C250.625 202.854 250.645 202.759 250.68 202.67C250.695 202.766 250.695 202.864 250.68 202.96C250.68 203.18 250.63 203.46 250.6 203.81C250.51 204.59 250.39 205.68 250.23 207.07C249.89 209.91 249.45 214.01 248.96 219.07C248.47 224.13 247.96 230.2 247.53 236.93C247.1 243.66 246.77 251.07 246.59 258.85C246.41 266.63 246.46 274.04 246.59 280.78C246.72 287.52 246.97 293.58 247.25 298.67C247.53 303.76 247.78 307.89 248 310.73C248.09 312.12 248.17 313.22 248.22 314.01C248.22 314.36 248.22 314.64 248.27 314.86C248.253 314.975 248.226 315.089 248.19 315.2Z" fill="#263238"/>
<path d="M218.39 151.52L217.33 152.22L214.21 154.22C212.83 155.11 211.21 156.38 209.31 157.78C208.31 158.5 207.39 159.37 206.31 160.25L204.68 161.62C204.12 162.1 203.59 162.62 203.02 163.17C197.489 168.329 192.631 174.165 188.56 180.54L186.78 183.4C186.15 184.35 185.67 185.4 185.09 186.4C184.51 187.4 183.94 188.48 183.42 189.58C182.9 190.68 182.42 191.81 181.88 192.95C181.63 193.52 181.35 194.08 181.11 194.67C180.87 195.26 180.66 195.86 180.43 196.47C179.98 197.67 179.5 198.88 179.06 200.13C178.32 202.66 177.38 205.22 176.82 207.95C173.969 219.762 173.493 232.022 175.42 244.02C177.927 259.469 184.396 274.005 194.197 286.208C203.997 298.412 216.793 307.866 231.337 313.65C245.881 319.433 261.676 321.347 277.18 319.205C292.684 317.063 307.368 310.939 319.8 301.43C322.939 299.017 325.924 296.412 328.74 293.63L330.74 291.51C331.42 290.81 332.08 290.1 332.74 289.35L334.64 287.16C335.24 286.4 335.83 285.64 336.43 284.89C345.476 273.239 351.51 259.538 354 245C354.585 241.624 354.983 238.219 355.19 234.8C355.29 233.11 355.29 231.44 355.35 229.8C355.41 228.16 355.23 226.49 355.17 224.86C355.17 224.05 355.1 223.23 355.07 222.42C355.04 221.61 354.89 220.82 354.81 220.02C354.61 218.43 354.42 216.85 354.23 215.29C354.04 213.73 353.63 212.21 353.33 210.69C353.079 209.182 352.745 207.69 352.33 206.22L351.09 201.89C350.896 201.179 350.658 200.482 350.38 199.8C350.12 199.11 349.86 198.42 349.61 197.74C349.08 196.39 348.61 195.01 348.04 193.74C347.47 192.47 346.85 191.18 346.26 189.93C341.911 180.889 336.077 172.641 329 165.53C323.638 160.202 317.655 155.539 311.18 151.64L307.36 149.45C306.783 149.112 306.189 148.805 305.58 148.53L303.9 147.73L300.9 146.31C300 145.85 299.11 145.59 298.36 145.31L294.88 143.97L293.7 143.49L294.9 143.92L298.39 145.22C299.15 145.52 300.04 145.78 300.95 146.22L303.95 147.62L305.64 148.42C306.252 148.688 306.85 148.988 307.43 149.32L311.26 151.5C317.778 155.374 323.799 160.028 329.19 165.36C336.309 172.466 342.184 180.717 346.57 189.77C347.16 191.04 347.76 192.31 348.37 193.61C348.98 194.91 349.37 196.28 349.95 197.61L350.73 199.67C351.008 200.355 351.246 201.056 351.44 201.77C351.86 203.21 352.28 204.65 352.7 206.12C353.133 207.596 353.484 209.095 353.75 210.61C354.05 212.13 354.41 213.61 354.67 215.22C354.93 216.83 355.05 218.38 355.25 219.98C355.34 220.78 355.47 221.58 355.52 222.39C355.57 223.2 355.59 224.02 355.62 224.84C355.68 226.48 355.77 228.13 355.81 229.84C355.85 231.55 355.76 233.19 355.65 234.84C354.628 253.145 348.061 270.706 336.82 285.19L335 287.47L333.08 289.68C332.46 290.43 331.79 291.15 331.08 291.85L329.08 293.99C326.247 296.789 323.241 299.407 320.08 301.83C307.588 311.379 292.836 317.528 277.26 319.678C261.684 321.828 245.817 319.906 231.206 314.099C216.594 308.292 203.736 298.798 193.886 286.542C184.036 274.287 177.529 259.688 175 244.17C173.985 237.914 173.65 231.567 174 225.24C174.252 219.403 175.093 213.607 176.51 207.94C177.07 205.2 178.02 202.64 178.76 200.09C179.21 198.85 179.7 197.63 180.16 196.42C180.39 195.82 180.62 195.22 180.84 194.62C181.06 194.02 181.37 193.47 181.62 192.89C182.15 191.75 182.62 190.63 183.17 189.52C183.72 188.41 184.31 187.38 184.86 186.33C185.41 185.28 185.93 184.24 186.56 183.28L188.36 180.42C192.452 174.035 197.349 168.204 202.93 163.07C203.5 162.54 204.03 162 204.59 161.52L206.23 160.15C207.31 159.28 208.23 158.42 209.23 157.7C211.18 156.3 212.78 155.05 214.17 154.17L217.32 152.17C218 151.73 218.39 151.52 218.39 151.52Z" fill="#263238"/>
</svg>
