<svg width="251" height="187" viewBox="0 0 251 187" fill="none" xmlns="http://www.w3.org/2000/svg">
<path d="M250.605 164.097H-0.00012207V164.222H250.605V164.097Z" fill="#E0E0E0"/>
<path d="M197.066 167.906H188.616V168.031H197.066V167.906Z" fill="#E0E0E0"/>
<path d="M224.823 167.846H202.489V167.971H224.823V167.846Z" fill="#E0E0E0"/>
<path d="M160.753 168.688H132.951V168.813H160.753V168.688Z" fill="#E0E0E0"/>
<path d="M130.064 168.688H119.679V168.813H130.064V168.688Z" fill="#E0E0E0"/>
<path d="M75.9634 167.72H71.4023V167.846H75.9634V167.72Z" fill="#E0E0E0"/>
<path d="M86.2835 167.72H78.7452V167.846H86.2835V167.72Z" fill="#E0E0E0"/>
<path d="M66.8865 169.981H33.5259V170.106H66.8865V169.981Z" fill="#E0E0E0"/>
<path d="M118.787 141.742H22.008C21.2499 141.741 20.5232 141.439 19.9876 140.902C19.452 140.366 19.1511 139.639 19.1511 138.881V2.83685C19.1577 2.08305 19.4615 1.36228 19.9964 0.831117C20.5313 0.299954 21.2542 0.00129131 22.008 0H118.787C119.546 0 120.274 0.301522 120.811 0.838236C121.347 1.37495 121.649 2.10289 121.649 2.86191V138.881C121.649 139.64 121.347 140.368 120.811 140.904C120.274 141.441 119.546 141.742 118.787 141.742ZM22.008 0.100243C21.2831 0.10157 20.5883 0.390476 20.0762 0.903547C19.5641 1.41662 19.2764 2.11193 19.2764 2.83685V138.881C19.2764 139.606 19.5641 140.301 20.0762 140.814C20.5883 141.327 21.2831 141.616 22.008 141.617H118.787C119.512 141.616 120.208 141.327 120.72 140.814C121.233 140.301 121.522 139.606 121.523 138.881V2.83685C121.522 2.11147 121.233 1.41617 120.72 0.903241C120.208 0.390313 119.512 0.101568 118.787 0.100243H22.008Z" fill="#E0E0E0"/>
<path d="M227.204 141.742H130.42C129.662 141.741 128.934 141.439 128.398 140.903C127.862 140.366 127.56 139.639 127.558 138.881V2.83685C127.566 2.08259 127.871 1.36183 128.407 0.830804C128.942 0.299779 129.666 0.00127723 130.42 0H227.204C227.957 0.00260855 228.679 0.301854 229.212 0.832877C229.746 1.3639 230.049 2.08391 230.056 2.83685V138.881C230.056 139.638 229.756 140.364 229.221 140.901C228.687 141.437 227.961 141.74 227.204 141.742ZM130.42 0.100243C129.695 0.101568 128.999 0.390313 128.487 0.903241C127.974 1.41617 127.685 2.11147 127.684 2.83685V138.881C127.685 139.606 127.974 140.301 128.487 140.814C128.999 141.327 129.695 141.616 130.42 141.617H227.204C227.929 141.616 228.625 141.327 229.138 140.814C229.651 140.301 229.939 139.606 229.941 138.881V2.83685C229.939 2.11147 229.651 1.41617 229.138 0.903241C228.625 0.390313 227.929 0.101568 227.204 0.100243H130.42Z" fill="#E0E0E0"/>
<path d="M159.28 103.019H135.542V164.097H159.28V103.019Z" fill="#E0E0E0"/>
<path d="M154.769 164.096H159.28V151.271H150.042L154.769 164.096Z" fill="#F0F0F0"/>
<path d="M70.5654 103.019H46.828V164.097H70.5654V103.019Z" fill="#E0E0E0"/>
<path d="M159.275 103.019H66.6309V156.228H159.275V103.019Z" fill="#F0F0F0"/>
<path d="M114.466 106.883V140.194H155.781V106.883H114.466Z" fill="#E0E0E0"/>
<path d="M70.1293 106.888V140.199H111.444V106.888H70.1293Z" fill="#E0E0E0"/>
<path d="M155.781 151.271V148.82H114.467V151.271H155.781Z" fill="#E0E0E0"/>
<path d="M111.444 151.271V148.82H70.1295V151.271H111.444Z" fill="#E0E0E0"/>
<path d="M155.776 146.534V144.083H114.462V146.534H155.776Z" fill="#E0E0E0"/>
<path d="M111.439 146.539V144.088H70.1245V146.539H111.439Z" fill="#E0E0E0"/>
<path d="M94.8742 110.472H86.7095C84.9527 110.472 83.2144 110.114 81.6004 109.421C79.9864 108.727 78.5306 107.712 77.3218 106.437H104.252C103.045 107.711 101.59 108.726 99.9782 109.42C98.366 110.113 96.6293 110.471 94.8742 110.472Z" fill="#F0F0F0"/>
<path d="M139.627 110.472H131.458C129.701 110.473 127.962 110.115 126.348 109.422C124.734 108.728 123.278 107.712 122.07 106.437H149.015C147.806 107.712 146.351 108.728 144.737 109.422C143.123 110.115 141.384 110.473 139.627 110.472Z" fill="#F0F0F0"/>
<path d="M71.1418 164.096H66.6309V151.271H75.8682L71.1418 164.096Z" fill="#F0F0F0"/>
<path d="M158.769 9.51794H34.2577V80.6398H158.769V9.51794Z" fill="#E0E0E0"/>
<path d="M165.655 7.32263H30.0726C29.9038 7.32263 29.7419 7.38969 29.6225 7.50907C29.5031 7.62844 29.4361 7.79035 29.4361 7.95917C29.4354 8.04318 29.4514 8.12649 29.4831 8.2043C29.5148 8.28211 29.5615 8.35288 29.6207 8.41252C29.6799 8.47216 29.7503 8.51949 29.8278 8.55179C29.9054 8.58409 29.9886 8.60072 30.0726 8.60072H165.655C165.739 8.60072 165.822 8.58409 165.9 8.55179C165.978 8.51949 166.048 8.47216 166.107 8.41252C166.166 8.35288 166.213 8.28211 166.245 8.2043C166.276 8.12649 166.292 8.04318 166.292 7.95917C166.292 7.79035 166.225 7.62844 166.105 7.50907C165.986 7.38969 165.824 7.32263 165.655 7.32263Z" fill="#E0E0E0"/>
<path d="M161.495 9.51794H35.5308V80.6398H161.495V9.51794Z" fill="#E6E6E6"/>
<path d="M158.769 80.6399H34.2577V85.7071H158.769V80.6399Z" fill="#E0E0E0"/>
<path d="M166.036 80.6399H40.0718V85.7071H166.036V80.6399Z" fill="#E6E6E6"/>
<path d="M157.671 76.8206V13.3372L39.345 13.3372V76.8206H157.671Z" fill="#F5F5F5"/>
<path d="M97.9066 76.8206L120.316 13.3372H130.891L108.482 76.8206H97.9066Z" fill="#FAFAFA"/>
<path d="M110.758 76.8206L133.167 13.3372H137.287L114.883 76.8206H110.758Z" fill="#FAFAFA"/>
<path d="M157.671 76.8206V13.3372H157.185V76.8206H157.671Z" fill="#E0E0E0"/>
<path d="M39.3901 6.17993H32.8192V67.438H39.3901V6.17993Z" fill="#EBEBEB"/>
<path d="M41.9513 6.17993H36.834V67.438H41.9513V6.17993Z" fill="#E0E0E0"/>
<path d="M45.9611 6.17993H39.3903V67.438H45.9611V6.17993Z" fill="#EBEBEB"/>
<path d="M48.5221 6.17993H43.4048V67.438H48.5221V6.17993Z" fill="#E0E0E0"/>
<path d="M52.5319 6.17993H45.9611V67.438H52.5319V6.17993Z" fill="#EBEBEB"/>
<path d="M155.225 6.17993H151.441V67.438H155.225V6.17993Z" fill="#EBEBEB"/>
<path d="M156.709 6.17993H153.757V67.438H156.709V6.17993Z" fill="#E0E0E0"/>
<path d="M159.014 6.17993H155.23V67.438H159.014V6.17993Z" fill="#EBEBEB"/>
<path d="M160.493 6.17993H157.541V67.438H160.493V6.17993Z" fill="#E0E0E0"/>
<path d="M162.798 6.17993H159.014V67.438H162.798V6.17993Z" fill="#EBEBEB"/>
<path d="M197.241 32.754H188.841V55.6744H197.241V32.754Z" fill="#E6E6E6"/>
<path d="M185.648 59.4987L183.704 64.7965H185.648L197.542 59.4987H185.648Z" fill="#F0F0F0"/>
<path d="M183.704 59.4987V64.7965L195.602 59.4987H183.704Z" fill="#E0E0E0"/>
<path d="M205.993 59.4987L204.048 64.7965H205.993L217.886 59.4987H205.993Z" fill="#F0F0F0"/>
<path d="M204.048 59.4987V64.7965L215.947 59.4987H204.048Z" fill="#E0E0E0"/>
<path d="M174.978 59.7444H187.914V55.7096H174.978V59.7444Z" fill="#E0E0E0"/>
<path d="M224.823 55.7096H187.909V59.7443H224.823V55.7096Z" fill="#F0F0F0"/>
<path d="M211.235 55.6745H190.791L188.26 27.9023H208.704L211.235 55.6745Z" fill="#E0E0E0"/>
<path d="M212.293 55.6745H191.849L189.323 27.9023H209.767L212.293 55.6745Z" fill="#F0F0F0"/>
<path d="M194.645 52.6021L192.676 30.9749H206.97L208.94 52.6021H194.645Z" fill="#FAFAFA"/>
<path d="M78.8957 94.1025C78.8957 94.1025 70.0794 78.9108 82.309 66.8165C82.309 66.8165 85.5017 68.8966 85.4516 71.6933C85.4014 74.4901 82.0333 75.2018 82.76 77.5274C83.4868 79.853 86.6645 82.1536 84.5744 84.0833C82.4844 86.0129 84.9102 87.7271 84.7699 90.0978C84.6296 92.4685 78.8957 94.1025 78.8957 94.1025Z" fill="#E0E0E0"/>
<path d="M79.5621 95.4906C79.5621 95.4906 83.1358 78.2941 67.7185 70.6707C67.7185 70.6707 65.3478 73.6529 66.275 76.2892C67.2023 78.9256 70.6205 78.5397 70.6707 80.9806C70.7208 83.4215 68.4252 86.5991 71.0115 87.772C73.5977 88.9448 71.8435 91.3406 72.7256 93.5359C73.6078 95.7312 79.5621 95.4906 79.5621 95.4906Z" fill="#E0E0E0"/>
<path d="M66.0597 91.6815C66.0597 91.6815 66.3504 103.019 77.5875 103.019C88.8247 103.019 89.1154 91.6815 89.1154 91.6815H66.0597Z" fill="#F0F0F0"/>
<path d="M198.655 164.097H199.803L203.071 147.978L203.647 145.156L207.211 127.613H220.889L228.302 164.097H229.449L221.896 126.917C221.87 126.79 221.8 126.677 221.7 126.596C221.599 126.514 221.474 126.47 221.345 126.471H206.755C206.626 126.469 206.501 126.513 206.401 126.595C206.301 126.676 206.233 126.79 206.208 126.917L203.076 142.344L202.489 145.166L198.655 164.097Z" fill="#EBEBEB"/>
<path d="M176.697 164.097H177.845L185.258 127.593H198.936L202.489 145.166L203.061 147.978L206.334 164.097H207.501L203.657 145.156L203.076 142.344L199.943 126.917C199.917 126.79 199.847 126.677 199.747 126.596C199.646 126.514 199.521 126.47 199.392 126.471H184.801C184.672 126.47 184.547 126.514 184.446 126.596C184.346 126.677 184.277 126.79 184.25 126.917L176.697 164.097Z" fill="#EBEBEB"/>
<path d="M210.413 127.032H185.282C182.976 127.031 180.762 126.126 179.115 124.512C177.467 122.898 176.518 120.702 176.471 118.396L175.534 80.1937C175.521 79.3439 175.678 78.4999 175.994 77.7109C176.31 76.9219 176.779 76.2035 177.375 75.5974C177.971 74.9913 178.681 74.5095 179.465 74.18C180.248 73.8505 181.089 73.6799 181.939 73.678H197.692C199.27 73.6777 200.792 74.2579 201.969 75.3081C203.145 76.3582 203.894 77.8047 204.073 79.3717L210.413 127.032Z" fill="#E6E6E6"/>
<path d="M196.705 122.215H221.3C222.213 122.215 223.089 122.578 223.734 123.224C224.38 123.869 224.743 124.745 224.743 125.659V125.779C224.743 126.111 224.611 126.43 224.376 126.665C224.141 126.9 223.822 127.032 223.49 127.032H196.705V122.215Z" fill="#E6E6E6"/>
<path d="M125.303 186.731C178.974 186.731 222.483 184.191 222.483 181.057C222.483 177.924 178.974 175.384 125.303 175.384C71.6318 175.384 28.1229 177.924 28.1229 181.057C28.1229 184.191 71.6318 186.731 125.303 186.731Z" fill="#F5F5F5"/>
<path d="M93.5008 36.7287C93.5027 35.7951 93.4273 34.863 93.2752 33.942C92.6035 29.8708 90.5182 26.1668 87.3859 23.4809C84.2536 20.7951 80.2748 19.2993 76.1488 19.2565H75.9985C73.2304 19.2581 70.5025 19.918 68.0397 21.1817C65.5769 22.4453 63.4499 24.2765 61.8343 26.524C61.5686 26.8899 61.333 27.2658 61.0925 27.6417C61.0729 27.6665 61.0561 27.6934 61.0423 27.7219C59.397 30.4431 58.5302 33.5638 58.5363 36.7437V36.7788C58.5466 40.4747 59.728 44.0722 61.9107 47.0547C64.0934 50.0372 67.1652 52.2512 70.6848 53.3787C74.2045 54.5063 77.991 54.4894 81.5005 53.3305C85.0099 52.1715 88.0618 49.9302 90.2178 46.9283C90.4785 46.5625 90.7191 46.1916 90.9546 45.8106C90.9742 45.7858 90.991 45.7589 91.0047 45.7304C92.648 43.0162 93.5117 39.9016 93.5008 36.7287ZM59.2831 36.3327C59.341 33.471 60.1406 30.6733 61.6037 28.2131H67.0719C66.2363 30.8397 65.7987 33.5766 65.7738 36.3327H59.2831ZM67.8388 28.2131H75.6376V36.3327H66.5256C66.5422 33.5747 66.9851 30.8358 67.8388 28.2131ZM76.3894 27.4613V19.9832C77.4735 20.0815 78.5116 20.4673 79.3967 21.1009C81.2562 22.374 82.815 24.6094 83.9076 27.4613H76.3894ZM84.1782 28.2131C84.7983 30.0907 85.2019 32.0329 85.3812 34.0021C85.4563 34.784 85.4914 35.5609 85.5014 36.3327H76.3894V28.2131H84.1782ZM74.5349 20.1937C74.8947 20.0915 75.2644 20.0277 75.6376 20.0033V27.4763H68.1194C69.5228 23.6972 71.7983 20.9506 74.5349 20.1787V20.1937ZM75.6376 37.0996V45.2192H67.8538C67.2336 43.337 66.8333 41.3894 66.6609 39.4152C66.5907 38.6333 66.5506 37.8564 66.5406 37.0846L75.6376 37.0996ZM75.6376 45.971V53.4491C74.5537 53.3501 73.5158 52.9643 72.6303 52.3314C70.7759 51.0583 69.2171 48.8229 68.1194 45.971H75.6376ZM77.4921 53.2536C77.1324 53.3563 76.7627 53.4202 76.3894 53.4441V45.956H83.9076C82.5042 49.7201 80.2287 52.4717 77.4921 53.2386V53.2536ZM76.3894 45.2342V37.0896H85.5014C85.4873 39.8478 85.0443 42.5871 84.1883 45.2092L76.3894 45.2342ZM86.2533 37.0896H92.769C92.7083 39.9509 91.9089 42.7479 90.4484 45.2092H84.9551C85.7907 42.5826 86.2283 39.8457 86.2533 37.0896ZM92.769 36.3377H86.2533C86.2533 35.5458 86.2031 34.7439 86.128 33.9369C85.9569 31.9943 85.572 30.0764 84.9802 28.2181H90.4384C91.4931 30.009 92.2053 31.9806 92.5384 34.0322C92.6578 34.7937 92.7281 35.5622 92.749 36.3327L92.769 36.3377ZM85.8172 23.1409C87.4554 24.3209 88.8679 25.786 89.9873 27.4663H84.7045C83.5818 24.3638 81.8927 21.9079 79.8227 20.4844L79.6623 20.3792C81.8725 20.8741 83.9595 21.8119 85.7972 23.1358L85.8172 23.1409ZM72.3497 20.3892C70.2396 21.7776 68.5054 24.3037 67.3376 27.4663H62.0748L62.4407 26.93C64.8209 23.6073 68.3411 21.2772 72.3296 20.3842L72.3497 20.3892ZM59.3182 37.0896H65.8089C65.8089 37.8815 65.859 38.6834 65.9342 39.4904C66.1077 41.4327 66.4925 43.3503 67.0819 45.2092H61.5937C60.5368 43.4193 59.8245 41.4473 59.4936 39.3951C59.3688 38.6326 59.2985 37.8621 59.2831 37.0896H59.3182ZM62.0949 45.961H67.3376C68.4603 49.0635 70.1493 51.5194 72.2193 52.9429L72.3847 53.0481C68.1733 52.0916 64.4899 49.5547 62.0949 45.961ZM79.6924 53.0331C81.7975 51.6497 83.5317 49.1186 84.7045 45.956H89.9572C89.8369 46.1364 89.7166 46.3169 89.5913 46.4923C87.2091 49.8165 83.6846 52.1454 79.6924 53.0331Z" fill="#FF8C00"/>
<path opacity="0.8" d="M93.5008 36.7287C93.5027 35.7951 93.4273 34.863 93.2752 33.942C92.6035 29.8708 90.5182 26.1668 87.3859 23.4809C84.2536 20.7951 80.2748 19.2993 76.1488 19.2565H75.9985C73.2304 19.2581 70.5025 19.918 68.0397 21.1817C65.5769 22.4453 63.4499 24.2765 61.8343 26.524C61.5686 26.8899 61.333 27.2658 61.0925 27.6417C61.0729 27.6665 61.0561 27.6934 61.0423 27.7219C59.397 30.4431 58.5302 33.5638 58.5363 36.7437V36.7788C58.5466 40.4747 59.728 44.0722 61.9107 47.0547C64.0934 50.0372 67.1652 52.2512 70.6848 53.3787C74.2045 54.5063 77.991 54.4894 81.5005 53.3305C85.0099 52.1715 88.0618 49.9302 90.2178 46.9283C90.4785 46.5625 90.7191 46.1916 90.9546 45.8106C90.9742 45.7858 90.991 45.7589 91.0047 45.7304C92.648 43.0162 93.5117 39.9016 93.5008 36.7287ZM59.2831 36.3327C59.341 33.471 60.1406 30.6733 61.6037 28.2131H67.0719C66.2363 30.8397 65.7987 33.5766 65.7738 36.3327H59.2831ZM67.8388 28.2131H75.6376V36.3327H66.5256C66.5422 33.5747 66.9851 30.8358 67.8388 28.2131ZM76.3894 27.4613V19.9832C77.4735 20.0815 78.5116 20.4673 79.3967 21.1009C81.2562 22.374 82.815 24.6094 83.9076 27.4613H76.3894ZM84.1782 28.2131C84.7983 30.0907 85.2019 32.0329 85.3812 34.0021C85.4563 34.784 85.4914 35.5609 85.5014 36.3327H76.3894V28.2131H84.1782ZM74.5349 20.1937C74.8947 20.0915 75.2644 20.0277 75.6376 20.0033V27.4763H68.1194C69.5228 23.6972 71.7983 20.9506 74.5349 20.1787V20.1937ZM75.6376 37.0996V45.2192H67.8538C67.2336 43.337 66.8333 41.3894 66.6609 39.4152C66.5907 38.6333 66.5506 37.8564 66.5406 37.0846L75.6376 37.0996ZM75.6376 45.971V53.4491C74.5537 53.3501 73.5158 52.9643 72.6303 52.3314C70.7759 51.0583 69.2171 48.8229 68.1194 45.971H75.6376ZM77.4921 53.2536C77.1324 53.3563 76.7627 53.4202 76.3894 53.4441V45.956H83.9076C82.5042 49.7201 80.2287 52.4717 77.4921 53.2386V53.2536ZM76.3894 45.2342V37.0896H85.5014C85.4873 39.8478 85.0443 42.5871 84.1883 45.2092L76.3894 45.2342ZM86.2533 37.0896H92.769C92.7083 39.9509 91.9089 42.7479 90.4484 45.2092H84.9551C85.7907 42.5826 86.2283 39.8457 86.2533 37.0896ZM92.769 36.3377H86.2533C86.2533 35.5458 86.2031 34.7439 86.128 33.9369C85.9569 31.9943 85.572 30.0764 84.9802 28.2181H90.4384C91.4931 30.009 92.2053 31.9806 92.5384 34.0322C92.6578 34.7937 92.7281 35.5622 92.749 36.3327L92.769 36.3377ZM85.8172 23.1409C87.4554 24.3209 88.8679 25.786 89.9873 27.4663H84.7045C83.5818 24.3638 81.8927 21.9079 79.8227 20.4844L79.6623 20.3792C81.8725 20.8741 83.9595 21.8119 85.7972 23.1358L85.8172 23.1409ZM72.3497 20.3892C70.2396 21.7776 68.5054 24.3037 67.3376 27.4663H62.0748L62.4407 26.93C64.8209 23.6073 68.3411 21.2772 72.3296 20.3842L72.3497 20.3892ZM59.3182 37.0896H65.8089C65.8089 37.8815 65.859 38.6834 65.9342 39.4904C66.1077 41.4327 66.4925 43.3503 67.0819 45.2092H61.5937C60.5368 43.4193 59.8245 41.4473 59.4936 39.3951C59.3688 38.6326 59.2985 37.8621 59.2831 37.0896H59.3182ZM62.0949 45.961H67.3376C68.4603 49.0635 70.1493 51.5194 72.2193 52.9429L72.3847 53.0481C68.1733 52.0916 64.4899 49.5547 62.0949 45.961ZM79.6924 53.0331C81.7975 51.6497 83.5317 49.1186 84.7045 45.956H89.9572C89.8369 46.1364 89.7166 46.3169 89.5913 46.4923C87.2091 49.8165 83.6846 52.1454 79.6924 53.0331Z" fill="#FAFAFA"/>
<path d="M207.647 45.059H50.0659V83.2412H207.647V45.059Z" fill="#FF8C00"/>
<path opacity="0.6" d="M207.647 45.059H50.0659V83.2412H207.647V45.059Z" fill="#FAFAFA"/>
<path d="M204.093 48.6124H46.5125V86.7947H204.093V48.6124Z" fill="#FF8C00"/>
<path opacity="0.3" d="M204.093 48.6124H46.5125V86.7947H204.093V48.6124Z" fill="black"/>
<path d="M200.54 52.166H42.9589V90.3483H200.54V52.166Z" fill="#FF8C00"/>
<path opacity="0.1" d="M200.54 52.166H42.9589V90.3483H200.54V52.166Z" fill="#FAFAFA"/>
<path d="M193.021 82.8301V59.6842L50.4771 59.6842V82.8301H193.021Z" fill="#FF8C00"/>
<path opacity="0.9" d="M193.021 82.8301V59.6842L50.4771 59.6842V82.8301H193.021Z" fill="#FAFAFA"/>
<path d="M169.043 59.6842V82.8301H169.88V59.6842H169.043Z" fill="#FF8C00"/>
<path opacity="0.6" d="M169.043 59.6842V82.8301H169.88V59.6842H169.043Z" fill="#FAFAFA"/>
<path d="M54.0304 62.877V79.6375H54.8674V62.877H54.0304Z" fill="#FF8C00"/>
<path opacity="0.6" d="M54.0304 62.877V79.6375H54.8674V62.877H54.0304Z" fill="#FAFAFA"/>
<path d="M180.651 74.1792C180.043 74.179 179.445 74.0288 178.908 73.7419C178.372 73.455 177.915 73.0404 177.577 72.5346C177.239 72.0288 177.031 71.4476 176.972 70.8423C176.912 70.237 177.003 69.6265 177.236 69.0646C177.469 68.5027 177.836 68.0069 178.306 67.6211C178.777 67.2352 179.335 66.9713 179.931 66.8525C180.527 66.7338 181.144 66.764 181.726 66.9404C182.308 67.1169 182.838 67.4341 183.268 67.864C183.785 68.3813 184.138 69.0405 184.281 69.7583C184.424 70.476 184.35 71.22 184.07 71.896C183.79 72.5721 183.316 73.1499 182.707 73.5564C182.099 73.9628 181.383 74.1796 180.651 74.1792ZM180.651 67.7888C180.027 67.789 179.423 68.0056 178.941 68.4016C178.459 68.7977 178.129 69.3487 178.007 69.9608C177.886 70.5729 177.981 71.2081 178.275 71.7582C178.57 72.3083 179.046 72.7392 179.623 72.9775C180.199 73.2158 180.841 73.2467 181.438 73.0649C182.035 72.8831 182.55 72.5 182.896 71.9807C183.242 71.4615 183.397 70.8383 183.335 70.2174C183.273 69.5965 182.998 69.0163 182.556 68.5757C182.309 68.3204 182.013 68.1171 181.686 67.9777C181.359 67.8383 181.007 67.7655 180.651 67.7637V67.7888Z" fill="#FF8C00"/>
<path d="M185.448 75.753C185.382 75.7527 185.316 75.7392 185.255 75.7134C185.194 75.6876 185.139 75.6499 185.092 75.6026L182.561 73.0715C182.509 73.0265 182.466 72.9713 182.436 72.9091C182.406 72.8469 182.389 72.7792 182.386 72.7101C182.384 72.6411 182.395 72.5723 182.421 72.508C182.446 72.4436 182.484 72.3852 182.533 72.3364C182.582 72.2875 182.64 72.2493 182.704 72.2241C182.769 72.1989 182.838 72.1873 182.907 72.1899C182.976 72.1926 183.043 72.2095 183.105 72.2396C183.168 72.2697 183.223 72.3123 183.268 72.3648L185.799 74.8959C185.892 74.9898 185.945 75.1168 185.945 75.2492C185.945 75.3816 185.892 75.5087 185.799 75.6026C185.706 75.697 185.58 75.7511 185.448 75.753Z" fill="#FF8C00"/>
<g opacity="0.6">
<path d="M180.651 74.1792C180.043 74.179 179.445 74.0288 178.908 73.7419C178.372 73.455 177.915 73.0404 177.577 72.5346C177.239 72.0288 177.031 71.4476 176.972 70.8423C176.912 70.237 177.003 69.6265 177.236 69.0646C177.469 68.5027 177.836 68.0069 178.306 67.6211C178.777 67.2352 179.335 66.9713 179.931 66.8525C180.527 66.7338 181.144 66.764 181.726 66.9404C182.308 67.1169 182.838 67.4341 183.268 67.864C183.785 68.3813 184.138 69.0405 184.281 69.7583C184.424 70.476 184.35 71.22 184.07 71.896C183.79 72.5721 183.316 73.1499 182.707 73.5564C182.099 73.9628 181.383 74.1796 180.651 74.1792ZM180.651 67.7888C180.027 67.789 179.423 68.0056 178.941 68.4016C178.459 68.7977 178.129 69.3487 178.007 69.9608C177.886 70.5729 177.981 71.2081 178.275 71.7582C178.57 72.3083 179.046 72.7392 179.623 72.9775C180.199 73.2158 180.841 73.2467 181.438 73.0649C182.035 72.8831 182.55 72.5 182.896 71.9807C183.242 71.4615 183.397 70.8383 183.335 70.2174C183.273 69.5965 182.998 69.0163 182.556 68.5757C182.309 68.3204 182.013 68.1171 181.686 67.9777C181.359 67.8383 181.007 67.7655 180.651 67.7637V67.7888Z" fill="#FAFAFA"/>
<path d="M185.448 75.753C185.382 75.7527 185.316 75.7392 185.255 75.7134C185.194 75.6876 185.139 75.6499 185.092 75.6026L182.561 73.0715C182.509 73.0265 182.466 72.9713 182.436 72.9091C182.406 72.8469 182.389 72.7792 182.386 72.7101C182.384 72.6411 182.395 72.5723 182.421 72.508C182.446 72.4436 182.484 72.3852 182.533 72.3364C182.582 72.2875 182.64 72.2493 182.704 72.2241C182.769 72.1989 182.838 72.1873 182.907 72.1899C182.976 72.1926 183.043 72.2095 183.105 72.2396C183.168 72.2697 183.223 72.3123 183.268 72.3648L185.799 74.8959C185.892 74.9898 185.945 75.1168 185.945 75.2492C185.945 75.3816 185.892 75.5087 185.799 75.6026C185.706 75.697 185.58 75.7511 185.448 75.753Z" fill="#FAFAFA"/>
</g>
<path d="M146.649 21.9781H130.891V22.3691H146.649V21.9781Z" fill="#FF8C00"/>
<path d="M146.649 23.6371H130.891V24.028H146.649V23.6371Z" fill="#FF8C00"/>
<path d="M146.649 25.3011H130.891V25.6921H146.649V25.3011Z" fill="#FF8C00"/>
<path d="M146.649 26.9602H130.891V27.3511H146.649V26.9602Z" fill="#FF8C00"/>
<path d="M146.649 28.6191H130.891V29.0101H146.649V28.6191Z" fill="#FF8C00"/>
<path d="M141.166 30.2831H130.891V30.674H141.166V30.2831Z" fill="#FF8C00"/>
<g opacity="0.5">
<path d="M146.649 21.9781H130.891V22.3691H146.649V21.9781Z" fill="#FAFAFA"/>
<path d="M146.649 23.6371H130.891V24.028H146.649V23.6371Z" fill="#FAFAFA"/>
<path d="M146.649 25.3011H130.891V25.6921H146.649V25.3011Z" fill="#FAFAFA"/>
<path d="M146.649 26.9602H130.891V27.3511H146.649V26.9602Z" fill="#FAFAFA"/>
<path d="M146.649 28.6191H130.891V29.0101H146.649V28.6191Z" fill="#FAFAFA"/>
<path d="M141.166 30.2831H130.891V30.674H141.166V30.2831Z" fill="#FAFAFA"/>
</g>
<path d="M51.8001 93.6462H35.0095V93.8968H51.8001V93.6462Z" fill="#FF8C00"/>
<path d="M51.8001 94.7087H35.0095V94.9593H51.8001V94.7087Z" fill="#FF8C00"/>
<path d="M51.8001 95.7714H35.0095V96.022H51.8001V95.7714Z" fill="#FF8C00"/>
<path d="M51.8001 96.834H35.0095V97.0846H51.8001V96.834Z" fill="#FF8C00"/>
<path d="M51.8001 97.8966H35.0095V98.1472H51.8001V97.8966Z" fill="#FF8C00"/>
<path d="M45.565 98.9641H35.0095V99.2147H45.565V98.9641Z" fill="#FF8C00"/>
<g opacity="0.4">
<path d="M51.8001 93.6462H35.0095V93.8968H51.8001V93.6462Z" fill="#FAFAFA"/>
<path d="M51.8001 94.7089H35.0095V94.9595H51.8001V94.7089Z" fill="#FAFAFA"/>
<path d="M51.8001 95.7714H35.0095V96.022H51.8001V95.7714Z" fill="#FAFAFA"/>
<path d="M51.8001 96.834H35.0095V97.0846H51.8001V96.834Z" fill="#FAFAFA"/>
<path d="M51.8001 97.8966H35.0095V98.1472H51.8001V97.8966Z" fill="#FAFAFA"/>
<path d="M45.565 98.9641H35.0095V99.2147H45.565V98.9641Z" fill="#FAFAFA"/>
</g>
<path d="M106.984 24.4391C106.143 24.4391 105.338 24.7728 104.744 25.3669C104.15 25.9609 103.816 26.7666 103.816 27.6067V38.057C103.816 38.8971 104.15 39.7028 104.744 40.2969C105.338 40.8909 106.143 41.2246 106.984 41.2246C107.824 41.2246 108.629 40.8909 109.223 40.2969C109.817 39.7028 110.151 38.8971 110.151 38.057V27.6067C110.151 26.7666 109.817 25.9609 109.223 25.3669C108.629 24.7728 107.824 24.4391 106.984 24.4391Z" fill="#FF8C00"/>
<path opacity="0.2" d="M106.984 24.4391C106.143 24.4391 105.338 24.7728 104.744 25.3669C104.15 25.9609 103.816 26.7666 103.816 27.6067V38.057C103.816 38.8971 104.15 39.7028 104.744 40.2969C105.338 40.8909 106.143 41.2246 106.984 41.2246C107.824 41.2246 108.629 40.8909 109.223 40.2969C109.817 39.7028 110.151 38.8971 110.151 38.057V27.6067C110.151 26.7666 109.817 25.9609 109.223 25.3669C108.629 24.7728 107.824 24.4391 106.984 24.4391Z" fill="#FAFAFA"/>
<path d="M114.923 18.209C114.085 18.213 113.283 18.5485 112.692 19.1421C112.102 19.7357 111.77 20.5392 111.77 21.3767V38.057C111.77 38.8971 112.104 39.7028 112.698 40.2968C113.292 40.8909 114.098 41.2246 114.938 41.2246C115.778 41.2246 116.583 40.8909 117.178 40.2968C117.772 39.7028 118.105 38.8971 118.105 38.057V21.3767C118.105 20.9594 118.023 20.5463 117.863 20.161C117.703 19.7757 117.468 19.4258 117.172 19.1315C116.876 18.8371 116.526 18.6041 116.139 18.4458C115.753 18.2875 115.34 18.207 114.923 18.209Z" fill="#FF8C00"/>
<path opacity="0.3" d="M114.923 18.209C114.085 18.213 113.283 18.5485 112.692 19.1421C112.102 19.7357 111.77 20.5392 111.77 21.3767V38.057C111.77 38.8971 112.104 39.7028 112.698 40.2968C113.292 40.8909 114.098 41.2246 114.938 41.2246C115.778 41.2246 116.583 40.8909 117.178 40.2968C117.772 39.7028 118.105 38.8971 118.105 38.057V21.3767C118.105 20.9594 118.023 20.5463 117.863 20.161C117.703 19.7757 117.468 19.4258 117.172 19.1315C116.876 18.8371 116.526 18.6041 116.139 18.4458C115.753 18.2875 115.34 18.207 114.923 18.209Z" fill="black"/>
<path d="M122.857 30.6691C122.017 30.6691 121.211 31.0028 120.617 31.5969C120.023 32.1909 119.689 32.9966 119.689 33.8367V38.0569C119.689 38.897 120.023 39.7027 120.617 40.2968C121.211 40.8908 122.017 41.2246 122.857 41.2246C123.273 41.2252 123.686 41.1438 124.071 40.9849C124.456 40.826 124.805 40.5928 125.1 40.2986C125.395 40.0044 125.628 39.6549 125.788 39.2703C125.947 38.8856 126.03 38.4733 126.03 38.0569V33.8367C126.03 33.4203 125.947 33.008 125.788 32.6234C125.628 32.2387 125.395 31.8893 125.1 31.5951C124.805 31.3009 124.456 31.0676 124.071 30.9088C123.686 30.7499 123.273 30.6684 122.857 30.6691Z" fill="#FF8C00"/>
<path opacity="0.6" d="M122.857 30.6691C122.017 30.6691 121.211 31.0028 120.617 31.5969C120.023 32.1909 119.689 32.9966 119.689 33.8367V38.0569C119.689 38.897 120.023 39.7027 120.617 40.2968C121.211 40.8908 122.017 41.2246 122.857 41.2246C123.273 41.2252 123.686 41.1438 124.071 40.9849C124.456 40.826 124.805 40.5928 125.1 40.2986C125.395 40.0044 125.628 39.6549 125.788 39.2703C125.947 38.8856 126.03 38.4733 126.03 38.0569V33.8367C126.03 33.4203 125.947 33.008 125.788 32.6234C125.628 32.2387 125.395 31.8893 125.1 31.5951C124.805 31.3009 124.456 31.0676 124.071 30.9088C123.686 30.7499 123.273 30.6684 122.857 30.6691Z" fill="#FAFAFA"/>
<path d="M189.763 102.312H202.569L180.707 79.6375L189.763 102.312Z" fill="#FF8C00"/>
<g opacity="0.1">
<path d="M189.763 102.312H202.569L180.707 79.6375L189.763 102.312Z" fill="black"/>
</g>
<g style="mix-blend-mode:multiply">
<path d="M177.454 90.3433L180.706 79.6375L182.551 90.3433H177.454Z" fill="#FF8C00"/>
</g>
<path d="M180.707 79.6375V111.364L182.972 109.104L189.763 102.312L180.707 79.6375Z" fill="#FF8C00"/>
<path opacity="0.3" d="M180.707 79.6375V111.364L182.972 109.104L189.763 102.312L180.707 79.6375Z" fill="#FAFAFA"/>
<path d="M203.351 11.583H175.284C173.861 11.5883 172.498 12.1554 171.492 13.1608C170.485 14.1662 169.917 15.5285 169.911 16.951V31.446C169.917 32.8676 170.485 34.2292 171.49 35.2344C172.495 36.2397 173.857 36.8074 175.278 36.814H195.873L195.723 41.8812L200.92 36.814H203.341C204.764 36.8087 206.127 36.2416 207.133 35.2362C208.139 34.2308 208.708 32.8685 208.714 31.446V16.951C208.708 15.5302 208.141 14.1694 207.137 13.1643C206.132 12.1592 204.772 11.5909 203.351 11.583ZM174.652 17.7579C174.652 17.3591 174.81 16.9767 175.092 16.6947C175.374 16.4127 175.757 16.2543 176.156 16.2543H182.616C183.015 16.2543 183.397 16.4127 183.679 16.6947C183.961 16.9767 184.12 17.3591 184.12 17.7579C184.12 18.1567 183.961 18.5392 183.679 18.8212C183.397 19.1031 183.015 19.2616 182.616 19.2616H176.151C175.753 19.2602 175.372 19.1012 175.091 18.8194C174.81 18.5375 174.652 18.1558 174.652 17.7579ZM201.757 31.7918H190.59C190.374 31.8297 190.153 31.8198 189.941 31.7628C189.729 31.7059 189.532 31.6032 189.364 31.4621C189.196 31.3209 189.061 31.1447 188.968 30.9458C188.875 30.747 188.827 30.5302 188.827 30.3108C188.827 30.0913 188.875 29.8746 188.968 29.6757C189.061 29.4768 189.196 29.3006 189.364 29.1594C189.532 29.0183 189.729 28.9157 189.941 28.8587C190.153 28.8017 190.374 28.7918 190.59 28.8297H201.757C201.974 28.7918 202.195 28.8017 202.407 28.8587C202.619 28.9157 202.816 29.0183 202.984 29.1594C203.152 29.3006 203.287 29.4768 203.38 29.6757C203.473 29.8746 203.521 30.0913 203.521 30.3108C203.521 30.5302 203.473 30.747 203.38 30.9458C203.287 31.1447 203.152 31.3209 202.984 31.4621C202.816 31.6032 202.619 31.7059 202.407 31.7628C202.195 31.8198 201.974 31.8297 201.757 31.7918ZM201.757 25.5217H177.654C177.438 25.5596 177.216 25.5497 177.004 25.4927C176.792 25.4357 176.596 25.3331 176.428 25.1919C176.26 25.0508 176.125 24.8746 176.032 24.6757C175.939 24.4768 175.891 24.26 175.891 24.0406C175.891 23.8212 175.939 23.6044 176.032 23.4055C176.125 23.2066 176.26 23.0304 176.428 22.8893C176.596 22.7482 176.792 22.6455 177.004 22.5885C177.216 22.5316 177.438 22.5217 177.654 22.5595H201.757C201.974 22.5217 202.195 22.5316 202.407 22.5885C202.619 22.6455 202.816 22.7482 202.984 22.8893C203.152 23.0304 203.287 23.2066 203.38 23.4055C203.473 23.6044 203.521 23.8212 203.521 24.0406C203.521 24.26 203.473 24.4768 203.38 24.6757C203.287 24.8746 203.152 25.0508 202.984 25.1919C202.816 25.3331 202.619 25.4357 202.407 25.4927C202.195 25.5497 201.974 25.5596 201.757 25.5217ZM201.757 19.2515H187.488C187.089 19.2515 186.707 19.0931 186.425 18.8111C186.143 18.5291 185.984 18.1467 185.984 17.7479C185.984 17.3491 186.143 16.9667 186.425 16.6847C186.707 16.4027 187.089 16.2443 187.488 16.2443H201.757C202.156 16.2443 202.539 16.4027 202.821 16.6847C203.103 16.9667 203.261 17.3491 203.261 17.7479C203.261 18.1467 203.103 18.5291 202.821 18.8111C202.539 19.0931 202.156 19.2515 201.757 19.2515Z" fill="#FF8C00"/>
<path d="M159.455 57.529C158.256 54.236 156.426 51.2089 154.067 48.6174H114.216C111.857 51.2089 110.027 54.236 108.828 57.529L114.341 84.9753C118.559 89.5475 124.23 92.5187 130.39 93.3839C136.55 94.2492 142.819 92.9552 148.133 89.7219C153.448 86.4885 157.479 81.5151 159.542 75.6466C161.604 69.7781 161.572 63.3764 159.45 57.529H159.455Z" fill="#FF8C00"/>
<path opacity="0.1" d="M159.455 57.529C158.256 54.236 156.426 51.2089 154.067 48.6174H114.216C111.857 51.2089 110.027 54.236 108.828 57.529L114.341 84.9753C118.559 89.5475 124.23 92.5187 130.39 93.3839C136.55 94.2492 142.819 92.9552 148.133 89.7219C153.448 86.4885 157.479 81.5151 159.542 75.6466C161.604 69.7781 161.572 63.3764 159.45 57.529H159.455Z" fill="#FAFAFA"/>
<path d="M161.044 67.9692C160.76 74.2978 158.246 80.3218 153.947 84.9752H114.351C111.009 81.343 108.727 76.863 107.755 72.0234C106.783 67.1838 107.157 62.1703 108.838 57.5289H159.46C160.676 60.8694 161.215 64.4184 161.044 67.9692Z" fill="#FF8C00"/>
<path opacity="0.9" d="M161.044 67.9692C160.76 74.2978 158.246 80.3218 153.947 84.9752H114.351C111.009 81.343 108.727 76.863 107.755 72.0234C106.783 67.1838 107.157 62.1703 108.838 57.5289H159.46C160.676 60.8694 161.215 64.4184 161.044 67.9692Z" fill="#FAFAFA"/>
<path opacity="0.3" d="M161.044 67.9692C160.732 74.6289 157.956 80.9349 153.254 85.6618C148.553 90.3887 142.262 93.1989 135.604 93.5463C128.946 93.8937 122.396 91.7534 117.228 87.5415C112.06 83.3295 108.643 77.3466 107.64 70.7555C106.636 64.1644 108.12 57.4357 111.801 51.877C115.482 46.3184 121.098 42.3267 127.558 40.6778C134.018 39.0288 140.86 39.8403 146.755 42.9546C152.65 46.0688 157.177 51.2634 159.455 57.5289C160.671 60.8695 161.211 64.4182 161.044 67.9692Z" fill="white"/>
<path opacity="0.4" d="M149.321 44.4875L110.597 79.8029C110.403 79.4453 110.213 79.0845 110.026 78.7202C108.842 76.3499 108.019 73.8158 107.585 71.2021L141.031 40.6984C143.99 41.4783 146.794 42.7599 149.321 44.4875Z" fill="white"/>
<path opacity="0.4" d="M159.681 58.1755L123.298 91.3757C119.524 89.7106 116.183 87.2 113.534 84.038L153.29 47.7804C156.188 50.7111 158.374 54.2673 159.681 58.1755Z" fill="white"/>
<path d="M161.034 51.1987C157.963 45.873 153.381 41.578 147.868 38.8572C142.354 36.1364 136.158 35.112 130.063 35.9137C123.967 36.7153 118.247 39.307 113.625 43.3608C109.003 47.4145 105.687 52.7482 104.097 58.687C102.507 64.6257 102.714 70.9026 104.693 76.7235C106.671 82.5444 110.332 87.6476 115.211 91.3875C120.091 95.1274 125.97 97.3358 132.105 97.7335C138.24 98.1311 144.355 96.7 149.677 93.6212C156.804 89.4977 162.003 82.714 164.133 74.7599C166.262 66.8058 165.148 58.3317 161.034 51.1987ZM112.918 78.9859C110.495 74.7889 109.37 69.9675 109.687 65.1315C110.004 60.2955 111.747 55.662 114.697 51.817C117.647 47.9719 121.671 45.088 126.26 43.5298C130.849 41.9716 135.797 41.8092 140.479 43.0632C145.16 44.3171 149.364 46.931 152.56 50.5744C155.756 54.2177 157.8 58.7269 158.433 63.5318C159.066 68.3366 158.26 73.2213 156.117 77.5681C153.974 81.915 150.59 85.5288 146.394 87.9525C143.607 89.5619 140.531 90.6066 137.341 91.0269C134.151 91.4473 130.909 91.235 127.801 90.4024C124.693 89.5697 121.779 88.1329 119.226 86.1741C116.673 84.2152 114.532 81.7726 112.923 78.9859H112.918Z" fill="#FF8C00"/>
<path opacity="0.1" d="M161.034 51.1987C157.963 45.873 153.381 41.578 147.868 38.8572C142.354 36.1364 136.158 35.112 130.063 35.9137C123.967 36.7153 118.247 39.307 113.625 43.3608C109.003 47.4145 105.687 52.7482 104.097 58.687C102.507 64.6257 102.714 70.9026 104.693 76.7235C106.671 82.5444 110.332 87.6476 115.211 91.3875C120.091 95.1274 125.97 97.3358 132.105 97.7335C138.24 98.1311 144.355 96.7 149.677 93.6212C156.804 89.4977 162.003 82.714 164.133 74.7599C166.262 66.8058 165.148 58.3317 161.034 51.1987ZM112.918 78.9859C110.495 74.7889 109.37 69.9675 109.687 65.1315C110.004 60.2955 111.747 55.662 114.697 51.817C117.647 47.9719 121.671 45.088 126.26 43.5298C130.849 41.9716 135.797 41.8092 140.479 43.0632C145.16 44.3171 149.364 46.931 152.56 50.5744C155.756 54.2177 157.8 58.7269 158.433 63.5318C159.066 68.3366 158.26 73.2213 156.117 77.5681C153.974 81.915 150.59 85.5288 146.394 87.9525C143.607 89.5619 140.531 90.6066 137.341 91.0269C134.151 91.4473 130.909 91.235 127.801 90.4024C124.693 89.5697 121.779 88.1329 119.226 86.1741C116.673 84.2152 114.532 81.7726 112.923 78.9859H112.918Z" fill="black"/>
<path d="M62.6813 98.6833L66.5206 99.5755L63.3379 101.951C63.3379 101.951 61.0574 100.919 60.9521 99.2998L62.6813 98.6833Z" fill="#E4897B"/>
<path d="M68.5758 102.132L65.8091 103.976L63.3381 101.951L66.5208 99.5806L68.5758 102.132Z" fill="#E4897B"/>
<path d="M112.006 83.0907C107.926 86.098 103.741 88.9549 99.5356 91.7466C95.3305 94.5383 91.0702 97.2599 86.7898 99.9314C82.5095 102.603 78.1891 105.219 73.8536 107.76C71.6883 109.053 69.5031 110.306 67.3378 111.58C66.2622 112.264 65.0896 112.783 63.8594 113.118C63.2031 113.292 62.5319 113.405 61.8546 113.454C61.1026 113.515 60.3459 113.477 59.6041 113.339C59.0741 113.234 58.5699 113.026 58.1204 112.726C57.6709 112.426 57.285 112.04 56.9847 111.591C56.6845 111.142 56.4757 110.638 56.3705 110.108C56.2652 109.578 56.2655 109.032 56.3713 108.502C56.4056 108.332 56.4525 108.164 56.5117 108.001C56.7536 107.29 57.0908 106.616 57.5141 105.996C57.8917 105.439 58.3213 104.918 58.7972 104.442C59.7036 103.545 60.7392 102.788 61.8696 102.197C64.0599 100.949 66.2352 99.6908 68.4405 98.4528C72.8311 95.9718 77.2618 93.556 81.7025 91.1702C86.1433 88.7844 90.6391 86.4739 95.1601 84.2184C99.681 81.963 104.237 79.7677 108.888 77.7428C109.59 77.4324 110.382 77.3923 111.112 77.6302C111.841 77.8681 112.457 78.3672 112.842 79.0317C113.226 79.6961 113.351 80.479 113.193 81.2301C113.035 81.9811 112.605 82.6473 111.986 83.1007L112.006 83.0907Z" fill="#FF8C00"/>
<path opacity="0.1" d="M112.006 83.0907C107.926 86.098 103.741 88.9549 99.5356 91.7466C95.3305 94.5383 91.0702 97.2599 86.7898 99.9314C82.5095 102.603 78.1891 105.219 73.8536 107.76C71.6883 109.053 69.5031 110.306 67.3378 111.58C66.2622 112.264 65.0896 112.783 63.8594 113.118C63.2031 113.292 62.5319 113.405 61.8546 113.454C61.1026 113.515 60.3459 113.477 59.6041 113.339C59.0741 113.234 58.5699 113.026 58.1204 112.726C57.6709 112.426 57.285 112.04 56.9847 111.591C56.6845 111.142 56.4757 110.638 56.3705 110.108C56.2652 109.578 56.2655 109.032 56.3713 108.502C56.4056 108.332 56.4525 108.164 56.5117 108.001C56.7536 107.29 57.0908 106.616 57.5141 105.996C57.8917 105.439 58.3213 104.918 58.7972 104.442C59.7036 103.545 60.7392 102.788 61.8696 102.197C64.0599 100.949 66.2352 99.6908 68.4405 98.4528C72.8311 95.9718 77.2618 93.556 81.7025 91.1702C86.1433 88.7844 90.6391 86.4739 95.1601 84.2184C99.681 81.963 104.237 79.7677 108.888 77.7428C109.59 77.4324 110.382 77.3923 111.112 77.6302C111.841 77.8681 112.457 78.3672 112.842 79.0317C113.226 79.6961 113.351 80.479 113.193 81.2301C113.035 81.9811 112.605 82.6473 111.986 83.1007L112.006 83.0907Z" fill="black"/>
<path d="M68.2448 74.941C67.9942 75.347 67.7085 75.8382 67.4379 76.2993C67.1672 76.7604 66.9016 77.2416 66.651 77.7278C66.1498 78.6851 65.6486 79.6574 65.1473 80.6448C64.6461 81.6322 64.2402 82.6497 63.8292 83.6521C63.6287 84.1533 63.4182 84.6545 63.2327 85.1557L62.952 85.9226C62.8969 86.0679 62.8869 86.1281 62.8518 86.2333C62.8167 86.3386 62.8017 86.4388 62.7716 86.5391C62.576 87.5296 62.4769 88.5367 62.4759 89.5463C62.4508 90.6239 62.4759 91.7216 62.536 92.8293C62.5962 93.9369 62.6563 95.0496 62.7566 96.1623C62.8568 97.275 62.9571 98.4077 63.0623 99.5104L61.1276 99.9064C60.7868 98.7887 60.5212 97.676 60.2555 96.5482C59.9899 95.4205 59.7894 94.2878 59.5939 93.135C59.3985 91.9822 59.2681 90.8244 59.1829 89.6265C59.0787 88.3721 59.1106 87.11 59.2782 85.8624C59.3082 85.687 59.3333 85.5216 59.3784 85.3612C59.4235 85.2008 59.4686 84.9753 59.5087 84.86L59.7543 84.0079C59.9147 83.4416 60.1002 82.8802 60.2906 82.3239C60.6765 81.2062 61.0976 80.1085 61.5687 79.0259C62.0398 77.9433 62.541 76.8857 63.0723 75.8432C63.348 75.342 63.6387 74.8057 63.9344 74.2895C64.2301 73.7732 64.5258 73.287 64.8967 72.7407L68.2448 74.941Z" fill="#E4897B"/>
<path d="M66.1046 178.431C65.7664 178.42 65.4303 178.373 65.1021 178.291C65.0846 178.288 65.0684 178.279 65.0558 178.267C65.0432 178.254 65.0349 178.238 65.032 178.221C65.0288 178.202 65.0309 178.184 65.038 178.167C65.0451 178.15 65.0569 178.136 65.0721 178.125C65.2074 178.035 66.3902 177.273 66.8464 177.479C66.897 177.502 66.9406 177.538 66.9723 177.584C67.0041 177.63 67.0229 177.684 67.0268 177.739C67.0503 177.829 67.0487 177.923 67.0222 178.011C66.9957 178.1 66.9452 178.179 66.8764 178.241C66.6506 178.395 66.3764 178.463 66.1046 178.431ZM65.3377 178.16C66.0194 178.296 66.5306 178.271 66.7261 178.09C66.769 178.049 66.8004 177.997 66.8171 177.94C66.8338 177.883 66.8353 177.822 66.8213 177.764C66.8207 177.739 66.8128 177.714 66.7986 177.693C66.7844 177.671 66.7645 177.655 66.7411 177.644C66.5055 177.539 65.8189 177.87 65.3377 178.16Z" fill="#FF8C00"/>
<path d="M65.0971 178.296C65.0824 178.3 65.0667 178.3 65.052 178.296C65.0376 178.288 65.0257 178.277 65.0177 178.262C65.0097 178.248 65.0059 178.232 65.0069 178.216C65.0069 178.171 65.0069 177.048 65.4329 176.672C65.4855 176.625 65.5476 176.589 65.6149 176.567C65.6823 176.546 65.7535 176.539 65.8238 176.547C65.8977 176.548 65.969 176.574 66.0256 176.622C66.0822 176.669 66.1207 176.735 66.1346 176.807C66.2248 177.243 65.5131 178.085 65.1322 178.311C65.1194 178.309 65.1074 178.304 65.0971 178.296ZM65.7637 176.712C65.6877 176.713 65.6146 176.741 65.5582 176.792C65.3117 177.155 65.1855 177.587 65.1973 178.025C65.5682 177.724 66.0093 177.093 65.9541 176.827C65.9541 176.782 65.9191 176.732 65.8038 176.717L65.7637 176.712Z" fill="#FF8C00"/>
<path d="M83.8576 178.431C83.4447 178.425 83.0334 178.378 82.6297 178.291C82.6105 178.289 82.5926 178.28 82.5789 178.266C82.5652 178.253 82.5566 178.235 82.5545 178.216C82.5523 178.196 82.5558 178.177 82.5648 178.16C82.5737 178.143 82.5876 178.129 82.6046 178.12C82.78 178.03 84.3338 177.238 84.8099 177.499C84.8557 177.522 84.8946 177.557 84.9227 177.6C84.9508 177.643 84.9672 177.693 84.9703 177.744C84.9812 177.827 84.9714 177.911 84.9416 177.989C84.9119 178.067 84.8632 178.136 84.7999 178.19C84.5227 178.376 84.19 178.461 83.8576 178.431ZM82.9354 178.16C83.8025 178.306 84.439 178.266 84.6796 178.055C84.7196 178.018 84.75 177.972 84.7683 177.92C84.7866 177.869 84.7923 177.814 84.7849 177.759C84.7847 177.739 84.779 177.719 84.7684 177.701C84.7579 177.683 84.7428 177.669 84.7247 177.659C84.4641 177.519 83.5719 177.855 82.9354 178.16Z" fill="#FF8C00"/>
<path d="M82.6447 178.296C82.6368 178.299 82.6283 178.301 82.6196 178.301C82.611 178.301 82.6025 178.299 82.5946 178.296C82.5802 178.288 82.5685 178.277 82.5613 178.262C82.5541 178.248 82.5517 178.231 82.5545 178.216C82.5545 178.17 82.6497 177.118 83.1359 176.712C83.2756 176.595 83.4555 176.537 83.6371 176.552C83.8927 176.577 83.9629 176.707 83.9829 176.812C84.0531 177.253 83.1359 178.095 82.6698 178.316L82.6447 178.296ZM83.577 176.712C83.4592 176.713 83.3457 176.756 83.2562 176.832C82.9687 177.172 82.7936 177.592 82.755 178.035C83.2261 177.749 83.8526 177.088 83.8075 176.822C83.8075 176.822 83.8075 176.732 83.6271 176.717L83.577 176.712Z" fill="#FF8C00"/>
<path d="M74.1793 59.8896C74.4851 62.2303 75.1818 66.9768 73.4877 68.4102C73.4877 68.4102 73.9889 70.796 78.2592 71.0717C82.9806 71.3774 80.665 68.8764 80.665 68.8764C78.1289 68.0945 78.3193 66.1849 78.8857 64.4206L74.1793 59.8896Z" fill="#E4897B"/>
<path d="M82.9354 55.1332C82.9053 55.1325 82.8759 55.1239 82.8502 55.1081C82.8284 55.0971 82.809 55.0817 82.7933 55.0629C82.7776 55.0442 82.7659 55.0224 82.7588 54.999C82.7518 54.9755 82.7496 54.9509 82.7524 54.9266C82.7552 54.9023 82.7629 54.8788 82.775 54.8575C82.9052 54.5924 83.0977 54.3627 83.336 54.1882C83.5743 54.0136 83.8513 53.8993 84.1433 53.8551C84.1882 53.8568 84.2309 53.8748 84.2635 53.9056C84.2962 53.9364 84.3165 53.978 84.3208 54.0227C84.3251 54.0674 84.313 54.1121 84.2868 54.1486C84.2606 54.185 84.2221 54.2108 84.1784 54.221C83.9499 54.2609 83.7337 54.3532 83.5467 54.4906C83.3598 54.6279 83.2072 54.8067 83.1008 55.0129C83.0866 55.0459 83.0637 55.0746 83.0346 55.0957C83.0055 55.1169 82.9713 55.1298 82.9354 55.1332Z" fill="#263238"/>
<path d="M84.2836 57.1882C84.6289 57.8766 85.0674 58.5141 85.5867 59.0828C85.4378 59.2123 85.2624 59.3076 85.0728 59.3622C84.8832 59.4167 84.684 59.4291 84.4891 59.3986L84.2836 57.1882Z" fill="#DE5753"/>
<path d="M83.9528 56.677C83.9829 56.9927 84.1733 57.2283 84.3738 57.2083C84.5743 57.1882 84.7246 56.9226 84.6946 56.6068C84.6645 56.2911 84.474 56.0555 84.2686 56.0755C84.0631 56.0956 83.9227 56.3662 83.9528 56.677Z" fill="#263238"/>
<path d="M84.2034 56.1006L84.9351 55.8149C84.9351 55.8149 84.5843 56.4364 84.2034 56.1006Z" fill="#263238"/>
<path d="M78.3542 178.201H82.2587L82.5193 169.169H78.6149L78.3542 178.201Z" fill="#E4897B"/>
<path d="M60.6265 178.201H64.5309L65.7839 169.169H61.8845L60.6265 178.201Z" fill="#E4897B"/>
<path d="M64.7714 177.749H60.3859C60.3107 177.749 60.2378 177.775 60.1806 177.824C60.1235 177.873 60.086 177.941 60.0751 178.015L59.5739 181.483C59.564 181.571 59.5727 181.66 59.5994 181.744C59.6262 181.828 59.6703 181.905 59.7289 181.971C59.7876 182.036 59.8595 182.089 59.9398 182.125C60.0202 182.161 60.1073 182.18 60.1954 182.18C61.699 182.155 62.4609 182.065 64.3905 182.065C65.5734 182.065 67.3076 182.185 68.9465 182.185C70.5855 182.185 70.6707 180.566 69.9891 180.421C66.9317 179.764 66.4505 178.857 65.418 177.99C65.2377 177.836 65.0086 177.751 64.7714 177.749Z" fill="#263238"/>
<path d="M82.3892 177.749H78.0086C77.9331 177.748 77.8596 177.774 77.8023 177.823C77.7449 177.872 77.7077 177.94 77.6978 178.015L77.1966 181.483C77.1875 181.571 77.1969 181.66 77.2242 181.744C77.2515 181.828 77.2961 181.905 77.3552 181.971C77.4142 182.037 77.4864 182.089 77.567 182.125C77.6476 182.161 77.7348 182.18 77.8231 182.18C79.3268 182.155 80.0886 182.065 82.0132 182.065C83.2011 182.065 85.652 182.185 87.291 182.185C88.93 182.185 89.0152 180.566 88.3335 180.421C85.2761 179.764 84.0732 178.857 83.0407 177.99C82.8591 177.835 82.6281 177.749 82.3892 177.749Z" fill="#263238"/>
<path d="M82.5145 169.169L82.3842 173.825H78.4797L78.6151 169.169H82.5145Z" fill="#CE6F64"/>
<path d="M61.8795 169.169H65.7839L65.1373 173.825H61.2329L61.8795 169.169Z" fill="#CE6F64"/>
<path d="M69.9088 75.5426C69.1678 76.7003 68.3095 77.7785 67.3476 78.7604L66.9015 78.4646L61.9596 75.1817C61.9596 75.1817 64.6561 69.1672 66.686 68.8614C68.6257 68.5507 70.0391 70.5555 70.6957 72.7007C70.9463 73.4776 70.5303 74.5301 69.9088 75.5426Z" fill="#FF8C00"/>
<path opacity="0.6" d="M69.9088 75.5426C69.1678 76.7003 68.3095 77.7785 67.3476 78.7604L66.9015 78.4646L61.9596 75.1817C61.9596 75.1817 64.6561 69.1672 66.686 68.8614C68.6257 68.5507 70.0391 70.5555 70.6957 72.7007C70.9463 73.4776 70.5303 74.5301 69.9088 75.5426Z" fill="#FAFAFA"/>
<path d="M69.9088 75.5426C69.1678 76.7002 68.3095 77.7785 67.3476 78.7603L66.9015 78.4646C67.122 76.6603 67.8237 74.8709 68.6257 74.3046C69.1168 74.3547 69.5529 74.8759 69.9088 75.5426Z" fill="#FF8C00"/>
<path opacity="0.4" d="M69.9088 75.5426C69.1678 76.7002 68.3095 77.7785 67.3476 78.7603L66.9015 78.4646C67.122 76.6603 67.8237 74.8709 68.6257 74.3046C69.1168 74.3547 69.5529 74.8759 69.9088 75.5426Z" fill="#FAFAFA"/>
<path d="M86.8147 78.5448C86.5791 80.0484 86.2734 81.8177 85.8624 83.9177C85.3612 86.6042 84.6595 89.827 83.7723 93.6813L67.9591 92.6789C68.6408 86.2584 68.9064 82.2888 66.686 68.8814C68.9309 68.5678 71.1958 68.4187 73.4624 68.4353C75.8629 68.4196 78.2615 68.5754 80.6398 68.9015C83.7072 69.4027 87.1555 70.3249 87.1555 70.3249C87.1555 70.3249 88.0376 70.6707 86.8147 78.5448Z" fill="#FF8C00"/>
<path opacity="0.6" d="M86.8147 78.5448C86.5791 80.0484 86.2734 81.8177 85.8624 83.9177C85.3612 86.6042 84.6595 89.827 83.7723 93.6813L67.9591 92.6789C68.6408 86.2584 68.9064 82.2888 66.686 68.8814C68.9309 68.5678 71.1958 68.4187 73.4624 68.4353C75.8629 68.4196 78.2615 68.5754 80.6398 68.9015C83.7072 69.4027 87.1555 70.3249 87.1555 70.3249C87.1555 70.3249 88.0376 70.6707 86.8147 78.5448Z" fill="#FAFAFA"/>
<path d="M86.8147 78.5448C86.5791 80.0485 86.2734 81.8177 85.8624 83.9178C84.9926 82.068 84.2703 80.1525 83.7021 78.189H86.6392L86.8147 78.5448Z" fill="#FF8C00"/>
<path opacity="0.4" d="M86.8147 78.5448C86.5791 80.0485 86.2734 81.8177 85.8624 83.9178C84.9926 82.068 84.2703 80.1525 83.7021 78.189H86.6392L86.8147 78.5448Z" fill="#FAFAFA"/>
<path d="M73.3172 56.5968C73.9136 60.421 74.0891 62.055 76.2192 63.8443C79.4219 66.5408 83.988 64.967 84.5443 61.0375C85.0455 57.504 83.983 51.8403 80.0685 50.6674C79.2075 50.4033 78.2932 50.3638 77.4126 50.5529C76.532 50.7419 75.7144 51.1532 75.0377 51.7475C74.361 52.3419 73.8476 53.0995 73.5465 53.9483C73.2453 54.7971 73.1664 55.7088 73.3172 56.5968Z" fill="#E4897B"/>
<path d="M79.5921 93.4107C79.5921 93.4107 79.3415 100.372 78.74 109.154C78.2388 116.522 77.482 125.162 76.4244 132.049L76.3944 132.239C74.4948 144.429 66.0795 172.918 66.0795 172.918H60.7566C60.7566 172.918 65.1422 145.401 66.1045 133.322C68.5454 102.813 62.4306 99.36 67.959 92.6338L79.5921 93.4107Z" fill="#FF8C00"/>
<path opacity="0.3" d="M79.5921 93.4107C79.5921 93.4107 79.3415 100.372 78.74 109.154C78.2388 116.522 77.482 125.162 76.4244 132.049L76.3944 132.239C74.4948 144.429 66.0795 172.918 66.0795 172.918H60.7566C60.7566 172.918 65.1422 145.401 66.1045 133.322C68.5454 102.813 62.4306 99.36 67.959 92.6338L79.5921 93.4107Z" fill="black"/>
<path d="M78.7402 109.154C78.239 116.522 77.4821 125.162 76.4246 132.049C74.6252 123.102 71.6681 110.036 75.6377 101.475C76.585 103.906 77.6876 106.653 78.7402 109.154Z" fill="#FF8C00"/>
<path opacity="0.4" d="M78.7402 109.154C78.239 116.522 77.4821 125.162 76.4246 132.049C74.6252 123.102 71.6681 110.036 75.6377 101.475C76.585 103.906 77.6876 106.653 78.7402 109.154Z" fill="black"/>
<path d="M83.7724 93.6864C83.7724 93.6864 88.2833 120.421 88.0127 132.32C87.747 144.7 83.2111 172.918 83.2111 172.918H77.9383C77.9383 172.918 78.7704 145.416 78.3042 133.262C77.803 120.01 72.1895 92.9296 72.1895 92.9296L83.7724 93.6864Z" fill="#FF8C00"/>
<path opacity="0.3" d="M83.7724 93.6864C83.7724 93.6864 88.2833 120.421 88.0127 132.32C87.747 144.7 83.2111 172.918 83.2111 172.918H77.9383C77.9383 172.918 78.7704 145.416 78.3042 133.262C77.803 120.01 72.1895 92.9296 72.1895 92.9296L83.7724 93.6864Z" fill="black"/>
<path d="M77.036 173.168H84.1081L84.6594 170.798L76.7854 170.853L77.036 173.168Z" fill="#263238"/>
<path d="M59.985 173.168H67.0571L67.6084 170.798L60.0351 170.853L59.985 173.168Z" fill="#263238"/>
<path d="M67.7789 91.7217L66.9769 93.095C66.9118 93.2002 67.0371 93.3205 67.2175 93.3305L83.8026 94.4081C83.9429 94.4081 84.0682 94.358 84.0833 94.2678L84.3188 92.8594C84.3188 92.7642 84.2136 92.674 84.0582 92.6639L68.0195 91.6214C67.9744 91.6194 67.9295 91.6273 67.8879 91.6446C67.8464 91.6619 67.8091 91.6882 67.7789 91.7217Z" fill="#263238"/>
<path d="M69.8136 93.6462L69.3876 93.6161C69.3024 93.6161 69.2372 93.561 69.2472 93.5109L69.568 91.6815C69.568 91.6313 69.6532 91.5912 69.7384 91.5962L70.1695 91.6213C70.2547 91.6213 70.3148 91.6764 70.3098 91.7316L69.989 93.556C69.979 93.6111 69.8988 93.6512 69.8136 93.6462Z" fill="#FF8C00"/>
<path opacity="0.3" d="M69.8136 93.6462L69.3876 93.6161C69.3024 93.6161 69.2372 93.561 69.2472 93.5109L69.568 91.6815C69.568 91.6313 69.6532 91.5912 69.7384 91.5962L70.1695 91.6213C70.2547 91.6213 70.3148 91.6764 70.3098 91.7316L69.989 93.556C69.979 93.6111 69.8988 93.6512 69.8136 93.6462Z" fill="black"/>
<path d="M80.1936 94.3179L79.7676 94.2928C79.6824 94.2928 79.6172 94.2377 79.6272 94.1825L79.948 92.3581C79.948 92.303 80.0332 92.2679 80.1234 92.2729L80.5495 92.298C80.6347 92.298 80.6998 92.3531 80.6898 92.4083L80.369 94.2327C80.3741 94.2878 80.2939 94.3229 80.1936 94.3179Z" fill="#FF8C00"/>
<path opacity="0.3" d="M80.1936 94.3179L79.7676 94.2928C79.6824 94.2928 79.6172 94.2377 79.6272 94.1825L79.948 92.3581C79.948 92.303 80.0332 92.2679 80.1234 92.2729L80.5495 92.298C80.6347 92.298 80.6998 92.3531 80.6898 92.4083L80.369 94.2327C80.3741 94.2878 80.2939 94.3229 80.1936 94.3179Z" fill="black"/>
<path d="M88.0527 74.3346C88.6541 76.3394 89.2255 78.3693 89.7819 80.3942L91.4609 86.4539L91.6714 87.2057L91.7266 87.3911L91.7516 87.4864V87.5365C91.7696 87.6029 91.7913 87.6681 91.8168 87.732C91.9398 88.0366 92.1089 88.3206 92.318 88.574C92.9165 89.2056 93.6098 89.74 94.373 90.1578C96.1214 91.1041 97.9709 91.8506 99.8863 92.3832L99.5956 94.3379C97.3481 94.2221 95.1341 93.7431 93.0397 92.9195C91.8809 92.4653 90.813 91.8066 89.8871 90.9748C89.3568 90.4832 88.9158 89.9032 88.584 89.2607C88.4944 89.087 88.4157 88.9079 88.3484 88.7244L88.2933 88.589L88.2582 88.4938L88.193 88.3084L87.9274 87.5515C87.2257 85.5467 86.5741 83.5418 85.9576 81.5069C85.3411 79.472 84.7347 77.4672 84.1833 75.4222L88.0527 74.3346Z" fill="#E4897B"/>
<path d="M87.1556 70.3048C89.1604 70.9614 91.2655 77.5172 91.2655 77.5172L84.028 80.6348C84.028 80.6348 81.0208 73.277 82.354 71.613C83.6872 69.9489 84.855 69.553 87.1556 70.3048Z" fill="#FF8C00"/>
<path opacity="0.6" d="M87.1556 70.3048C89.1604 70.9614 91.2655 77.5172 91.2655 77.5172L84.028 80.6348C84.028 80.6348 81.0208 73.277 82.354 71.613C83.6872 69.9489 84.855 69.553 87.1556 70.3048Z" fill="#FAFAFA"/>
<path d="M83.2861 50.4468C82.008 48.868 72.1342 47.7403 71.6079 52.0407C68.0994 54.4966 71.4275 60.8419 71.9287 62.4558C69.5078 63.1274 61.709 65.7939 67.4178 70.9764C73.1266 76.1589 81.6873 75.2768 83.3613 69.9138C84.5341 66.1648 80.8101 59.8896 80.8903 57.6943C80.9705 55.499 85.4764 53.1283 83.2861 50.4468Z" fill="#263238"/>
<path d="M72.6203 63.2477C72.6019 63.2483 72.5838 63.2445 72.5672 63.2367C72.5506 63.2289 72.5362 63.2172 72.525 63.2026C71.6178 62.1 68.4602 56.306 69.5679 53.5493C69.7397 53.1216 70.0309 52.7524 70.4069 52.4858C70.7828 52.2191 71.2276 52.0663 71.688 52.0457C71.7042 52.0436 71.7207 52.0448 71.7364 52.0493C71.7521 52.0538 71.7667 52.0614 71.7794 52.0717C71.792 52.082 71.8025 52.0948 71.81 52.1093C71.8176 52.1238 71.8221 52.1396 71.8233 52.1559C71.8277 52.1884 71.819 52.2214 71.7994 52.2476C71.7797 52.2738 71.7505 52.2913 71.7181 52.2963C71.3041 52.3116 70.9032 52.4453 70.5629 52.6816C70.2227 52.9179 69.9573 53.2469 69.7984 53.6295C68.7309 56.2959 71.8283 61.9546 72.7155 63.0372C72.7313 63.0549 72.7416 63.0768 72.745 63.1003C72.7484 63.1238 72.7448 63.1477 72.7346 63.1692C72.7244 63.1906 72.7081 63.2085 72.6878 63.2207C72.6675 63.2329 72.644 63.2388 72.6203 63.2377V63.2477Z" fill="#263238"/>
<path d="M80.1085 57.4588C80.2204 58.1908 80.5731 58.8645 81.1109 59.3734C81.8227 60.0551 82.4943 59.589 82.5594 58.7219C82.6196 57.945 82.3189 56.6569 81.4768 56.296C80.6348 55.9351 80.0033 56.5917 80.1085 57.4588Z" fill="#E4897B"/>
<path d="M97.4302 91.8419L100.277 90.8745L99.831 94.2978C99.831 94.2978 98.7083 94.799 97.2548 93.5359L95.8665 92.6488L96.9591 92.0524C97.1089 91.967 97.2667 91.8965 97.4302 91.8419Z" fill="#E4897B"/>
<path d="M102.267 90.8645L101.395 93.8567L99.8312 94.2928L100.277 90.8745L102.267 90.8645Z" fill="#E4897B"/>
</svg>
