<svg width="230" height="185" viewBox="0 0 230 185" fill="none" xmlns="http://www.w3.org/2000/svg">
<path d="M219.998 112.008C220.694 108.542 221.836 105.18 223.396 102.007C227.656 93.2842 230.718 85.6529 228.008 75.9129C221.367 52.1246 194.357 49.3447 181.033 31.4036C160.434 3.67987 109.822 1.27282 85.6452 25.2316C78.2323 32.5752 74.7602 42.949 67.2674 50.2128C56.228 60.922 39.8365 62.3013 28.4989 72.9786C10.0146 90.3978 8.21996 119.916 24.6274 139.503C41.956 160.187 66.4153 156.794 90.1717 152.396C101.861 150.233 114.013 147.89 125.926 149.552C151.333 153.13 181.48 167.088 206.105 153.194C219.221 145.792 219.556 134.247 219.253 120.779C219.179 117.837 219.429 114.895 219.998 112.008Z" fill="#FF8C00"/>
<path opacity="0.6" d="M219.998 112.008C220.694 108.542 221.836 105.18 223.396 102.007C227.656 93.2842 230.718 85.6529 228.008 75.9129C221.367 52.1246 194.357 49.3447 181.033 31.4036C160.434 3.67987 109.822 1.27282 85.6452 25.2316C78.2323 32.5752 74.7602 42.949 67.2674 50.2128C56.228 60.922 39.8365 62.3013 28.4989 72.9786C10.0146 90.3978 8.21996 119.916 24.6274 139.503C41.956 160.187 66.4153 156.794 90.1717 152.396C101.861 150.233 114.013 147.89 125.926 149.552C151.333 153.13 181.48 167.088 206.105 153.194C219.221 145.792 219.556 134.247 219.253 120.779C219.179 117.837 219.429 114.895 219.998 112.008Z" fill="white"/>
<path d="M116.452 184.55C172.775 184.55 218.433 174.894 218.433 162.982C218.433 151.071 172.775 141.415 116.452 141.415C60.1301 141.415 14.4719 151.071 14.4719 162.982C14.4719 174.894 60.1301 184.55 116.452 184.55Z" fill="#FF8C00"/>
<path opacity="0.3" d="M116.452 184.55C172.775 184.55 218.433 174.894 218.433 162.982C218.433 151.071 172.775 141.415 116.452 141.415C60.1301 141.415 14.4719 151.071 14.4719 162.982C14.4719 174.894 60.1301 184.55 116.452 184.55Z" fill="white"/>
<path d="M0.120181 18.4735C-0.00405816 18.0242 -0.0323661 17.5537 0.0370944 17.0928C0.106555 16.6318 0.27223 16.1906 0.523355 15.7978C0.774479 15.4051 1.10543 15.0695 1.49471 14.8131C1.88399 14.5566 2.32288 14.3849 2.78285 14.3091C5.56801 13.931 8.98689 17.6694 10.0733 19.9326C10.1638 20.1297 11.2768 23.3568 11.2235 23.3568C11.1703 23.3568 6.28693 23.4687 4.30058 22.5847C2.55919 21.8338 0.583486 20.4013 0.120181 18.4735ZM71.6502 9.87839C71.2402 11.8168 69.3018 13.3026 67.6083 14.1014C65.9148 14.9002 61.8942 15.0386 60.909 15.0546C60.3765 15.6883 59.8067 16.3753 59.1943 17.1422C58.1292 18.5054 56.947 20.0551 55.7754 21.8231C55.4612 22.2971 55.1417 22.8137 54.8221 23.3142C55.5357 22.5847 56.5209 21.5995 56.6274 21.5143C58.5925 19.9539 63.3001 18.0847 65.6379 19.6397C66.0194 19.9081 66.3402 20.2537 66.5793 20.6542C66.8184 21.0546 66.9705 21.501 67.0258 21.9641C67.081 22.4272 67.0382 22.8968 66.9 23.3423C66.7618 23.7878 66.5314 24.1992 66.2237 24.5497C64.9616 26.0834 62.5599 26.5094 60.6854 26.4349C58.8108 26.3603 55.0671 24.5763 54.2683 24.1769C53.5813 25.2899 52.8997 26.4509 52.2607 27.7023C51.0708 29.9583 50.0853 32.3161 49.3157 34.7478L49.4595 34.817C50.0293 34.0661 51.2701 32.5164 51.3873 32.4046C53.166 30.6313 57.6446 28.2615 60.1422 29.5449C60.5462 29.7713 60.8984 30.0795 61.1765 30.4498C61.4546 30.8201 61.6523 31.2444 61.7571 31.6955C61.8619 32.1466 61.8713 32.6146 61.7849 33.0696C61.6985 33.5245 61.518 33.9564 61.2552 34.3377C60.1901 36.0045 57.831 36.6915 55.9618 36.8193C53.8316 36.9738 49.353 35.2909 49.1826 35.2217C48.4915 37.6576 47.9579 40.1355 47.585 42.6399C47.2974 44.4931 47.0791 46.3677 46.8767 48.2795C47.2655 47.7469 48.895 45.7073 49.0069 45.5742C50.7855 43.8062 55.2641 41.4311 57.7564 42.7198C58.1653 42.9449 58.5223 43.2535 58.8039 43.6257C59.0856 43.9979 59.2857 44.4252 59.3912 44.8799C59.4967 45.3346 59.5053 45.8064 59.4163 46.2646C59.3273 46.7228 59.1428 47.1571 58.8747 47.5392C57.8097 49.2008 55.4505 49.8877 53.5813 50.0155C51.4778 50.1646 47.1909 48.5724 46.8395 48.4179C46.7489 49.2806 46.6584 50.138 46.5732 51.006C46.2963 53.8232 46.0406 56.6562 45.6892 59.4414C45.5667 60.4053 45.4176 61.3532 45.2685 62.3011C45.8756 61.513 47.0045 60.1017 47.1164 59.9899C48.895 58.2219 53.3737 55.8468 55.8712 57.1355C56.2758 57.3613 56.6287 57.6692 56.9073 58.0395C57.1858 58.4098 57.3839 58.8342 57.4887 59.2855C57.5935 59.7369 57.6028 60.2051 57.5159 60.6603C57.429 61.1154 57.2479 61.5473 56.9842 61.9283C55.9192 63.5898 53.56 64.2768 51.6908 64.4099C49.8216 64.5431 46.1898 63.281 45.1726 62.9082C44.9117 64.5058 44.6401 66.0448 44.2567 67.5626C44.0862 68.2176 43.9584 68.8939 43.7561 69.5116L43.2235 71.3702C42.7975 72.6269 42.4088 73.7932 41.9827 74.9541C41.7697 75.5399 41.562 76.0884 41.349 76.6582C41.8443 75.7636 42.6537 74.3683 42.7389 74.2458C44.23 72.2275 48.2933 69.2081 50.9559 70.1027C51.3944 70.2624 51.7942 70.5128 52.1293 70.8376C52.4644 71.1623 52.7272 71.5541 52.9006 71.9873C53.074 72.4205 53.1541 72.8854 53.1356 73.3517C53.117 73.818 53.0004 74.2751 52.7932 74.6932C51.9731 76.5038 49.7631 77.5369 47.9311 77.947C45.9182 78.405 41.594 77.5263 41.0668 77.4144C40.5342 78.8044 40.0017 80.1463 39.5011 81.3978C37.9035 85.3545 36.3858 88.5923 35.3047 90.845L35.129 91.2071H43.0052L40.2839 144.248C40.2094 146.208 39.3766 148.064 37.9611 149.423C36.5455 150.782 34.6576 151.538 32.6953 151.533C30.752 151.534 28.8825 150.788 27.4732 149.45C26.0638 148.112 25.2224 146.284 25.1227 144.343L22.4014 91.3029H30.8581C30.8155 90.9355 30.7729 90.5467 30.725 90.1101C30.4427 87.6604 29.9847 84.1563 29.2498 79.9919C29.0421 78.7884 28.8025 77.5156 28.5362 76.2109C28.0037 76.2801 23.6263 76.834 21.6506 76.2109C19.8612 75.6784 17.7311 74.4642 17.0495 72.6003C16.8748 72.1679 16.793 71.7036 16.8096 71.2375C16.8261 70.7715 16.9406 70.3141 17.1455 69.8952C17.3505 69.4763 17.6413 69.1052 17.9991 68.8061C18.3569 68.5069 18.7736 68.2865 19.2222 68.159C21.9435 67.4614 25.7724 70.7844 27.109 72.9039C27.1942 73.0423 28.0197 74.7624 28.4244 75.6517C28.2646 74.8636 28.1102 74.0808 27.9291 73.2607C27.6735 72.0838 27.3966 70.8483 27.0824 69.6448C26.912 69.027 26.7363 68.404 26.5499 67.7756C26.3635 67.1472 26.1505 66.5507 25.9534 65.9223C25.6446 65.017 25.2771 64.0957 24.8884 63.1745C23.7061 63.5046 20.2127 64.4046 18.4181 64.1437C16.6234 63.8827 14.275 63.0147 13.3217 61.2786C13.0828 60.8775 12.9311 60.4305 12.8764 59.9669C12.8218 59.5032 12.8655 59.0332 13.0047 58.5875C13.1439 58.1418 13.3754 57.7305 13.6842 57.3803C13.993 57.0301 14.3721 56.7489 14.7968 56.555C17.3796 55.4527 21.6665 58.1527 23.3174 60.0538C23.3706 60.1124 23.6795 60.5491 24.0363 61.071C23.6529 60.1869 23.2748 59.2976 22.8594 58.4083C21.6772 55.8947 20.3938 53.3652 19.1317 50.8303C18.8654 50.2978 18.5991 49.7652 18.3435 49.2327C17.3477 49.5149 13.5507 50.5268 11.6922 50.2552C9.83361 49.9836 7.54904 49.1262 6.5958 47.3848C6.36085 46.9838 6.21262 46.538 6.16069 46.0762C6.10875 45.6144 6.15426 45.1468 6.29428 44.7037C6.4343 44.2605 6.66571 43.8517 6.97357 43.5035C7.28143 43.1554 7.65889 42.8757 8.08158 42.6825C10.6644 41.5855 14.9513 44.2801 16.6021 46.1866C16.6607 46.2505 17.0282 46.7724 17.4276 47.3635C16.7566 45.9736 16.1015 44.5837 15.4945 43.1778C14.446 40.7785 13.5566 38.3129 12.8318 35.7969C12.4856 35.898 8.08158 37.1761 5.98871 36.8619C4.13549 36.5957 1.85092 35.7329 0.897681 33.9969C0.65858 33.5961 0.506583 33.1494 0.451587 32.686C0.396592 32.2225 0.439833 31.7527 0.578492 31.3071C0.717152 30.8615 0.948121 30.4501 1.25636 30.0996C1.56459 29.7492 1.94319 29.4677 2.36748 29.2733C4.9556 28.1763 9.2425 30.8709 10.888 32.7721C11.0052 32.9105 12.3046 34.8063 12.7466 35.504C12.7442 35.4738 12.7442 35.4436 12.7466 35.4134C12.0952 32.9234 11.6675 30.3802 11.4685 27.8142C11.2727 25.5245 11.2087 23.2255 11.2768 20.9285C11.33 18.7983 11.5058 16.8493 11.6762 15.1292C11.7774 14.1972 11.8839 13.3452 11.9957 12.5517L11.9478 12.5837C11.8998 12.6156 10.9626 9.3352 10.9253 9.12219C10.5099 6.6459 11.1703 1.6241 13.6625 0.330038C14.0831 0.127333 14.5417 0.0153898 15.0084 0.00147797C15.4751 -0.0124339 15.9395 0.0719961 16.3714 0.249287C16.8033 0.426579 17.1931 0.692763 17.5154 1.03054C17.8378 1.36832 18.0854 1.77014 18.2423 2.20988C18.9666 4.05778 18.1678 6.36366 17.1773 7.96659C16.1868 9.56952 12.917 11.8967 12.1182 12.4559C12.0223 13.2813 11.9265 14.1653 11.8413 15.1185C11.7081 16.8386 11.575 18.7824 11.5697 20.9072C11.5697 21.477 11.5697 22.0841 11.5963 22.6752C11.788 21.674 12.0703 20.3107 12.1288 20.1776C12.901 17.7919 15.798 13.6381 18.6098 13.6434C19.0762 13.657 19.5345 13.7686 19.9549 13.9711C20.3753 14.1735 20.7483 14.4622 21.0498 14.8184C21.3512 15.1746 21.5742 15.5902 21.7043 16.0383C21.8344 16.4864 21.8687 16.9569 21.805 17.4191C21.6026 19.3948 19.8293 21.0723 18.2264 22.0468C16.6234 23.0213 12.4963 23.6231 11.6123 23.7243C11.6549 25.0343 11.7241 26.387 11.8839 27.7716C12.1365 30.3083 12.6141 32.8175 13.3111 35.2696H13.4708C13.5347 34.3271 13.7158 32.3514 13.7477 32.1863C14.2803 29.7313 16.6767 25.2633 19.4725 24.9811C19.9375 24.9435 20.4053 25.0043 20.8453 25.1595C21.2853 25.3147 21.6877 25.5608 22.0263 25.8818C22.3649 26.2028 22.6321 26.5915 22.8105 27.0226C22.9889 27.4537 23.0745 27.9176 23.0618 28.384C23.0618 30.365 21.5015 32.2342 20.0157 33.3738C18.3009 34.6892 13.6572 35.7436 13.4815 35.7809C14.2401 38.1991 15.1562 40.5651 16.224 42.8636C17.0069 44.5677 17.8642 46.2665 18.7429 47.9599C18.7749 47.2943 19.0092 44.7008 19.0465 44.5144C19.579 42.0595 21.9754 37.5915 24.7712 37.3039C25.2361 37.2672 25.7035 37.3286 26.1431 37.4841C26.5827 37.6396 26.9848 37.8857 27.3232 38.2066C27.6616 38.5274 27.9288 38.9158 28.1075 39.3465C28.2862 39.7772 28.3724 40.2407 28.3605 40.7068C28.3605 42.6932 26.7948 44.557 25.3091 45.6967C23.6369 46.9801 19.1956 48.0132 18.8175 48.0984C19.2169 48.8653 19.6163 49.6374 20.021 50.4043C21.347 52.9125 22.6837 55.4154 23.9405 57.929C24.3718 58.8023 24.7659 59.6757 25.1653 60.5491C25.2345 59.5532 25.4049 57.7533 25.4316 57.5988C25.9641 55.1438 28.3658 50.6759 31.1563 50.3883C31.6214 50.3507 32.0891 50.4115 32.5291 50.5667C32.9691 50.7219 33.3715 50.968 33.7101 51.289C34.0487 51.61 34.3159 51.9987 34.4943 52.4298C34.6727 52.861 34.7583 53.3248 34.7456 53.7912C34.7456 55.7776 33.1853 57.6414 31.6995 58.7811C30.2137 59.9207 26.486 60.8739 25.4369 61.1295C26.0919 62.5993 26.7203 64.0372 27.2528 65.507C27.4712 66.146 27.7321 66.7797 27.9078 67.4028L28.4723 69.2613C28.8078 70.5447 29.1273 71.7323 29.4149 72.9358C29.564 73.5429 29.6865 74.118 29.825 74.7038C29.7451 73.692 29.6492 72.0784 29.6546 71.9293C29.7877 69.4264 31.5078 64.6602 34.2237 63.9413C34.6779 63.8338 35.1496 63.8231 35.6082 63.91C36.0668 63.9969 36.5019 64.1794 36.8852 64.4457C37.2686 64.712 37.5915 65.056 37.833 65.4554C38.0745 65.8548 38.2292 66.3006 38.2869 66.7637C38.3245 67.0068 38.3405 67.2527 38.3349 67.4986C39.4284 69.4139 40.0133 71.5772 40.0337 73.7825C40.0337 73.9423 39.7727 75.8328 39.6183 76.7967C39.9218 76.0511 40.22 75.3109 40.5183 74.5334C40.9603 73.4098 41.3863 72.2116 41.8123 71.0506L42.4088 69.2027C42.6218 68.5797 42.7496 67.962 42.9413 67.3282C43.1863 66.4016 43.3886 65.4271 43.591 64.4632C42.4247 64.0798 39.0112 62.9082 37.6586 61.6993C36.3059 60.4905 34.8308 58.4722 34.9959 56.4965C35.0187 56.0306 35.1393 55.5747 35.3496 55.1584C35.56 54.7421 35.8556 54.3746 36.2171 54.0799C36.5786 53.7851 36.9981 53.5697 37.4482 53.4475C37.8984 53.3253 38.3692 53.299 38.8301 53.3705C41.594 53.903 43.6815 58.4988 44.001 60.9857C44.001 61.0656 44.0277 61.5982 44.0383 62.2319C44.2087 61.284 44.3845 60.3307 44.5229 59.3615C44.9277 56.6136 45.2472 53.7965 45.588 50.9794C45.6572 50.3883 45.7371 49.8025 45.8063 49.2167C44.8211 48.9025 41.1147 47.667 39.6982 46.3996C38.2816 45.1322 36.8704 43.1725 37.0355 41.1968C37.0567 40.7303 37.1761 40.2735 37.386 39.8564C37.5959 39.4393 37.8914 39.0711 38.2533 38.7761C38.6153 38.481 39.0354 38.2657 39.4863 38.1441C39.9371 38.0226 40.4086 37.9976 40.8697 38.0708C43.6336 38.6033 45.7158 43.1991 46.0406 45.686C46.0406 45.7712 46.0406 46.4103 46.0779 47.1239C46.2803 45.5902 46.504 44.0724 46.7755 42.5654C47.2174 39.9739 47.8348 37.4153 48.6234 34.9075C48.272 34.801 43.8999 33.4377 42.3236 32.0318C40.923 30.7804 39.4905 28.8047 39.6609 26.829C39.6821 26.3625 39.8015 25.9058 40.0114 25.4886C40.2213 25.0715 40.5168 24.7033 40.8787 24.4083C41.2407 24.1132 41.6608 23.8979 42.1116 23.7763C42.5625 23.6548 43.0339 23.6298 43.4951 23.703C46.2537 24.2355 48.3412 28.8313 48.666 31.3182C48.666 31.494 48.7246 33.7945 48.7086 34.62C48.7086 34.588 48.7086 34.556 48.7353 34.5294C49.5674 32.0933 50.6134 29.7356 51.8613 27.484C52.9693 25.4628 54.1926 23.5069 55.5251 21.6261C56.7446 19.8741 57.9641 18.351 59.0611 17.009C59.6576 16.2848 60.2167 15.6351 60.7439 15.0333H60.6854C60.6321 15.0333 61.6599 11.7742 61.7504 11.5772C62.7729 9.28727 66.0906 5.45835 68.8811 5.75657C69.3458 5.8199 69.7919 5.98092 70.19 6.22901C70.5881 6.47711 70.9291 6.80667 71.1907 7.19601C71.4523 7.58536 71.6284 8.02567 71.7076 8.48799C71.7869 8.95031 71.7673 9.42417 71.6502 9.87839ZM39.4372 77.2973C38.9579 77.0683 35.2781 75.247 33.8403 73.6867C32.5958 74.3646 31.3119 74.9674 29.9954 75.492C30.3202 76.9405 30.6291 78.3517 30.89 79.6777C31.7208 83.8741 32.2587 87.3995 32.5995 89.8757C32.6687 90.4083 32.7326 90.8716 32.7859 91.3029H32.9722L33.59 90.1047C34.703 87.9054 36.2527 84.7315 37.9461 80.844C38.4361 79.7256 38.9366 78.5328 39.4372 77.2973ZM54.1565 23.671C54.1991 23.671 55.0511 20.3959 55.0831 20.1776C55.4292 17.696 54.6358 12.6902 52.1062 11.4653C51.68 11.2743 51.2184 11.1751 50.7514 11.1742C50.2843 11.1732 49.8223 11.2706 49.3954 11.46C48.9684 11.6494 48.5861 11.9264 48.2733 12.2733C47.9605 12.6201 47.7241 13.0288 47.5797 13.473C46.9034 15.3369 47.7661 17.6214 48.7832 19.1924C49.9761 21.0616 54.1512 23.671 54.1565 23.671Z" fill="#FF8C00"/>
<path opacity="0.3" d="M0.120181 18.4735C-0.00405816 18.0242 -0.0323661 17.5537 0.0370944 17.0928C0.106555 16.6318 0.27223 16.1906 0.523355 15.7978C0.774479 15.4051 1.10543 15.0695 1.49471 14.8131C1.88399 14.5566 2.32288 14.3849 2.78285 14.3091C5.56801 13.931 8.98689 17.6694 10.0733 19.9326C10.1638 20.1297 11.2768 23.3568 11.2235 23.3568C11.1703 23.3568 6.28693 23.4687 4.30058 22.5847C2.55919 21.8338 0.583486 20.4013 0.120181 18.4735ZM71.6502 9.87839C71.2402 11.8168 69.3018 13.3026 67.6083 14.1014C65.9148 14.9002 61.8942 15.0386 60.909 15.0546C60.3765 15.6883 59.8067 16.3753 59.1943 17.1422C58.1292 18.5054 56.947 20.0551 55.7754 21.8231C55.4612 22.2971 55.1417 22.8137 54.8221 23.3142C55.5357 22.5847 56.5209 21.5995 56.6274 21.5143C58.5925 19.9539 63.3001 18.0847 65.6379 19.6397C66.0194 19.9081 66.3402 20.2537 66.5793 20.6542C66.8184 21.0546 66.9705 21.501 67.0258 21.9641C67.081 22.4272 67.0382 22.8968 66.9 23.3423C66.7618 23.7878 66.5314 24.1992 66.2237 24.5497C64.9616 26.0834 62.5599 26.5094 60.6854 26.4349C58.8108 26.3603 55.0671 24.5763 54.2683 24.1769C53.5813 25.2899 52.8997 26.4509 52.2607 27.7023C51.0708 29.9583 50.0853 32.3161 49.3157 34.7478L49.4595 34.817C50.0293 34.0661 51.2701 32.5164 51.3873 32.4046C53.166 30.6313 57.6446 28.2615 60.1422 29.5449C60.5462 29.7713 60.8984 30.0795 61.1765 30.4498C61.4546 30.8201 61.6523 31.2444 61.7571 31.6955C61.8619 32.1466 61.8713 32.6146 61.7849 33.0696C61.6985 33.5245 61.518 33.9564 61.2552 34.3377C60.1901 36.0045 57.831 36.6915 55.9618 36.8193C53.8316 36.9738 49.353 35.2909 49.1826 35.2217C48.4915 37.6576 47.9579 40.1355 47.585 42.6399C47.2974 44.4931 47.0791 46.3677 46.8767 48.2795C47.2655 47.7469 48.895 45.7073 49.0069 45.5742C50.7855 43.8062 55.2641 41.4311 57.7564 42.7198C58.1653 42.9449 58.5223 43.2535 58.8039 43.6257C59.0856 43.9979 59.2857 44.4252 59.3912 44.8799C59.4967 45.3346 59.5053 45.8064 59.4163 46.2646C59.3273 46.7228 59.1428 47.1571 58.8747 47.5392C57.8097 49.2008 55.4505 49.8877 53.5813 50.0155C51.4778 50.1646 47.1909 48.5724 46.8395 48.4179C46.7489 49.2806 46.6584 50.138 46.5732 51.006C46.2963 53.8232 46.0406 56.6562 45.6892 59.4414C45.5667 60.4053 45.4176 61.3532 45.2685 62.3011C45.8756 61.513 47.0045 60.1017 47.1164 59.9899C48.895 58.2219 53.3737 55.8468 55.8712 57.1355C56.2758 57.3613 56.6287 57.6692 56.9073 58.0395C57.1858 58.4098 57.3839 58.8342 57.4887 59.2855C57.5935 59.7369 57.6028 60.2051 57.5159 60.6603C57.429 61.1154 57.2479 61.5473 56.9842 61.9283C55.9192 63.5898 53.56 64.2768 51.6908 64.4099C49.8216 64.5431 46.1898 63.281 45.1726 62.9082C44.9117 64.5058 44.6401 66.0448 44.2567 67.5626C44.0862 68.2176 43.9584 68.8939 43.7561 69.5116L43.2235 71.3702C42.7975 72.6269 42.4088 73.7932 41.9827 74.9541C41.7697 75.5399 41.562 76.0884 41.349 76.6582C41.8443 75.7636 42.6537 74.3683 42.7389 74.2458C44.23 72.2275 48.2933 69.2081 50.9559 70.1027C51.3944 70.2624 51.7942 70.5128 52.1293 70.8376C52.4644 71.1623 52.7272 71.5541 52.9006 71.9873C53.074 72.4205 53.1541 72.8854 53.1356 73.3517C53.117 73.818 53.0004 74.2751 52.7932 74.6932C51.9731 76.5038 49.7631 77.5369 47.9311 77.947C45.9182 78.405 41.594 77.5263 41.0668 77.4144C40.5342 78.8044 40.0017 80.1463 39.5011 81.3978C37.9035 85.3545 36.3858 88.5923 35.3047 90.845L35.129 91.2071H43.0052L40.2839 144.248C40.2094 146.208 39.3766 148.064 37.9611 149.423C36.5455 150.782 34.6576 151.538 32.6953 151.533C30.752 151.534 28.8825 150.788 27.4732 149.45C26.0638 148.112 25.2224 146.284 25.1227 144.343L22.4014 91.3029H30.8581C30.8155 90.9355 30.7729 90.5467 30.725 90.1101C30.4427 87.6604 29.9847 84.1563 29.2498 79.9919C29.0421 78.7884 28.8025 77.5156 28.5362 76.2109C28.0037 76.2801 23.6263 76.834 21.6506 76.2109C19.8612 75.6784 17.7311 74.4642 17.0495 72.6003C16.8748 72.1679 16.793 71.7036 16.8096 71.2375C16.8261 70.7715 16.9406 70.3141 17.1455 69.8952C17.3505 69.4763 17.6413 69.1052 17.9991 68.8061C18.3569 68.5069 18.7736 68.2865 19.2222 68.159C21.9435 67.4614 25.7724 70.7844 27.109 72.9039C27.1942 73.0423 28.0197 74.7624 28.4244 75.6517C28.2646 74.8636 28.1102 74.0808 27.9291 73.2607C27.6735 72.0838 27.3966 70.8483 27.0824 69.6448C26.912 69.027 26.7363 68.404 26.5499 67.7756C26.3635 67.1472 26.1505 66.5507 25.9534 65.9223C25.6446 65.017 25.2771 64.0957 24.8884 63.1745C23.7061 63.5046 20.2127 64.4046 18.4181 64.1437C16.6234 63.8827 14.275 63.0147 13.3217 61.2786C13.0828 60.8775 12.9311 60.4305 12.8764 59.9669C12.8218 59.5032 12.8655 59.0332 13.0047 58.5875C13.1439 58.1418 13.3754 57.7305 13.6842 57.3803C13.993 57.0301 14.3721 56.7489 14.7968 56.555C17.3796 55.4527 21.6665 58.1527 23.3174 60.0538C23.3706 60.1124 23.6795 60.5491 24.0363 61.071C23.6529 60.1869 23.2748 59.2976 22.8594 58.4083C21.6772 55.8947 20.3938 53.3652 19.1317 50.8303C18.8654 50.2978 18.5991 49.7652 18.3435 49.2327C17.3477 49.5149 13.5507 50.5268 11.6922 50.2552C9.83361 49.9836 7.54904 49.1262 6.5958 47.3848C6.36085 46.9838 6.21262 46.538 6.16069 46.0762C6.10875 45.6144 6.15426 45.1468 6.29428 44.7037C6.4343 44.2605 6.66571 43.8517 6.97357 43.5035C7.28143 43.1554 7.65889 42.8757 8.08158 42.6825C10.6644 41.5855 14.9513 44.2801 16.6021 46.1866C16.6607 46.2505 17.0282 46.7724 17.4276 47.3635C16.7566 45.9736 16.1015 44.5837 15.4945 43.1778C14.446 40.7785 13.5566 38.3129 12.8318 35.7969C12.4856 35.898 8.08158 37.1761 5.98871 36.8619C4.13549 36.5957 1.85092 35.7329 0.897681 33.9969C0.65858 33.5961 0.506583 33.1494 0.451587 32.686C0.396592 32.2225 0.439833 31.7527 0.578492 31.3071C0.717152 30.8615 0.948121 30.4501 1.25636 30.0996C1.56459 29.7492 1.94319 29.4677 2.36748 29.2733C4.9556 28.1763 9.2425 30.8709 10.888 32.7721C11.0052 32.9105 12.3046 34.8063 12.7466 35.504C12.7442 35.4738 12.7442 35.4436 12.7466 35.4134C12.0952 32.9234 11.6675 30.3802 11.4685 27.8142C11.2727 25.5245 11.2087 23.2255 11.2768 20.9285C11.33 18.7983 11.5058 16.8493 11.6762 15.1292C11.7774 14.1972 11.8839 13.3452 11.9957 12.5517L11.9478 12.5837C11.8998 12.6156 10.9626 9.3352 10.9253 9.12219C10.5099 6.6459 11.1703 1.6241 13.6625 0.330038C14.0831 0.127333 14.5417 0.0153898 15.0084 0.00147797C15.4751 -0.0124339 15.9395 0.0719961 16.3714 0.249287C16.8033 0.426579 17.1931 0.692763 17.5154 1.03054C17.8378 1.36832 18.0854 1.77014 18.2423 2.20988C18.9666 4.05778 18.1678 6.36366 17.1773 7.96659C16.1868 9.56952 12.917 11.8967 12.1182 12.4559C12.0223 13.2813 11.9265 14.1653 11.8413 15.1185C11.7081 16.8386 11.575 18.7824 11.5697 20.9072C11.5697 21.477 11.5697 22.0841 11.5963 22.6752C11.788 21.674 12.0703 20.3107 12.1288 20.1776C12.901 17.7919 15.798 13.6381 18.6098 13.6434C19.0762 13.657 19.5345 13.7686 19.9549 13.9711C20.3753 14.1735 20.7483 14.4622 21.0498 14.8184C21.3512 15.1746 21.5742 15.5902 21.7043 16.0383C21.8344 16.4864 21.8687 16.9569 21.805 17.4191C21.6026 19.3948 19.8293 21.0723 18.2264 22.0468C16.6234 23.0213 12.4963 23.6231 11.6123 23.7243C11.6549 25.0343 11.7241 26.387 11.8839 27.7716C12.1365 30.3083 12.6141 32.8175 13.3111 35.2696H13.4708C13.5347 34.3271 13.7158 32.3514 13.7477 32.1863C14.2803 29.7313 16.6767 25.2633 19.4725 24.9811C19.9375 24.9435 20.4053 25.0043 20.8453 25.1595C21.2853 25.3147 21.6877 25.5608 22.0263 25.8818C22.3649 26.2028 22.6321 26.5915 22.8105 27.0226C22.9889 27.4537 23.0745 27.9176 23.0618 28.384C23.0618 30.365 21.5015 32.2342 20.0157 33.3738C18.3009 34.6892 13.6572 35.7436 13.4815 35.7809C14.2401 38.1991 15.1562 40.5651 16.224 42.8636C17.0069 44.5677 17.8642 46.2665 18.7429 47.9599C18.7749 47.2943 19.0092 44.7008 19.0465 44.5144C19.579 42.0595 21.9754 37.5915 24.7712 37.3039C25.2361 37.2672 25.7035 37.3286 26.1431 37.4841C26.5827 37.6396 26.9848 37.8857 27.3232 38.2066C27.6616 38.5274 27.9288 38.9158 28.1075 39.3465C28.2862 39.7772 28.3724 40.2407 28.3605 40.7068C28.3605 42.6932 26.7948 44.557 25.3091 45.6967C23.6369 46.9801 19.1956 48.0132 18.8175 48.0984C19.2169 48.8653 19.6163 49.6374 20.021 50.4043C21.347 52.9125 22.6837 55.4154 23.9405 57.929C24.3718 58.8023 24.7659 59.6757 25.1653 60.5491C25.2345 59.5532 25.4049 57.7533 25.4316 57.5988C25.9641 55.1438 28.3658 50.6759 31.1563 50.3883C31.6214 50.3507 32.0891 50.4115 32.5291 50.5667C32.9691 50.7219 33.3715 50.968 33.7101 51.289C34.0487 51.61 34.3159 51.9987 34.4943 52.4298C34.6727 52.861 34.7583 53.3248 34.7456 53.7912C34.7456 55.7776 33.1853 57.6414 31.6995 58.7811C30.2137 59.9207 26.486 60.8739 25.4369 61.1295C26.0919 62.5993 26.7203 64.0372 27.2528 65.507C27.4712 66.146 27.7321 66.7797 27.9078 67.4028L28.4723 69.2613C28.8078 70.5447 29.1273 71.7323 29.4149 72.9358C29.564 73.5429 29.6865 74.118 29.825 74.7038C29.7451 73.692 29.6492 72.0784 29.6546 71.9293C29.7877 69.4264 31.5078 64.6602 34.2237 63.9413C34.6779 63.8338 35.1496 63.8231 35.6082 63.91C36.0668 63.9969 36.5019 64.1794 36.8852 64.4457C37.2686 64.712 37.5915 65.056 37.833 65.4554C38.0745 65.8548 38.2292 66.3006 38.2869 66.7637C38.3245 67.0068 38.3405 67.2527 38.3349 67.4986C39.4284 69.4139 40.0133 71.5772 40.0337 73.7825C40.0337 73.9423 39.7727 75.8328 39.6183 76.7967C39.9218 76.0511 40.22 75.3109 40.5183 74.5334C40.9603 73.4098 41.3863 72.2116 41.8123 71.0506L42.4088 69.2027C42.6218 68.5797 42.7496 67.962 42.9413 67.3282C43.1863 66.4016 43.3886 65.4271 43.591 64.4632C42.4247 64.0798 39.0112 62.9082 37.6586 61.6993C36.3059 60.4905 34.8308 58.4722 34.9959 56.4965C35.0187 56.0306 35.1393 55.5747 35.3496 55.1584C35.56 54.7421 35.8556 54.3746 36.2171 54.0799C36.5786 53.7851 36.9981 53.5697 37.4482 53.4475C37.8984 53.3253 38.3692 53.299 38.8301 53.3705C41.594 53.903 43.6815 58.4988 44.001 60.9857C44.001 61.0656 44.0277 61.5982 44.0383 62.2319C44.2087 61.284 44.3845 60.3307 44.5229 59.3615C44.9277 56.6136 45.2472 53.7965 45.588 50.9794C45.6572 50.3883 45.7371 49.8025 45.8063 49.2167C44.8211 48.9025 41.1147 47.667 39.6982 46.3996C38.2816 45.1322 36.8704 43.1725 37.0355 41.1968C37.0567 40.7303 37.1761 40.2735 37.386 39.8564C37.5959 39.4393 37.8914 39.0711 38.2533 38.7761C38.6153 38.481 39.0354 38.2657 39.4863 38.1441C39.9371 38.0226 40.4086 37.9976 40.8697 38.0708C43.6336 38.6033 45.7158 43.1991 46.0406 45.686C46.0406 45.7712 46.0406 46.4103 46.0779 47.1239C46.2803 45.5902 46.504 44.0724 46.7755 42.5654C47.2174 39.9739 47.8348 37.4153 48.6234 34.9075C48.272 34.801 43.8999 33.4377 42.3236 32.0318C40.923 30.7804 39.4905 28.8047 39.6609 26.829C39.6821 26.3625 39.8015 25.9058 40.0114 25.4886C40.2213 25.0715 40.5168 24.7033 40.8787 24.4083C41.2407 24.1132 41.6608 23.8979 42.1116 23.7763C42.5625 23.6548 43.0339 23.6298 43.4951 23.703C46.2537 24.2355 48.3412 28.8313 48.666 31.3182C48.666 31.494 48.7246 33.7945 48.7086 34.62C48.7086 34.588 48.7086 34.556 48.7353 34.5294C49.5674 32.0933 50.6134 29.7356 51.8613 27.484C52.9693 25.4628 54.1926 23.5069 55.5251 21.6261C56.7446 19.8741 57.9641 18.351 59.0611 17.009C59.6576 16.2848 60.2167 15.6351 60.7439 15.0333H60.6854C60.6321 15.0333 61.6599 11.7742 61.7504 11.5772C62.7729 9.28727 66.0906 5.45835 68.8811 5.75657C69.3458 5.8199 69.7919 5.98092 70.19 6.22901C70.5881 6.47711 70.9291 6.80667 71.1907 7.19601C71.4523 7.58536 71.6284 8.02567 71.7076 8.48799C71.7869 8.95031 71.7673 9.42417 71.6502 9.87839ZM39.4372 77.2973C38.9579 77.0683 35.2781 75.247 33.8403 73.6867C32.5958 74.3646 31.3119 74.9674 29.9954 75.492C30.3202 76.9405 30.6291 78.3517 30.89 79.6777C31.7208 83.8741 32.2587 87.3995 32.5995 89.8757C32.6687 90.4083 32.7326 90.8716 32.7859 91.3029H32.9722L33.59 90.1047C34.703 87.9054 36.2527 84.7315 37.9461 80.844C38.4361 79.7256 38.9366 78.5328 39.4372 77.2973ZM54.1565 23.671C54.1991 23.671 55.0511 20.3959 55.0831 20.1776C55.4292 17.696 54.6358 12.6902 52.1062 11.4653C51.68 11.2743 51.2184 11.1751 50.7514 11.1742C50.2843 11.1732 49.8223 11.2706 49.3954 11.46C48.9684 11.6494 48.5861 11.9264 48.2733 12.2733C47.9605 12.6201 47.7241 13.0288 47.5797 13.473C46.9034 15.3369 47.7661 17.6214 48.7832 19.1924C49.9761 21.0616 54.1512 23.671 54.1565 23.671Z" fill="white"/>
<path d="M204.912 42.5013C204.912 42.5013 199.704 46.4846 198.985 49.552C198.266 52.6194 199.192 55.8838 199.805 57.8276C200.417 59.7714 200.518 69.1706 194.799 73.3563C189.08 77.542 186.523 81.7331 187.136 86.9466C187.748 92.1601 195.513 97.8795 201.951 99.1949C208.389 100.51 217.48 97.56 221.053 89.8968C224.626 82.2337 219.828 73.7823 217.171 68.9895C214.513 64.1967 214.721 59.6915 217.703 59.4891C220.686 59.2867 222.198 60.0216 222.304 55.8093C222.411 51.5969 221.383 45.084 215.967 41.8143C210.551 38.5445 204.912 42.5013 204.912 42.5013Z" fill="#2E353A" stroke="#2E353A" stroke-width="0.532535" stroke-linecap="round" stroke-linejoin="round"/>
<path d="M192.088 93.8909C192.621 94.2477 197.414 96.2021 200.96 90.6957C204.507 85.1893 199.677 80.1142 200.609 75.2522" stroke="white" stroke-width="0.266267" stroke-miterlimit="10"/>
<path d="M210.738 48.8384C210.738 48.8384 209.076 43.4705 212.676 45.2119C216.537 47.0757 219.599 55.8625 218.268 57.8596" stroke="white" stroke-width="0.266267" stroke-miterlimit="10"/>
<path d="M209.747 48.1408C209.747 48.1408 207.75 44.28 209.082 42.5492C210.413 40.8185 213.475 42.8155 215.073 44.0137" stroke="white" stroke-width="0.266267" stroke-miterlimit="10"/>
<path d="M214.274 58.6584C214.274 58.6584 214.806 61.0549 213.209 65.8477C211.611 70.6405 208.682 76.099 211.611 81.158C214.54 86.2171 216.803 89.6786 213.475 94.7377" stroke="white" stroke-width="0.266267" stroke-miterlimit="10"/>
<path d="M214.274 61.4543C214.39 64.5757 214.166 67.7005 213.608 70.7737C212.676 76.0991 215.605 79.5605 218.667 82.8889C221.729 86.2172 220.931 89.013 219.865 92.0751" stroke="white" stroke-width="0.266267" stroke-miterlimit="10"/>
<path d="M209.614 48.9397C209.614 48.9397 203.357 49.4723 201.493 48.6735C199.629 47.8747 200.028 47.209 200.028 47.209" stroke="white" stroke-width="0.266267" stroke-miterlimit="10"/>
<path d="M210.445 70.209C210.445 70.209 211.26 78.4846 212.303 83.2721C213.347 88.0596 215.009 94.1038 214.593 95.7707C214.178 97.4375 205.008 111.598 205.008 111.598L202.302 109.723L207.926 92.8524L203.192 77.0361C203.192 77.0361 207.527 70.6829 210.445 70.209Z" fill="white" stroke="#2E353A" stroke-width="0.532535" stroke-linecap="round" stroke-linejoin="round"/>
<path d="M209.715 68.8618C208.384 67.3281 205.524 63.3447 205.524 63.3447L201.03 58.0194L194.799 49.4403C193.979 48.3166 191.22 48.7213 183.254 48.8278C175.287 48.9344 151.104 44.3333 151.104 44.3333L150.29 49.6586C150.29 49.6586 172.422 54.4514 178.04 54.9839C183.658 55.5165 188.872 56.2088 188.872 56.2088C188.104 57.7375 187.422 59.3073 186.827 60.9111C186.214 62.7483 179.063 72.5576 179.063 72.5576C179.063 72.5576 178.887 72.6641 178.583 72.8665C178.503 74.6451 178.674 78.4208 181.331 80.4125C183.387 81.9515 186.396 82.6012 188.568 82.8728C188.606 82.7503 188.637 82.6438 188.664 82.5692C188.973 81.7491 191.22 80.5243 192.445 80.4391C193.67 80.3539 197.451 80.5403 199.704 80.3379C201.956 80.1356 203.176 77.0682 203.176 77.0682C203.176 77.0682 208.139 72.2221 210.423 70.2411C210.282 69.7386 210.041 69.2696 209.715 68.8618Z" fill="white" stroke="#2E353A" stroke-width="0.532535" stroke-linecap="round" stroke-linejoin="round"/>
<path d="M191.7 57.4443L188.872 56.1929L190.928 59.4626" stroke="#2E353A" stroke-width="0.399401" stroke-linecap="round" stroke-linejoin="round"/>
<path d="M184.569 76.051C186.697 77.3714 189.215 77.9186 191.7 77.6007" stroke="#2E353A" stroke-width="0.399401" stroke-linecap="round" stroke-linejoin="round"/>
<path d="M182.22 72.3286C182.22 72.3286 182.684 74.1925 185.634 75.4333" stroke="#2E353A" stroke-width="0.399401" stroke-linecap="round" stroke-linejoin="round"/>
<path d="M207.91 92.8525C207.91 92.8525 209.843 92.0218 211.393 94.1945" stroke="#2E353A" stroke-width="0.399401" stroke-linecap="round" stroke-linejoin="round"/>
<path d="M208.448 78.3781L203.176 77.0361L207.825 80.7053" stroke="#2E353A" stroke-width="0.399401" stroke-linecap="round" stroke-linejoin="round"/>
<path d="M194.027 51.4159C194.027 51.4159 191.391 56.0649 188.291 55.9105C184.079 55.6975 172.161 52.1828 172.161 50.9473C172.161 49.7118 175.42 49.2432 175.42 49.2432" stroke="#2E353A" stroke-width="0.399401" stroke-linecap="round" stroke-linejoin="round"/>
<path d="M203.176 55.2715C203.176 55.2715 201.046 54.7389 199.496 55.6815C197.946 56.6241 193.878 65.4908 193.878 65.4908C193.878 65.4908 194.181 65.9008 195.411 65.9008C196.642 65.9008 196.945 67.5357 196.945 69.0641C196.945 70.5925 196.839 71.3114 197.35 71.1942C197.861 71.0771 200.928 69.9694 201.541 70.3795C202.153 70.7895 200.721 72.8291 201.008 73.0421C201.296 73.2552 203.868 70.6883 204.688 67.9298C205.508 65.1713 206.323 61.0867 206.115 59.4519C205.908 57.817 204.587 55.6762 203.176 55.2715Z" fill="#FF8C00" stroke="#2E353A" stroke-width="0.532535" stroke-linecap="round" stroke-linejoin="round"/>
<path d="M204.912 63.7547C203.787 65.01 202.594 66.2029 201.338 67.328C198.985 69.4582 197.046 71.0078 197.147 69.9907C197.249 68.9735 199.597 63.4512 200.209 60.4051C200.822 57.359 201.951 55.2927 203.176 55.2927C204.401 55.2927 207.058 61.534 204.912 63.7547Z" fill="white" stroke="#2E353A" stroke-width="0.532535" stroke-linecap="round" stroke-linejoin="round"/>
<path d="M203.687 50.5747C203.769 50.8234 203.902 51.0521 204.078 51.2458C204.254 51.4394 204.469 51.5936 204.709 51.6983C205.423 51.9007 210.738 48.8386 210.738 48.8386C210.738 48.8386 214.519 56.9065 213.901 58.1314C213.283 59.3562 211.451 60.8952 209.406 62.3224C207.361 63.7496 203.586 64.8786 202.153 64.0585C200.721 63.2384 201.743 54.8669 201.743 54.8669C201.743 54.8669 200.62 53.5356 201.844 51.3895C203.069 49.2433 203.687 50.5747 203.687 50.5747Z" fill="white" stroke="#2E353A" stroke-width="0.532535" stroke-linecap="round" stroke-linejoin="round"/>
<path d="M212.245 58.9086C212.245 58.9086 212.335 58.2749 211.153 58.2749C209.971 58.2749 207.894 60.4476 207.894 60.4476" stroke="#2E353A" stroke-width="0.399401" stroke-linecap="round" stroke-linejoin="round"/>
<path d="M207.079 60.6288L206.446 59.9951" stroke="#2E353A" stroke-width="0.399401" stroke-linecap="round" stroke-linejoin="round"/>
<path d="M206.185 61.811C206.185 61.811 204.555 61.5394 204.283 59.4519" stroke="#2E353A" stroke-width="0.399401" stroke-linecap="round" stroke-linejoin="round"/>
<path d="M209.955 55.6176C209.955 55.6176 209.55 53.6312 207.825 53.2478" stroke="#2E353A" stroke-width="0.399401" stroke-linecap="round" stroke-linejoin="round"/>
<path d="M207.905 56.6828C207.489 57.0076 207.031 57.1141 206.877 56.9171C206.722 56.72 206.93 56.2993 207.34 55.9745C207.75 55.6496 208.213 55.5431 208.368 55.7402C208.522 55.9372 208.315 56.3579 207.905 56.6828Z" fill="#2E353A"/>
<path d="M210.471 60.0377C210.131 60.304 209.753 60.3945 209.625 60.2295C209.497 60.0644 209.667 59.6969 210.008 59.4466C210.349 59.1963 210.727 59.0952 210.855 59.2549C210.983 59.4147 210.812 59.7661 210.471 60.0377Z" fill="#2E353A"/>
<path d="M200.529 146.99L205.753 154.248C205.753 154.248 205.753 155.58 203.889 155.58C202.025 155.58 200.96 155.58 199.895 154.248C198.83 152.917 198.83 152.118 197.765 151.586C196.7 151.053 195.635 151.053 196.168 148.124C196.7 145.195 200.529 146.99 200.529 146.99Z" fill="white" stroke="#2E353A" stroke-width="0.532535" stroke-linecap="round" stroke-linejoin="round"/>
<path d="M205.732 154.413C204.905 154.811 203.976 154.948 203.069 154.807C201.184 154.467 200.039 152.581 199.341 151.772C198.644 150.963 197.792 150.968 196.988 150.292C196.605 149.965 196.271 149.584 195.997 149.163C195.885 151.058 196.807 151.122 197.723 151.586C198.788 152.118 198.788 152.917 199.853 154.248C200.918 155.58 201.983 155.58 203.847 155.58C205.343 155.58 205.652 154.77 205.732 154.413Z" fill="white" stroke="#2E353A" stroke-width="0.532535" stroke-linecap="round" stroke-linejoin="round"/>
<path d="M200.231 146.069C199.166 142.874 197.648 123.745 196.86 117.69C195.262 105.378 188.158 89.3964 188.158 89.3964L188.568 82.8569C186.396 82.5853 183.387 81.9356 181.331 80.3966C178.668 78.4049 178.503 74.6293 178.583 72.8506C177.236 73.7186 173.258 76.3334 169.866 79.0812C165.68 82.4522 162.815 94.4076 162 98.1833C161.185 101.959 160.264 113.094 160.264 113.094C160.264 113.094 152.904 115.954 149.944 120.017C146.983 124.08 137.988 133.299 137.988 133.299L138.808 136.366C138.808 136.366 141.567 134.428 143.915 132.585C146.264 130.742 164.556 120.528 165.781 119.804C167.006 119.08 168.444 117.674 170.073 113.574C170.67 112.077 171.511 109.627 172.342 107.119L175.18 98.2791L177.912 95.9519C180.607 103.237 186.87 117.28 187.759 119.288C188.824 121.695 189.633 132.399 192.578 139.093C195.523 145.787 196.306 148.998 196.306 148.998C196.306 148.998 201.301 149.28 200.231 146.069Z" fill="#2E353A" stroke="#2E353A" stroke-width="0.532535" stroke-linecap="round" stroke-linejoin="round"/>
<path d="M188.393 84.1189L189.41 90.0567" stroke="white" stroke-width="0.266267" stroke-miterlimit="10"/>
<path d="M44.3899 38.2571L29.0103 168.888C28.9894 169.076 29.0218 169.266 29.1036 169.437C29.1855 169.607 29.3135 169.752 29.4733 169.853C29.633 169.955 29.8181 170.009 30.0073 170.011C30.1966 170.013 30.3825 169.961 30.544 169.862L40.4278 163.781C41.0145 163.417 41.7194 163.296 42.3939 163.442C43.0685 163.588 43.66 163.99 44.0437 164.564L56.4624 183.027L61.644 105.362L44.3899 38.2571Z" fill="#FF8C00" stroke="#2E353A" stroke-width="0.532535" stroke-linecap="round" stroke-linejoin="round"/>
<path d="M44.2941 41.5428L30.3949 165.623C30.3649 165.891 30.4137 166.162 30.5353 166.403C30.6569 166.643 30.8461 166.843 31.0796 166.977C31.3131 167.112 31.5808 167.175 31.8498 167.16C32.1189 167.145 32.3776 167.051 32.5943 166.891L39.8208 161.565C40.1966 161.288 40.6252 161.089 41.0803 160.983C41.5355 160.876 42.0076 160.864 42.4677 160.946C42.9279 161.028 43.3664 161.203 43.7564 161.461C44.1465 161.719 44.4798 162.053 44.7361 162.444L53.1927 175.353C53.2844 175.496 53.4214 175.605 53.5819 175.661C53.7425 175.718 53.9173 175.719 54.0786 175.664C54.2398 175.61 54.3781 175.503 54.4714 175.36C54.5647 175.218 54.6076 175.048 54.5933 174.879L44.7201 41.5482C44.7098 41.4996 44.6834 41.4561 44.645 41.4246C44.6067 41.3931 44.5588 41.3756 44.5092 41.375C44.4596 41.3744 44.4113 41.3907 44.3722 41.4212C44.3331 41.4517 44.3055 41.4946 44.2941 41.5428Z" fill="#FF8C00" stroke="#2E353A" stroke-width="0.532535" stroke-linecap="round" stroke-linejoin="round"/>
<path opacity="0.6" d="M44.4858 39.7429L30.3843 165.613C30.3542 165.881 30.403 166.151 30.5246 166.392C30.6462 166.632 30.8354 166.832 31.0689 166.967C31.3024 167.101 31.5701 167.165 31.8392 167.149C32.1082 167.134 32.367 167.041 32.5836 166.88L39.8101 161.555C40.186 161.277 40.6146 161.079 41.0697 160.972C41.5248 160.866 41.9969 160.853 42.4571 160.935C42.9172 161.018 43.3558 161.193 43.7458 161.45C44.1358 161.708 44.4692 162.043 44.7254 162.434L53.1821 175.342C53.2737 175.486 53.4107 175.594 53.5713 175.651C53.7319 175.707 53.9067 175.708 54.0679 175.654C54.2291 175.599 54.3674 175.492 54.4607 175.35C54.554 175.207 54.5969 175.038 54.5826 174.868L44.587 39.7429C44.5835 39.7323 44.5767 39.723 44.5676 39.7164C44.5585 39.7098 44.5476 39.7063 44.5364 39.7063C44.5252 39.7063 44.5142 39.7098 44.5051 39.7164C44.4961 39.723 44.4893 39.7323 44.4858 39.7429Z" fill="black"/>
<path d="M41.9136 160.873C42.4731 160.883 43.0217 161.029 43.5117 161.299C44.0018 161.569 44.4184 161.955 44.7254 162.423L53.1821 175.332C53.2737 175.475 53.4107 175.584 53.5713 175.64C53.7319 175.696 53.9067 175.697 54.0679 175.643C54.2291 175.588 54.3674 175.481 54.4607 175.339C54.554 175.197 54.5969 175.027 54.5826 174.858L53.3738 158.541L41.7326 160.82C41.7944 160.832 41.8551 160.85 41.9136 160.873Z" fill="#FF8C00" stroke="#2E353A" stroke-width="0.532535" stroke-linecap="round" stroke-linejoin="round"/>
<path opacity="0.3" d="M41.9136 160.873C42.4731 160.883 43.0217 161.029 43.5117 161.299C44.0018 161.569 44.4184 161.955 44.7254 162.423L53.1821 175.332C53.2737 175.475 53.4107 175.584 53.5713 175.64C53.7319 175.696 53.9067 175.697 54.0679 175.643C54.2291 175.588 54.3674 175.481 54.4607 175.339C54.554 175.197 54.5969 175.027 54.5826 174.858L53.3738 158.541L41.7326 160.82C41.7944 160.832 41.8551 160.85 41.9136 160.873Z" fill="black"/>
<path d="M44.704 38.1772L56.4571 183.027L193.505 156.911L161.297 43.9446L44.704 38.1772Z" fill="#2E353A" stroke="#2E353A" stroke-width="0.532535" stroke-linecap="round" stroke-linejoin="round"/>
<path d="M51.0573 41.3032L59.1305 175.369L188.004 151.937L160.839 47.7788L51.0573 41.3032Z" fill="#FF8C00" stroke="#2E353A" stroke-width="0.532535" stroke-linecap="round" stroke-linejoin="round"/>
<path d="M58.9335 107.279L65.0629 170.826L182.157 149.535L171.277 101.772L58.9335 107.279Z" fill="white" stroke="#2E353A" stroke-width="0.532535" stroke-linecap="round" stroke-linejoin="round"/>
<path d="M81.5341 167.663L79.5904 147.251" stroke="#2E353A" stroke-width="0.532535" stroke-linecap="round" stroke-linejoin="round"/>
<path d="M99.4539 164.505L97.5794 147.49" stroke="#2E353A" stroke-width="0.532535" stroke-linecap="round" stroke-linejoin="round"/>
<path d="M117.022 161.102L114.834 147.49" stroke="#2E353A" stroke-width="0.532535" stroke-linecap="round" stroke-linejoin="round"/>
<path d="M135.123 157.998L132.519 141.771" stroke="#2E353A" stroke-width="0.532535" stroke-linecap="round" stroke-linejoin="round"/>
<path d="M151.067 155.122L148.846 139.284" stroke="#2E353A" stroke-width="0.532535" stroke-linecap="round" stroke-linejoin="round"/>
<path d="M166.356 152.294L163.049 133.25" stroke="#2E353A" stroke-width="0.532535" stroke-linecap="round" stroke-linejoin="round"/>
<path d="M202.286 109.723C202.286 109.723 200.657 111.363 200.55 112.215C200.444 113.067 201.296 115.634 201.296 115.634L203.863 116.06L204.992 111.598L202.286 109.723Z" fill="white" stroke="#2E353A" stroke-width="0.532535" stroke-linecap="round" stroke-linejoin="round"/>
<g style="mix-blend-mode:multiply" opacity="0.49">
<path d="M51.7069 78.3408C51.7069 78.3408 54.4122 117.274 56.8992 131.472C59.3861 145.669 63.9978 166.917 63.9978 166.917C63.9978 166.917 143.878 154.552 183.286 137.862L180.09 122.6L51.7069 78.3408Z" fill="#FF8C00"/>
</g>
<path d="M48.0963 39.844L160.285 45.8883C160.285 45.8883 171.208 78.6125 182.077 97.0915C192.946 115.57 210.871 114.367 210.871 114.367C210.871 114.367 169.759 136.845 137.738 148.811C104.412 161.257 75.5112 163.493 75.5112 163.493C75.5112 163.493 49.188 127.536 48.0963 39.844Z" fill="#FF8C00" stroke="#2E353A" stroke-width="0.532535" stroke-linecap="round" stroke-linejoin="round"/>
<path d="M60.941 34.0181C58.8588 34.0181 57.3518 35.866 56.8778 38.763L59.0079 38.8801C59.3381 37.208 59.9931 36.1482 60.9357 36.1482C62.0327 36.1482 63.2522 37.9109 63.2522 40.4458C63.2522 42.9806 62.0327 44.7486 60.9357 44.7486C60.6532 44.7486 60.3823 44.8608 60.1826 45.0606C59.9829 45.2603 59.8707 45.5312 59.8707 45.8137C59.8707 46.0962 59.9829 46.3671 60.1826 46.5668C60.3823 46.7666 60.6532 46.8788 60.9357 46.8788C63.428 46.8788 65.3824 44.051 65.3824 40.4458C65.3824 36.8405 63.4333 34.0181 60.941 34.0181Z" fill="white" stroke="#2E353A" stroke-width="0.532535" stroke-miterlimit="10"/>
<path d="M63.9977 42.1711C63.8957 42.5467 63.764 42.9135 63.6037 43.2682" stroke="#2E353A" stroke-width="0.399401" stroke-linecap="round" stroke-linejoin="round"/>
<path d="M57.9322 37.8045C57.9322 37.8045 58.731 34.9182 61.0901 35.0779C62.9434 35.2057 64.4717 37.9589 64.2161 40.9039" stroke="#2E353A" stroke-width="0.399401" stroke-linecap="round" stroke-linejoin="round"/>
<path d="M79.4413 34.95C77.3591 34.95 75.852 36.7978 75.3781 39.6948L77.5082 39.812C77.8384 38.1398 78.4934 37.0801 79.436 37.0801C80.533 37.0801 81.7525 38.8428 81.7525 41.3776C81.7525 43.9125 80.533 45.6805 79.436 45.6805C79.1535 45.6805 78.8826 45.7927 78.6829 45.9925C78.4831 46.1922 78.3709 46.4631 78.3709 46.7456C78.3709 47.0281 78.4831 47.299 78.6829 47.4987C78.8826 47.6985 79.1535 47.8107 79.436 47.8107C81.9282 47.8107 83.8826 44.9829 83.8826 41.3776C83.8826 37.7724 81.9389 34.95 79.4413 34.95Z" fill="white" stroke="#2E353A" stroke-width="0.532535" stroke-miterlimit="10"/>
<path d="M82.5033 43.103C82.4013 43.4786 82.2696 43.8454 82.1093 44.2" stroke="#2E353A" stroke-width="0.399401" stroke-linecap="round" stroke-linejoin="round"/>
<path d="M76.4378 38.7364C76.4378 38.7364 77.2366 35.8501 79.5957 36.0098C81.449 36.1376 82.9773 38.8908 82.7217 41.8357" stroke="#2E353A" stroke-width="0.399401" stroke-linecap="round" stroke-linejoin="round"/>
<path d="M97.9522 35.8818C95.87 35.8818 94.3629 37.7297 93.889 40.6267L96.0191 40.7439C96.3493 39.0717 97.0043 38.012 97.9469 38.012C99.0439 38.012 100.263 39.7747 100.263 42.3095C100.263 44.8444 99.0439 46.6124 97.9469 46.6124C97.6644 46.6124 97.3935 46.7246 97.1938 46.9244C96.994 47.1241 96.8818 47.395 96.8818 47.6775C96.8818 47.96 96.994 48.2309 97.1938 48.4306C97.3935 48.6303 97.6644 48.7425 97.9469 48.7425C100.439 48.7425 102.394 45.9148 102.394 42.3095C102.394 38.7043 100.444 35.8818 97.9522 35.8818Z" fill="white" stroke="#2E353A" stroke-width="0.532535" stroke-miterlimit="10"/>
<path d="M101.009 44.0352C100.907 44.4107 100.775 44.7776 100.615 45.1322" stroke="#2E353A" stroke-width="0.399401" stroke-linecap="round" stroke-linejoin="round"/>
<path d="M94.9434 39.6683C94.9434 39.6683 95.7422 36.7819 98.1013 36.9417C99.9545 37.0695 101.483 39.8227 101.227 42.7676" stroke="#2E353A" stroke-width="0.399401" stroke-linecap="round" stroke-linejoin="round"/>
<path d="M116.458 36.814C114.376 36.814 112.868 38.6619 112.395 41.5589L114.525 41.676C114.855 40.0039 115.51 38.9441 116.452 38.9441C117.549 38.9441 118.769 40.7068 118.769 43.2417C118.769 45.7765 117.549 47.5445 116.452 47.5445C116.17 47.5445 115.899 47.6567 115.699 47.8565C115.5 48.0562 115.387 48.3271 115.387 48.6096C115.387 48.8921 115.5 49.163 115.699 49.3627C115.899 49.5625 116.17 49.6747 116.452 49.6747C118.945 49.6747 120.899 46.8469 120.899 43.2417C120.899 39.6364 118.95 36.814 116.458 36.814Z" fill="white" stroke="#2E353A" stroke-width="0.532535" stroke-miterlimit="10"/>
<path d="M119.515 44.967C119.413 45.3426 119.281 45.7094 119.121 46.0641" stroke="#2E353A" stroke-width="0.399401" stroke-linecap="round" stroke-linejoin="round"/>
<path d="M113.449 40.6002C113.449 40.6002 114.248 37.7138 116.607 37.8736C118.46 38.0014 119.989 40.7546 119.733 43.6995" stroke="#2E353A" stroke-width="0.399401" stroke-linecap="round" stroke-linejoin="round"/>
<path d="M135.299 37.6394C133.217 37.6394 131.71 39.4873 131.241 42.3896L133.371 42.5068C133.707 40.8346 134.362 39.7695 135.299 39.7695C136.396 39.7695 137.621 41.5376 137.621 44.0724C137.621 46.6073 136.396 48.37 135.299 48.37C135.016 48.37 134.745 48.4822 134.546 48.6819C134.346 48.8817 134.234 49.1526 134.234 49.435C134.234 49.7175 134.346 49.9884 134.546 50.1882C134.745 50.3879 135.016 50.5001 135.299 50.5001C137.796 50.5001 139.751 47.6777 139.751 44.0724C139.751 40.4672 137.796 37.6394 135.299 37.6394Z" fill="white" stroke="#2E353A" stroke-width="0.532535" stroke-miterlimit="10"/>
<path d="M138.356 45.7979C138.254 46.172 138.123 46.5371 137.962 46.8895" stroke="#2E353A" stroke-width="0.399401" stroke-linecap="round" stroke-linejoin="round"/>
<path d="M132.29 41.4309C132.29 41.4309 133.094 38.5393 135.448 38.699C137.307 38.8268 138.83 41.5854 138.579 44.5303" stroke="#2E353A" stroke-width="0.399401" stroke-linecap="round" stroke-linejoin="round"/>
<path d="M153.4 38.6353C151.318 38.6353 149.81 40.4832 149.342 43.3801L151.472 43.5026C151.807 41.8305 152.463 40.7654 153.4 40.7654C154.497 40.7654 155.722 42.5334 155.722 45.063C155.722 47.5925 154.497 49.3658 153.4 49.3658C153.117 49.3658 152.846 49.478 152.647 49.6778C152.447 49.8775 152.335 50.1484 152.335 50.4309C152.335 50.7134 152.447 50.9843 152.647 51.184C152.846 51.3838 153.117 51.496 153.4 51.496C155.897 51.496 157.852 48.6682 157.852 45.063C157.852 41.4577 155.897 38.6353 153.4 38.6353Z" fill="white" stroke="#2E353A" stroke-width="0.532535" stroke-miterlimit="10"/>
<path d="M156.456 46.7617C156.356 47.1378 156.224 47.5048 156.062 47.8587" stroke="#2E353A" stroke-width="0.399401" stroke-linecap="round" stroke-linejoin="round"/>
<path d="M150.391 42.4002C150.391 42.4002 151.195 39.5085 153.549 39.6682C155.407 39.7961 156.93 42.5493 156.68 45.4942" stroke="#2E353A" stroke-width="0.399401" stroke-linecap="round" stroke-linejoin="round"/>
<path d="M204.992 111.592C204.992 111.592 206.057 113.052 206.057 113.675C206.057 114.298 204.598 115.341 204.598 116.795C204.598 118.249 202.723 117.86 202.515 116.795C202.308 115.73 202.931 114.298 202.931 114.298C202.931 114.298 202.063 113.765 201.866 111.891C201.669 110.016 203.357 110.549 203.357 110.549L204.992 111.592Z" fill="white" stroke="#2E353A" stroke-width="0.532535" stroke-linecap="round" stroke-linejoin="round"/>
<path d="M178.365 97.1767C170.649 84.0551 162.543 63.3342 159.662 55.7083L59.402 51.645C59.3381 125.747 81.7685 156.363 81.7685 156.363C81.7685 156.363 107.304 154.387 136.753 143.385C165.052 132.814 198.804 115.07 198.804 115.07C198.804 115.07 187.967 113.51 178.365 97.1767Z" fill="white" stroke="#2E353A" stroke-width="0.532535" stroke-linecap="round" stroke-linejoin="round"/>
<path d="M159.662 55.7083L59.402 51.645C59.402 58.9354 59.6097 65.7945 59.9932 72.2541L165.872 71.2636C163.129 64.7294 160.919 59.0047 159.662 55.7083Z" fill="#2E353A" stroke="#2E353A" stroke-width="0.532535" stroke-linecap="round" stroke-linejoin="round"/>
<path d="M161.436 77.7977L166.175 77.6326" stroke="#2E353A" stroke-width="1.5976" stroke-linecap="round" stroke-linejoin="round"/>
<path d="M147.505 78.2716L157.884 77.9148" stroke="#2E353A" stroke-width="1.5976" stroke-linecap="round" stroke-linejoin="round"/>
<path d="M130.639 78.8416L143.979 78.3889" stroke="#2E353A" stroke-width="1.5976" stroke-linecap="round" stroke-linejoin="round"/>
<path d="M113.481 79.4219L127.694 78.9426" stroke="#2E353A" stroke-width="1.5976" stroke-linecap="round" stroke-linejoin="round"/>
<path d="M96.8924 79.9864L109.924 79.5444" stroke="#2E353A" stroke-width="1.5976" stroke-linecap="round" stroke-linejoin="round"/>
<path d="M79.4147 80.5828L92.4565 80.1355" stroke="#2E353A" stroke-width="1.5976" stroke-linecap="round" stroke-linejoin="round"/>
<path d="M64.0297 81.1048L76.1662 80.6895" stroke="#2E353A" stroke-width="1.5976" stroke-linecap="round" stroke-linejoin="round"/>
<path d="M62.054 92.5277L172.358 85.8071" stroke="#2E353A" stroke-width="0.532535" stroke-linecap="round" stroke-linejoin="round"/>
<path d="M79.4839 91.5798C79.4839 91.5798 81.2945 120.912 100.631 153.471" stroke="#2E353A" stroke-width="0.532535" stroke-linecap="round" stroke-linejoin="round"/>
<path d="M97.2811 90.4028C97.2811 90.4028 99.3207 123.953 120.521 148.518" stroke="#2E353A" stroke-width="0.532535" stroke-linecap="round" stroke-linejoin="round"/>
<path d="M113.396 89.4124C113.396 89.4124 114.461 120.299 138.292 142.495" stroke="#2E353A" stroke-width="0.532535" stroke-linecap="round" stroke-linejoin="round"/>
<path d="M130.101 88.6934C130.101 88.6934 132.732 123.031 155.796 135.125" stroke="#2E353A" stroke-width="0.532535" stroke-linecap="round" stroke-linejoin="round"/>
<path d="M147.606 87.3142C147.606 87.3142 149.459 113.286 173.05 127.51" stroke="#2E353A" stroke-width="0.532535" stroke-linecap="round" stroke-linejoin="round"/>
<path d="M161.388 86.4727C161.388 86.4727 167.736 113.099 185.496 121.721" stroke="#2E353A" stroke-width="0.532535" stroke-linecap="round" stroke-linejoin="round"/>
<path d="M64.4718 107.657L177.135 95.2649" stroke="#2E353A" stroke-width="0.532535" stroke-linecap="round" stroke-linejoin="round"/>
<path d="M67.4114 120.912C67.4114 120.912 91.466 119.969 182.375 103.216" stroke="#2E353A" stroke-width="0.532535" stroke-linecap="round" stroke-linejoin="round"/>
<path d="M71.6556 134.944C71.6556 134.944 95.0872 137.607 186.886 108.376" stroke="#2E353A" stroke-width="0.532535" stroke-linecap="round" stroke-linejoin="round"/>
<path d="M76.7254 147.187C76.7254 147.187 96.2588 153.657 192.211 112.572" stroke="#2E353A" stroke-width="0.532535" stroke-linecap="round" stroke-linejoin="round"/>
<path d="M102.708 66.1406L66.5912 65.656C66.2986 65.6516 66.0175 65.5413 65.8001 65.3454C65.5827 65.1495 65.4437 64.8815 65.409 64.5909L65.1001 61.6726C65.082 61.5047 65.0997 61.3348 65.1522 61.1742C65.2047 61.0137 65.2906 60.8661 65.4044 60.7412C65.5182 60.6163 65.6572 60.5171 65.8122 60.45C65.9672 60.3829 66.1347 60.3495 66.3036 60.3519L101.983 60.9697C102.247 60.9743 102.502 61.0654 102.709 61.229C102.916 61.3925 103.063 61.6195 103.128 61.875L103.853 64.6495C103.898 64.8249 103.903 65.0084 103.867 65.186C103.83 65.3635 103.754 65.5305 103.644 65.6742C103.533 65.818 103.392 65.9347 103.23 66.0155C103.067 66.0963 102.889 66.1391 102.708 66.1406Z" fill="white"/>
</svg>
