<svg width="750" height="500" viewBox="0 0 750 500" fill="none" xmlns="http://www.w3.org/2000/svg">
<path d="M185.24 142.11H29.04V229.45H185.24V142.11Z" fill="#FAFAFA"/>
<path d="M185.24 229.45C185.24 229.45 185.24 228.91 185.24 227.88C185.24 226.85 185.24 225.31 185.24 223.32C185.24 219.32 185.24 213.42 185.19 205.85C185.19 190.73 185.13 168.92 185.09 142.11L185.29 142.31L29.1 142.37L29.36 142.11C29.36 173 29.36 202.54 29.36 229.45L29.12 229.21L141.45 229.33L173.72 229.39H182.33H184.55H185.32H184.58H182.39H173.83L141.61 229.46L29 229.7H28.75V229.45C28.75 202.54 28.75 173 28.75 142.11V141.85H29.03L185.22 141.91H185.42V142.11C185.37 168.98 185.34 190.83 185.31 205.98C185.31 213.52 185.31 219.4 185.26 223.39C185.26 225.39 185.26 226.89 185.26 227.92C185.26 228.95 185.24 229.45 185.24 229.45Z" fill="#E0E0E0"/>
<path d="M70.2001 162.93H48.1201V185.01H70.2001V162.93Z" fill="#E0E0E0"/>
<path d="M100.54 166C100.54 166.14 95.38 166.26 89.03 166.26C82.68 166.26 77.51 166.14 77.51 166C77.51 165.86 82.67 165.74 89.03 165.74C95.39 165.74 100.54 165.89 100.54 166Z" fill="#E0E0E0"/>
<path d="M174.07 174C174.07 174.14 152.46 174.26 125.8 174.26C99.14 174.26 77.51 174.14 77.51 174C77.51 173.86 99.13 173.74 125.8 173.74C152.47 173.74 174.07 173.83 174.07 174Z" fill="#E0E0E0"/>
<path d="M141.59 182.88C141.59 183.02 127.38 183.14 109.86 183.14C92.3399 183.14 78.1399 183.02 78.1399 182.88C78.1399 182.74 92.3399 182.62 109.86 182.62C127.38 182.62 141.59 182.73 141.59 182.88Z" fill="#E0E0E0"/>
<path d="M162.11 217.88H55.4099C52.6958 217.878 50.0938 216.797 48.1756 214.877C46.2574 212.957 45.1799 210.354 45.1799 207.64C45.1799 204.927 46.2577 202.325 48.1762 200.406C50.0947 198.488 52.6968 197.41 55.4099 197.41H162.11C163.454 197.409 164.786 197.672 166.028 198.186C167.27 198.7 168.399 199.453 169.35 200.403C170.301 201.353 171.056 202.481 171.57 203.723C172.085 204.965 172.35 206.296 172.35 207.64C172.35 208.985 172.085 210.316 171.57 211.559C171.056 212.801 170.302 213.93 169.351 214.881C168.4 215.832 167.271 216.586 166.029 217.101C164.786 217.615 163.455 217.88 162.11 217.88Z" fill="#E0E0E0"/>
<path d="M188.54 328.1H53.53V403.59H188.54V328.1Z" fill="#FAFAFA"/>
<path d="M188.54 403.6C188.54 403.6 188.54 403.13 188.54 402.23C188.54 401.33 188.54 400.01 188.54 398.29C188.54 394.82 188.54 389.73 188.48 383.19C188.48 370.12 188.42 351.27 188.38 328.1L188.58 328.3L53.58 328.36L53.84 328.1C53.84 354.8 53.84 380.33 53.84 403.6L53.6 403.35L150.68 403.47L178.58 403.54H186.02H187.95H188.61H186H178.61L150.76 403.61L53.52 403.73H53.28V403.49C53.28 380.22 53.28 354.69 53.28 327.99V327.73H53.55L188.55 327.79H188.75V327.99C188.7 351.22 188.67 370.11 188.64 383.2C188.64 389.72 188.64 394.8 188.64 398.25C188.64 399.96 188.64 401.25 188.64 402.17C188.64 403.09 188.54 403.6 188.54 403.6Z" fill="#E0E0E0"/>
<path d="M89.12 346.1H70.03V365.19H89.12V346.1Z" fill="#E0E0E0"/>
<path d="M115.33 348.78C112.003 349.039 108.665 349.126 105.33 349.04C102.011 349.125 98.6899 349.038 95.3799 348.78C98.6899 348.523 102.011 348.436 105.33 348.52C108.665 348.434 112.003 348.521 115.33 348.78Z" fill="#E0E0E0"/>
<path d="M178.89 355.64C178.89 355.78 160.21 355.9 137.16 355.9C114.11 355.9 95.4299 355.78 95.4299 355.64C95.4299 355.5 114.11 355.38 137.16 355.38C160.21 355.38 178.89 355.5 178.89 355.64Z" fill="#E0E0E0"/>
<path d="M150.81 363.34C150.81 363.48 138.53 363.6 123.39 363.6C108.25 363.6 96 363.48 96 363.34C96 363.2 108.28 363.08 123.42 363.08C138.56 363.08 150.81 363.19 150.81 363.34Z" fill="#E0E0E0"/>
<path d="M168.55 393.59H76.33C73.9828 393.59 71.7318 392.658 70.0721 390.998C68.4124 389.338 67.48 387.087 67.48 384.74C67.48 383.578 67.709 382.428 68.1538 381.355C68.5987 380.282 69.2508 379.307 70.0727 378.486C70.8946 377.665 71.8703 377.014 72.944 376.57C74.0177 376.126 75.1683 375.899 76.33 375.9H168.55C169.712 375.899 170.862 376.126 171.936 376.57C173.01 377.014 173.985 377.665 174.807 378.486C175.629 379.307 176.281 380.282 176.726 381.355C177.171 382.428 177.4 383.578 177.4 384.74C177.4 387.087 176.468 389.338 174.808 390.998C173.148 392.658 170.897 393.59 168.55 393.59Z" fill="#E0E0E0"/>
<path d="M658.9 362.16H523.89V437.65H658.9V362.16Z" fill="#FAFAFA"/>
<path d="M658.9 437.66C658.9 437.66 658.9 437.19 658.9 436.29C658.9 435.39 658.9 434.07 658.9 432.35C658.9 428.88 658.9 423.79 658.85 417.25C658.85 404.18 658.79 385.33 658.74 362.16L658.94 362.36L523.94 362.42L524.2 362.16C524.2 388.86 524.2 414.39 524.2 437.66L523.96 437.41L621.04 437.53L648.94 437.6H656.38H658.31H658.97H656.44H649.05L621.2 437.67L523.96 437.79H523.72V437.55C523.72 414.28 523.72 388.75 523.72 362.05V361.79H523.99L658.99 361.85H659.19V362.05C659.14 385.28 659.11 404.17 659.08 417.26C659.08 423.78 659.08 428.86 659.08 432.31C659.08 434.02 659.08 435.31 659.08 436.23C659.08 437.15 658.9 437.66 658.9 437.66Z" fill="#E0E0E0"/>
<path d="M559.48 380.16H540.39V399.25H559.48V380.16Z" fill="#E0E0E0"/>
<path d="M585.69 382.84C579.061 383.187 572.419 383.187 565.79 382.84C572.419 382.493 579.061 382.493 585.69 382.84Z" fill="#E0E0E0"/>
<path d="M649.25 389.7C649.25 389.84 630.57 389.96 607.52 389.96C584.47 389.96 565.79 389.84 565.79 389.7C565.79 389.56 584.47 389.44 607.52 389.44C630.57 389.44 649.25 389.56 649.25 389.7Z" fill="#E0E0E0"/>
<path d="M621.17 397.4C621.17 397.54 608.89 397.66 593.75 397.66C578.61 397.66 566.33 397.54 566.33 397.4C566.33 397.26 578.61 397.14 593.75 397.14C608.89 397.14 621.17 397.25 621.17 397.4Z" fill="#E0E0E0"/>
<path d="M638.91 427.65H546.69C544.343 427.65 542.092 426.718 540.432 425.058C538.772 423.398 537.84 421.147 537.84 418.8C537.84 417.638 538.069 416.488 538.514 415.415C538.959 414.342 539.611 413.367 540.433 412.546C541.255 411.725 542.23 411.074 543.304 410.63C544.378 410.186 545.528 409.959 546.69 409.96H638.91C640.072 409.959 641.222 410.186 642.296 410.63C643.37 411.074 644.345 411.725 645.167 412.546C645.989 413.367 646.641 414.342 647.086 415.415C647.531 416.488 647.76 417.638 647.76 418.8C647.76 421.147 646.828 423.398 645.168 425.058C643.508 426.718 641.257 427.65 638.91 427.65Z" fill="#E0E0E0"/>
<path d="M707.53 177.83H551.33V265.17H707.53V177.83Z" fill="#FAFAFA"/>
<path d="M707.53 265.17C707.53 265.17 707.53 264.63 707.53 263.6C707.53 262.57 707.53 261.04 707.53 259.04C707.53 255.04 707.53 249.14 707.53 241.58C707.53 226.46 707.47 204.65 707.42 177.83L707.62 178.03L551.43 178.09L551.69 177.83C551.69 208.72 551.69 238.26 551.69 265.17L551.45 264.93L663.78 265.05L696.06 265.12H704.66H707.66H706.93H704.73H696.17L663.95 265.19L551.46 265.31H551.22V265.06C551.22 238.15 551.22 208.61 551.22 177.72V177.46H551.49L707.68 177.52H707.88V177.72C707.88 204.59 707.8 226.44 707.77 241.59C707.77 249.13 707.77 255.01 707.77 259.01C707.77 261.01 707.77 262.5 707.77 263.53C707.77 264.56 707.53 265.17 707.53 265.17Z" fill="#E0E0E0"/>
<path d="M592.5 198.65H570.42V220.73H592.5V198.65Z" fill="#E0E0E0"/>
<path d="M622.83 201.75C622.83 201.9 617.68 202.01 611.32 202.01C604.96 202.01 599.81 201.9 599.81 201.75C599.81 201.6 604.96 201.49 611.32 201.49C617.68 201.49 622.83 201.61 622.83 201.75Z" fill="#E0E0E0"/>
<path d="M696.37 209.69C696.37 209.84 674.75 209.95 648.09 209.95C621.43 209.95 599.81 209.84 599.81 209.69C599.81 209.54 621.42 209.43 648.09 209.43C674.76 209.43 696.37 209.55 696.37 209.69Z" fill="#E0E0E0"/>
<path d="M663.88 218.6C663.88 218.74 649.68 218.86 632.16 218.86C614.64 218.86 600.43 218.74 600.43 218.6C600.43 218.46 614.63 218.34 632.16 218.34C649.69 218.34 663.88 218.45 663.88 218.6Z" fill="#E0E0E0"/>
<path d="M684.41 233.13H577.7C572.05 233.13 567.47 237.71 567.47 243.36V243.37C567.47 249.02 572.05 253.6 577.7 253.6H684.41C690.06 253.6 694.64 249.02 694.64 243.37V243.36C694.64 237.71 690.06 233.13 684.41 233.13Z" fill="#E0E0E0"/>
<path d="M598.78 43.46H136V466.63H598.78V43.46Z" fill="white"/>
<path d="M598.78 43.46H136V71.61H598.78V43.46Z" fill="#E0E0E0"/>
<path d="M536.48 439.46C536.48 439.61 459.04 439.72 363.48 439.72C267.92 439.72 190.48 439.61 190.48 439.46C190.48 439.31 267.91 439.2 363.48 439.2C459.05 439.2 536.48 439.32 536.48 439.46Z" fill="#263238"/>
<path d="M334.86 354.57H328.01V390.65H334.86V354.57Z" fill="#E0E0E0"/>
<path d="M334.87 390.64C334.854 390.394 334.854 390.146 334.87 389.9C334.87 389.38 334.87 388.69 334.87 387.82C334.87 385.98 334.87 383.4 334.79 380.19C334.79 373.71 334.72 364.74 334.68 354.57L334.94 354.82H328C328.51 354.3 328.14 354.68 328.26 354.57V365.57C328.26 369.07 328.26 372.4 328.26 375.49C328.26 381.64 328.2 386.85 328.18 390.67L328.03 390.53L333.03 390.61H334.37H334.86C334.717 390.624 334.573 390.624 334.43 390.61H333.11L328 390.68H327.87V390.53C327.87 386.71 327.82 381.53 327.79 375.35C327.79 372.26 327.79 368.93 327.79 365.43V360.05C327.79 359.14 327.79 358.21 327.79 357.28V354.48L328.06 354.21H335.16V354.47C335.16 364.71 335.08 373.74 335.05 380.27C335.05 383.45 334.99 386.02 334.98 387.85C334.98 388.69 334.98 389.36 334.98 389.85C334.963 390.116 334.926 390.38 334.87 390.64Z" fill="#263238"/>
<path d="M347.3 349.1H315.3C313.021 349.1 310.835 348.196 309.222 346.585C307.61 344.974 306.703 342.789 306.7 340.51H355.9C355.897 342.789 354.99 344.974 353.378 346.585C351.765 348.196 349.579 349.1 347.3 349.1Z" fill="#263238"/>
<path d="M375.55 342.19H319.71V330.25H375.55C377.141 330.25 378.667 330.882 379.793 332.007C380.918 333.133 381.55 334.659 381.55 336.25C381.534 337.831 380.895 339.342 379.772 340.454C378.648 341.566 377.131 342.19 375.55 342.19Z" fill="#FF8C00"/>
<path d="M276.31 244.47C274.775 244.678 273.382 245.476 272.427 246.696C271.473 247.916 271.032 249.461 271.2 251L279.26 324.26C279.816 329.192 282.168 333.746 285.868 337.054C289.568 340.361 294.357 342.19 299.32 342.19H320.62C322.211 342.19 323.737 341.558 324.863 340.433C325.988 339.308 326.62 337.782 326.62 336.19C326.62 334.599 325.988 333.073 324.863 331.948C323.737 330.823 322.211 330.19 320.62 330.19H302.53C300.044 330.191 297.643 329.288 295.773 327.651C293.902 326.014 292.689 323.754 292.36 321.29L283 249.58C282.898 248.806 282.644 248.059 282.253 247.383C281.861 246.707 281.341 246.114 280.72 245.64C280.1 245.165 279.392 244.817 278.637 244.617C277.881 244.416 277.094 244.366 276.32 244.47H276.31Z" fill="#FF8C00"/>
<path d="M344.17 330.83L283.46 331.68L277.53 244.41L328.34 244.09C330.786 244.104 333.127 245.087 334.848 246.826C336.57 248.564 337.531 250.914 337.52 253.36L344.17 330.83Z" fill="#FF8C00"/>
<g opacity="0.3">
<path d="M276.31 244.47C274.775 244.678 273.382 245.476 272.427 246.696C271.473 247.916 271.032 249.461 271.2 251L279.26 324.26C279.816 329.192 282.168 333.746 285.868 337.054C289.568 340.361 294.357 342.19 299.32 342.19H320.62C322.211 342.19 323.737 341.558 324.863 340.433C325.988 339.308 326.62 337.782 326.62 336.19C326.62 334.599 325.988 333.073 324.863 331.948C323.737 330.823 322.211 330.19 320.62 330.19H301.23C296.09 330.19 292.48 326.55 291.8 321.45L283 249.58C282.898 248.806 282.644 248.059 282.253 247.383C281.861 246.707 281.341 246.114 280.72 245.64C280.1 245.165 279.392 244.817 278.637 244.617C277.881 244.416 277.094 244.366 276.32 244.47H276.31Z" fill="black"/>
</g>
<path d="M338.07 349.1H324.8V356H338.07V349.1Z" fill="#263238"/>
<path d="M333.92 388.62H328.77C326.577 388.62 324.8 390.398 324.8 392.59V416.26C324.8 418.453 326.577 420.23 328.77 420.23H333.92C336.113 420.23 337.89 418.453 337.89 416.26V392.59C337.89 390.398 336.113 388.62 333.92 388.62Z" fill="#E0E0E0"/>
<path d="M333.93 420.23C333.93 420.23 334.22 420.23 334.75 420.09C335.407 419.926 336.011 419.597 336.506 419.135C337.001 418.674 337.37 418.094 337.58 417.45C337.747 416.798 337.804 416.122 337.75 415.45C337.75 413.96 337.75 412.27 337.75 410.45C337.75 406.69 337.75 402.25 337.69 397.32C337.69 396.09 337.69 394.82 337.69 393.53C337.736 392.9 337.689 392.267 337.55 391.65C337.388 391.043 337.071 390.488 336.63 390.04C336.188 389.574 335.634 389.23 335.02 389.04C334.365 388.89 333.69 388.84 333.02 388.89H328.8C328.139 388.891 327.49 389.069 326.92 389.404C326.35 389.74 325.881 390.222 325.56 390.8C325.251 391.368 325.089 392.004 325.09 392.65V394.65C325.09 397.33 325.09 399.93 325.09 402.4C325.09 407.33 325.09 411.77 325.04 415.52C324.948 416.381 325.097 417.25 325.47 418.03C325.813 418.658 326.324 419.177 326.946 419.53C327.568 419.884 328.275 420.057 328.99 420.03H330.73L333.14 420.08C333.421 420.069 333.702 420.086 333.98 420.13C333.7 420.152 333.42 420.152 333.14 420.13L330.73 420.18H328.99C328.219 420.218 327.453 420.038 326.78 419.661C326.106 419.285 325.552 418.727 325.18 418.05C324.967 417.653 324.818 417.224 324.74 416.78C324.677 416.317 324.654 415.848 324.67 415.38C324.67 411.63 324.67 407.19 324.61 402.26C324.61 399.79 324.61 397.19 324.61 394.51V392.51C324.602 391.951 324.705 391.396 324.914 390.877C325.122 390.358 325.432 389.886 325.825 389.488C326.217 389.089 326.685 388.773 327.201 388.557C327.717 388.341 328.271 388.23 328.83 388.23H333C333.715 388.179 334.433 388.236 335.13 388.4C335.823 388.613 336.451 388.994 336.96 389.51C337.438 390.026 337.782 390.651 337.96 391.33C338.1 391.987 338.151 392.66 338.11 393.33C338.11 394.62 338.11 395.89 338.11 397.12C338.11 402.05 338.11 406.49 338.06 410.25C338.06 412.11 338.06 413.8 338.06 415.25C338.102 415.951 338.027 416.654 337.84 417.33C337.642 417.897 337.325 418.416 336.91 418.85C336.339 419.443 335.598 419.844 334.79 420C334.517 420.122 334.227 420.2 333.93 420.23Z" fill="#263238"/>
<path d="M369.55 418.27H291.65C290.609 418.232 289.571 418.414 288.605 418.803C287.638 419.193 286.764 419.781 286.04 420.53C283.15 423.53 283.33 428.53 283.34 428.71L286.89 428.56C286.89 427.56 287.08 424.56 288.61 422.98C289.003 422.59 289.472 422.285 289.988 422.085C290.505 421.886 291.057 421.795 291.61 421.82H312.05V430.87H315.6V421.82H369.51C370.607 421.823 371.659 422.26 372.435 423.036C373.21 423.811 373.647 424.863 373.65 425.96V428.63H377.2V426C377.208 423.961 376.407 422.003 374.973 420.554C373.539 419.104 371.589 418.283 369.55 418.27Z" fill="#E0E0E0"/>
<path d="M369.55 418.27C369.883 418.247 370.217 418.247 370.55 418.27C371.501 418.374 372.423 418.656 373.27 419.1C374.648 419.852 375.775 420.993 376.51 422.38C376.973 423.266 377.259 424.235 377.35 425.23C377.42 426.3 377.35 427.4 377.4 428.59V428.72H373.59V428.58C373.49 426.85 373.99 424.73 372.54 423.25C371.858 422.503 370.918 422.042 369.91 421.96C368.91 421.96 367.75 421.96 366.63 421.96H351.82H315.68L315.92 421.71C315.92 424.56 315.92 427.64 315.92 430.76V431.02H311.86V421.71L312.12 421.97H291.31C290.598 421.992 289.906 422.21 289.31 422.6C288.735 423.019 288.28 423.581 287.99 424.23C287.401 425.551 287.11 426.985 287.14 428.43V428.69H286.9L283.35 428.84H283.09V428.58C283.057 426.901 283.318 425.23 283.86 423.64C284.369 422.048 285.315 420.631 286.59 419.55C287.889 418.532 289.48 417.954 291.13 417.9C292.73 417.9 294.27 417.9 295.82 417.9H313.48L342.95 417.96L362.49 418.03L367.74 418.08H369.1H369.56C369.56 418.08 369.41 418.08 369.1 418.08H367.74H362.49L342.95 418.16L313.48 418.22H295.82C294.28 418.22 292.71 418.22 291.16 418.22C289.612 418.268 288.121 418.815 286.91 419.78C285.704 420.799 284.81 422.137 284.33 423.64C283.815 425.17 283.571 426.777 283.61 428.39L283.34 428.15L286.88 428L286.64 428.26C286.604 426.728 286.911 425.208 287.54 423.81C287.87 423.082 288.383 422.451 289.03 421.98C289.702 421.536 290.484 421.286 291.29 421.26H312.36V421.52C312.36 424.63 312.36 427.71 312.36 430.57L312.11 430.32H315.65L315.4 430.57C315.4 427.45 315.4 424.37 315.4 421.52V421.27H315.65H351.79H366.6C367.73 421.27 368.81 421.27 369.91 421.27C370.968 421.364 371.955 421.843 372.682 422.618C373.409 423.393 373.824 424.408 373.85 425.47C373.85 426.42 373.85 427.34 373.85 428.23L373.71 428.09H377.26L377.13 428.21C377.13 427.03 377.18 425.9 377.13 424.87C377.054 423.9 376.785 422.955 376.34 422.09C375.643 420.723 374.557 419.593 373.22 418.84C372.392 418.382 371.487 418.08 370.55 417.95C369.88 418.29 369.55 418.29 369.55 418.27Z" fill="#263238"/>
<path d="M320.7 435.09C320.702 436.465 320.296 437.81 319.534 438.954C318.771 440.099 317.686 440.991 316.417 441.518C315.147 442.046 313.749 442.185 312.4 441.918C311.051 441.651 309.812 440.99 308.839 440.018C307.866 439.047 307.203 437.808 306.934 436.46C306.665 435.112 306.802 433.714 307.328 432.443C307.854 431.173 308.745 430.087 309.888 429.322C311.031 428.558 312.375 428.15 313.75 428.15C315.592 428.15 317.358 428.881 318.661 430.182C319.964 431.484 320.697 433.249 320.7 435.09Z" fill="#263238"/>
<path d="M292.06 433.4C292.06 434.775 291.652 436.118 290.889 437.261C290.125 438.404 289.04 439.295 287.77 439.821C286.5 440.347 285.102 440.485 283.754 440.217C282.406 439.948 281.168 439.287 280.196 438.315C279.224 437.343 278.562 436.104 278.293 434.756C278.025 433.408 278.163 432.01 278.689 430.741C279.215 429.471 280.106 428.385 281.249 427.621C282.392 426.858 283.735 426.45 285.11 426.45C286.953 426.45 288.721 427.182 290.024 428.486C291.328 429.789 292.06 431.557 292.06 433.4Z" fill="#263238"/>
<path d="M381.61 433.65C381.612 435.025 381.206 436.37 380.444 437.514C379.681 438.658 378.596 439.551 377.327 440.078C376.057 440.606 374.659 440.745 373.31 440.478C371.961 440.211 370.722 439.549 369.749 438.578C368.776 437.606 368.113 436.368 367.844 435.02C367.575 433.671 367.712 432.273 368.238 431.003C368.764 429.732 369.655 428.646 370.798 427.882C371.941 427.118 373.285 426.71 374.66 426.71C376.501 426.71 378.268 427.441 379.571 428.742C380.874 430.043 381.607 431.808 381.61 433.65Z" fill="#263238"/>
<path d="M377.05 330.25C377.05 330.39 359.93 330.57 338.82 330.65C317.71 330.73 300.59 330.65 300.59 330.53C300.59 330.41 317.7 330.21 338.82 330.13C359.94 330.05 377.05 330.1 377.05 330.25Z" fill="#263238"/>
<path d="M291.88 320.32C291.74 320.32 289.63 304.52 287.18 284.99C284.73 265.46 282.85 249.6 282.99 249.58C283.13 249.56 285.24 265.38 287.69 284.92C290.14 304.46 292 320.3 291.88 320.32Z" fill="#263238"/>
<path d="M282.35 244.3C282.524 244.233 282.705 244.186 282.89 244.16C283.412 244.07 283.94 244.016 284.47 244C286.432 243.932 288.39 244.234 290.24 244.89C291.533 245.357 292.688 246.141 293.6 247.17C294.603 248.357 295.465 249.656 296.17 251.04C297.67 253.93 299.34 257.04 301.17 260.33C304.84 266.84 308.29 272.68 310.63 277C311.82 279.15 312.73 280.91 313.35 282.14C313.63 282.71 313.85 283.14 314.04 283.56C314.133 283.722 314.2 283.898 314.24 284.08C314.127 283.932 314.027 283.775 313.94 283.61L313.17 282.23L310.31 277.18C307.89 272.91 304.39 267.11 300.71 260.58C298.87 257.32 297.21 254.15 295.71 251.27C295.038 249.906 294.205 248.627 293.23 247.46C292.377 246.463 291.287 245.696 290.06 245.23C288.257 244.567 286.351 244.228 284.43 244.23C283.11 244.19 282.36 244.35 282.35 244.3Z" fill="#263238"/>
<path d="M271.61 248.1C271.74 248.17 267.14 256.19 261.35 266C255.56 275.81 250.76 283.72 250.63 283.65C250.5 283.58 255.1 275.56 260.9 265.74C266.7 255.92 271.49 248 271.61 248.1Z" fill="#263238"/>
<path d="M325.85 283.64H242.62V308.18H325.85V283.64Z" fill="#FAFAFA"/>
<path d="M265.07 291.26L261 300.68H258.85L254.79 291.26H257.14L260 298L262.9 291.27L265.07 291.26Z" fill="#263238"/>
<path d="M271.73 298.66H267.36L266.53 300.66H264.3L268.49 291.24H270.64L274.85 300.66H272.56L271.73 298.66ZM271 297L269.51 293.39L268.06 297H271Z" fill="#263238"/>
<path d="M275.1 296C275.157 294.982 275.514 294.002 276.125 293.186C276.736 292.369 277.575 291.751 278.537 291.409C279.498 291.067 280.539 291.017 281.528 291.265C282.518 291.512 283.413 292.046 284.1 292.8L282.7 294.09C282.415 293.741 282.054 293.461 281.646 293.271C281.237 293.08 280.791 292.984 280.34 292.99C279.544 292.99 278.781 293.306 278.219 293.869C277.656 294.431 277.34 295.195 277.34 295.99C277.34 296.786 277.656 297.549 278.219 298.111C278.781 298.674 279.544 298.99 280.34 298.99C280.792 298.995 281.238 298.897 281.647 298.705C282.056 298.513 282.416 298.231 282.7 297.88L284.1 299.17C283.415 299.928 282.522 300.467 281.531 300.717C280.541 300.968 279.498 300.92 278.536 300.578C277.573 300.237 276.733 299.618 276.121 298.8C275.51 297.981 275.154 297 275.1 295.98V296Z" fill="#263238"/>
<path d="M291.55 298.66H287.18L286.35 300.66H284.12L288.31 291.24H290.46L294.67 300.66H292.38L291.55 298.66ZM290.87 297.01L289.37 293.4L287.88 297L290.87 297.01Z" fill="#263238"/>
<path d="M304.28 291.26V300.68H302.49L297.8 295V300.72H295.65V291.3H297.45L302.13 297.02V291.3L304.28 291.26Z" fill="#263238"/>
<path d="M308.45 293H305.45V291.22H313.65V293H310.65V300.64H308.47L308.45 293Z" fill="#263238"/>
<path d="M323.16 306C323.16 306 323.16 305.88 323.16 305.64C323.16 305.4 323.16 305.06 323.16 304.64C323.16 303.73 323.16 302.41 323.16 300.71C323.16 297.27 323.16 292.28 323.08 285.98L323.23 286.13L244.73 286.24C244.84 286.12 244.46 286.5 244.98 285.98V305.98L244.72 305.73L300.72 305.84L317.23 305.91H321.69H322.85H323.25C323.127 305.92 323.003 305.92 322.88 305.91H321.75H317.35L300.9 305.98L244.74 306.1H244.49V306C244.49 302.77 244.49 299.47 244.49 296.13V285.92C245.01 285.4 244.64 285.77 244.76 285.66L323.26 285.76H323.42V285.92C323.42 292.26 323.35 297.28 323.33 300.74C323.33 302.43 323.33 303.74 323.33 304.64V305.64C323.287 305.766 323.23 305.887 323.16 306Z" fill="#263238"/>
<path d="M369 218.91C369 217.627 369.51 216.396 370.418 215.488C371.325 214.58 372.556 214.07 373.84 214.07C375.124 214.07 376.355 214.58 377.262 215.488C378.17 216.396 378.68 217.627 378.68 218.91C378.68 220.194 378.17 221.425 377.262 222.333C376.355 223.24 375.124 223.75 373.84 223.75C372.556 223.75 371.325 223.24 370.418 222.333C369.51 221.425 369 220.194 369 218.91Z" fill="#FF8C00"/>
<path d="M304.098 195V177.984H307.098L308.394 181.464V195H304.098ZM315.834 195L305.898 182.376L307.098 177.984L317.058 190.608L315.834 195ZM315.834 195L314.73 191.424V177.984H319.026V195H315.834ZM327.547 195.264C326.283 195.264 325.155 195 324.163 194.472C323.187 193.928 322.411 193.192 321.835 192.264C321.259 191.32 320.971 190.264 320.971 189.096C320.971 187.928 321.251 186.888 321.811 185.976C322.387 185.048 323.171 184.32 324.163 183.792C325.155 183.248 326.275 182.976 327.523 182.976C328.771 182.976 329.883 183.248 330.859 183.792C331.851 184.32 332.635 185.048 333.211 185.976C333.787 186.888 334.075 187.928 334.075 189.096C334.075 190.264 333.787 191.32 333.211 192.264C332.651 193.192 331.875 193.928 330.883 194.472C329.907 195 328.795 195.264 327.547 195.264ZM327.523 191.544C327.987 191.544 328.387 191.448 328.723 191.256C329.075 191.048 329.347 190.76 329.539 190.392C329.731 190.024 329.827 189.6 329.827 189.12C329.827 188.64 329.723 188.224 329.515 187.872C329.323 187.504 329.059 187.224 328.723 187.032C328.387 186.824 327.987 186.72 327.523 186.72C327.075 186.72 326.675 186.824 326.323 187.032C325.971 187.24 325.699 187.528 325.507 187.896C325.315 188.248 325.219 188.664 325.219 189.144C325.219 189.608 325.315 190.024 325.507 190.392C325.699 190.76 325.971 191.048 326.323 191.256C326.675 191.448 327.075 191.544 327.523 191.544ZM341.108 195.264C340.004 195.264 339.02 195.048 338.156 194.616C337.308 194.168 336.636 193.552 336.14 192.768C335.66 191.968 335.42 191.064 335.42 190.056V183.264H339.596V190.056C339.596 190.376 339.66 190.656 339.788 190.896C339.916 191.136 340.092 191.32 340.316 191.448C340.54 191.576 340.804 191.64 341.108 191.64C341.556 191.64 341.916 191.496 342.188 191.208C342.476 190.92 342.62 190.536 342.62 190.056V183.264H346.796V190.056C346.796 191.08 346.556 191.984 346.076 192.768C345.596 193.552 344.924 194.168 344.06 194.616C343.212 195.048 342.228 195.264 341.108 195.264ZM353.391 195.336C352.671 195.336 351.959 195.24 351.255 195.048C350.567 194.856 349.919 194.6 349.311 194.28C348.719 193.944 348.215 193.56 347.799 193.128L350.079 190.8C350.463 191.2 350.919 191.512 351.447 191.736C351.991 191.96 352.567 192.072 353.175 192.072C353.527 192.072 353.791 192.024 353.967 191.928C354.159 191.832 354.255 191.696 354.255 191.52C354.255 191.264 354.119 191.072 353.847 190.944C353.591 190.8 353.247 190.68 352.815 190.584C352.399 190.472 351.959 190.344 351.495 190.2C351.031 190.04 350.583 189.832 350.151 189.576C349.719 189.32 349.367 188.96 349.095 188.496C348.839 188.032 348.711 187.44 348.711 186.72C348.711 185.968 348.911 185.312 349.311 184.752C349.727 184.176 350.303 183.728 351.039 183.408C351.775 183.072 352.639 182.904 353.631 182.904C354.639 182.904 355.599 183.08 356.511 183.432C357.423 183.768 358.159 184.28 358.719 184.968L356.415 187.296C356.031 186.864 355.607 186.568 355.143 186.408C354.679 186.232 354.255 186.144 353.871 186.144C353.503 186.144 353.239 186.2 353.079 186.312C352.919 186.408 352.839 186.544 352.839 186.72C352.839 186.928 352.967 187.096 353.223 187.224C353.495 187.352 353.839 187.472 354.255 187.584C354.687 187.68 355.127 187.808 355.575 187.968C356.039 188.128 356.479 188.352 356.895 188.64C357.327 188.912 357.671 189.28 357.927 189.744C358.199 190.208 358.335 190.808 358.335 191.544C358.335 192.712 357.887 193.64 356.991 194.328C356.095 195 354.895 195.336 353.391 195.336ZM252.201 223V211.264H256.377V223H252.201ZM256.377 216.616L254.505 215.032C254.969 213.704 255.585 212.704 256.353 212.032C257.121 211.36 258.121 211.024 259.353 211.024C259.913 211.024 260.393 211.096 260.793 211.24C261.209 211.384 261.561 211.608 261.849 211.912L259.425 215.152C259.297 215.008 259.113 214.896 258.873 214.816C258.649 214.72 258.393 214.672 258.105 214.672C257.561 214.672 257.137 214.84 256.833 215.176C256.529 215.496 256.377 215.976 256.377 216.616ZM268.277 223.264C266.965 223.264 265.805 223.008 264.797 222.496C263.789 221.968 262.997 221.24 262.421 220.312C261.845 219.384 261.557 218.32 261.557 217.12C261.557 215.936 261.837 214.888 262.397 213.976C262.957 213.048 263.717 212.32 264.677 211.792C265.653 211.248 266.749 210.976 267.965 210.976C269.149 210.976 270.197 211.232 271.109 211.744C272.037 212.24 272.757 212.936 273.269 213.832C273.797 214.712 274.061 215.72 274.061 216.856C274.061 217.096 274.045 217.344 274.013 217.6C273.997 217.84 273.949 218.12 273.869 218.44L263.525 218.488V215.8L272.213 215.728L270.341 216.904C270.325 216.248 270.229 215.712 270.053 215.296C269.877 214.864 269.621 214.536 269.285 214.312C268.949 214.088 268.525 213.976 268.013 213.976C267.485 213.976 267.029 214.104 266.645 214.36C266.261 214.616 265.965 214.976 265.757 215.44C265.549 215.904 265.445 216.464 265.445 217.12C265.445 217.792 265.557 218.368 265.781 218.848C266.005 219.312 266.325 219.664 266.741 219.904C267.157 220.144 267.669 220.264 268.277 220.264C268.853 220.264 269.357 220.168 269.789 219.976C270.237 219.784 270.637 219.488 270.989 219.088L273.173 221.272C272.597 221.928 271.893 222.424 271.061 222.76C270.245 223.096 269.317 223.264 268.277 223.264ZM281.446 223.264C280.198 223.264 279.07 223 278.062 222.472C277.07 221.944 276.286 221.216 275.71 220.288C275.134 219.36 274.846 218.312 274.846 217.144C274.846 215.96 275.134 214.904 275.71 213.976C276.302 213.048 277.094 212.32 278.086 211.792C279.094 211.248 280.23 210.976 281.494 210.976C282.406 210.976 283.238 211.128 283.99 211.432C284.742 211.736 285.43 212.192 286.054 212.8L283.414 215.44C283.174 215.2 282.894 215.024 282.574 214.912C282.27 214.784 281.91 214.72 281.494 214.72C281.046 214.72 280.638 214.824 280.27 215.032C279.918 215.224 279.63 215.496 279.406 215.848C279.198 216.2 279.094 216.624 279.094 217.12C279.094 217.6 279.198 218.024 279.406 218.392C279.63 218.744 279.918 219.024 280.27 219.232C280.638 219.44 281.046 219.544 281.494 219.544C281.942 219.544 282.326 219.472 282.646 219.328C282.966 219.184 283.246 218.976 283.486 218.704L286.15 221.344C285.494 221.984 284.782 222.464 284.014 222.784C283.262 223.104 282.406 223.264 281.446 223.264ZM287.662 223V211.264H291.838V223H287.662ZM291.838 216.616L289.965 215.032C290.43 213.704 291.046 212.704 291.814 212.032C292.582 211.36 293.582 211.024 294.814 211.024C295.374 211.024 295.854 211.096 296.254 211.24C296.67 211.384 297.022 211.608 297.31 211.912L294.886 215.152C294.758 215.008 294.574 214.896 294.334 214.816C294.11 214.72 293.854 214.672 293.566 214.672C293.022 214.672 292.598 214.84 292.294 215.176C291.99 215.496 291.838 215.976 291.838 216.616ZM303.491 223.264C302.387 223.264 301.403 223.048 300.539 222.616C299.691 222.168 299.019 221.552 298.523 220.768C298.043 219.968 297.803 219.064 297.803 218.056V211.264H301.979V218.056C301.979 218.376 302.043 218.656 302.171 218.896C302.299 219.136 302.475 219.32 302.699 219.448C302.923 219.576 303.187 219.64 303.491 219.64C303.939 219.64 304.299 219.496 304.571 219.208C304.859 218.92 305.003 218.536 305.003 218.056V211.264H309.179V218.056C309.179 219.08 308.939 219.984 308.459 220.768C307.979 221.552 307.307 222.168 306.443 222.616C305.595 223.048 304.611 223.264 303.491 223.264ZM312.918 223V206.416H317.094V223H312.918ZM310.326 214.744V211.264H319.686V214.744H310.326ZM326.75 223.264C325.486 223.264 324.358 223 323.366 222.472C322.39 221.928 321.614 221.192 321.038 220.264C320.462 219.32 320.174 218.264 320.174 217.096C320.174 215.928 320.454 214.888 321.014 213.976C321.59 213.048 322.374 212.32 323.366 211.792C324.358 211.248 325.478 210.976 326.726 210.976C327.974 210.976 329.086 211.248 330.062 211.792C331.054 212.32 331.838 213.048 332.414 213.976C332.99 214.888 333.278 215.928 333.278 217.096C333.278 218.264 332.99 219.32 332.414 220.264C331.854 221.192 331.078 221.928 330.086 222.472C329.11 223 327.998 223.264 326.75 223.264ZM326.726 219.544C327.19 219.544 327.59 219.448 327.926 219.256C328.278 219.048 328.55 218.76 328.742 218.392C328.934 218.024 329.03 217.6 329.03 217.12C329.03 216.64 328.926 216.224 328.718 215.872C328.526 215.504 328.262 215.224 327.926 215.032C327.59 214.824 327.19 214.72 326.726 214.72C326.278 214.72 325.878 214.824 325.526 215.032C325.174 215.24 324.902 215.528 324.71 215.896C324.518 216.248 324.422 216.664 324.422 217.144C324.422 217.608 324.518 218.024 324.71 218.392C324.902 218.76 325.174 219.048 325.526 219.256C325.878 219.448 326.278 219.544 326.726 219.544ZM342.543 223V216.376C342.543 215.832 342.383 215.408 342.063 215.104C341.743 214.784 341.335 214.624 340.839 214.624C340.503 214.624 340.199 214.696 339.927 214.84C339.671 214.984 339.471 215.184 339.327 215.44C339.183 215.696 339.111 216.008 339.111 216.376L337.479 215.608C337.479 214.664 337.687 213.856 338.103 213.184C338.519 212.496 339.087 211.968 339.807 211.6C340.543 211.216 341.375 211.024 342.303 211.024C343.151 211.024 343.903 211.224 344.559 211.624C345.231 212.008 345.759 212.528 346.143 213.184C346.527 213.84 346.719 214.584 346.719 215.416V223H342.543ZM334.935 223V211.264H339.111V223H334.935ZM353.391 223.336C352.671 223.336 351.959 223.24 351.255 223.048C350.567 222.856 349.919 222.6 349.311 222.28C348.719 221.944 348.215 221.56 347.799 221.128L350.079 218.8C350.463 219.2 350.919 219.512 351.447 219.736C351.991 219.96 352.567 220.072 353.175 220.072C353.527 220.072 353.791 220.024 353.967 219.928C354.159 219.832 354.255 219.696 354.255 219.52C354.255 219.264 354.119 219.072 353.847 218.944C353.591 218.8 353.247 218.68 352.815 218.584C352.399 218.472 351.959 218.344 351.495 218.2C351.031 218.04 350.583 217.832 350.151 217.576C349.719 217.32 349.367 216.96 349.095 216.496C348.839 216.032 348.711 215.44 348.711 214.72C348.711 213.968 348.911 213.312 349.311 212.752C349.727 212.176 350.303 211.728 351.039 211.408C351.775 211.072 352.639 210.904 353.631 210.904C354.639 210.904 355.599 211.08 356.511 211.432C357.423 211.768 358.159 212.28 358.719 212.968L356.415 215.296C356.031 214.864 355.607 214.568 355.143 214.408C354.679 214.232 354.255 214.144 353.871 214.144C353.503 214.144 353.239 214.2 353.079 214.312C352.919 214.408 352.839 214.544 352.839 214.72C352.839 214.928 352.967 215.096 353.223 215.224C353.495 215.352 353.839 215.472 354.255 215.584C354.687 215.68 355.127 215.808 355.575 215.968C356.039 216.128 356.479 216.352 356.895 216.64C357.327 216.912 357.671 217.28 357.927 217.744C358.199 218.208 358.335 218.808 358.335 219.544C358.335 220.712 357.887 221.64 356.991 222.328C356.095 223 354.895 223.336 353.391 223.336Z" fill="#455A64"/>
<path d="M278.91 135.66L277.91 114.41C277.871 113.571 277.526 112.775 276.94 112.172C276.354 111.57 275.568 111.203 274.73 111.14C273.849 111.072 272.975 111.345 272.289 111.904C271.604 112.462 271.16 113.263 271.05 114.14L268.36 135.44C268.318 135.818 268.356 136.199 268.471 136.561C268.586 136.923 268.777 137.256 269.03 137.539C269.283 137.822 269.592 138.049 269.939 138.204C270.285 138.359 270.66 138.44 271.04 138.44H276.22C276.58 138.438 276.936 138.363 277.267 138.222C277.598 138.08 277.898 137.874 278.148 137.615C278.399 137.356 278.595 137.05 278.726 136.714C278.857 136.379 278.919 136.02 278.91 135.66Z" fill="#E0E0E0"/>
<path d="M269.28 99.1104C269.618 98.1434 270.236 97.2984 271.054 96.6822C271.873 96.066 272.855 95.7064 273.878 95.6488C274.901 95.5912 275.918 95.8382 276.801 96.3586C277.683 96.8789 278.391 97.6493 278.836 98.5722C279.281 99.4951 279.442 100.529 279.299 101.544C279.156 102.558 278.715 103.507 278.033 104.271C277.35 105.035 276.457 105.58 275.465 105.836C274.473 106.092 273.427 106.049 272.46 105.71C271.818 105.486 271.226 105.137 270.719 104.684C270.211 104.231 269.798 103.682 269.503 103.069C269.208 102.456 269.036 101.791 268.998 101.112C268.959 100.433 269.055 99.7526 269.28 99.1104Z" fill="#E0E0E0"/>
<path d="M223.29 162.51L210.91 152C210.419 151.589 209.795 151.371 209.155 151.385C208.515 151.4 207.902 151.647 207.43 152.08C206.935 152.537 206.635 153.167 206.592 153.839C206.549 154.511 206.767 155.174 207.2 155.69L217.68 168.27C217.868 168.494 218.101 168.675 218.363 168.802C218.626 168.929 218.913 169 219.205 169.008C219.497 169.017 219.787 168.963 220.057 168.852C220.326 168.74 220.569 168.572 220.77 168.36L223.46 165.47C223.649 165.268 223.795 165.029 223.889 164.768C223.983 164.508 224.024 164.231 224.008 163.954C223.992 163.677 223.92 163.407 223.797 163.159C223.673 162.91 223.501 162.69 223.29 162.51Z" fill="#F5F5F5"/>
<path d="M197.89 148.88C197.512 148.181 197.351 147.384 197.428 146.593C197.504 145.802 197.815 145.051 198.32 144.437C198.825 143.823 199.502 143.374 200.263 143.146C201.025 142.918 201.837 142.923 202.597 143.159C203.356 143.395 204.027 143.852 204.526 144.471C205.024 145.091 205.327 145.844 205.395 146.636C205.463 147.429 205.293 148.223 204.907 148.918C204.522 149.614 203.938 150.178 203.23 150.54C202.3 151.016 201.22 151.108 200.222 150.798C199.224 150.488 198.387 149.799 197.89 148.88Z" fill="#F5F5F5"/>
<path d="M212.79 113.09L231.79 145.33C232.541 146.605 233.733 147.561 235.14 148.018C236.548 148.475 238.073 148.401 239.43 147.81C240.857 147.189 241.991 146.044 242.597 144.611C243.204 143.178 243.237 141.567 242.69 140.11L229.38 104.75C229.142 104.121 228.772 103.549 228.296 103.072C227.82 102.596 227.249 102.226 226.619 101.987C225.99 101.748 225.317 101.645 224.645 101.685C223.972 101.725 223.317 101.908 222.72 102.22L214.65 106.46C214.082 106.762 213.581 107.177 213.177 107.678C212.773 108.18 212.476 108.758 212.302 109.377C212.128 109.997 212.081 110.646 212.165 111.284C212.249 111.922 212.462 112.537 212.79 113.09Z" fill="#E0E0E0"/>
<path d="M257.81 162.06C258.079 163.844 257.813 165.668 257.045 167.3C256.277 168.933 255.043 170.301 253.497 171.232C251.952 172.163 250.165 172.614 248.363 172.529C246.561 172.444 244.824 171.827 243.373 170.755C241.922 169.683 240.821 168.205 240.211 166.507C239.6 164.81 239.506 162.969 239.941 161.219C240.377 159.468 241.322 157.886 242.656 156.672C243.991 155.458 245.656 154.668 247.44 154.4C249.831 154.042 252.266 154.647 254.211 156.084C256.155 157.52 257.45 159.67 257.81 162.06Z" fill="#E0E0E0"/>
<path d="M598.77 466.63C598.77 464.75 598.68 297.94 598.55 43.4602L598.77 43.6802L136 43.7202L136.26 43.4602C136.26 197.62 136.26 342.58 136.26 466.63L136.04 466.4L598.81 466.63L136 466.86H135.77V466.63C135.77 342.63 135.77 197.63 135.77 43.4602V43.2002H136.07H598.8H599V43.4202C598.86 297.94 598.77 464.75 598.77 466.63Z" fill="#263238"/>
<path d="M148.86 61.1703C150.975 61.1703 152.69 59.4555 152.69 57.3403C152.69 55.225 150.975 53.5103 148.86 53.5103C146.745 53.5103 145.03 55.225 145.03 57.3403C145.03 59.4555 146.745 61.1703 148.86 61.1703Z" fill="white"/>
<path d="M162.02 61.1703C164.135 61.1703 165.85 59.4555 165.85 57.3403C165.85 55.225 164.135 53.5103 162.02 53.5103C159.905 53.5103 158.19 55.225 158.19 57.3403C158.19 59.4555 159.905 61.1703 162.02 61.1703Z" fill="white"/>
<path d="M175.18 61.1703C177.295 61.1703 179.01 59.4555 179.01 57.3403C179.01 55.225 177.295 53.5103 175.18 53.5103C173.065 53.5103 171.35 55.225 171.35 57.3403C171.35 59.4555 173.065 61.1703 175.18 61.1703Z" fill="white"/>
<path d="M421.56 137C418.319 136.185 415.184 134.994 412.22 133.45C413.866 133.762 415.471 134.266 417 134.95C418.595 135.452 420.126 136.14 421.56 137Z" fill="#455A64"/>
<path d="M408.77 157.14C407.77 157.03 405.07 158.37 402.82 161.04L402.71 161.16C401.12 162.95 400.13 157.45 400.03 155.42C400.003 155.105 399.905 154.8 399.744 154.527C399.583 154.255 399.363 154.022 399.1 153.847C398.837 153.671 398.537 153.557 398.224 153.512C397.911 153.468 397.592 153.494 397.29 153.59L390.29 156.27L388.29 156.2C387.803 156.33 387.383 156.639 387.114 157.066C386.845 157.492 386.747 158.004 386.84 158.5L389.32 169.39L389.19 172.31L402.59 175.09L403.31 167.81C403.57 166.98 403.91 166 404.31 164.89C404.713 163.887 405.285 162.96 406 162.15C406.784 161.228 407.662 160.39 408.62 159.65L408.85 159.52C409.006 159.445 409.145 159.34 409.26 159.21C409.433 159.07 409.563 158.884 409.634 158.674C409.706 158.464 409.717 158.237 409.666 158.021C409.615 157.804 409.504 157.607 409.345 157.451C409.186 157.295 408.987 157.187 408.77 157.14Z" fill="#FFBE9D"/>
<path d="M405.83 126.44C405.83 126.44 397.83 125.44 385.83 115.88C373.83 106.32 367.3 92.7198 365.96 92.8798C364.62 93.0398 358.46 90.8798 349.55 116.34C340.64 141.8 345.55 147.02 347.81 146.77C350.07 146.52 364.81 140.86 374.35 141.05C383.89 141.24 396.53 145.05 396.53 145.05L405.83 126.44Z" fill="#FF8C00"/>
<path d="M423.73 138.16L421.53 143.49L420.53 145.88C419.881 147.458 418.651 148.727 417.093 149.425C415.536 150.123 413.77 150.196 412.16 149.63L394.81 145.36L402.49 122.11L420.11 129.47C421.74 130.145 423.036 131.439 423.715 133.067C424.393 134.696 424.399 136.527 423.73 138.16Z" fill="#263238"/>
<path d="M416.89 146L411.08 156.3L408.43 155.45L390.3 169L385.79 159.2C385.79 159.2 396.34 155.2 398.42 151.55C400.5 147.9 398.31 147.01 398.31 147.01L403.41 141.66L416.89 146Z" fill="#263238"/>
<path d="M350.47 116.73C345.75 130.5 344.37 142.5 347.4 143.54C350.43 144.58 356.7 134.25 361.4 120.48C366.1 106.71 367.5 94.71 364.47 93.67C361.44 92.63 355.19 103 350.47 116.73Z" fill="#263238"/>
<path d="M425.86 145.37L421.17 144.37L423.49 138.74L427.1 140.54L425.86 145.37Z" fill="#455A64"/>
<path d="M420.47 140.27C420.41 140.43 418.06 139.76 415.21 138.78C413.452 138.28 411.752 137.593 410.14 136.73C411.94 137.045 413.703 137.544 415.4 138.22C417.157 138.724 418.856 139.411 420.47 140.27Z" fill="#455A64"/>
<path d="M419 143.79C419 143.87 418.44 143.79 417.55 143.61L415.99 143.25C415.41 143.1 414.8 142.86 414.15 142.64C412.55 142.174 411.017 141.501 409.59 140.64C409.65 140.48 411.77 141.19 414.35 142.1C414.99 142.33 415.59 142.58 416.16 142.76C416.73 142.94 417.23 143.08 417.65 143.23C418.51 143.49 419 143.71 419 143.79Z" fill="#455A64"/>
<path d="M362.35 112.64C362.35 112.64 355.14 109.06 352.28 118.64C349.42 128.22 356.73 129 356.73 129C359.37 123.841 361.262 118.332 362.35 112.64Z" fill="#FAFAFA"/>
<path d="M368.56 101C368.576 101.598 368.543 102.197 368.46 102.79C368.35 103.93 368.2 105.59 367.95 107.64C367.76 108.64 367.54 109.76 367.32 110.95C367.2 111.54 367.08 112.16 366.96 112.79C366.89 113.11 366.83 113.43 366.77 113.79C366.71 114.15 366.59 114.44 366.5 114.79L365.34 118.9C365.24 119.26 365.13 119.62 365.03 119.98C364.93 120.34 364.77 120.69 364.65 121.06L363.83 123.24C363.56 123.97 363.28 124.7 363.01 125.42C362.87 125.78 362.76 126.14 362.6 126.48L362.12 127.48L360.29 131.35C360.15 131.65 360.01 131.96 359.85 132.25C359.69 132.54 359.53 132.83 359.36 133.11L358.42 134.74C357.81 135.74 357.25 136.74 356.73 137.65C355.57 139.35 354.6 140.7 353.93 141.65C353.606 142.149 353.241 142.62 352.84 143.06C353.094 142.521 353.395 142.006 353.74 141.52L356.38 137.43L358 134.5L358.91 132.87L359.38 132.02C359.54 131.73 359.67 131.42 359.81 131.11C360.38 129.88 360.98 128.59 361.59 127.26L362.06 126.26C362.22 125.92 362.33 125.55 362.47 125.2C362.74 124.49 363.01 123.76 363.28 123.03L364.1 120.87C364.22 120.51 364.38 120.16 364.48 119.8C364.58 119.44 364.69 119.08 364.79 118.73L365.98 114.65C366.07 114.33 366.18 114.01 366.25 113.65C366.32 113.29 366.39 113.01 366.45 112.65C366.59 112.03 366.71 111.42 366.84 110.83C367.09 109.65 367.33 108.56 367.54 107.55C367.83 105.55 368.07 103.91 368.23 102.74C368.296 102.153 368.406 101.571 368.56 101Z" fill="#263238"/>
<path d="M395.07 151.38C394.706 151.518 394.407 151.788 394.233 152.136C394.059 152.485 394.022 152.886 394.13 153.26C394.54 154.77 395.22 157.13 395.75 158.58C395.898 159.052 396.132 159.493 396.44 159.88C396.592 160.067 396.793 160.209 397.021 160.288C397.249 160.367 397.494 160.382 397.73 160.33C397.969 160.228 398.176 160.064 398.329 159.855C398.482 159.645 398.576 159.398 398.6 159.14C398.64 158.613 398.579 158.084 398.42 157.58C398.08 156.18 397.42 154.07 396.92 152.35C396.87 152.159 396.781 151.981 396.66 151.826C396.538 151.671 396.385 151.542 396.212 151.449C396.039 151.355 395.848 151.298 395.651 151.281C395.455 151.264 395.257 151.287 395.07 151.35V151.38Z" fill="#FFBE9D"/>
<path d="M392.83 154C392.464 154.136 392.163 154.405 391.987 154.754C391.811 155.102 391.772 155.504 391.88 155.88C392.3 157.39 392.98 159.75 393.51 161.19C393.651 161.666 393.882 162.11 394.19 162.5C394.342 162.687 394.543 162.828 394.771 162.908C394.999 162.987 395.244 163.002 395.48 162.95C395.721 162.852 395.931 162.689 396.084 162.479C396.238 162.268 396.33 162.019 396.35 161.76C396.397 161.234 396.339 160.703 396.18 160.2C395.83 158.8 395.18 156.68 394.68 154.96C394.63 154.769 394.541 154.591 394.42 154.436C394.298 154.281 394.145 154.152 393.972 154.058C393.799 153.965 393.608 153.908 393.411 153.891C393.215 153.874 393.017 153.897 392.83 153.96V154Z" fill="#FFBE9D"/>
<path d="M390.73 155.53C390.404 155.638 390.133 155.868 389.975 156.173C389.816 156.477 389.782 156.831 389.88 157.16C390.26 158.46 390.88 160.52 391.36 161.77C391.496 162.178 391.706 162.558 391.98 162.89C392.121 163.056 392.304 163.18 392.51 163.251C392.716 163.321 392.937 163.335 393.15 163.29C393.361 163.211 393.545 163.076 393.685 162.9C393.824 162.724 393.912 162.513 393.94 162.29C393.971 161.834 393.917 161.376 393.78 160.94C393.46 159.72 392.89 157.94 392.4 156.4C392.288 156.068 392.05 155.794 391.738 155.637C391.425 155.48 391.063 155.452 390.73 155.56V155.53Z" fill="#FFBE9D"/>
<path d="M388.08 155.93C387.754 156.038 387.482 156.268 387.322 156.572C387.162 156.875 387.125 157.23 387.22 157.56C387.61 158.87 388.22 160.94 388.72 162.19C388.848 162.608 389.059 162.995 389.34 163.33C389.475 163.522 389.667 163.665 389.89 163.74C390.112 163.815 390.352 163.816 390.575 163.745C390.799 163.674 390.993 163.533 391.131 163.343C391.268 163.153 391.342 162.924 391.34 162.69C391.373 162.233 391.315 161.774 391.17 161.34C390.85 160.11 390.28 158.27 389.79 156.77C389.736 156.604 389.649 156.45 389.535 156.318C389.421 156.185 389.282 156.077 389.125 155.999C388.969 155.921 388.799 155.874 388.625 155.862C388.45 155.851 388.275 155.873 388.11 155.93H388.08Z" fill="#FFBE9D"/>
<path d="M396.29 159.93C395.738 159.114 395.335 158.207 395.1 157.25C394.701 156.35 394.474 155.383 394.43 154.4C394.989 155.212 395.392 156.121 395.62 157.08C396.025 157.978 396.253 158.946 396.29 159.93Z" fill="#EB996E"/>
<path d="M393.89 162C393.305 161.049 392.879 160.008 392.63 158.92C392.206 157.888 391.956 156.793 391.89 155.68C392.475 156.631 392.901 157.671 393.15 158.76C393.579 159.79 393.829 160.886 393.89 162Z" fill="#EB996E"/>
<path d="M391.53 162.16C390.908 161.374 390.465 160.463 390.23 159.49C389.821 158.576 389.626 157.58 389.66 156.58C390.151 157.437 390.518 158.359 390.75 159.32C391.152 160.221 391.415 161.179 391.53 162.16Z" fill="#EB996E"/>
<path d="M474.91 125.79C471.1 119.35 464.22 115.17 457 113.18C454 112.35 451.9 112.58 448.77 112.93C445.651 113.193 442.726 114.55 440.51 116.76C437.794 119.356 435.778 122.596 434.65 126.18C433.544 129.861 432.78 133.638 432.37 137.46C431.965 141.305 432.629 145.188 434.29 148.68L443.67 151.82C448.97 152.82 454.34 153.82 459.67 153.39C465 152.96 470.5 150.95 473.97 146.82C478.83 141.1 478.72 132.23 474.91 125.79Z" fill="#263238"/>
<path d="M480 154C480.074 152.893 479.894 151.784 479.473 150.758C479.051 149.731 478.401 148.815 477.57 148.08C476.717 147.367 475.66 146.945 474.55 146.873C473.441 146.801 472.338 147.083 471.4 147.68L469.61 149.25C468.353 149.616 467.242 150.364 466.43 151.391C465.618 152.418 465.146 153.672 465.08 154.98C465.061 156.29 465.415 157.579 466.103 158.695C466.79 159.811 467.781 160.707 468.96 161.28C470.153 161.82 471.464 162.046 472.769 161.934C474.073 161.821 475.327 161.376 476.41 160.64C477.477 159.882 478.356 158.889 478.979 157.738C479.601 156.587 479.951 155.308 480 154Z" fill="#263238"/>
<path d="M477.08 160.24C477.54 159.728 477.824 159.084 477.89 158.4C477.829 156.729 477.295 155.109 476.35 153.73C475.465 152.298 474.314 151.049 472.96 150.05C471.96 149.27 471.18 148.93 471.22 148.85C471.917 149.028 472.573 149.341 473.15 149.77C474.614 150.723 475.847 151.99 476.76 153.48C477.263 154.297 477.663 155.174 477.95 156.09C478.221 156.841 478.317 157.645 478.23 158.44C478.161 158.983 477.927 159.493 477.56 159.9C477.3 160.18 477.1 160.26 477.08 160.24Z" fill="#455A64"/>
<path d="M472 162.38C472.499 160.272 472.681 158.102 472.54 155.94C472.239 153.799 471.608 151.718 470.67 149.77C471.126 150.236 471.486 150.786 471.73 151.39C473.121 154.24 473.475 157.487 472.73 160.57C472.6 161.213 472.353 161.827 472 162.38Z" fill="#455A64"/>
<path d="M440.49 171.93C441.07 168.56 442.36 161.33 442.36 161.35C442.36 161.37 434.63 159.28 434 148.88C433.68 143.71 434.75 135.38 435.84 128.59C436.84 122.48 443.3 114.94 450.84 116.07L454.25 116.19L466.32 123.26C467.216 123.44 468.01 123.953 468.543 124.695C469.075 125.437 469.307 126.354 469.19 127.26L462.58 170.95L443.87 207.56L439.64 181.56L440.49 171.93Z" fill="#FFBE9D"/>
<path d="M439.32 136.05C439.286 136.391 439.386 136.732 439.599 137C439.811 137.269 440.12 137.445 440.46 137.49C440.626 137.52 440.796 137.516 440.96 137.479C441.124 137.442 441.28 137.373 441.417 137.275C441.554 137.177 441.67 137.053 441.758 136.909C441.846 136.766 441.905 136.606 441.93 136.44C441.964 136.097 441.865 135.755 441.652 135.485C441.44 135.215 441.131 135.037 440.79 134.99C440.624 134.96 440.453 134.964 440.288 135.001C440.123 135.039 439.967 135.109 439.83 135.208C439.693 135.307 439.577 135.432 439.489 135.577C439.402 135.721 439.344 135.882 439.32 136.05Z" fill="#263238"/>
<path d="M437.76 132.74C437.91 132.93 438.98 132.29 440.39 132.43C441.8 132.57 442.77 133.38 442.94 133.22C443.11 133.06 442.89 132.82 442.47 132.45C441.906 131.971 441.207 131.677 440.47 131.61C439.736 131.535 438.997 131.696 438.36 132.07C437.87 132.36 437.69 132.66 437.76 132.74Z" fill="#263238"/>
<path d="M445 144.71C444.276 144.402 443.517 144.187 442.74 144.07C442.38 144 442.05 143.9 442.01 143.64C442.024 143.279 442.146 142.93 442.36 142.64C442.78 141.8 443.22 140.91 443.69 139.99C445.55 136.22 446.94 133.1 446.78 132.99C445.391 135.123 444.174 137.363 443.14 139.69L441.85 142.35C441.579 142.763 441.462 143.259 441.52 143.75C441.561 143.883 441.633 144.005 441.728 144.107C441.823 144.21 441.94 144.289 442.07 144.34C442.264 144.41 442.465 144.457 442.67 144.48C443.433 144.657 444.217 144.734 445 144.71Z" fill="#263238"/>
<path d="M442.36 161.35C447.181 161.883 452.054 161.07 456.44 159C456.44 159 452.1 165.74 441.93 163.79L442.36 161.35Z" fill="#EB996E"/>
<path d="M438.87 127.75C439.09 128.1 440.1 127.86 441.27 127.96C442.44 128.06 443.41 128.38 443.67 128.07C443.79 127.92 443.67 127.58 443.26 127.23C442.712 126.811 442.052 126.564 441.363 126.52C440.674 126.475 439.988 126.636 439.39 126.98C439 127.27 438.78 127.59 438.87 127.75Z" fill="#263238"/>
<path d="M455.49 137.08C455.447 137.421 455.273 137.733 455.004 137.948C454.735 138.163 454.393 138.264 454.05 138.23C453.882 138.22 453.718 138.176 453.567 138.102C453.416 138.028 453.282 137.925 453.171 137.798C453.06 137.672 452.976 137.525 452.922 137.365C452.869 137.206 452.848 137.037 452.86 136.87C452.9 136.527 453.074 136.214 453.344 135.999C453.613 135.783 453.957 135.683 454.3 135.72C454.468 135.73 454.632 135.773 454.783 135.847C454.934 135.921 455.069 136.025 455.179 136.151C455.29 136.278 455.374 136.425 455.428 136.584C455.481 136.744 455.502 136.912 455.49 137.08Z" fill="#263238"/>
<path d="M456.48 133.92C456.29 134.07 455.4 133.2 453.99 133.01C452.58 132.82 451.46 133.39 451.33 133.2C451.2 133.01 451.47 132.83 451.96 132.56C452.629 132.219 453.387 132.093 454.13 132.2C454.861 132.299 455.543 132.624 456.08 133.13C456.46 133.52 456.57 133.85 456.48 133.92Z" fill="#263238"/>
<path d="M456.27 129.1C455.98 129.38 455.05 128.92 453.89 128.75C452.73 128.58 451.7 128.67 451.52 128.31C451.44 128.13 451.64 127.83 452.11 127.59C452.732 127.293 453.433 127.202 454.11 127.33C454.795 127.43 455.431 127.741 455.93 128.22C456.3 128.61 456.4 129 456.27 129.1Z" fill="#263238"/>
<path d="M467 141.58L465 143.13C458.51 134.7 446.44 114.23 447.1 115.44C450.749 114.679 454.53 114.841 458.1 115.91C463.6 117.74 473.89 122.2 472.71 128.84C471.53 135.48 467 141.58 467 141.58Z" fill="#263238"/>
<path d="M471.24 148.11C471.271 147.567 471.331 147.026 471.42 146.49C471.577 145.025 471.603 143.549 471.5 142.08C471.092 137.222 469.506 132.537 466.88 128.43C464.211 124.354 460.937 120.709 457.17 117.62C455.73 116.42 454.54 115.49 453.7 114.85C453.258 114.541 452.834 114.207 452.43 113.85C452.43 113.85 452.57 113.85 452.8 114.05C453.03 114.25 453.38 114.42 453.8 114.72C454.67 115.31 455.9 116.2 457.37 117.38C461.246 120.417 464.594 124.073 467.28 128.2C469.95 132.365 471.516 137.142 471.83 142.08C471.908 143.57 471.831 145.065 471.6 146.54C471.53 147.06 471.41 147.45 471.36 147.73C471.34 147.862 471.3 147.99 471.24 148.11Z" fill="#455A64"/>
<path d="M456.86 114.08C456.994 114.131 457.122 114.198 457.24 114.28C457.49 114.42 457.84 114.63 458.29 114.92C459.18 115.5 460.46 116.37 461.97 117.55C463.73 118.936 465.41 120.421 467 122C469.019 123.873 470.802 125.985 472.31 128.29C473.076 129.509 473.672 130.828 474.08 132.21C474.451 133.511 474.64 134.857 474.64 136.21C474.629 138.463 474.292 140.703 473.64 142.86C473.09 144.7 472.53 146.14 472.13 147.13C471.93 147.62 471.76 148 471.65 148.26C471.594 148.392 471.528 148.519 471.45 148.64C471.59 148.079 471.774 147.531 472 147C472.34 146 472.85 144.54 473.35 142.71C473.958 140.579 474.267 138.375 474.27 136.16C474.249 134.86 474.057 133.569 473.7 132.32C473.297 130.981 472.715 129.703 471.97 128.52C470.479 126.252 468.734 124.162 466.77 122.29C465.18 120.719 463.511 119.231 461.77 117.83C460.3 116.63 459.05 115.72 458.19 115.1C457.723 114.792 457.278 114.451 456.86 114.08Z" fill="#455A64"/>
<path d="M467.15 141.77C466.862 141.462 466.604 141.127 466.38 140.77L464.38 137.91C462.75 135.49 460.52 132.12 458.09 128.38C455.66 124.64 453.47 121.25 451.91 118.77L450.08 115.83C449.844 115.477 449.637 115.106 449.46 114.72C449.751 115.025 450.009 115.361 450.23 115.72L452.23 118.58C453.86 121 456.09 124.37 458.53 128.11C460.97 131.85 463.15 135.25 464.71 137.72L466.54 140.67C466.78 141.015 466.985 141.383 467.15 141.77Z" fill="#455A64"/>
<path d="M465.09 144.28C465.17 143.52 466.23 141.8 466.99 141.76C468.99 141.64 472.65 142.15 472.18 147.27C471.55 154.27 464.67 152.18 464.67 151.98C464.67 151.78 464.83 146.91 465.09 144.28Z" fill="#FFBE9D"/>
<path d="M466.6 149.35C466.6 149.35 466.71 149.45 466.91 149.56C467.048 149.636 467.199 149.684 467.355 149.701C467.511 149.718 467.669 149.704 467.82 149.66C468.298 149.417 468.702 149.051 468.991 148.599C469.279 148.147 469.441 147.626 469.46 147.09C469.528 146.49 469.463 145.882 469.27 145.31C469.224 145.088 469.124 144.881 468.979 144.707C468.835 144.532 468.649 144.396 468.44 144.31C468.303 144.263 468.154 144.265 468.018 144.314C467.882 144.363 467.766 144.457 467.69 144.58C467.58 144.77 467.61 144.91 467.58 144.92C467.55 144.93 467.44 144.79 467.52 144.51C467.571 144.34 467.681 144.195 467.83 144.1C467.931 144.035 468.044 143.99 468.163 143.97C468.281 143.949 468.403 143.953 468.52 143.98C468.804 144.06 469.062 144.213 469.269 144.423C469.476 144.634 469.624 144.894 469.7 145.18C469.949 145.815 470.032 146.503 469.94 147.18C469.77 148.59 468.94 149.84 467.94 150.04C467.747 150.079 467.549 150.074 467.358 150.025C467.168 149.977 466.991 149.886 466.84 149.76C466.6 149.52 466.58 149.36 466.6 149.35Z" fill="#EB996E"/>
<path d="M481.51 403.08C481.37 404.18 478.66 434.93 478.66 434.93H464.57L462.1 403.21L481.51 403.08Z" fill="#FFBE9D"/>
<path d="M464.53 430.35C464.53 430.35 474.43 437.35 479.21 431.3L480.47 434.24L486.09 455.24C486.283 455.897 486.229 456.603 485.938 457.224C485.647 457.844 485.139 458.337 484.51 458.61C484.028 458.801 483.5 458.851 482.99 458.754C482.48 458.657 482.008 458.416 481.63 458.06C477.56 454.18 462.63 439.87 462.81 437.93L462.86 432.78C462.869 432.256 463.032 431.747 463.329 431.317C463.626 430.886 464.044 430.553 464.53 430.36V430.35Z" fill="#FF8C00"/>
<path d="M484 458.74L462.8 436.13V437.25C462.775 437.713 462.852 438.175 463.025 438.606C463.197 439.036 463.462 439.423 463.8 439.74C465.52 442.05 470.27 447.23 481.54 458.05C481.863 458.36 482.257 458.585 482.688 458.706C483.119 458.826 483.573 458.838 484.01 458.74H484Z" fill="#263238"/>
<path d="M465.91 432.77C466.238 433.009 466.465 433.361 466.55 433.757C466.635 434.154 466.571 434.568 466.37 434.92C466.143 435.257 465.796 435.494 465.4 435.583C465.004 435.673 464.589 435.607 464.24 435.4C463.894 435.145 463.654 434.771 463.568 434.35C463.481 433.929 463.553 433.491 463.77 433.12C464.041 432.794 464.428 432.586 464.85 432.54C465.271 432.493 465.694 432.611 466.03 432.87" fill="white"/>
<path d="M477.91 447.16C478.544 446.325 479.332 445.619 480.23 445.08C481.186 444.7 482.202 444.497 483.23 444.48C483.23 444.42 482.92 444.21 482.3 444.13C481.482 444.037 480.654 444.186 479.92 444.56C479.177 444.918 478.558 445.489 478.14 446.2C477.88 446.74 477.84 447.14 477.91 447.16Z" fill="#263238"/>
<path d="M479.81 450.71C480.569 450.276 481.354 449.888 482.16 449.55C483.016 449.387 483.881 449.273 484.75 449.21C484.83 449.07 483.55 448.52 481.99 449C480.43 449.48 479.67 450.64 479.81 450.71Z" fill="#263238"/>
<path d="M474.37 442.61C475.486 441.859 476.656 441.19 477.87 440.61C479.157 440.197 480.474 439.886 481.81 439.68C481.81 439.53 479.87 439.17 477.65 440.07C476.29 440.5 475.127 441.4 474.37 442.61Z" fill="#263238"/>
<path d="M473.89 436.22C473.97 436.38 475.43 435.76 477.34 435.69C479.25 435.62 480.76 436.06 480.82 435.9C479.745 435.32 478.531 435.044 477.311 435.1C476.09 435.156 474.908 435.543 473.89 436.22Z" fill="#263238"/>
<path d="M478.43 435.63C478.45 435.29 478.398 434.949 478.28 434.63C478.017 433.744 477.582 432.918 477 432.2C476.622 431.633 476.066 431.207 475.42 430.99C475.201 430.938 474.972 430.954 474.763 431.036C474.554 431.118 474.375 431.263 474.25 431.45C474.036 431.833 473.969 432.281 474.06 432.71C474.285 433.582 474.808 434.348 475.539 434.874C476.27 435.4 477.162 435.653 478.06 435.59C478.941 435.515 479.78 435.18 480.47 434.628C481.161 434.076 481.672 433.332 481.94 432.49C482.006 432.277 482.025 432.052 481.996 431.831C481.966 431.61 481.889 431.398 481.77 431.21C481.64 431.024 481.45 430.888 481.231 430.824C481.013 430.761 480.78 430.773 480.57 430.86C479.954 431.121 479.417 431.538 479.01 432.07C478.411 432.77 477.937 433.568 477.61 434.43C477.464 434.743 477.386 435.084 477.38 435.43C477.872 434.32 478.526 433.288 479.32 432.37C479.693 431.93 480.166 431.587 480.7 431.37C480.816 431.325 480.943 431.32 481.062 431.354C481.181 431.389 481.286 431.461 481.36 431.56C481.432 431.688 481.475 431.831 481.485 431.978C481.495 432.125 481.473 432.272 481.42 432.41C481.155 433.122 480.692 433.743 480.087 434.202C479.481 434.661 478.757 434.937 478 435C477.244 435.044 476.495 434.831 475.876 434.395C475.257 433.959 474.804 433.326 474.59 432.6C474.518 432.304 474.553 431.992 474.69 431.72C474.754 431.613 474.851 431.529 474.966 431.481C475.081 431.432 475.209 431.421 475.33 431.45C475.871 431.639 476.342 431.987 476.68 432.45C477.446 433.399 478.038 434.475 478.43 435.63Z" fill="#263238"/>
<path d="M404.14 393.07L406.57 432.33L423.63 432.21L426.51 391.42L404.14 393.07Z" fill="#FFBE9D"/>
<path d="M406.26 427.59V428.73C406.26 428.73 387 436.38 386.76 440H424.96L424.42 427.29C421.592 428.641 418.506 429.368 415.373 429.419C412.239 429.471 409.131 428.847 406.26 427.59Z" fill="#FF8C00"/>
<path d="M420.56 431.34C420.928 431.451 421.241 431.695 421.441 432.023C421.64 432.352 421.711 432.742 421.64 433.12C421.543 433.491 421.308 433.81 420.982 434.013C420.657 434.216 420.266 434.286 419.89 434.21C419.5 434.091 419.168 433.832 418.958 433.483C418.747 433.134 418.673 432.72 418.75 432.32C418.892 431.943 419.175 431.636 419.538 431.462C419.902 431.289 420.318 431.263 420.7 431.39" fill="white"/>
<path d="M425 440L424.87 436.95L388.31 438.11C388.31 438.11 386.61 438.85 386.8 440.04L425 440Z" fill="#263238"/>
<path d="M406.11 428.84C406.11 429.02 407.05 429.1 407.97 429.7C408.89 430.3 409.38 431.09 409.55 431.01C409.72 430.93 409.44 429.86 408.32 429.16C407.2 428.46 406.07 428.66 406.11 428.84Z" fill="#263238"/>
<path d="M402.11 430.5C402.11 430.68 402.87 430.99 403.51 431.78C404.15 432.57 404.33 433.4 404.51 433.4C404.69 433.4 404.82 432.33 404.01 431.4C403.2 430.47 402.11 430.32 402.11 430.5Z" fill="#263238"/>
<path d="M399.84 435.29C400.01 435.29 400.27 434.4 399.84 433.38C399.41 432.36 398.48 431.95 398.4 432.11C398.32 432.27 398.87 432.81 399.25 433.65C399.63 434.49 399.65 435.28 399.84 435.29Z" fill="#263238"/>
<path d="M426.51 271.57C426 273.04 405.77 341.57 405.77 341.57L402.29 422.9L427.47 424.35L436.47 343.15L459.47 292.36L449.36 251.04H428.8L426.51 271.57Z" fill="#263238"/>
<path d="M444.43 251.06C444.79 252.06 457.7 298.56 457.7 298.56L459.49 367.9V425.27H482.44L493.13 298.75C493.13 298.75 495.02 275.75 491.79 268.02C488.56 260.29 475.48 246.71 475.48 246.71L444.43 251.06Z" fill="#263238"/>
<path d="M446.28 255.82C446.495 256.346 446.668 256.887 446.8 257.44C447.13 258.57 447.57 260.07 448.09 261.88C449.25 265.71 450.79 270.88 452.5 276.51C454.21 282.14 455.58 287.51 456.38 291.3C456.8 293.22 457.07 294.78 457.23 295.86C457.343 296.416 457.407 296.982 457.42 297.55C457.25 297.01 457.12 296.459 457.03 295.9C456.81 294.83 456.48 293.28 456.03 291.39C455.14 287.58 453.7 282.39 452.03 276.66C450.36 270.93 448.78 265.76 447.77 261.98C447.26 260.09 446.87 258.56 446.63 257.49C446.465 256.944 446.348 256.386 446.28 255.82Z" fill="#455A64"/>
<path d="M454.2 255.82C453.631 256.002 453.13 256.35 452.76 256.82C452.582 257.073 452.471 257.367 452.436 257.674C452.401 257.982 452.444 258.293 452.56 258.58C452.699 258.926 452.932 259.226 453.232 259.447C453.532 259.668 453.889 259.8 454.26 259.83C454.634 259.835 455.001 259.736 455.321 259.543C455.641 259.35 455.9 259.072 456.07 258.74C456.216 258.468 456.293 258.163 456.293 257.855C456.293 257.546 456.216 257.242 456.07 256.97C455.751 256.457 455.284 256.052 454.73 255.81C454.73 255.81 454.93 255.76 455.26 255.87C455.726 256.042 456.121 256.366 456.38 256.79C456.592 257.105 456.718 257.47 456.744 257.85C456.77 258.229 456.697 258.608 456.53 258.95C456.337 259.383 456.018 259.748 455.614 259.997C455.21 260.247 454.741 260.368 454.267 260.347C453.793 260.325 453.337 260.161 452.957 259.876C452.578 259.591 452.293 259.199 452.14 258.75C452.009 258.393 451.972 258.009 452.033 257.633C452.095 257.258 452.252 256.906 452.49 256.61C452.792 256.212 453.218 255.927 453.7 255.8C454 255.75 454.2 255.79 454.2 255.82Z" fill="#455A64"/>
<path d="M474.57 289.22C474.583 289.336 474.583 289.453 474.57 289.57C474.57 289.83 474.57 290.16 474.57 290.57C474.57 291.51 474.57 292.83 474.57 294.51C474.57 297.94 474.57 302.89 474.46 309.01C474.28 321.25 473.73 338.14 473.01 356.8C472.29 375.46 471.69 392.36 471.41 404.59C471.27 410.71 471.18 415.66 471.13 419.08C471.13 420.76 471.13 422.08 471.07 423.02C471.07 423.44 471.07 423.773 471.07 424.02C471.115 424.027 471.155 424.051 471.182 424.087C471.21 424.123 471.223 424.167 471.219 424.212C471.216 424.257 471.195 424.299 471.162 424.33C471.129 424.36 471.085 424.377 471.04 424.377C470.995 424.377 470.951 424.36 470.918 424.33C470.885 424.299 470.865 424.257 470.861 424.212C470.857 424.167 470.87 424.123 470.898 424.087C470.926 424.051 470.966 424.027 471.01 424.02C471.01 423.76 471.01 423.42 471.01 423.02C471.01 422.08 471.01 420.76 471.01 419.08C471.01 415.65 471.01 410.7 471.12 404.58C471.31 392.34 471.85 375.44 472.57 356.78C473.29 338.12 473.89 321.23 474.17 309C474.31 302.88 474.41 297.93 474.45 294.51C474.45 292.83 474.5 291.51 474.51 290.57C474.51 290.14 474.51 289.81 474.51 289.57C474.515 289.451 474.535 289.333 474.57 289.22Z" fill="#455A64"/>
<path d="M439.16 280.87C439.134 280.989 439.097 281.107 439.05 281.22L438.66 282.22C438.29 283.15 437.77 284.47 437.11 286.16C435.74 289.6 433.77 294.53 431.33 300.61C428.89 306.69 426.11 314.03 423.45 322.29C420.412 331.195 418.284 340.385 417.1 349.72C416.57 354.72 416.34 359.6 416.04 364.31C415.74 369.02 415.54 373.58 415.3 377.92C414.85 386.59 414.45 394.4 414.11 400.98C413.77 407.56 413.41 412.85 413.11 416.51C412.96 418.32 412.85 419.73 412.77 420.73C412.72 421.19 412.69 421.55 412.66 421.82C412.652 421.947 412.635 422.074 412.61 422.2C412.597 422.073 412.597 421.946 412.61 421.82C412.61 421.55 412.61 421.18 412.66 420.72C412.72 419.72 412.8 418.31 412.91 416.5C413.12 412.83 413.4 407.5 413.71 400.96C414.02 394.42 414.39 386.57 414.79 377.9C415.02 373.56 415.25 369 415.5 364.28C415.75 359.56 416.02 354.67 416.55 349.67C417.757 340.307 419.918 331.092 423 322.17C425.69 313.9 428.56 306.61 431 300.51C433.44 294.41 435.52 289.51 436.93 286.12C437.63 284.44 438.18 283.12 438.57 282.21L439.01 281.21C439.048 281.091 439.098 280.977 439.16 280.87Z" fill="#455A64"/>
<path d="M473.78 169.2C473.78 169.2 487.43 171.75 490.43 174.25C493.43 176.75 520.77 212.41 521.34 219.61C521.91 226.81 518.58 229.45 516.69 231.16C514.8 232.87 482.12 255 482.12 255L472.07 238.33L500.31 221.46L486.68 198.15L473.78 169.2Z" fill="#FF8C00"/>
<path d="M509.43 215.12C507.52 215.408 505.679 216.045 504 217C502.413 218.097 501.038 219.473 499.94 221.06C500.067 220.483 500.323 219.943 500.69 219.48C501.488 218.304 502.523 217.308 503.729 216.555C504.934 215.803 506.283 215.31 507.69 215.11C508.263 214.979 508.859 214.982 509.43 215.12Z" fill="#FF8C00"/>
<path d="M440.7 170.93L444.32 203.77L462.79 166.77L474.7 178.87C474.7 178.87 482.01 222.12 482.12 222.43C482.23 222.74 477.12 247.17 477.12 247.17L443.27 253.72L432.94 251.09L431.31 212.62L430.59 183.16L440.7 170.93Z" fill="white"/>
<path d="M436.31 172.33L427.52 174.33C426.346 174.601 425.254 175.154 424.34 175.94C416.84 182.36 400.62 195.94 400.62 195.94L403.62 171.84L388 170.39C388 170.39 383.32 200.77 383.8 208.76C384.37 218.04 392.69 220.32 404.8 215.33C412.285 212.326 419.529 208.756 426.47 204.65L436.31 172.33Z" fill="#FF8C00"/>
<path d="M485.33 198.28L483.72 227.08L485.34 232.68C485.34 232.68 500.5 261.3 503 280.25L484.24 283.25C484.24 283.25 479.12 258.8 475.52 246.68C471.92 234.56 461.27 229.46 457.67 217C455.502 209.882 454.731 202.411 455.4 195C455.4 194.24 462.79 166.76 462.79 166.76L464.11 161.02L470.75 167.33L487.8 173L485.33 198.28Z" fill="#FF8C00"/>
<g opacity="0.3">
<path d="M494.27 251.84C491.169 254.236 487.926 256.443 484.56 258.45C484.36 258.55 484.1 258.66 483.81 258.77C483.135 259.018 482.392 259.016 481.719 258.762C481.045 258.509 480.485 258.022 480.14 257.39C479.74 256.66 479.33 255.89 479.06 255.31C478.37 253.82 477.62 252.03 476.95 250.48L479.06 249.97L482.12 255.04L490.94 249.04L492.62 247.89L494.27 251.84Z" fill="black"/>
</g>
<path d="M440.86 167.69L436.76 171.98L426.93 175.43C426.93 175.43 424.53 204.43 425.83 210.61C427.09 216.55 429.49 223.77 429.69 232.3C429.89 240.83 420.15 285.91 420.15 285.91L431.93 290.38C431.93 290.38 437.93 238.19 436.76 226.81C435.59 215.43 438.63 192.49 438.63 192.49L440.86 167.69Z" fill="#FF8C00"/>
<path d="M463.16 223C463.002 222.857 462.858 222.7 462.73 222.53C462.349 222.046 462.014 221.527 461.73 220.98C460.747 218.931 460.225 216.692 460.2 214.42C460.163 211.073 460.397 207.729 460.9 204.42C461.447 200.366 462.279 196.356 463.39 192.42C465.276 185.652 467.962 179.132 471.39 173L471.55 173.29L467.38 173.16H467.08L467.26 172.92L470 169.24L470.74 168.24C470.819 168.124 470.913 168.02 471.02 167.93C470.966 168.058 470.895 168.179 470.81 168.29L470.13 169.29L467.51 173.06L467.39 172.82L471.56 172.87H471.88L471.72 173.15C468.39 179.295 465.753 185.791 463.86 192.52C462.76 196.43 461.918 200.409 461.34 204.43C460.83 207.705 460.563 211.015 460.54 214.33C460.537 216.559 460.993 218.765 461.88 220.81C462.267 221.562 462.694 222.294 463.16 223Z" fill="#263238"/>
<path d="M474.7 196.41C473.139 196.934 471.514 197.244 469.87 197.33C468.244 197.577 466.592 197.597 464.96 197.39C466.565 197.084 468.189 196.89 469.82 196.81C471.434 196.556 473.066 196.422 474.7 196.41Z" fill="#263238"/>
<path d="M486.66 189.73C486.633 190.222 486.563 190.71 486.45 191.19C486.32 192.13 486.15 193.49 485.99 195.19C485.67 198.57 485.35 203.24 484.99 208.4L484.19 221.63C484.07 223.32 483.97 224.69 483.88 225.63C483.864 226.122 483.797 226.611 483.68 227.09C483.641 226.601 483.641 226.109 483.68 225.62C483.68 224.57 483.76 223.22 483.82 221.62C483.95 218.23 484.16 213.55 484.47 208.38C484.78 203.21 485.17 198.54 485.59 195.16C485.79 193.48 486.02 192.16 486.21 191.16C486.314 190.67 486.464 190.191 486.66 189.73Z" fill="#263238"/>
<path d="M508.49 222.42C508.44 222.57 506.6 221.98 504.24 221.81C501.88 221.64 499.98 221.94 499.95 221.81C501.332 221.297 502.818 221.128 504.28 221.32C505.752 221.343 507.196 221.72 508.49 222.42Z" fill="#263238"/>
<path d="M400.72 195.38C400.422 196.677 399.958 197.931 399.34 199.11C398.881 200.359 398.259 201.543 397.49 202.63C397.782 201.331 398.246 200.076 398.87 198.9C399.335 197.653 399.957 196.47 400.72 195.38Z" fill="#263238"/>
<path d="M425.24 185.77C425.38 185.77 425.61 191.43 425.74 198.42C425.87 205.41 425.87 211.08 425.74 211.08C425.61 211.08 425.37 205.42 425.23 198.43C425.09 191.44 425.1 185.78 425.24 185.77Z" fill="#263238"/>
<path d="M436.9 209.55C436.809 209.069 436.766 208.58 436.77 208.09C436.77 207.09 436.69 205.71 436.63 204.09C436.53 200.72 436.42 196.09 436.34 190.93C436.26 185.77 436.22 181.13 436.21 177.76C436.21 176.15 436.21 174.81 436.21 173.76C436.19 173.272 436.217 172.783 436.29 172.3C436.381 172.781 436.424 173.27 436.42 173.76C436.42 174.76 436.5 176.14 436.56 177.76C436.66 181.13 436.76 185.76 436.84 190.92C436.92 196.08 436.97 200.71 436.98 204.08C436.98 205.69 436.98 207.08 436.98 208.08C436.994 208.571 436.967 209.063 436.9 209.55Z" fill="#263238"/>
<path d="M510.93 235.3C510.762 235.455 510.582 235.595 510.39 235.72L508.79 236.87L502.79 241.08L482.27 255.25L482.05 255.41L481.91 255.18L477.41 247.72L471.87 238.5L471.74 238.28L471.95 238.15L492.21 226.15L498.15 222.69L499.75 221.78C499.931 221.667 500.122 221.57 500.32 221.49C500.156 221.631 499.979 221.755 499.79 221.86L498.24 222.86L492.38 226.44L472.2 238.59L472.29 238.24C474.04 241.15 475.92 244.24 477.85 247.45L482.34 254.91L481.97 254.83C490.19 249.25 497.4 244.35 502.59 240.83L508.69 236.75L510.34 235.67C510.527 235.532 510.724 235.408 510.93 235.3Z" fill="#263238"/>
<g opacity="0.3">
<path d="M461.79 220.86C461.484 216.559 461.892 212.237 463 208.07C465.584 196.379 469.834 185.121 475.62 174.64C474.948 174.269 474.177 174.116 473.414 174.202C472.651 174.288 471.933 174.609 471.36 175.12C470.238 176.171 469.369 177.463 468.82 178.9C464.406 188.327 461.617 198.433 460.57 208.79C460.312 210.779 460.261 212.79 460.42 214.79C460.62 216.89 460.62 219.09 461.92 220.74" fill="black"/>
</g>
<g opacity="0.3">
<path d="M425.21 187.87C422.1 193.27 422.51 199.77 425.48 205.25C425.48 199.25 425.48 194 425.12 187.95" fill="black"/>
</g>
<path d="M449.39 147.81C449.364 147.632 449.299 147.462 449.201 147.312C449.102 147.162 448.972 147.035 448.82 146.94C448.611 146.856 448.385 146.822 448.16 146.84C446.859 146.863 445.566 147.047 444.31 147.39L444.24 147.59C444.301 148.15 444.418 148.703 444.59 149.24C444.759 149.781 445.078 150.263 445.51 150.63C445.931 150.941 446.441 151.109 446.965 151.109C447.489 151.109 447.999 150.941 448.42 150.63C448.831 150.299 449.14 149.858 449.312 149.36C449.483 148.861 449.51 148.323 449.39 147.81Z" fill="#EB996E"/>
<path d="M445.53 150.87C446.072 150.918 446.618 150.884 447.15 150.77C447.701 150.601 448.178 150.248 448.5 149.77C448.692 149.489 448.823 149.172 448.885 148.838C448.947 148.504 448.938 148.16 448.86 147.83C448.8 147.518 448.621 147.241 448.36 147.06C448.068 146.963 447.752 146.963 447.46 147.06L445.66 147.4C445.106 147.547 444.533 147.611 443.96 147.59C444.469 147.325 445.015 147.14 445.58 147.04L447.36 146.59C447.757 146.446 448.193 146.446 448.59 146.59C448.787 146.708 448.957 146.866 449.089 147.054C449.222 147.241 449.314 147.455 449.36 147.68C449.458 148.082 449.467 148.501 449.386 148.907C449.305 149.313 449.135 149.696 448.89 150.03C448.479 150.551 447.893 150.906 447.24 151.03C446.961 151.132 446.663 151.17 446.367 151.143C446.071 151.115 445.785 151.022 445.53 150.87Z" fill="#263238"/>
<path d="M467.35 151.87C467.208 151.499 466.946 151.186 466.605 150.981C466.264 150.776 465.865 150.691 465.47 150.74C465.247 150.765 465.032 150.839 464.84 150.957C464.648 151.074 464.484 151.232 464.36 151.42C464.163 151.746 464.075 152.127 464.11 152.506C464.144 152.886 464.298 153.244 464.55 153.53C464.815 153.803 465.162 153.981 465.538 154.037C465.914 154.093 466.298 154.024 466.63 153.84C466.955 153.641 467.202 153.338 467.333 152.98C467.463 152.623 467.47 152.231 467.35 151.87Z" fill="#FAFAFA"/>
<path d="M472.51 239.36L460.94 229.11L451.17 229.95C451.17 229.95 451.51 231.55 452.86 231.8C454.21 232.05 459.09 232.14 459.09 232.14L461.38 234.41L455.55 233.83L448.14 238.2C448.14 238.2 447.97 239.55 449.91 239.2C451.835 238.731 453.721 238.113 455.55 237.35L459.86 237.6L455.16 238.28L449.07 242.57C449.475 242.991 449.987 243.293 450.551 243.443C451.115 243.592 451.71 243.585 452.27 243.42C454.21 242.83 456.56 241.9 456.56 241.9L461.87 241.39L456.56 242.74L452.61 247.63C452.984 247.891 453.429 248.03 453.885 248.03C454.341 248.03 454.786 247.891 455.16 247.63C455.941 247.081 456.693 246.49 457.41 245.86L463.3 245.6C463.3 245.6 469.81 250.32 472.07 250.83C474.33 251.34 479.07 249.96 479.07 249.96L472.51 239.36Z" fill="#FFBE9D"/>
<path d="M701.83 287.59H522.54V387.84H701.83V287.59Z" fill="#FAFAFA"/>
<path d="M701.83 387.84C701.83 387.84 701.83 387.22 701.83 386.04C701.83 384.86 701.83 383.1 701.83 380.81C701.83 376.21 701.83 369.45 701.83 360.76C701.83 343.41 701.77 318.37 701.72 287.59L701.92 287.79L522.64 287.85L522.9 287.59C522.9 323.04 522.9 356.95 522.9 387.84L522.66 387.6L651.66 387.72L688.66 387.78H698.54H701.09H701.96H701.12H698.59H688.77L651.77 387.85L522.66 387.97H522.41V387.72C522.41 356.83 522.41 322.92 522.41 287.47V287.21H522.68L701.96 287.27H702.16V287.47C702.16 318.3 702.08 343.38 702.05 360.77C702.05 369.43 702.05 376.18 702.05 380.77C702.05 383.05 702.05 384.77 702.05 385.97C702.05 387.17 701.83 387.84 701.83 387.84Z" fill="#263238"/>
<path d="M569.8 311.48H544.45V336.83H569.8V311.48Z" fill="#455A64"/>
<path d="M604.61 315C604.61 315.15 598.69 315.27 591.4 315.27C584.11 315.27 578.18 315.15 578.18 315C578.18 314.85 584.1 314.74 591.4 314.74C598.7 314.74 604.61 314.9 604.61 315Z" fill="#FF8C00"/>
<path d="M689 324.16C689 324.3 664.18 324.42 633.58 324.42C602.98 324.42 578.16 324.3 578.16 324.16C578.16 324.02 602.97 323.9 633.58 323.9C664.19 323.9 689 324 689 324.16Z" fill="#263238"/>
<path d="M651.73 334.38C651.73 334.52 635.42 334.64 615.32 334.64C595.22 334.64 578.9 334.52 578.9 334.38C578.9 334.24 595.2 334.12 615.32 334.12C635.44 334.12 651.73 334.24 651.73 334.38Z" fill="#263238"/>
<path d="M675.29 351.06H552.82C546.33 351.06 541.07 356.321 541.07 362.81C541.07 369.299 546.33 374.56 552.82 374.56H675.29C681.779 374.56 687.04 369.299 687.04 362.81C687.04 356.321 681.779 351.06 675.29 351.06Z" fill="#FF8C00"/>
<path d="M187.15 217.93H54.4399V292.13H187.15V217.93Z" fill="#FAFAFA"/>
<path d="M187.15 292.14C187.15 292.14 187.15 291.68 187.15 290.8C187.15 289.92 187.15 288.62 187.15 286.92C187.15 283.51 187.15 278.51 187.1 272.08C187.1 259.23 187.03 240.71 186.99 217.93L187.19 218.13L54.49 218.19L54.75 217.93C54.75 244.17 54.75 269.27 54.75 292.14L54.5099 291.9L149.93 292.01L177.36 292.08H184.68H186.57H187.22H186.6H184.73H177.47L150.1 292.14L54.5099 292.26H54.2V292.02C54.2 269.15 54.2 244.02 54.2 217.81V217.55H54.47L187.17 217.62H187.37V217.81C187.37 240.64 187.29 259.21 187.26 272.08C187.26 278.49 187.26 283.48 187.21 286.88C187.21 288.56 187.21 289.88 187.21 290.72C187.21 291.56 187.15 292.14 187.15 292.14Z" fill="#263238"/>
<path d="M89.4199 235.62H70.6599V254.38H89.4199V235.62Z" fill="#455A64"/>
<path d="M115.19 238.26C111.937 238.517 108.672 238.604 105.41 238.52C102.148 238.604 98.8831 238.517 95.6299 238.26C98.8828 237.996 102.148 237.91 105.41 238C108.672 237.91 111.937 237.996 115.19 238.26Z" fill="#FF8C00"/>
<path d="M177.66 245C177.66 245.15 159.3 245.26 136.66 245.26C114.02 245.26 95.6599 245.15 95.6599 245C95.6599 244.85 114.02 244.74 136.66 244.74C159.3 244.74 177.66 244.86 177.66 245Z" fill="#263238"/>
<path d="M150.06 252.57C150.06 252.71 138 252.83 123.11 252.83C108.22 252.83 96.1599 252.71 96.1599 252.57C96.1599 252.43 108.22 252.31 123.16 252.31C138.1 252.31 150.06 252.42 150.06 252.57Z" fill="#263238"/>
<path d="M167.5 264.91H76.8599C72.055 264.91 68.1599 268.803 68.1599 273.605C68.1599 278.407 72.055 282.3 76.8599 282.3H167.5C172.305 282.3 176.2 278.407 176.2 273.605C176.2 268.803 172.305 264.91 167.5 264.91Z" fill="#FF8C00"/>
<path d="M670.12 88.2998H524.52V169.71H670.12V88.2998Z" fill="#FAFAFA"/>
<path d="M670.12 169.71C670.12 169.71 670.12 169.21 670.12 168.24C670.12 167.27 670.12 165.85 670.12 163.99C670.12 160.25 670.12 154.76 670.07 147.71C670.07 133.62 670.01 113.29 669.97 88.3L670.17 88.5L524.58 88.56L524.84 88.3C524.84 117.09 524.84 144.62 524.84 169.71L524.6 169.47L629.3 169.58L659.39 169.65H667.39H669.46H667.46H659.46L629.46 169.72L524.52 170H524.28V169.76C524.28 144.67 524.28 117.14 524.28 88.35V88H524.55L670.14 88.06H670.34V88.26C670.29 113.26 670.26 133.67 670.23 147.79C670.23 154.79 670.23 160.3 670.18 164.03C670.18 165.87 670.18 167.28 670.18 168.25C670.18 169.22 670.12 169.71 670.12 169.71Z" fill="#263238"/>
<path d="M562.89 107.7H542.31V128.28H562.89V107.7Z" fill="#455A64"/>
<path d="M591.17 110.6C591.17 110.74 586.36 110.86 580.44 110.86C574.52 110.86 569.71 110.74 569.71 110.6C576.859 110.24 584.021 110.24 591.17 110.6Z" fill="#FF8C00"/>
<path d="M659.71 118C659.71 118.15 639.56 118.27 614.71 118.27C589.86 118.27 569.71 118.15 569.71 118C569.71 117.85 589.85 117.74 614.71 117.74C639.57 117.74 659.71 117.85 659.71 118Z" fill="#263238"/>
<path d="M629.43 126.3C629.43 126.44 616.19 126.56 599.86 126.56C583.53 126.56 570.29 126.44 570.29 126.3C570.29 126.16 583.53 126.04 599.86 126.04C616.19 126.04 629.43 126.15 629.43 126.3Z" fill="#263238"/>
<path d="M648.56 158.92H549.11C546.58 158.92 544.153 157.915 542.364 156.126C540.575 154.337 539.57 151.91 539.57 149.38C539.57 146.85 540.575 144.423 542.364 142.634C544.153 140.845 546.58 139.84 549.11 139.84H648.56C651.09 139.84 653.517 140.845 655.306 142.634C657.095 144.423 658.1 146.85 658.1 149.38C658.1 151.91 657.095 154.337 655.306 156.126C653.517 157.915 651.09 158.92 648.56 158.92Z" fill="#FF8C00"/>
</svg>
